<svg xmlns="http://www.w3.org/2000/svg" xmlns:xlink="http://www.w3.org/1999/xlink" width="82" height="82" viewBox="0 0 82 82">
  <defs>
    <clipPath id="clip-path">
      <rect id="Rectangle_371" data-name="Rectangle 371" width="82" height="82" transform="translate(0.091 0.092)" fill="#d11a54"/>
    </clipPath>
  </defs>
  <g id="Group_301" data-name="Group 301" transform="translate(-0.091 -0.092)" clip-path="url(#clip-path)">
    <path id="Path_10424" data-name="Path 10424" d="M4.63,143.849l-.356-1.281,8.951-2.492L14.2,143.6a2.655,2.655,0,1,1-5.115,1.424l-.621-2.241Zm5.736.818a1.215,1.215,0,0,0,1.634.924,1.217,1.217,0,0,0,.923-1.637l-.622-2.241-2.557.712Z" transform="translate(-2.856 -93.52)" fill="#d11a54"/>
    <path id="Path_10425" data-name="Path 10425" d="M13.1,162.778l.583,1.194,5.962-2.92-.583-1.195,1.192-.584,1.166,2.389-7.154,3.5.583,1.194-1.192.584-1.749-3.583Z" transform="translate(-7.96 -106.337)" fill="#d11a54"/>
    <path id="Path_10426" data-name="Path 10426" d="M25.206,180.415a3.06,3.06,0,0,1,4.444.42c.791,1.067.388,2.2-.944,3.186l2.131-1.585.791,1.067L26.3,187.465,25.51,186.4l2.13-1.585c-1.332.99-2.526,1.052-3.318-.016a3.072,3.072,0,0,1,.883-4.383m.38,3.857c.594.8,1.522.937,2.587.145s1.2-1.722.609-2.523a1.992,1.992,0,1,0-3.2,2.378" transform="translate(-15.867 -119.948)" fill="#d11a54"/>
    <path id="Path_10427" data-name="Path 10427" d="M32.6,200.2l.887-.989a4.6,4.6,0,0,0,1.285,2.049,1.565,1.565,0,0,0,2.342-.126l1.551-1.731a1.992,1.992,0,1,1-2.962-2.664l2.659-2.967.987.888-2.216,2.473a1.328,1.328,0,1,0,1.975,1.776l2.216-2.473.987.888-4.211,4.7a2.97,2.97,0,0,1-4.216.227A4.6,4.6,0,0,1,32.6,200.2" transform="translate(-21.786 -129.367)" fill="#d11a54"/>
    <path id="Path_10428" data-name="Path 10428" d="M116.893,226.333l-1.327.012-.085-9.306,3.65-.034a2.659,2.659,0,0,1,.049,5.318l-2.323.021Zm2.274-5.339a1.33,1.33,0,0,0-.025-2.659l-2.323.021.024,2.66Z" transform="translate(-77.165 -144.881)" fill="#d11a54"/>
    <path id="Path_10429" data-name="Path 10429" d="M137.066,223.285l1.3-.252-1.258-6.526-1.3.252-.252-1.306,2.606-.5,1.509,7.831,1.3-.251.252,1.3-3.909.756Z" transform="translate(-90.58 -143.508)" fill="#d11a54"/>
    <path id="Path_10430" data-name="Path 10430" d="M154.52,220.136a3.071,3.071,0,0,1,1.569-4.187c1.236-.485,2.217.2,2.823,1.748l-.969-2.476,1.236-.486,2.423,6.19-1.236.486-.969-2.476c.606,1.547.351,2.719-.885,3.2a3.063,3.063,0,0,1-3.992-2m3.817.644c.927-.364,1.3-1.226.818-2.464s-1.345-1.614-2.272-1.25a1.994,1.994,0,0,0,1.454,3.714" transform="translate(-103.064 -143.365)" fill="#d11a54"/>
    <path id="Path_10431" data-name="Path 10431" d="M176.922,214.443l-.724-1.115a4.58,4.58,0,0,0,2.309-.713,1.572,1.572,0,0,0,.485-2.3l-1.268-1.95a1.992,1.992,0,1,1-3.337,2.177l-2.173-3.343,1.112-.726,1.811,2.786a1.328,1.328,0,1,0,2.224-1.451l-1.811-2.786,1.113-.726,3.441,5.292a2.983,2.983,0,0,1-.873,4.14,4.587,4.587,0,0,1-2.309.713" transform="translate(-115.073 -136.397)" fill="#d11a54"/>
    <path id="Path_10432" data-name="Path 10432" d="M221.122,145.763l-.332,1.287-8.994-2.329.913-3.539a2.654,2.654,0,1,1,5.139,1.33l-.581,2.252Zm-4.558-3.583a1.327,1.327,0,1,0-2.57-.665l-.581,2.252,2.569.665Z" transform="translate(-141.523 -92.922)" fill="#d11a54"/>
    <path id="Path_10433" data-name="Path 10433" d="M224.315,129.978l.094-1.326-6.62-.469-.093,1.326-1.324-.093.187-2.653,7.944.563L224.6,126l1.324.094-.281,3.978Z" transform="translate(-144.58 -84.121)" fill="#d11a54"/>
    <path id="Path_10434" data-name="Path 10434" d="M227.4,107.855a3.065,3.065,0,0,1-3.628-2.6c-.147-1.321.769-2.092,2.418-2.276l-2.638.294-.146-1.321,6.594-.736.147,1.321-2.638.295c1.648-.184,2.711.366,2.858,1.687a3.067,3.067,0,0,1-2.967,3.341m1.611-3.524c-.11-.991-.843-1.578-2.162-1.431s-1.905.882-1.795,1.873a1.991,1.991,0,1,0,3.957-.442" transform="translate(-149.282 -67.572)" fill="#d11a54"/>
    <path id="Path_10435" data-name="Path 10435" d="M227.5,82.98l-1.263.408a4.6,4.6,0,0,0-.082-2.418,1.567,1.567,0,0,0-2.089-1.072l-2.211.714a1.994,1.994,0,0,1,1.223,3.8l-3.79,1.224-.408-1.265,3.159-1.021a1.33,1.33,0,0,0-.815-2.531l-3.159,1.021-.407-1.265,6-1.939a2.973,2.973,0,0,1,3.76,1.929,4.6,4.6,0,0,1,.081,2.418" transform="translate(-145.439 -52.4)" fill="#d11a54"/>
  </g>
</svg>
