<svg height="492.808" viewBox="0 0 492.805 492.808" width="492.805" xmlns="http://www.w3.org/2000/svg"><path d="m165.59 33.6a11.186 11.186 0 0 0 -7.754 3.281l-50.949 50.951a11.206 11.206 0 0 0 0 15.84l176.37 176.3-176.37 176.37a11.2 11.2 0 0 0 0 15.836l50.949 50.949a11.2 11.2 0 0 0 15.84 0l176.3-176.37 176.37 176.37a11.2 11.2 0 0 0 15.836 0l50.949-50.949a11.2 11.2 0 0 0 0-15.836l-176.37-176.37 176.37-176.3a11.206 11.206 0 0 0 0-15.84l-50.949-50.949a11.2 11.2 0 0 0 -15.836 0l-176.37 176.37-176.3-176.37a11.212 11.212 0 0 0 -8.086-3.283z" fill="#0e0e0e" fill-rule="evenodd" transform="translate(-103.605 -33.601)"/></svg>