<svg xmlns="http://www.w3.org/2000/svg" width="219" height="35" viewBox="0 0 219 35">
  <path id="Obsesso_logo" data-name="Obsesso logo" d="M4421.593-9744.322a17.591,17.591,0,0,1-7.248-4.082q1.749-2.2,3.482-4.378c.454-.57.46-.57,1.032-.118a15.2,15.2,0,0,0,4.357,2.6,9.586,9.586,0,0,0,5.453.294,1.435,1.435,0,0,0,.146-.046,2.9,2.9,0,0,0,2.2-2.354,2.924,2.924,0,0,0-1.488-3.177,31.722,31.722,0,0,0-3.506-1.586,33.418,33.418,0,0,1-6.306-2.985,8.3,8.3,0,0,1-3.944-6.818,9.164,9.164,0,0,1,2.6-7.256,9.915,9.915,0,0,1,5.345-2.719,16.331,16.331,0,0,1,10.849,1.605,19.366,19.366,0,0,1,2.5,1.806.371.371,0,0,1,.091.354c-1.176,1.616-2.369,3.22-3.565,4.834-.822-.5-1.594-.989-2.389-1.446a8.623,8.623,0,0,0-3.329-1.19,7.675,7.675,0,0,0-3.2.1,2.714,2.714,0,0,0-2.044,2,2.746,2.746,0,0,0,1.005,2.908,14.056,14.056,0,0,0,3.648,1.959,41.66,41.66,0,0,1,5.557,2.467,10,10,0,0,1,4.115,4.07,9.011,9.011,0,0,1,.668,6.276c-.9,3.765-3.382,6.024-7.091,7.07a14.575,14.575,0,0,1-3.976.544A18.248,18.248,0,0,1,4421.593-9744.322Zm-57.147-.2a17.333,17.333,0,0,1-6.248-3.575,3.248,3.248,0,0,0-.379-.242l3.949-4.962c1.02.7,2.008,1.405,3.03,2.065a9.726,9.726,0,0,0,6.8,1.367,5.2,5.2,0,0,0,1.455-.5,2.927,2.927,0,0,0,.666-4.709,8.125,8.125,0,0,0-2.256-1.35c-1.715-.7-3.451-1.352-5.156-2.078a14.487,14.487,0,0,1-4.55-2.847,8.251,8.251,0,0,1-2.465-6.209,8.936,8.936,0,0,1,3.033-7.047,10.427,10.427,0,0,1,5.416-2.433,16.82,16.82,0,0,1,10.107,1.545,11.7,11.7,0,0,1,2.789,1.981c.138.128.167.221.052.375q-1.761,2.358-3.513,4.723a.676.676,0,0,1-.1.079c-.274-.184-.558-.383-.849-.571a11.716,11.716,0,0,0-4.82-2.074,7.4,7.4,0,0,0-3.238.111,2.658,2.658,0,0,0-1.893,1.688,2.74,2.74,0,0,0,.662,2.992,8.662,8.662,0,0,0,2.654,1.636c1.33.576,2.685,1.093,4.021,1.655a17.834,17.834,0,0,1,4.664,2.682,8.3,8.3,0,0,1,3.087,5.966,9.531,9.531,0,0,1-2.182,7.05,9.76,9.76,0,0,1-4.841,2.993,14.5,14.5,0,0,1-4.24.623A18.914,18.914,0,0,1,4364.446-9744.523Zm-67.461-1.247a16.625,16.625,0,0,1-8.542-11.254,21.427,21.427,0,0,1-.229-2.264c-.069.434-.138.866-.209,1.3v-5.066c.055.439.111.878.165,1.317l.04,0c.025-.256.066-.511.068-.768a12.041,12.041,0,0,1,1.4-5.171,16.963,16.963,0,0,1,12.13-9.416,14.434,14.434,0,0,1,2.338-.232,16.727,16.727,0,0,1,15.587,7.6,15.832,15.832,0,0,1,2.751,10.363,16.34,16.34,0,0,1-4.508,10.219,17.149,17.149,0,0,1-10.486,5.354,17.224,17.224,0,0,1-2.342.162A16.811,16.811,0,0,1,4296.985-9745.771Zm-2.2-14.959a10.283,10.283,0,0,0,10.484,10.466,10.531,10.531,0,0,0,10.6-10.239,10.561,10.561,0,0,0-9.781-10.627c-.278-.017-.553-.026-.823-.026A10.31,10.31,0,0,0,4294.787-9760.729Zm148.89,12.962c-.244-.2-.472-.407-.73-.633l3.422-4.3c.031-.039.064-.076.1-.116.418-.537.4-.517.977-.107.911.645,1.821,1.3,2.776,1.879a9.687,9.687,0,0,0,6.509,1.175,4.707,4.707,0,0,0,1.252-.41,2.957,2.957,0,0,0,.687-4.918,11.531,11.531,0,0,0-3.2-1.669,47.049,47.049,0,0,1-5.8-2.472,10.035,10.035,0,0,1-4-3.458,9.117,9.117,0,0,1-1.034-7.073,8.8,8.8,0,0,1,6.663-6.8,16.062,16.062,0,0,1,11.815,1.276,11.529,11.529,0,0,1,2.792,2.056l-3.7,5.018c-.523-.338-1.01-.672-1.511-.974a10.559,10.559,0,0,0-4.217-1.685,7.677,7.677,0,0,0-3.2.1,2.654,2.654,0,0,0-1.964,1.85,2.581,2.581,0,0,0,.818,2.911,14.442,14.442,0,0,0,2.568,1.557c1.368.644,2.8,1.151,4.188,1.743a17.678,17.678,0,0,1,4.341,2.489,8.464,8.464,0,0,1,3.266,6.835,9.18,9.18,0,0,1-2.855,6.941,10.289,10.289,0,0,1-5.763,2.71,19.785,19.785,0,0,1-2.885.217A17.54,17.54,0,0,1,4443.677-9747.768Zm44.312,4.1a17,17,0,0,1-16.487-16.822,16.95,16.95,0,0,1,15.349-16.808,17.116,17.116,0,0,1,12.911,3.78,16.026,16.026,0,0,1,6.082,11.7c.052-.229.106-.478.162-.725v3.65c-.038-.1-.075-.2-.123-.334a17.028,17.028,0,0,1-17.048,15.573C4488.553-9743.645,4488.272-9743.65,4487.989-9743.664Zm-9.654-16.188a10.28,10.28,0,0,0,10.557,9.52c5.358-.067,10.458-4.534,10.374-10.377a10.484,10.484,0,0,0-10.547-10.373h-.189C4482.693-9771.084,4477.989-9766.327,4478.335-9759.853Zm-90.1,15.727q.009-10.02,0-20.04c0-.316.117-.41.423-.406,1.1.016,2.2.016,3.305.02h.725a3.708,3.708,0,0,0-.287-.648c-1.174-1.619-2.344-3.238-3.549-4.834a2.677,2.677,0,0,1-.612-1.743c.036-1.935.019-3.872.022-5.81h22.879v6.759h-16.41c.209.313.375.581.56.834,1.27,1.735,2.535,3.472,3.824,5.194a.75.75,0,0,0,.534.234c2.725.013,5.448,0,8.172,0,.512,0,.51,0,.51.513q0,2.87,0,5.738c0,.469,0,.461-.489.459q-5.7-.022-11.4-.034c-.154,0-.306.008-.458.016-.189.013-.379.022-.566.017-.291-.015-.37.1-.368.365.006,2.048,0,4.1,0,6.146v.888h15.9c.013.108.029.178.029.247,0,2-.016,4-.006,6,0,.368-.1.484-.487.484q-8.567-.023-17.134-.017c-1.569,0-3.141,0-4.71.017h-.02C4388.326-9743.729,4388.239-9743.819,4388.239-9744.126Zm-49.633.382c-.6-.008-1.207-.017-1.809-.01-2.987.029-5.978.01-8.964.01-.085,0-.171-.012-.277-.021v-20.105h5.545c-.165-.3-.269-.545-.42-.759q-1.25-1.778-2.519-3.546c-.77-1.074-1.565-2.137-2.307-3.231a1.954,1.954,0,0,1-.308-1c-.031-1.724-.014-3.45-.014-5.177h15.125l-.9.153c.825.125,1.62.188,2.386.371a10.6,10.6,0,0,1,4.3,2.041,7.862,7.862,0,0,1,2.758,4.635,7.732,7.732,0,0,1-1.278,6.239,8.767,8.767,0,0,1-2.9,2.533c-.117.065-.224.145-.412.267.167.076.256.123.352.159a11.289,11.289,0,0,1,3.426,1.955,6.587,6.587,0,0,1,2.216,4.009,11.107,11.107,0,0,1-.114,4.656,8.179,8.179,0,0,1-4.981,5.547,16.462,16.462,0,0,1-4.388,1.118,23.33,23.33,0,0,1-3.129.175C4339.537-9743.729,4339.071-9743.736,4338.605-9743.744Zm-4.363-14.25a1.079,1.079,0,0,0-.021.147c0,2.511,0,5.018-.007,7.528,0,.263.115.3.346.3,2.04-.011,4.079-.007,6.117-.017a7.969,7.969,0,0,0,2.623-.334,3.49,3.49,0,0,0,2.365-1.984,5.982,5.982,0,0,0,.218-2.057,2.958,2.958,0,0,0-.889-2.178,4.6,4.6,0,0,0-3.414-1.386c-1.021-.024-2.044-.031-3.069-.031C4337.1-9758.007,4335.677-9757.994,4334.243-9757.994Zm.331-13.609-.088.132a5.759,5.759,0,0,0,.281.579c.1.171.246.314.363.478,1.457,2,2.964,3.961,4.339,6.01a1.472,1.472,0,0,0,1.83.68,3.579,3.579,0,0,0,3-2.784,8.668,8.668,0,0,0,.056-1.632,3.191,3.191,0,0,0-1.767-2.806,5.071,5.071,0,0,0-2.327-.6c-1.53-.048-3.06-.042-4.592-.056-.182,0-.364,0-.545,0Zm154.11,14.966a4.039,4.039,0,0,1-3.961-3.915,4.036,4.036,0,0,1,4.069-3.92,4.029,4.029,0,0,1,3.934,3.865,3.965,3.965,0,0,1-4.026,3.97Zm-183.356-.07a3.89,3.89,0,0,1-3.957-3.949,3.9,3.9,0,0,1,3.936-3.735,3.907,3.907,0,0,1,3.9,3.849,3.9,3.9,0,0,1-3.871,3.836Zm.445-20.792c-.753-.008-1.507-.057-2.261-.088h3.574c-.419.029-.836.089-1.253.089Zm181.306-.088h0Z" transform="translate(-4287.505 9778.088)" fill="#1a1818" stroke="rgba(0,0,0,0)" stroke-width="1"/>
</svg>
