<svg xmlns="http://www.w3.org/2000/svg" width="87" height="91" viewBox="0 0 87 91">
  <path id="Path_10421" data-name="Path 10421" d="M1182.105-12295.937c0-4.393,2.957-8.555,8.221-8.555a7.768,7.768,0,0,1,6.264,2.7,9.063,9.063,0,0,1,1.926,5.7,1.6,1.6,0,0,1-.378,1.26,1.376,1.376,0,0,1-1.032.338h-10.587a3.811,3.811,0,0,0,3.851,3.671,3.619,3.619,0,0,0,3.263-1.613,1.169,1.169,0,0,1,1.06-.554h2.441a.722.722,0,0,1,.622.247.783.783,0,0,1,.168.537,4.557,4.557,0,0,1-1.122,2.4,8.485,8.485,0,0,1-6.448,2.674C1185.275-12287.137,1182.105-12291.253,1182.105-12295.937Zm4.445-1.829h7.583a3.635,3.635,0,0,0-3.792-3.3A3.6,3.6,0,0,0,1186.55-12297.766Zm-35.676,7.8a3.643,3.643,0,0,1-.713-2.075,1.06,1.06,0,0,1,.181-.658.849.849,0,0,1,.744-.294h1.882a1.61,1.61,0,0,1,.819.139c.347.2.425.462.651.813a2.569,2.569,0,0,0,1.047.938,4.642,4.642,0,0,0,2.063.446c1.457,0,2.822-.446,2.822-1.751,0-.845-.85-1.136-1.807-1.383l-3.473-.889a6.845,6.845,0,0,1-3.489-1.846,3.979,3.979,0,0,1-1.075-2.778c0-3.2,2.729-5.19,6.884-5.19a8.277,8.277,0,0,1,5.432,1.764,3.777,3.777,0,0,1,1.426,2.613,1.049,1.049,0,0,1-.2.707.767.767,0,0,1-.622.214h-1.716a2.038,2.038,0,0,1-.938-.123c-.4-.216-.3-.49-.806-1.028a3.437,3.437,0,0,0-2.579-.876c-1.757,0-2.517.691-2.517,1.551,0,.892.666,1.151,2.094,1.521l3.442.89a5.823,5.823,0,0,1,3.458,2.028,4.349,4.349,0,0,1,.866,2.7c0,4.115-4.2,5.391-7.234,5.391A8.223,8.223,0,0,1,1150.875-12289.963Zm-17.958-5.974c0-4.393,2.957-8.555,8.221-8.555a7.7,7.7,0,0,1,6.233,2.7,9.051,9.051,0,0,1,1.928,5.7,1.59,1.59,0,0,1-.381,1.26,1.372,1.372,0,0,1-1.031.338H1137.33a3.811,3.811,0,0,0,3.854,3.671,3.615,3.615,0,0,0,3.26-1.613,1.171,1.171,0,0,1,1.063-.554h2.441a.724.724,0,0,1,.622.247.794.794,0,0,1,.166.537,4.557,4.557,0,0,1-1.122,2.4,8.483,8.483,0,0,1-6.446,2.674C1136.086-12287.137,1132.916-12291.253,1132.916-12295.937Zm4.445-1.829h7.583a3.635,3.635,0,0,0-3.792-3.3A3.6,3.6,0,0,0,1137.361-12297.766Zm40.1,10.322a1.233,1.233,0,0,1-1.016-.447,1.426,1.426,0,0,1-.3-.922v-20.1a1.425,1.425,0,0,1,.3-.921,1.228,1.228,0,0,1,1.016-.447h1.806a1.228,1.228,0,0,1,1.016.447,1.425,1.425,0,0,1,.3.921v20.1a1.426,1.426,0,0,1-.3.922,1.233,1.233,0,0,1-1.016.447Zm-4.929,0a5.373,5.373,0,0,1-4.155-1.474,5.4,5.4,0,0,1-1.519-4.179v-7.662h-.848a1.1,1.1,0,0,1-.744-.247,1,1,0,0,1-.288-.8v-1.062a1,1,0,0,1,.288-.8,1.1,1.1,0,0,1,.744-.246h.848v-5.007a1.407,1.407,0,0,1,.306-.921,1.221,1.221,0,0,1,1.016-.447h1.713a1.228,1.228,0,0,1,1.016.447,1.422,1.422,0,0,1,.3.921v5.007h2.745a1.1,1.1,0,0,1,.744.246,1,1,0,0,1,.288.8v1.062a1,1,0,0,1-.288.8,1.1,1.1,0,0,1-.744.247h-2.76v7.356a2.585,2.585,0,0,0,.682,1.951,2.415,2.415,0,0,0,1.76.582h.184a1.1,1.1,0,0,1,.741.247,1.019,1.019,0,0,1,.319.8v1.335a1.023,1.023,0,0,1-.319.8,1.115,1.115,0,0,1-.741.245Zm-45.079,0a2.529,2.529,0,0,1-2.245-1.289c-.319-.521-8.143-14.561-8.143-14.561h-.078v14.282a1.531,1.531,0,0,1-.332,1.061,1.455,1.455,0,0,1-1.2.507h-1.41a1.449,1.449,0,0,1-1.2-.507,1.517,1.517,0,0,1-.334-1.061v-19.766a1.513,1.513,0,0,1,.334-1.058,1.442,1.442,0,0,1,1.2-.51h2.488a2.79,2.79,0,0,1,1.532.354,2.632,2.632,0,0,1,.925.984c.363.627,7.9,14.235,7.9,14.235h.075v-13.944a1.527,1.527,0,0,1,.334-1.061,1.45,1.45,0,0,1,1.2-.507h34.582a1.1,1.1,0,0,1,.744.248,1,1,0,0,1,.288.8v1.351a1,1,0,0,1-.288.8,1.1,1.1,0,0,1-.744.247H1131.4v17.83a1.518,1.518,0,0,1-.334,1.061,1.45,1.45,0,0,1-1.2.507Zm56.5-19.4a.755.755,0,0,1-.606-.231.757.757,0,0,1-.169-.566v-.8a.908.908,0,0,1,.2-.63.866.866,0,0,1,.638-.275l12.1-1.213a8.408,8.408,0,0,1,.9-.077,1,1,0,0,1,.741.29,1.4,1.4,0,0,1,.29,1.029v1.429a1.006,1.006,0,0,1-.29.8,1.1,1.1,0,0,1-.741.247Zm1.457-9.354c-1.2-6.434-2.307-13.484-2.579-15.418a3.64,3.64,0,0,1-.047-.43c0-.184.078-.339.288-.339.244,0,.319.23.425.646.456,1.873,2.2,8.63,3.354,14.082.091.43.288.6.529.6.2,0,.334-.061.578-.3l1.016-1.048a.8.8,0,0,0,.288-.659,6.975,6.975,0,0,0-.2-1.166c-.213-.969-.728-3.518-1.166-5.792a6.266,6.266,0,0,1-.122-.689.258.258,0,0,1,.256-.264c.122,0,.228.063.288.248.334,1.013,2.063,6,2.351,6.9a1.169,1.169,0,0,0,.334.521,1.037,1.037,0,0,0,.744.184h.985c.275,0,.4-.044.487-.137a.5.5,0,0,0,.15-.4,2.413,2.413,0,0,0-.166-.705l-3.276-9.491a97.246,97.246,0,0,1-13.835-12.333c-4.533-4.99-8.781-11-10.313-17.692a8.859,8.859,0,0,1-.244-1.272.25.25,0,0,1,.259-.263c.122,0,.2.045.272.215.181.415.35.813.547,1.244a62.361,62.361,0,0,0,9.994,15.911c5.37,6.159,12.028,11.148,19.718,16.431l.047-.028c-2.685-7.466-7.493-17.031-14.82-27.892a53.291,53.291,0,0,0-5.658-7.064,51.96,51.96,0,0,0-5.762-4.976,44.25,44.25,0,0,1-3.444-3.993c-1.654-1.857-3.32-3.718-6.173-3.718a4.99,4.99,0,0,0-4.808,3.287c-.244.63-.319,1.092-.516,1.459-.228.431-.682,1.152-1.122,1.937h2.078l-1.229,2.1a12.511,12.511,0,0,1,2.654-.335,3.76,3.76,0,0,1,3.626,1.781c1.075,2.134.879,6.925,2.107,10.336a26.7,26.7,0,0,0,6.417,9.582.3.3,0,0,1,.1.23.258.258,0,0,1-.272.248.241.241,0,0,1-.15-.048c-3.413-2.563-6.448-5.912-7.69-9.339-1.335-3.639-1.335-8.477-2.125-10.073-.425-.86-1.394-1.184-2.745-1.184a18.081,18.081,0,0,0-4.248.614l1.366-2.611h-2.807c.622-1.028,2.125-3.623,2.457-4.177.153-.244.319-.921.531-1.474a6.786,6.786,0,0,1,6.371-4.178c3.52,0,5.658,2.259,7.311,4.085.744.813,1.91,2.5,3.442,3.993,1.4,1.352,6.358,4.225,12,12.748,10.6,16,15.242,27.63,15.242,30.456,0,.6-.228.766-.607.766-1.213,0-3.973-1.857-5.87-3.316l-.044.032c.544,1.489,2.395,6.787,2.973,8.354a3.867,3.867,0,0,1,.288,1.335,1.331,1.331,0,0,1-.394,1.016,1.4,1.4,0,0,1-1.078.384h-2.245a2.126,2.126,0,0,0-1.8.738c-.744.735-.925.9-1.547,1.533a1.721,1.721,0,0,1-1.213.538C1186.035-12314.476,1185.625-12315.089,1185.412-12316.2Zm-61.642-2.918v-.538a1.147,1.147,0,0,1,.275-.845,1.057,1.057,0,0,1,.847-.259,6.85,6.85,0,0,0,3.382-.875,3.258,3.258,0,0,0,1.669-3.286c0-2.443-.8-3.318-4.035-4.409l1.594-.953c2.351.953,3.9,1.767,3.9,5.146a8.282,8.282,0,0,1-.031.86l.078.044c1.241-1,7.174-5.437,7.659-5.787l.835,1.12-1.669,1.336a6.934,6.934,0,0,0,4.748,1.951,12.439,12.439,0,0,0,3.533-.708,19.914,19.914,0,0,1,5.37-.659h7.083a11.268,11.268,0,0,0,6.477-1.6,23.471,23.471,0,0,0,9.281-10.43c.425.293.925.6,1.457.938a24.015,24.015,0,0,1-9.844,11.1,12.865,12.865,0,0,1-7.34,1.876h-7.114a16.618,16.618,0,0,0-4.733.551,14.8,14.8,0,0,1-4.126.784,8.8,8.8,0,0,1-6.218-2.643l-6.72,5.313a8.751,8.751,0,0,1-5.974,1.966Zm-11.194-4.867c-.06-.905-.06-1.92-.06-2.811,0-2.3.713-3.763,3.548-4.961.819-.355,4.323-1.89,6.2-2.628l-.456-.49c-2.276-2.471-3.442-3.731-3.442-5.8a14.228,14.228,0,0,1,.272-1.873c0-.554-.5-.984-.925-1.645a4.1,4.1,0,0,1-.728-1.917c0-.862.35-1.384.35-2.153,0-.566-.35-.873-.35-1.489,0-2.134,5.4-3.748,9.934-3.748l-.62,1.431c-.684,0-6.933.675-6.933,2.424,0,1.49,3.929,3.025,5.461,3.025a5.344,5.344,0,0,0,1.9-.566,5.263,5.263,0,0,1,2.123-.478c1.926,0,5.627,1.461,7.946,2.828l-.272.506a.8.8,0,0,1-.759.477,1.163,1.163,0,0,1-.394-.077c-2.107-.905-4.5-1.859-6.446-1.859a5.078,5.078,0,0,0-2.032.492,5.455,5.455,0,0,1-2.125.539,10.378,10.378,0,0,1-5.458-2.26,2.246,2.246,0,0,0-.228.953c0,1.751,3.245,4.468,6.3,5.284l.288,1.458a10.387,10.387,0,0,1-5.28-2.044,1.791,1.791,0,0,0-.2.846,2.672,2.672,0,0,0,.472,1.4c.347.551,1.985,2.439,2.244,2.733a2.038,2.038,0,0,0,1.713.938,4.7,4.7,0,0,0,1.273-.231,4.79,4.79,0,0,1,1.26-.184,8.391,8.391,0,0,1,4.051,1.459,16.82,16.82,0,0,1,4.17,3.425l-1.288,1a15.366,15.366,0,0,0-3.535-2.888,7.42,7.42,0,0,0-3.639-1.32,6.536,6.536,0,0,0-2.61.705c-2.988,1.293-7.008,2.951-7.827,3.318a3.031,3.031,0,0,0-2.092,3.332c0,.555.016,1.061.016,1.507,0,.661-.137,1.351-1.275,1.351Zm33.991-4.715.122-.522a1.368,1.368,0,0,1,.35-.721,1.062,1.062,0,0,1,.8-.216,34.976,34.976,0,0,0,6.43-.617c-.56-1.442-1.578-3.238-3.139-3.238a12.2,12.2,0,0,0-4,1.26c-1.835.8-3.672,1.721-4.307,2.073l-.835-1.138a40.481,40.481,0,0,1,4.717-2.457,13.131,13.131,0,0,1,4.764-1.535c1.97,0,3.836,2.3,4.58,4.624a23.27,23.27,0,0,0,3.048-.937c3.2-1.247,2.929-3.09,5.961-6.283a15.036,15.036,0,0,1,4.429-3.471c.319.215.925.613,1.35.874-4.02,2.151-5.658,4.793-7.493,7.771a2.522,2.522,0,0,0,.772.092c1.881,0,3.4-1.089,5.217-2.548l.062.6a4.5,4.5,0,0,1,.031.475,1.2,1.2,0,0,1-.562,1.028,9.264,9.264,0,0,1-5.28,2.092,5.029,5.029,0,0,1-1.454-.23c-3.444,2.118-8.8,3.025-14.473,3.025Zm-14.076-9.14a15.527,15.527,0,0,1-3.717.4,3.217,3.217,0,0,1-1.348-.152.76.76,0,0,1-.381-.614l-.106-.66h.653a16.173,16.173,0,0,0,4.02-.415l-.288-.614c-.775-1.657-1.319-2.335-2.457-2.335a6.165,6.165,0,0,0-2,.431,1.688,1.688,0,0,1-.5.123c-.44,0-.622-.338-.728-.813l-.06-.294a9.832,9.832,0,0,1,3.792-1.088,3.125,3.125,0,0,1,2.9,1.979c.609,1.09,1.109,2.32,1.744,3.3a6.176,6.176,0,0,0,5.386,3.212,12.606,12.606,0,0,0,5.914-1.889l.381,1.4a13.279,13.279,0,0,1-6.3,1.921A8.088,8.088,0,0,1,1132.491-12337.836Zm23.344-1.734a19.908,19.908,0,0,0-8.465,2.994l-.363-1.413a25.124,25.124,0,0,1,10.525-3.515c.091,1.763-.029,3.991,1.26,3.991,1.182,0,3.761-3.086,6.733-6.956.275.26.713.537,1.109.845l-.759,1c-2.9,3.778-5.37,7-7.4,7C1156.579-12335.624,1155.866-12337.881,1155.835-12339.57Zm33.719,2.058-.744-.523a43.322,43.322,0,0,1-6.508-5.651,32.207,32.207,0,0,1-4.339-5.851c-.378-.646-.531-.906-.531-1.121a.253.253,0,0,1,.275-.26.392.392,0,0,1,.319.2c1.576,2.01,3.367,4.007,5.111,5.9,2.229,2.4,4.611,4.883,6.824,6.928a.282.282,0,0,1,.122.23.279.279,0,0,1-.257.274A.463.463,0,0,1,1189.554-12337.513Zm-52.846-2.564c0-2.181,3.776-4.315,7.174-5.636l.881,1.151c-2.094.846-6.311,2.655-6.311,4.225,0,.552.319.95,1.594.95,2.213,0,4.6-1.089,6.8-2.18a1.357,1.357,0,0,1,.544-.153.737.737,0,0,1,.682.4l.365.507c-2.563,1.427-5.764,2.962-8.768,2.962C1137.618-12337.852,1136.708-12338.833,1136.708-12340.077Zm9.89-4.408a8.906,8.906,0,0,1,5.474-1.521,26.8,26.8,0,0,1,3.263.294,21.21,21.21,0,0,0,2.851.216,13.717,13.717,0,0,0,5.08-1.168,10.154,10.154,0,0,0,1.047,1.06,13.3,13.3,0,0,1-6.083,1.813,25.812,25.812,0,0,1-3.489-.295,21.758,21.758,0,0,0-2.851-.23,12.4,12.4,0,0,0-4.458.938Zm-10.45-2.794a41.68,41.68,0,0,1,2.957-4.377,5.81,5.81,0,0,0,1.563-3.917,6.369,6.369,0,0,1,1.8-4.715,4.926,4.926,0,0,1,3.367-1.322,6.238,6.238,0,0,1,1.578.2,6.474,6.474,0,0,0,1.485.2,9.385,9.385,0,0,0,1.944-.29l1.226-.263-1.122,2.777,2.61,1.153a10.6,10.6,0,0,0-4.354,5.867,18.585,18.585,0,0,0-.529,4.116l-.016.354a.261.261,0,0,1-.275.26.252.252,0,0,1-.257-.216,13.215,13.215,0,0,1-.441-3.331,9.223,9.223,0,0,1,3.338-6.864l-1.638-.677.7-1.69-.288.107a3.538,3.538,0,0,1-1.335.278c-.791,0-1.319-.263-2.231-.263a3.57,3.57,0,0,0-2.532,1,4.1,4.1,0,0,0-1.2,2.764c-.031.292-.031.584-.047.894a5.908,5.908,0,0,1-1.273,3.746c-.956,1.488-2.413,3.456-3.46,5.054C1137.392-12346.621,1136.436-12347.144,1136.148-12347.279Zm-3.382-11.366c1.623-1.934,2.138-2.44,2.851-3.471a11.35,11.35,0,0,0,1.547-3.732,7.75,7.75,0,0,1,1.895-4.022,5.029,5.029,0,0,1,3.5-1.4,6.052,6.052,0,0,1,2.913.813,5.47,5.47,0,0,0,2.607.431h1.625l-1.731,2.567,2.291,1.749c-3.245,1.028-3.942,1.766-4.823,2.842-.257.308-.409.46-.606.46a.224.224,0,0,1-.244-.244,1.167,1.167,0,0,1,.091-.385,5.253,5.253,0,0,1,3.079-3.119l-1.438-1.029,1.06-1.442c-.181.016-.378.031-.653.031a3.557,3.557,0,0,1-1.8-.385,5,5,0,0,0-2.138-.538,3.491,3.491,0,0,0-2.473.968,5.7,5.7,0,0,0-1.275,2.966c-.788,3.285-2.047,4.715-4.079,7.127l-.682.813a34.886,34.886,0,0,0-4.429,7.709l-.228.49c-.319-.014-.516-.014-.757-.014-.487,0-.925.029-1.229.061C1129.5-12354.007,1130.628-12356.079,1132.766-12358.646Zm19.2,6.866.728-1.413h6.448l.576,1.413Zm-39.449-6.743a3.178,3.178,0,0,1,1.819-2.857c0-1.212,1.578-3.025,5.292-3.025h.228v-.213a1.417,1.417,0,0,1-1.122-1.123,4.784,4.784,0,0,1-4.52-4.332c0-.077.015-.243.015-.243a3.5,3.5,0,0,1-1.713-3.026,3.759,3.759,0,0,1,3.745-3.794,3.554,3.554,0,0,1,2.55,1.044,5.716,5.716,0,0,1,.894-.06,4.687,4.687,0,0,1,4.445,3.592,2.065,2.065,0,0,1,1.879,1.581h.228c0-2.655,2.138-4.515,3.792-4.515a3.64,3.64,0,0,1,3.064-1.643,3.632,3.632,0,0,1,2.579,1.044,3.71,3.71,0,0,1,1.138,2.627,3.09,3.09,0,0,1-.956,2.256,1.973,1.973,0,0,1,.169.909,3.934,3.934,0,0,1-2.579,3.5c-.2,1.583-1.85,2.535-3.535,2.535-.378,0-.516-.123-.516-.323,0-.367.925-.367,1.835-1.259a3.956,3.956,0,0,0,1.063-2.013,2.753,2.753,0,0,0,2.154-2.671,4.32,4.32,0,0,0-.181-1.092,2.035,2.035,0,0,0,.819-1.659,2.033,2.033,0,0,0-2.047-2.072,2.015,2.015,0,0,0-1.85,1.2,3.629,3.629,0,0,0-3.595,3.746,3.214,3.214,0,0,0-1.032,1.906c-.091.414-.153.721-.425.721s-.319-.339-.394-.738a3.166,3.166,0,0,0-2.838-2.856,3.835,3.835,0,0,0-3.867-3.209,3.746,3.746,0,0,0-1.031.123,2.053,2.053,0,0,0-1.653-.844,2.038,2.038,0,0,0-2.032,2.072,2.047,2.047,0,0,0,1.275,1.919v.138a3.958,3.958,0,0,0,3.973,3.949,3.51,3.51,0,0,0,2.67,2.241,2.043,2.043,0,0,1,.5.138.341.341,0,0,1,.166.309.343.343,0,0,1-.181.32,1.735,1.735,0,0,1-.5.109,2.863,2.863,0,0,0-2.063,1.152,6.656,6.656,0,0,0-.788-.048c-2,0-3.61,1.03-3.748,2.552a2.074,2.074,0,0,0-1.3,1.917,1.97,1.97,0,0,0,2.048,2.074,1.981,1.981,0,0,0,1.516-.69,2.956,2.956,0,0,0,1.76.554,2.882,2.882,0,0,0,2.382-1.475,5.136,5.136,0,0,0,3.489-1.076c.378-.354.41-.553.622-.553.166,0,.244.138.244.309a1.6,1.6,0,0,1-.213.691,3.605,3.605,0,0,1-3.094,2.056,3.493,3.493,0,0,1-.35-.012,3.5,3.5,0,0,1-3.032,1.578,4.1,4.1,0,0,1-1.366-.215,3.372,3.372,0,0,1-1.988.692A3.762,3.762,0,0,1,1112.516-12358.522Zm33.125,1.291a1.7,1.7,0,0,1,.075-.522.984.984,0,0,1,1.019-.785,1.482,1.482,0,0,1,.863.264.648.648,0,0,1,.319.55c0,.662-1.091,1.431-1.638,1.431C1145.885-12356.295,1145.642-12356.678,1145.642-12357.231Zm-19.853-6.959.7-.691a26.247,26.247,0,0,1,3.914,5.594,14.392,14.392,0,0,0-1.185,1.611A38.74,38.74,0,0,0,1125.789-12364.19Zm57.8,4.38a131.013,131.013,0,0,1,14.923-6.685v1.874c-1.882.692-5.142,2.013-6.962,2.795-.259.11-.35.2-.35.339,0,.23.2.323.881.323a31.181,31.181,0,0,0,4.6-.675v1.411a25.814,25.814,0,0,1-6.917.707,13.906,13.906,0,0,0-5.171,1.321C1184.5-12358.539,1183.712-12359.658,1183.593-12359.811Zm-65.662.411c0-.106.047-.168.153-.259a11.487,11.487,0,0,1,5.762-2.442l.275.92-5.552,1.905a1.2,1.2,0,0,1-.394.123A.24.24,0,0,1,1117.931-12359.4Zm61.43-5.526a89.977,89.977,0,0,0,6.749-10.366h1.835c-.759,1.579-1.957,4.36-1.957,6.295,0,.938.334,1.6,1.516,1.6a18.565,18.565,0,0,0,4.808-1.26c1.791-.63,3.52-1.3,4.37-1.566v1.842c-.744.215-2.244.8-3.882,1.367a20.47,20.47,0,0,1-5.4,1.353,2.742,2.742,0,0,1-3.048-3.026c0-.105.016-.229.016-.336h-.244a48.343,48.343,0,0,1-3.595,5.373Zm-37.283-1.782a1.262,1.262,0,0,1,1.153-1.382,1.512,1.512,0,0,1,1.016.415.662.662,0,0,1,.241.489c0,.368-.347.723-.757.969a1.99,1.99,0,0,1-.941.307C1142.322-12365.91,1142.078-12366.2,1142.078-12366.708Zm-14.045-.2a11.976,11.976,0,0,1,1.957-3.315,16.15,16.15,0,0,1,1.638-1.643c.135-.108.213-.2.347-.2a.255.255,0,0,1,.259.244.457.457,0,0,1-.091.23c-.925,1.459-2.732,4.348-3.292,5.193Zm-9.934-4.635c-.137-.124-.168-.2-.168-.294a.228.228,0,0,1,.244-.229.561.561,0,0,1,.2.044,12.3,12.3,0,0,1,2.926,1.661,13.656,13.656,0,0,1,2.094,2.041l-.638.737C1121.966-12368.245,1119.418-12370.41,1118.1-12371.545Zm39.374.351c0-.535.272-1.5,1.26-1.5a2.152,2.152,0,0,1,.91.2c.363.168.607.415.607.675,0,.278-.275.554-.682.892a2.572,2.572,0,0,1-1.413.675C1157.624-12370.257,1157.473-12370.764,1157.473-12371.194Z" transform="translate(-1112.016 12377.637)" fill="#ce1953" stroke="rgba(0,0,0,0)" stroke-width="1"/>
</svg>
