<svg xmlns="http://www.w3.org/2000/svg" xmlns:xlink="http://www.w3.org/1999/xlink" width="80" height="80" viewBox="0 0 80 80">
  <defs>
    <clipPath id="clip-path">
      <rect id="Rectangle_129" data-name="Rectangle 129" width="80" height="80" transform="translate(0 0)" fill="#ce1953"/>
    </clipPath>
  </defs>
  <g id="Group_102" data-name="Group 102" transform="translate(0 0.005)">
    <g id="Group_101" data-name="Group 101" transform="translate(0 -0.005)">
      <path id="Path_8635" data-name="Path 8635" d="M441.182,0c.476.6.96,1.2,1.428,1.809a43.5,43.5,0,0,1,8.2,17.989,40.793,40.793,0,0,1,.761,11.45c-.08,1.01-.21,2.017-.318,3.037H431.047c-.063-.469-.135-.943-.189-1.42a41.235,41.235,0,0,1,.379-11.778,43.5,43.5,0,0,1,7.441-17.92c.664-.938,1.4-1.823,2.1-2.733.111-.144.222-.289.333-.434Z" transform="translate(-401.096 0.005)" fill="#ce1953"/>
      <path id="Path_8636" data-name="Path 8636" d="M788.752,232.711q-.1.893-.195,1.787a41.3,41.3,0,0,1-3.843,13.41c-.115.239-.275.226-.469.226H760.888c.085-.152.145-.271.215-.382a38.9,38.9,0,0,1,13.083-12.733,39.547,39.547,0,0,1,12.779-4.924c.592-.118,1.191-.2,1.787-.3Z" transform="translate(-708.752 -213.831)" fill="#ce1953"/>
      <path id="Path_8637" data-name="Path 8637" d="M1003.312,957.665a4.362,4.362,0,0,1-1.152,2.044,5.4,5.4,0,0,1-2.748,1.309,8.922,8.922,0,0,1-5.208-.441,4.5,4.5,0,0,1-2.905-3.456c-.036-.192-.043-.389-.067-.615h3.416a2.338,2.338,0,0,0,2.294,2.07,4.051,4.051,0,0,0,1.891-.155,1.306,1.306,0,0,0,.906-.915.991.991,0,0,0-.615-1.215,13.3,13.3,0,0,0-1.806-.5c-1.054-.245-2.119-.44-3.166-.71a4.359,4.359,0,0,1-1.173-.548,3.082,3.082,0,0,1-1.43-2.406,4.184,4.184,0,0,1,2.146-4.27,7.174,7.174,0,0,1,4.343-.777,5.732,5.732,0,0,1,3.3,1.289,4.36,4.36,0,0,1,1.492,2.765c.017.112.013.226.019.365H999.5c-.015-.06-.035-.124-.046-.19a1.83,1.83,0,0,0-1.5-1.562,3.765,3.765,0,0,0-1.9.012,2.046,2.046,0,0,0-.729.358.957.957,0,0,0,.124,1.637,8.818,8.818,0,0,0,1.751.554c1.151.28,2.327.467,3.463.8a3.474,3.474,0,0,1,2.456,2.128c.069.182.124.37.186.555Z" transform="translate(-923.312 -881.24)" fill="#ce1953"/>
      <path id="Path_8638" data-name="Path 8638" d="M.539,229.82a39.677,39.677,0,0,1,27.923,18.315c-.127.008-.231.021-.335.021q-11.535,0-23.07.007a.438.438,0,0,1-.458-.3,40.817,40.817,0,0,1-3.83-13.556c-.141-1.378-.157-2.769-.229-4.155-.005-.1,0-.2,0-.332" transform="translate(-0.5 -213.853)" fill="#ce1953"/>
      <path id="Path_8639" data-name="Path 8639" d="M155.236,538.588c-.058.111-.091.193-.139.266-.564.855-1.122,1.714-1.7,2.558-.08.116-.266.161-.408.226a.443.443,0,0,1-.17,0q-31.661,0-63.322.007a.692.692,0,0,1-.669-.343c-.514-.8-1.052-1.595-1.578-2.392-.06-.092-.106-.193-.177-.324Z" transform="translate(-81.104 -501.17)" fill="#ce1953"/>
      <path id="Path_8640" data-name="Path 8640" d="M212.265,627.328c-.371.395-.69.753-1.03,1.09-.595.591-1.194,1.178-1.811,1.744a.869.869,0,0,1-.538.211q-26.2.014-52.406.014a.747.747,0,0,1-.574-.231c-.928-.92-1.865-1.831-2.8-2.746l.049-.082Z" transform="translate(-142.616 -583.744)" fill="#ce1953"/>
      <path id="Path_8641" data-name="Path 8641" d="M241.5,899.858a7,7,0,0,1-6.087.949,6.708,6.708,0,0,1-3.65-2.664,7.242,7.242,0,0,1,.3-8.639,7.054,7.054,0,0,1,9.4-1.354v-5.708h3.358V900.8H241.5Zm0-5.822a3.869,3.869,0,1,0-3.876,3.916,3.872,3.872,0,0,0,3.876-3.916" transform="translate(-214.691 -821.135)" fill="#ce1953"/>
      <path id="Path_8642" data-name="Path 8642" d="M547.736,900.784h-3.327v-.949a6.93,6.93,0,0,1-5.514,1.09,6.726,6.726,0,0,1-4.508-3.276,7.21,7.21,0,0,1,.826-8.435,7.052,7.052,0,0,1,9.171-1.093v-5.709h3.352Zm-3.32-6.763a3.87,3.87,0,1,0-3.887,3.9,3.872,3.872,0,0,0,3.887-3.9" transform="translate(-496.844 -821.108)" fill="#ce1953"/>
      <path id="Path_8643" data-name="Path 8643" d="M11.042,948.279V947.2h3.349V960.9H11.056v-.84c-3.888,1.97-7.309,1.6-9.907-2.132a6.977,6.977,0,0,1,.411-8.224A6.8,6.8,0,0,1,6.018,947.1a6.956,6.956,0,0,1,5.024,1.174M7.2,950.2a3.924,3.924,0,1,0,3.86,3.926A3.881,3.881,0,0,0,7.2,950.2" transform="translate(0 -881.23)" fill="#ce1953"/>
      <path id="Path_8644" data-name="Path 8644" d="M777.713,947.255v13.693h-3.346v-.929a6.983,6.983,0,0,1-6.154.9A6.707,6.707,0,0,1,764.6,958.2a7.256,7.256,0,0,1,.4-8.61,7.059,7.059,0,0,1,9.35-1.307v-1.031Zm-7.18,2.993a3.924,3.924,0,1,0,3.856,3.929,3.885,3.885,0,0,0-3.856-3.929" transform="translate(-711.067 -881.278)" fill="#ce1953"/>
      <path id="Path_8645" data-name="Path 8645" d="M668.458,715.776h16.22A39.079,39.079,0,0,1,667.9,722.54a39.644,39.644,0,0,1,.558-6.764" transform="translate(-622.135 -666.048)" fill="#ce1953"/>
      <path id="Path_8646" data-name="Path 8646" d="M256.312,715.731H272.5a40.787,40.787,0,0,1,.582,6.764,38.936,38.936,0,0,1-16.775-6.764" transform="translate(-238.749 -666.006)" fill="#ce1953"/>
      <rect id="Rectangle_127" data-name="Rectangle 127" width="3.314" height="13.696" transform="translate(31.829 65.964)" fill="#ce1953"/>
      <path id="Path_8647" data-name="Path 8647" d="M521.09,715.9a43.3,43.3,0,0,1-5.028,7.305,43.156,43.156,0,0,1-5.034-7.305Z" transform="translate(-476.013 -666.165)" fill="#ce1953"/>
      <rect id="Rectangle_128" data-name="Rectangle 128" width="3.325" height="3.362" transform="translate(31.826 61.305)" fill="#ce1953"/>
    </g>
  </g>
</svg>
