<svg id="Group_3" data-name="Group 3" xmlns="http://www.w3.org/2000/svg" xmlns:xlink="http://www.w3.org/1999/xlink" width="1360.021" height="408" viewBox="0 0 1360.021 408">
  <defs>
    <clipPath id="clip-path">
      <rect id="Rectangle_2" data-name="Rectangle 2" width="1360" height="408" fill="#fff"/>
    </clipPath>
  </defs>
  <path id="Path_1" data-name="Path 1" d="M0,.314V45.263H44.559V270H0v44.947H133.676V270H89.118V.314Z" transform="translate(0 0.067)" fill="#fff"/>
  <g id="Group_2" data-name="Group 2" transform="translate(0.021)">
    <g id="Group_1" data-name="Group 1" >
      <path id="Path_2" data-name="Path 2" d="M304.1,74.353h44.56V186.721h-22.28v112.37H304.1c0,56.184-44.56,89.894-100.257,89.894-44.56,0-77.979-22.474-77.979-22.474V321.564s33.419,22.474,77.979,22.474c33.419,0,55.7-11.237,55.7-44.947h22.28V209.2c0,44.947-33.419,67.421-66.839,67.421s-66.838-22.474-66.838-67.421V186.721h22.279V74.353h44.559V186.721H192.7c0,33.711,22.279,44.947,44.559,44.947s44.559-11.236,44.559-44.947H304.1Z" transform="translate(25.614 15.924)" fill="#fff"/>
      <path id="Path_3" data-name="Path 3" d="M494.721,85.59v44.947S461.3,119.3,439.022,119.3c-33.42,0-66.84,22.472-66.84,67.42s33.42,67.421,66.84,67.421c22.279,0,55.7-11.237,55.7-11.237v44.948s-22.28,11.237-55.7,11.237c-66.84,0-111.4-44.948-111.4-112.37s44.559-112.368,111.4-112.368c33.418,0,55.7,11.237,55.7,11.237" transform="translate(66.707 15.924)" fill="#fff"/>
      <path id="Path_4" data-name="Path 4" d="M655.755,90.209c44.559,0,77.979,33.711,77.979,89.894v22.474h-22.28v112.37H644.615V202.578h22.279c0-33.711-22.279-44.948-44.559-44.948s-44.559,11.237-44.559,44.948H555.5v112.37H488.659V202.578h22.279V90.209h22.279V.314h66.838v89.9H577.776V180.1c0-56.183,33.419-89.894,77.979-89.894" transform="translate(99.506 0.067)" fill="#fff"/>
      <path id="Path_5" data-name="Path 5" d="M809.247,74.353c55.7,0,100.258,44.947,100.258,112.368v11.237H732.161c4.9,37.306,35.646,56.184,65.947,56.184,44.56,0,66.839-22.474,66.839-22.474v44.948s-22.279,22.474-66.839,22.474c-66.838,0-111.4-44.948-111.4-112.37h22.279c0-67.421,44.56-112.368,100.258-112.368m53.473,89.894c-6.241-30.115-26.292-44.947-53.473-44.947s-47.232,14.832-53.471,44.947Z" transform="translate(139.843 15.924)" fill="#fff"/>
      <path id="Path_6" data-name="Path 6" d="M994.347,74.353c55.7,0,100.26,44.947,100.26,112.368v11.237H917.261c4.9,37.306,35.646,56.184,65.947,56.184,44.56,0,66.839-22.474,66.839-22.474v44.948s-22.279,22.474-66.839,22.474c-66.837,0-111.4-44.948-111.4-112.37h22.28c0-67.421,44.558-112.368,100.256-112.368m53.473,89.894c-6.24-30.115-26.291-44.947-53.473-44.947s-47.232,14.832-53.47,44.947Z" transform="translate(177.543 15.924)" fill="#fff"/>
      <path id="Path_7" data-name="Path 7" d="M1105.81,43.659a14.293,14.293,0,0,0,3.683-5.113,15.346,15.346,0,0,0,.933-3.04h-11.438c-.043.078-.06.172-.107.248a6.514,6.514,0,0,1-2.816,2.462,10.8,10.8,0,0,1-4.507.886H1080.58v-3.6h-10.84V64.662h10.84v-15.9h8.516l10.556,15.9h12.669l-12.038-17.749a17.452,17.452,0,0,0,5.526-3.254" transform="translate(217.856 7.604)" fill="#fff"/>
      <path id="Path_8" data-name="Path 8" d="M1135.759,35.5A41.122,41.122,0,0,1,1124.1,68.774a40.352,40.352,0,0,1-57.423,0,41,41,0,0,1-11.9-28.961A42.282,42.282,0,0,1,1055,35.5h-6.414c-.128,1.422-.214,2.853-.214,4.308a47.475,47.475,0,0,0,13.77,33.525,46.713,46.713,0,0,0,66.476,0,47.474,47.474,0,0,0,13.77-33.525c0-1.455-.088-2.886-.216-4.308Z" transform="translate(213.505 7.604)" fill="#fff"/>
      <path id="Path_9" data-name="Path 9" d="M1060.305,43.109a40.982,40.982,0,0,1,11.668-24.655,40.35,40.35,0,0,1,57.424,0,40.983,40.983,0,0,1,11.666,24.655h6.415a47.438,47.438,0,0,0-13.556-29.219,46.712,46.712,0,0,0-66.475,0,47.433,47.433,0,0,0-13.554,29.219Z" transform="translate(214.629 0)" fill="#fff"/>
      <path id="Path_10" data-name="Path 10" d="M1086.533,39.128V28.456H1097.3a11.712,11.712,0,0,1,4.551.8,6.253,6.253,0,0,1,2.932,2.366,7.221,7.221,0,0,1,1.033,3.929V35.7a6.8,6.8,0,0,1-.877,3.43h11.44a20.012,20.012,0,0,0,.416-4v-.142a18.132,18.132,0,0,0-1.08-6.4,13.9,13.9,0,0,0-3.143-4.96,15.848,15.848,0,0,0-6.042-3.749,24.878,24.878,0,0,0-8.315-1.291h-22.524V39.128Z" transform="translate(219.069 3.981)" fill="#fff"/>
    </g>
  </g>
</svg>
