<svg xmlns="http://www.w3.org/2000/svg" width="135" height="17" viewBox="0 0 135 17">
  <path id="Estee_logo" data-name="Estee logo" d="M1291.619-12455.832c-.2-.027-.408-.055-.612-.08a8.558,8.558,0,0,1-2.684-.809.151.151,0,0,1-.1-.154c0-.256,0-.516,0-.793.235.133.447.256.662.375a6.964,6.964,0,0,0,2.643.863,5.034,5.034,0,0,0,2.981-.508,2.938,2.938,0,0,0,1.651-2.221,2.079,2.079,0,0,0-.877-2.074,6.674,6.674,0,0,0-1.892-.9c-.765-.264-1.537-.508-2.3-.781a5.5,5.5,0,0,1-1.667-.914,2.9,2.9,0,0,1-1.084-2.068,3.066,3.066,0,0,1,.365-1.824,3.59,3.59,0,0,1,1.5-1.408,5.932,5.932,0,0,1,3.267-.629,8.812,8.812,0,0,1,3.069.8.176.176,0,0,1,.126.189c-.009.242,0,.482,0,.74a.487.487,0,0,1-.087-.045,5.943,5.943,0,0,0-2.908-1.158,4.421,4.421,0,0,0-2.488.344,2.47,2.47,0,0,0-1.43,1.566,2.025,2.025,0,0,0,.63,2.2,4.826,4.826,0,0,0,1.654.9c.836.295,1.682.564,2.518.861a6.592,6.592,0,0,1,1.876.963,2.755,2.755,0,0,1,1.129,2.01,3.63,3.63,0,0,1-.98,2.893,5.008,5.008,0,0,1-2.168,1.32,6.638,6.638,0,0,1-1.611.314.988.988,0,0,0-.1.027Zm75.371-.068a7.973,7.973,0,0,1-1.861-.258,4.066,4.066,0,0,1-2.77-2.109,5.08,5.08,0,0,1-.47-2.293q0-4.392,0-8.783v-.131h1.559v.162q0,4.523,0,9.051a4.335,4.335,0,0,0,.368,1.865,3.223,3.223,0,0,0,1.753,1.652,5.375,5.375,0,0,0,2.262.361,5.334,5.334,0,0,0,1.9-.387,3.538,3.538,0,0,0,2.023-2.07,4.64,4.64,0,0,0,.276-1.658q0-4.4,0-8.8v-.178h.811v.148q0,4.421,0,8.838a4.639,4.639,0,0,1-.532,2.287,3.973,3.973,0,0,1-1.789,1.664,6.957,6.957,0,0,1-3.129.643C1367.258-12455.893,1367.125-12455.9,1366.99-12455.9Zm43.593-.283a.27.27,0,0,1-.261-.145q-2.076-3.123-4.161-6.236a.234.234,0,0,0-.157-.1c-.9-.006-1.8,0-2.706,0a1,1,0,0,0-.111.012v6.465h-.206c-.412,0-.823-.006-1.235,0-.127,0-.152-.039-.152-.152q.006-2.7,0-5.389,0-3.785,0-7.572v-.176c.048,0,.079-.008.11-.008l1.547,0c1.256,0,2.512-.006,3.768.01a5.8,5.8,0,0,1,2.577.592,2.944,2.944,0,0,1,1.651,3.064,2.855,2.855,0,0,1-1.407,2.125,5.964,5.964,0,0,1-2.232.869c.059.09.113.176.171.26q2.142,3.129,4.284,6.254a.557.557,0,0,0,.072.076v.053C1411.618-12456.182,1411.1-12456.189,1410.583-12456.184Zm-6.286-12.791h-1.008c-.027,0-.054,0-.093,0v5.811a.376.376,0,0,0,.05.008c1-.008,2.006,0,3.009-.029a4.832,4.832,0,0,0,1.849-.424,2.527,2.527,0,0,0,1.516-1.674,3.4,3.4,0,0,0,.026-1.631,2.333,2.333,0,0,0-1.06-1.553,3.517,3.517,0,0,0-1.87-.5c-.538-.01-1.075-.012-1.613-.012C1404.834-12468.977,1404.566-12468.977,1404.3-12468.975Zm-101.625,12.66c0-.582,0-1.164,0-1.744v-8.363q0-1.166,0-2.332v-.16h-4.51v-.561h10.628v.555h-4.51v12.727c-.054,0-.086.006-.117.006-.453,0-.907,0-1.36,0h-.005C1302.7-12456.186,1302.671-12456.219,1302.672-12456.314Zm56.038.02q-1.026-2.435-2.052-4.871a.239.239,0,0,0-.268-.174q-2.761.006-5.523,0a.2.2,0,0,0-.217.146q-1.02,2.455-2.048,4.9a.148.148,0,0,1-.162.105c-.277-.006-.554,0-.855,0,.021-.059.034-.1.052-.145l5.054-11.709c.21-.484.422-.971.628-1.457a.147.147,0,0,1,.161-.107q.527.006,1.055,0a.15.15,0,0,1,.165.1q.833,1.9,1.671,3.807,1.077,2.443,2.157,4.887,1,2.259,1.994,4.518c.012.025.021.055.036.094-.048,0-.084.01-.119.01h-.465c-.368,0-.736,0-1.1,0h0A.149.149,0,0,1,1358.71-12456.295Zm-7.741-5.619h5.371l-2.7-6.469Zm25.123,5.727h-.18v-13.293h.148c1.813,0,3.626-.008,5.439,0a8.087,8.087,0,0,1,3.092.582,5.244,5.244,0,0,1,3.055,3.244,8.132,8.132,0,0,1,.4,3.168,7.5,7.5,0,0,1-.527,2.494,5.668,5.668,0,0,1-3.114,3.1,7.926,7.926,0,0,1-2.506.629c-.542.047-1.088.07-1.633.074-.59.006-1.18.006-1.77.006Zm2.652-12.766c-.37,0-.741,0-1.111,0-.036,0-.072.006-.114.01v12.219c.042,0,.078.006.114.006.962,0,1.924.01,2.886,0a8.581,8.581,0,0,0,2.217-.295,4.567,4.567,0,0,0,3.122-2.594,7.29,7.29,0,0,0,.577-2.834,8.851,8.851,0,0,0-.472-3.35,4.7,4.7,0,0,0-1.4-2.039,5.082,5.082,0,0,0-3.221-1.113c-.517-.012-1.034-.016-1.551-.016C1379.439-12468.957,1379.092-12468.955,1378.745-12468.953Zm11.894,12.758v-13.277h7.937v.555h-6.357v5.25h5.856v.537h-5.853v6.332h6.451v.6Zm-68.666,0v-13.275h7.937v.553h-6.354v5.252h5.854v.539h-5.853v6.33H1330v.6Zm-10.947,0v-13.275h7.927v.551h-6.342v5.256h5.84v.535h-5.842v6.336h6.45v.6Zm-32.89,0v-13.273h7.924v.551h-6.341v5.25h5.842v.541h-5.843v6.334h6.455v.6Zm60.454,0v-13.275h1.544v12.666h6.4v.609Zm-27.59-15.129v-.5h7.954v.5Z" transform="translate(-1277.636 12472.332)" fill="#ce1953" stroke="rgba(0,0,0,0)" stroke-width="1"/>
</svg>
