<svg xmlns="http://www.w3.org/2000/svg" width="130" height="67.918" viewBox="0 0 130 67.918">
  <path id="nike_logo" data-name="nike logo" d="M1176.728-12013.551c-9.7-8.378,1.282-26.57,12.925-40.243-10.041,20.081,3.845,27.532,16.022,24.114l44.244-11.989-11.986.026-.384-14.742-5.6,14.742h-8.332l13.113-35.25h8.438l-4.03,10.574,8.73-10.574h25.422l-2.239,5.875h-8.439l-2.746,7.424h8.011l-2.465,6.568h-8.011l-3.193,8.545h9.72l-.983,2.739c19.789-5.362,36.947-10.01,37.128-10.056,1.068-.268,1.229.268.374.694,0,0-88.551,38.454-96.562,41.659-4.749,1.9-10.81,4.361-16.918,4.361A18.094,18.094,0,0,1,1176.728-12013.551Zm68.938-48.815.534,18.373,12.063-32.2Zm-52.719,28.722a1.757,1.757,0,0,1,1.843-1.778,1.757,1.757,0,0,1,1.844,1.778,1.759,1.759,0,0,1-1.844,1.774A1.757,1.757,0,0,1,1192.947-12033.645Zm.56,0a1.24,1.24,0,0,0,1.283,1.267,1.254,1.254,0,0,0,1.284-1.267,1.251,1.251,0,0,0-1.284-1.27A1.241,1.241,0,0,0,1193.507-12033.645Zm1.533.956-.44-.814h-.082v.814h-.482v-1.912h.724c.5,0,.805.116.805.577a.444.444,0,0,1-.461.5l.491.831Zm-.522-1.142h.276c.168,0,.263-.043.263-.24s-.164-.2-.306-.2h-.233Zm19.288-7.812,13.22-35.251h8.332l-13.22,35.251Zm-10.054,0,1.02-15.6-5.827,15.6h-8.332l13.22-35.251h8.866l-1.023,15.81,5.937-15.81h8.332l-13.219,35.251Zm72.95-33.579a1.757,1.757,0,0,1,1.843-1.778,1.757,1.757,0,0,1,1.843,1.778,1.76,1.76,0,0,1-1.843,1.774A1.757,1.757,0,0,1,1276.7-12075.222Zm.56,0a1.241,1.241,0,0,0,1.283,1.267,1.254,1.254,0,0,0,1.283-1.267,1.251,1.251,0,0,0-1.283-1.271A1.241,1.241,0,0,0,1277.262-12075.222Zm1.533.956-.439-.813h-.082v.813h-.482v-1.912h.724c.5,0,.805.116.805.576a.444.444,0,0,1-.46.5l.491.832Zm-.521-1.142h.276c.168,0,.262-.043.262-.241s-.163-.2-.305-.2h-.233Z" transform="translate(-1173 12077)" fill="#ce1953"/>
</svg>
