<svg xmlns="http://www.w3.org/2000/svg" width="151.809" height="63.203" viewBox="0 0 151.809 63.203">
  <path id="d-logo" d="M5495.476-16800.264a7.4,7.4,0,0,1-2.772-6.729,35.75,35.75,0,0,1,2.569-10.055c.5-1.316,1.125-2.586,1.638-3.9a1.533,1.533,0,0,0,.021-1.088,10.379,10.379,0,0,1-.465-7.82,21.216,21.216,0,0,1,6.3-9.717,4.029,4.029,0,0,1,1.13-.5,3.277,3.277,0,0,1,.284,1.2,8.166,8.166,0,0,1-.631,2.383c-.74,1.527-1.73,2.939-2.408,4.488a40.28,40.28,0,0,0-1.494,4.609,4.155,4.155,0,0,0,.068,1.186c.838-1.172,1.435-2.172,2.184-3.031,2.023-2.311,4.059-4.611,6.2-6.812a7.979,7.979,0,0,1,2.67-1.621,3.4,3.4,0,0,1,4.706,1.846,10.186,10.186,0,0,1,.41,7.635c-1.506,4.814-4.511,8.387-9.437,10a21.729,21.729,0,0,1-4.35.449c-1,3.293-2.163,6.855-3.14,10.471-.538,1.98-.787,4.045-1.126,6.076-.168,1.014-.529,1.535-1.093,1.535A2.179,2.179,0,0,1,5495.476-16800.264Zm16.8-33.242a3.372,3.372,0,0,0-.715.666c-1.65,2.1-3.326,4.18-4.917,6.33a31.429,31.429,0,0,0-1.761,3.01,3,3,0,0,0,.47.084,9.984,9.984,0,0,0,8.146-7.432,7.157,7.157,0,0,0,.089-2.145c-.066-.525-.292-.785-.623-.785A1.278,1.278,0,0,0,5512.276-16833.506Zm-122.246,19.941a11.637,11.637,0,0,1-.652-2.619,1.936,1.936,0,0,0-1.227-1.693,33.455,33.455,0,0,1-12.213-9.732c-1.532-2.006-1.358-4.018.592-5.621a20.414,20.414,0,0,1,7.1-3.439c1.688-.529,3.423-.928,5.159-1.3.626-.135.774-.393.838-1,.288-2.691.643-5.383.994-8.07a4.816,4.816,0,0,1,.339-1.139c.457-1.121.96-1.176,1.811-.283a7.642,7.642,0,0,1,1.836,4.77c.161,1.65.284,3.3.415,4.85,2.509.211,4.981.293,7.4.668a35.424,35.424,0,0,1,6.411,1.588,10.156,10.156,0,0,1,3.475,2.328,4.147,4.147,0,0,1,.046,5.967c-1.98,2.086-3.728,1.992-6.073.719-.08-.047-.11-.178-.229-.385a9.04,9.04,0,0,1,.817-.617,6.975,6.975,0,0,0,.965-.482,18.5,18.5,0,0,0,1.3-1.338,6.992,6.992,0,0,0-1.384-1.254,9.738,9.738,0,0,0-2.361-.777,45.61,45.61,0,0,0-10.635-1c-.021.4-.055.721-.051,1.033.076,3.949.165,7.9.241,11.84.008.508.059.895.7,1,6.517,1.109,12.877.729,18.958-2.031,3.183-1.439,5.717-3.576,6.64-7.143a11.278,11.278,0,0,0-1.358-8.469,28.117,28.117,0,0,0-8.659-9.184,61.455,61.455,0,0,0-28.294-11.209,36.044,36.044,0,0,0-12.336.27c-.656.145-1.287.377-1.93.568.021.105.046.211.072.313.719.215,1.456.4,2.158.66.237.088.4.359.6.551-.195.186-.364.465-.6.541a5.9,5.9,0,0,1-4.147-.014,1.4,1.4,0,0,1-.863-2.17,6.334,6.334,0,0,1,3.838-3.529,40.214,40.214,0,0,1,18.315-.8,61.9,61.9,0,0,1,28.76,12.594,33.47,33.47,0,0,1,8.887,10.428c4.253,8.016.965,16.67-6.483,20.555a31.79,31.79,0,0,1-17.482,3.4c-2.2-.164-4.375-.584-6.619-.893-.051.283-.114.635-.173.982a2.263,2.263,0,0,1-2.366,2.2,2.627,2.627,0,0,1-.3.018A2.323,2.323,0,0,1,5390.031-16813.564Zm-3.826-19.416c-2.653.516-5.324.994-7.922,1.723-2.014.566-2.158,1.541-.7,3,.588.588,1.206,1.152,1.841,1.686a30.948,30.948,0,0,0,9.7,5.4c.144-4.07.283-7.984.436-12.127C5388.274-16833.184,5387.221-16833.176,5386.205-16832.98Zm92.026,11.313a17.666,17.666,0,0,1,.694-4.25,4.231,4.231,0,0,0,.1-2.5c-.508-1.625-.237-1.984,1.354-2.492a1.331,1.331,0,0,0,.7-.576c.465-.852.868-1.74,1.367-2.756a4.224,4.224,0,0,1-3.165-1.676c-.864-1.289-.745-1.814.77-2.072,2.962-.5,5.938-.914,8.921-1.287a26.784,26.784,0,0,1,3.694-.127,4.664,4.664,0,0,1,3.991,3.461c.144.838-.411,1.1-1.071,1.182-2.014.24-4.033.453-6.047.672-.182.021-.364.01-.546.025-2.882.311-2.2-.451-3.093,2.68.783,0,1.557-.008,2.336,0,1.049.021,2.1.068,3.148.08.74.014,1.041.4,1.037,1.1,0,.215,0,.436,0,.65-.029,1.617-.089,1.73-1.692,1.871-1.879.16-3.762.258-5.646.326-.6.021-.914.182-1.058.795-.25,1.045-.592,2.064-.965,3.334,1.494-.273,2.751-.523,4.012-.73,1.392-.225,2.793-.42,4.193-.609a2.034,2.034,0,0,1,2.264,1.455,1.714,1.714,0,0,1-.74,2.166,18.8,18.8,0,0,1-8.608,4.16,5.229,5.229,0,0,1-.946.086A4.953,4.953,0,0,1,5478.231-16821.668Zm-48.112,2.611a9.277,9.277,0,0,1-.355-2.463c.148-5.053.355-10.107.559-15.164a1.77,1.77,0,0,1,.229-.936c.343-.461.736-1.082,1.21-1.184a1.658,1.658,0,0,1,1.341.791,9.089,9.089,0,0,1,1.117,3.09c.284,2.7.36,5.412.5,7.8,0,2.811.013,5.3-.009,7.791a1.576,1.576,0,0,1-1.6,1.795q-.242.018-.467.018C5431.29-16817.516,5430.382-16818.018,5430.119-16819.057Zm12.945.156a13.206,13.206,0,0,1-4.312-2.811c-2.163-2.061-1.273-5.2,1.591-6.072,2.886-.881,5.747-.338,8.578.363a8.45,8.45,0,0,1,2.01.787c1.13.631,1.113,1.342-.047,1.965a6.92,6.92,0,0,1-4.977.473c-.766-.178-1.473-.588-2.23-.82a8.266,8.266,0,0,0-2.5-.566c-.44.012-1.049.621-1.227,1.092-.114.295.326,1.045.7,1.234a6.288,6.288,0,0,0,2.281.613,18.641,18.641,0,0,0,8.544-1.125,7.738,7.738,0,0,0,2.044-1.205,1.3,1.3,0,0,0-.3-2.4,9.543,9.543,0,0,0-2.8-.824c-3.093-.352-6.2-.564-9.3-.885a10.881,10.881,0,0,1-3.06-.648,2.387,2.387,0,0,1-1.316-1.506c-.317-2.168.195-4.494,2.514-5.756a22.216,22.216,0,0,1,7.99-2.285c1.329-.16,2.679-.152,4.245-.232,1.583.2,3.39.373,5.167.7.7.131,1.7.207,1.752,1.281a2.317,2.317,0,0,1-2.074,2.162c-2.272.246-4.553.385-6.822.635-2.3.254-4.6.58-6.9.9a4.535,4.535,0,0,0-1.24.375c-.19.09-.3.352-.449.539.182.135.351.363.554.393,1.574.229,3.157.445,4.74.623,2.158.236,4.346.283,6.471.676,5.51,1.029,5.6,5.738,4.342,9.438a3.212,3.212,0,0,1-1.49,1.646,17.191,17.191,0,0,1-7.815,2.09A13.233,13.233,0,0,1,5443.064-16818.9Zm15.958-1.355a25.6,25.6,0,0,1,.135-8.963c.3-2.031.846-4.023,1.341-6.021a5.526,5.526,0,0,1,.724-1.561c.859-1.359,2-1.559,3-.322,1.684,2.068,3.233,4.258,4.773,6.441.9,1.27,1.655,2.637,2.505,3.939a5.356,5.356,0,0,0,.753.773c.165-.07.334-.139.5-.211-.313-1.947-.542-3.914-.969-5.836-.567-2.535-1.3-5.035-1.942-7.559a7.306,7.306,0,0,1-.3-1.7c-.013-1.113.651-1.512,1.523-.852a13.323,13.323,0,0,1,2.649,2.535c2.726,3.652,3.487,7.889,3.284,12.322a22.566,22.566,0,0,1-.753,4.588,5.6,5.6,0,0,1-1.27,2.217,2.86,2.86,0,0,1-4.414.072,28.81,28.81,0,0,1-2.949-4.008c-.906-1.434-1.634-2.979-2.455-4.469-.288-.523-.618-1.031-.927-1.549-.11.014-.22.021-.334.035-.084.867-.195,1.734-.25,2.6-.157,2.455-.237,4.914-.461,7.359-.14,1.549-.779,2.172-1.909,2.217-.031,0-.063,0-.094,0A2.226,2.226,0,0,1,5459.023-16820.256Zm-32.535-22.3a11.436,11.436,0,0,1-.6-2.535,2.327,2.327,0,0,0-.322-.842,5.1,5.1,0,0,1-.516-5.9c2.128-4.037,5.649-6.1,10.038-6.783a19.546,19.546,0,0,1,3.779,0,2.015,2.015,0,0,1,1.308.449c.99,1.1,2.353,1.357,3.618,1.887,1.587.67,2.158,2.264,1.714,4.244a4.786,4.786,0,0,1-.415,1.232c-2.611,4.777-6.521,7.682-12.065,8.041a17.963,17.963,0,0,1-3.5-.445c-.14.2-.33.512-.546.8a1.778,1.778,0,0,1-1.3.865C5427.249-16841.547,5426.833-16841.879,5426.488-16842.561Zm14.168-11.3a5.571,5.571,0,0,0-1.87.5,20.841,20.841,0,0,0-7.482,6.6c3.2.482,6.111.3,8.54-1.662a9.619,9.619,0,0,0,2.5-3.307c.591-1.252-.092-2.143-1.388-2.143C5440.857-16853.875,5440.758-16853.869,5440.656-16853.859Zm-12.911,4.891c1.646-1.752,3.318-3.52,4.977-5.285C5429.806-16854.051,5426.755-16850.771,5427.745-16848.969Z" transform="translate(-5365.134 16862.371)" fill="#ce1953" stroke="rgba(0,0,0,0)" stroke-width="1"/>
</svg>
