<svg xmlns="http://www.w3.org/2000/svg" width="109.025" height="109.06" viewBox="0 0 109.025 109.06">
  <path id="Starbucks_logo" data-name="Starbucks logo" d="M1242.885-12210v-6.889l-1.741,6.889h-1.706l-1.735-6.889v6.889h-1.646v-8.753h2.65l1.593,5.969,1.574-5.969h2.659v8.753Zm-12.323,0v-7.271h-2.6v-1.482h6.972v1.482h-2.6v7.271Zm-31.719-17.91c-3.231-7.663,6.938-11.332,7.1-18.339-.039-4.521-4.858-7.086-5.877-11.246-1.234-1.037-2.493-.6-3.832-.168a5.955,5.955,0,0,1-2.909.412,4.508,4.508,0,0,1-2.185-.416c-1.427-.506-2.869-1.01-3.582,1.028-1.308,4.6-7.271,7.986-4.651,13.445,2.493,4.854,8.495,8.4,6.49,14.677-1.794,5.865-7.723,11.451-4.046,18.214-1.511-.49-4.331.445-4.291-1.962-2.328-8.19,7.6-12.963,4.534-21.147-1.427-5.016-7.929-7.786-6.5-13.815,1.058-4.965,6.644-8.437,5.86-13.872a7.838,7.838,0,0,0-.336-1.409c-2.085-5.869-6.338-11.74-3.8-18.588a23.872,23.872,0,0,1,3.308-5.373c-4.046,2.157-6.087,6.723-6,11.367-.178,5.051,3.565,9.378,4.1,14a8.5,8.5,0,0,1-1.4,5.8c-2.653,3.593-6.124,7.38-4.533,12.109,1.513,4.77,7.478,7.659,7.11,13.2-.04,6.559-7.682,10.643-5.516,17.977l-3.8-1.23c-1.51-6.518,5.436-9.854,5.515-15.883.983-6.936-7.886-9.509-7.353-16.27-.039-5.136,4.5-8.389,6.5-12.709a8.24,8.24,0,0,0,.411-3c-.244-4.779-4.561-8.515-3.844-13.886a16.977,16.977,0,0,1,4.164-10.391c-3.552,1.423-5.021,5.5-6,8.93-1.7,5.487,2.362,10.425,2.769,15.347a8.108,8.108,0,0,1-2.4,6.537c-2.942,3.46-5.928,7.825-3.8,12.474,2.25,5.132,9.321,9.126,6.255,15.522-1.674,4.037-5.68,7.091-5.516,11.857a10.449,10.449,0,0,1-3.064-1.707c0-6.07,8.658-9.865,4.533-16.262-.365,1.264-.444,2.978-.73,4.4-1.433,3.712-4.5,6.682-5.643,10.515a16.862,16.862,0,0,1-5.516-3.915l2.209-1.351a6.954,6.954,0,0,0-1.47-2.2c-1.434-.2-2.376.738-3.559,1.105a18.275,18.275,0,0,1-2.82-2.812c.732-2.083,6.461-.359,3.559-3.786-1.96-1.22-3.926.525-5.641,1.342l-2.326-2.933c2-1.221,4-2.937,6.489-2.444.614,1.1.656,2.722,1.839,3.3,4.21-.082,7.194-3.257,10.42-5.742-2.25-3.339-4.08-7.947-2.082-11.982,1.6-4.042,5.771-7.451,5.96-11.922a7.917,7.917,0,0,0-.563-3.241c-2.205-5.664-2.984-13.321,1.226-18.339-2.289.614-3.639,3.461-4.415,5.621-2.53,5.531.67,10.656.78,15.959a11.377,11.377,0,0,1-.295,2.87c-2.166,4.361-5.676,8.187-6.245,13.2-2.494,1.59-4.541,4.362-8.094,3.425a9.392,9.392,0,0,0,.487,3.425c-2.817-.119-4.738,1.954-7.11,2.931-1.265-.4-1.593-2.034-2.082-3.173,2.776-.936,4.779-3.712,7.967-3.667.37-1.024-.208-1.962-.37-2.94-1.527-.677-3.4.455-5.15,1.584-2.8,1.81-5.307,3.612-5.63-1.952,3.963-.242,6.495-3.911,10.419-4.278l.117-2.931c-2.226-.225-4.055.8-5.884,1.835s-3.66,2.059-5.886,1.834l-.981-3.911c5.149.322,8.217-4.281,13.122-4.531a6.638,6.638,0,0,0,.856-3.3c-2.472-.32-4.586.766-6.7,1.854-2.47,1.268-4.946,2.536-8,1.57,0,0-.2-2.464-.3-3.851h.01c-.04-.545-.076-.922-.076-.922,5.066,1.961,9.518-1.669,13.851-3.541,1.1-.33,2.823.24,3.316-.982-.042-.934,1.672-2.034.244-2.687-2.747-.373-5.093.85-7.4,2.071-3.016,1.594-5.963,3.192-9.644,1.227l-.487-.979c1.35-18.419,11.765-36.226,29.048-44.986,7-3.989,15.7-6.023,24.465-6.1,10.583-.088,21.277,2.681,29.232,8.3a54.335,54.335,0,0,1,19.126,20.421c3.836,6.928,5.6,14.7,6.128,22.975-3.708,2.794-6.742,1.041-9.866-.711-2.525-1.417-5.11-2.833-8.159-1.851a8.438,8.438,0,0,0,1.351,3.056c2.536-.018,4.741,1.083,6.914,2.183,3.009,1.524,5.956,3.048,9.633,1.6l.007.922a9.358,9.358,0,0,1-.369,3.976c-2.936.833-5.344-.4-7.753-1.627-2.185-1.114-4.373-2.229-6.955-1.806l.614,3.063c5.025.166,8.165,4.973,13.356,4.766-.737,1.469.33,5.342-2.938,3.794-3.392-.814-5.845-3.794-9.563-3.794-.448.82-.164,1.958-.243,2.929,3.922.613,6.742,3.919,10.662,4.531-.368,1.344-.734,2.849-1.838,3.667-3.188-.771-5.681-3.63-9.076-3.55l-.6,2.815c3.227.084,5.312,2.929,8.211,3.784.08,1.186-.984,2.247-1.6,3.306-2.574-.77-4.538-2.978-7.479-2.812-.041-1.105.617-2.362.37-3.544-3.3.98-5.52-2.083-7.969-3.916-.071-6.012-6.413-9.952-6.748-15.583a8.328,8.328,0,0,1,.619-3.608c2.085-4.809,1.43-11.049-.855-15.533a8.812,8.812,0,0,0-3.073-2.8c1.678,3.548,3.723,7.737,2.7,12.1-.119,3.367-2.11,6.6-2.133,9.846a6.764,6.764,0,0,0,.907,3.483c2.658,4.771,7.441,9.292,5.642,15.279-.495,1.838-1.966,3.263-2.334,5.132,3.109,2.569,6.049,5.463,10.175,5.627,1.47-.936.654-5.089,3.678-3.173l4.417,2.2a7.1,7.1,0,0,1-2.208,3.046c-1.675-.816-3.309-1.788-5.4-1.712a3.191,3.191,0,0,0-1.1,2.319,9.881,9.881,0,0,1,4.047,1.72,10.157,10.157,0,0,1-2.7,2.929l-3.426-1.222c-.572.817-1.761,1.675-1.343,2.567a7.208,7.208,0,0,1,2.2,1.351,22.748,22.748,0,0,1-5.273,3.784c-1.587-5.176-6.822-8.808-6.372-14.792l-.243-.244c-1.23,1.377-.819,3.585-.739,5.375,1.471,3.749,4.984,6.646,5.516,10.758-.615,1.059-2,1.27-3.064,1.719.123-7.414-11.154-13.037-3.923-20.538,2.413-3.673,6.453-7.177,5.021-12.232-1.47-4.885-6.67-7.907-6.623-13.38l.008-.428c1.185-5.707,4.782-11.779,1.84-17.85-.822-2.442-2.653-5.219-5.146-6.237a17.431,17.431,0,0,1,3.064,16.871c-1.072,2.271-2.547,4.977-2.7,7.644h-.008a6.383,6.383,0,0,0,1.109,4.095c2.82,4.566,7.722,9.582,4.9,15.533-3.188,4.766-8.745,9.612-5.642,15.888,2.248,3.752,5.725,7.493,4.786,12.1l-3.676,1.219c2.45-8.595-9.564-13.647-4.534-22.246,3.105-4.6,8.66-8.923,5.514-15.036-1.878-3.784-5.762-6.027-5.64-10.76l.133-.795c1.266-6.713,6.381-13.063,2.8-20.237a12.758,12.758,0,0,0-4.9-5.5l-.127.127a14.789,14.789,0,0,1,3.191,16.008c-1.05,3.132-3.352,6.248-3.82,9.606a7.87,7.87,0,0,0,.883,4.945c2.656,4.194,7.311,8.644,4.406,14.065-3.06,4.479-8.17,8.837-6.129,14.661,2.249,5.1,6.943,9.95,4.409,16.27l-3.8.855C1206.031-12216.462,1201.5-12222.571,1198.844-12227.909Zm-15.449-46.331a14.347,14.347,0,0,0,6.859,13.438c1.921.689,4.5,1.347,6.507.367,4.822-2.239,6.819-7.369,7.717-12.1-.12-.9-.077-2.655-1.343-2.7-1.43.9-3.515.371-5.029,0-.9.291-.937,1.6-1.957,1.845l-.62-.5c-.532-2.238-.861-5.417,1.226-6.965a11.522,11.522,0,0,1,7.479-.613c.451-.773-.244-1.384-.369-2.075-1.141-2.528-3.756-3.55-6.129-4.163a32.584,32.584,0,0,0-3.568-.248c-.224,0-.448-.008-.672,0-3.349.066-6.549.924-8.505,3.673-.28.777-1.514,1.867-.368,2.562,2.573-.162,5.512-.484,7.229,1.717,0,1.96,1.267,4.564-.857,5.5-.917-.846-1.923-.625-2.946-.4a3.361,3.361,0,0,1-2.813-.213,1.268,1.268,0,0,0-.637-.2C1184.05-12275.3,1183.667-12274.814,1183.394-12274.24Zm49.768.97c4.166,1.1,8.344,5.625,12.754,2.688-3.842-6.358-9.557-12.226-7.968-20.539a.953.953,0,0,0-.731-1.221,10.734,10.734,0,0,0-5.406,5.869,36.615,36.615,0,0,1-1.216,4.279c-2.985-1.552-6.169-3.051-9.807-2.688-1.311.162-3.191.248-3.433,1.592a28.436,28.436,0,0,1,10.05,9.779,11.183,11.183,0,0,1,1.768-.129A26.936,26.936,0,0,1,1233.162-12273.271Zm-82.627-18.829c1.427,8.761-4.283,14.872-8.329,21.518,1.347,1.1,3.512.934,5.146.613,4.29-1.714,8.376-4.689,13.483-3.669a37.847,37.847,0,0,1,6.129-7.093c1.271-1.094,3.017-1.792,3.921-3.056h0c-4.25-2.771-9.639-.162-13.6,1.348a13.262,13.262,0,0,0-5.029-9.534,3.387,3.387,0,0,0-1.108-.5h-.042A.639.639,0,0,0,1150.536-12292.1Zm35.185,12.451a5.659,5.659,0,0,0-1.1.148.952.952,0,0,0-.739,1.214c-.081.529.04,1.469.856,1.105,1.268-1.752,3.515-.365,4.9-.244v-.49a4.337,4.337,0,0,0-3.707-1.739C1185.863-12279.654,1185.792-12279.65,1185.72-12279.648Zm18.025,2.468c.574-.283.45-.854.487-1.346-.5-.926-1.69-1.015-2.829-.993l-.479.02c-.856.571-3.352.161-2.452,2.075a3.017,3.017,0,0,1,1.921-.621A9.685,9.685,0,0,1,1203.746-12277.181Zm-34.94-19.189c2.453,3.423,4.454,7,5.146,11.12,8.136-3.917,17.622-6.07,27.471-4.4,4.617.732,8.861,2.608,12.988,4.153.161-4.315,2.9-7.785,4.783-11.254-3.024-.158-5.557,1.554-8.337,2.327-.241-2.356,1.555-4.849,1.965-7.217-4.494.289-8.053,2.987-11.771,5.141-.86-2.071-1.723-4.156-2.577-6.237l4.9-4.644.125-.614-6.623-.369c-1.142-1.992-1.591-4.394-2.939-6.229-1.1,2.079-1.845,4.277-2.948,6.354l-6.615.372v.486l5.021,4.519c-.615,2.323-1.184,4.85-2.695,6.606a58.362,58.362,0,0,0-9.066-4.891c-.776-.25-1.884-.656-2.578-.125,1.021,2.241,2.449,4.651,2.209,7.1-1.35-.248-2.41-1.111-3.678-1.473a15.468,15.468,0,0,0-3.771-.882A3.271,3.271,0,0,0,1168.805-12296.37Zm20.835,29.582-.117-.738a26.932,26.932,0,0,0,4.718.152,25.943,25.943,0,0,1,4.106.1c-.977,1.465-2.448,3.3-4.408,3.181q-.141.012-.273.012C1191.686-12264.082,1191.17-12265.774,1189.641-12266.788Zm3.892-3.062a5.825,5.825,0,0,0-1.559.006c-.446-.164-.163-.654-.243-.98a4.444,4.444,0,0,1,2.434-.7,2.941,2.941,0,0,1,2.215.829,1.828,1.828,0,0,1-1.872.9C1194.19-12269.8,1193.859-12269.822,1193.533-12269.85Zm-4.5-25.671,4.661-3.55a28.744,28.744,0,0,1,5.514,4.036l-.609.611c-3.064-.324-6.291.082-9.2.127C1189.078-12294.624,1188.425-12295.11,1189.033-12295.521Z" transform="translate(-1139.492 12318.499)" fill="#ce1953" stroke="rgba(0,0,0,0)" stroke-width="1"/>
</svg>
