<svg xmlns="http://www.w3.org/2000/svg" width="152" height="28" viewBox="0 0 152 28">
  <path id="Philips_logo" data-name="Philips logo" d="M333.179-465.225h-8.165v10.683h-8.5v-10.683h-8.166v26.877h8.166v-10.571h8.5v10.571h8.165Zm28.409,21.478v-21.478h-8.165v26.877h14.765l1.229-5.4Zm-14.2-21.478h-8.165v26.877h8.165Zm33.107,0h-8.164v26.877h8.164Zm40.262,6.859c0-1.461,1.456-2.137,3.8-2.137a20.373,20.373,0,0,1,7.271,1.353l-.67-5.85a31.816,31.816,0,0,0-7.495-.787c-6.6,0-11.072,2.616-11.072,8.1,0,9.444,12.752,7.533,12.752,11.919,0,1.686-1.233,2.584-4.254,2.584a24.33,24.33,0,0,1-9.282-2.135l.9,6.187a26.878,26.878,0,0,0,8.5,1.348c6.821,0,12.414-2.25,12.414-9,0-8.993-12.865-7.308-12.865-11.582m-23.035,13.607c7.6,0,12.411-3.937,12.411-10.795,0-7.535-5.144-10.233-13.533-10.233a91.543,91.543,0,0,0-9.956.561v26.877h8.168v-6.411Zm4.358-10.683c0,3.487-1.676,5.848-5.928,5.848h-1.339V-460.7c.474-.027.92-.027,1.339-.027,4.025,0,5.928,1.911,5.928,5.283M292.69-444.758c7.606,0,12.415-3.937,12.415-10.795,0-7.535-5.145-10.233-13.533-10.233a91.517,91.517,0,0,0-9.955.561v26.877h8.164v-6.411Zm4.363-10.683c0,3.487-1.678,5.848-5.929,5.848h-1.344V-460.7c.478-.027.923-.027,1.344-.027,4.025,0,5.929,1.911,5.929,5.283" transform="translate(-281.617 465.786)" fill="#ce1953"/>
</svg>
