<svg xmlns="http://www.w3.org/2000/svg" xmlns:xlink="http://www.w3.org/1999/xlink" width="152" height="26" viewBox="0 0 152 26">
  <defs>
    <clipPath id="clip-path">
      <rect id="Rectangle_136" data-name="Rectangle 136" width="152" height="26" transform="translate(0.102 0.428)" fill="#ce1953"/>
    </clipPath>
  </defs>
  <g id="Group_110" data-name="Group 110" transform="translate(-0.102 -0.432)">
    <g id="Group_109" data-name="Group 109" transform="translate(0 0.004)" clip-path="url(#clip-path)">
      <path id="Path_8668" data-name="Path 8668" d="M1622.622,26.864a42.646,42.646,0,0,1-4.7-.972c-5.892-1.9-9.5-6.792-9.421-12.6A13.225,13.225,0,0,1,1618.237.846c5.239-1.534,10.28-1.062,14.772,2.156a12.825,12.825,0,0,1-2.66,22.433,16.618,16.618,0,0,1-5.37,1.312,4.283,4.283,0,0,0-.573.117Zm1-24.135c-6.4,0-11.477,4.777-11.483,10.808-.006,5.827,5.08,10.622,11.257,10.614,6.248-.008,11.465-4.852,11.453-10.633a10.96,10.96,0,0,0-11.227-10.789" transform="translate(-1586.341 -0.004)" fill="#ce1953"/>
      <path id="Path_8669" data-name="Path 8669" d="M0,272.279H3.056v19H19.812v2.33H0Z" transform="translate(0 -268.627)" fill="#ce1953"/>
      <path id="Path_8670" data-name="Path 8670" d="M4079.1,284.562v8.909h-3.108V272.215c.253-.015.489-.041.725-.041,4.261,0,8.522-.026,12.782.015a13.758,13.758,0,0,1,3.229.37,6.007,6.007,0,0,1,.687,11.557c-.431.174-.874.319-1.448.526l6.709,8.855c-1.314,0-2.554.019-3.792-.022-.174-.006-.363-.292-.5-.479-1.954-2.629-3.908-5.258-5.841-7.9a1.181,1.181,0,0,0-1.092-.544c-2.527.026-5.054.012-7.581.012Zm.089-9.811v7.3c1.963,0,3.865.01,5.767,0,1.879-.012,3.763.022,5.637-.089a3.559,3.559,0,0,0,3.592-3.438,3.517,3.517,0,0,0-3.194-3.7,7.176,7.176,0,0,0-1.329-.1q-4.974-.013-9.946-.006c-.167,0-.334.023-.526.036" transform="translate(-4019.83 -268.514)" fill="#ce1953"/>
      <path id="Path_8671" data-name="Path 8671" d="M7580.9,292.977c-1.1,0-2.166.026-3.227-.021a.936.936,0,0,1-.629-.452q-1.229-2.259-2.385-4.555a.75.75,0,0,0-.782-.487q-6.168.023-12.338,0a.8.8,0,0,0-.829.535c-.761,1.508-1.527,3.015-2.339,4.5a1.086,1.086,0,0,1-.767.465c-1.032.054-2.071.022-3.2.022.145-.306.245-.541.364-.767q5.222-9.977,10.437-19.958a1,1,0,0,1,1.078-.625c1.014.042,2.032-.01,3.047.029a.929.929,0,0,1,.682.361q5.455,10.346,10.864,20.715a.993.993,0,0,1,.026.245m-7.925-8.236-5.3-10.149-5.238,10.149Z" transform="translate(-7450.321 -267.981)" fill="#ce1953"/>
      <path id="Path_8672" data-name="Path 8672" d="M6030.3,286.215v2.351h-12.141v7.46h16.154v2.3h-19.547V277.085h19.546v2.247h-16.149v6.883Z" transform="translate(-5931.893 -273.368)" fill="#ce1953"/>
      <path id="Path_8673" data-name="Path 8673" d="M9611.951,296.837v-21.25h3v18.952h16.767v2.3Z" transform="translate(-9479.519 -271.89)" fill="#ce1953"/>
      <path id="Path_8674" data-name="Path 8674" d="M1038.7,271.8c-.8,1.457-1.518,2.784-2.243,4.109-.52.951-1.07,1.888-1.55,2.857a.927.927,0,0,1-1.031.594c-.486-.039-.977-.008-1.572-.008.328-.808.615-1.515.9-2.221.652-1.6,1.318-3.2,1.949-4.805a.7.7,0,0,1,.8-.537c.861.037,1.725.011,2.748.011" transform="translate(-1018.078 -268.14)" fill="#ce1953"/>
      <path id="Path_8675" data-name="Path 8675" d="M6577.271,18.119c.738-.8,1.463-1.618,2.223-2.4a1,1,0,0,1,.645-.243c1.609-.02,3.218-.011,4.869.117l-7.635,2.662c-.033-.045-.068-.09-.1-.135" transform="translate(-6486.649 -15.259)" fill="#ce1953"/>
    </g>
  </g>
</svg>
