<svg id="Group_100" data-name="Group 100" xmlns="http://www.w3.org/2000/svg" xmlns:xlink="http://www.w3.org/1999/xlink" width="134" height="52" viewBox="0 0 134 52">
  <defs>
    <clipPath id="clip-path">
      <rect id="Rectangle_126" data-name="Rectangle 126" width="134" height="52" fill="#ce1953"/>
    </clipPath>
  </defs>
  <g id="Group_99" data-name="Group 99">
    <path id="Path_8630" data-name="Path 8630" d="M25.587,0c-.02,2.268-.048,4.537-.057,6.805q-.038,9.439-.061,18.877a13.31,13.31,0,0,1-1.5,6.328,12.4,12.4,0,0,1-9.037,6.76A12.018,12.018,0,0,1,4.683,36.017a12.657,12.657,0,0,1-4.5-8.012A13.062,13.062,0,0,1,2.849,17.583a12.228,12.228,0,0,1,7.757-4.664,14.723,14.723,0,0,1,2.319-.185c1.851-.026,3.7-.008,5.554-.008h.348V0ZM18.832,19.567c-.1-.005-.165-.012-.233-.012-1.964,0-3.928-.007-5.892.006a5.883,5.883,0,0,0-1.195.127A6.235,6.235,0,0,0,6.719,26.9,6.069,6.069,0,0,0,13.7,32.059a6.157,6.157,0,0,0,5.127-6.3q0-2.942,0-5.885v-.3" transform="translate(0)" fill="#ce1953"/>
    <path id="Path_8631" data-name="Path 8631" d="M1273.215,167.285c-.087.005-.174.015-.26.015-2.035,0-4.069,0-6.1.006-.247,0-.339-.074-.347-.328-.042-1.349-.122-2.7-.139-4.046-.036-2.718-.042-5.436-.059-8.154a6.168,6.168,0,0,0-4.686-6.051,6.014,6.014,0,0,0-7.167,5.073,9.193,9.193,0,0,0-.074,1.21q-.008,5.941,0,11.881v.39h-6.626v-.292c0-4.086-.071-8.174.017-12.259.123-5.661,2.72-9.8,7.746-12.059,7.057-3.175,15.11.855,17.21,8.494.227.825.3,1.694.445,2.542.014.079.032.157.048.235Z" transform="translate(-1139.215 -128.88)" fill="#ce1953"/>
    <path id="Path_8632" data-name="Path 8632" d="M335,148.232h6.621v.345c0,4.1-.024,8.192.009,12.287a5.952,5.952,0,0,0,11.83,1.117,7.381,7.381,0,0,0,.1-1.235q.011-6.076,0-12.152c0-.115,0-.229,0-.359h6.6c.007.089.018.167.018.245-.007,6.346,0,12.692-.031,19.038a42.834,42.834,0,0,1-.725,8.077,16.589,16.589,0,0,1-2.418,6.241,11.024,11.024,0,0,1-6.273,4.456,15.5,15.5,0,0,1-13.272-2.178c-.516-.335-1-.716-1.53-1.1l3.528-4.619.427.266a13.245,13.245,0,0,0,4.462,1.934,7.252,7.252,0,0,0,6.037-1.2,7.413,7.413,0,0,0,2.426-3.574,14.131,14.131,0,0,0,.742-4.257c0-.077,0-.154,0-.288-.148.138-.253.241-.363.337a8.888,8.888,0,0,1-4.442,2.034,10.433,10.433,0,0,1-5.751-.737,12.3,12.3,0,0,1-7.8-9.658,13.02,13.02,0,0,1-.194-2.389c-.019-4.114-.009-8.227-.009-12.341Z" transform="translate(-305.867 -134.935)" fill="#ce1953"/>
    <path id="Path_8633" data-name="Path 8633" d="M936.641,168.124a13.137,13.137,0,1,1,12.736-13.086,12.94,12.94,0,0,1-12.736,13.086m-.127-6.843a6.3,6.3,0,1,0-6.093-6.343,6.313,6.313,0,0,0,6.093,6.343" transform="translate(-843.568 -129.138)" fill="#ce1953"/>
    <path id="Path_8634" data-name="Path 8634" d="M659.174,166.623l3.23-4.582c.244.154.473.314.715.45a15.952,15.952,0,0,0,6.182,2.057,7.613,7.613,0,0,0,3.088-.243,3.437,3.437,0,0,0,.808-.371,1.283,1.283,0,0,0,.705-1.206,1.324,1.324,0,0,0-.919-1.175c-.854-.31-1.724-.573-2.6-.821a51.313,51.313,0,0,1-5.5-1.732,9.857,9.857,0,0,1-3.333-2.037,6.439,6.439,0,0,1-1.589-6.864,7.055,7.055,0,0,1,2.842-3.729,9.913,9.913,0,0,1,5.146-1.79,17.964,17.964,0,0,1,9.372,1.731c.557.273,1.07.639,1.6.966a3.11,3.11,0,0,1,.278.218l-1.919,2.756c-.316.453-.63.907-.948,1.358-.3.422-.178.366-.609.183a15.679,15.679,0,0,0-6.315-1.328,6.569,6.569,0,0,0-2.115.322,2.847,2.847,0,0,0-.682.333,1.025,1.025,0,0,0,.1,1.868,12.264,12.264,0,0,0,1.829.718c1.789.574,3.6,1.093,5.379,1.685a13.132,13.132,0,0,1,3.867,1.939,6.016,6.016,0,0,1,2.548,3.968,7.282,7.282,0,0,1-2.229,6.669,9.971,9.971,0,0,1-5.118,2.481,15.776,15.776,0,0,1-7.677-.607,18.555,18.555,0,0,1-5.981-3.086c-.048-.037-.092-.078-.155-.131" transform="translate(-601.849 -131.56)" fill="#ce1953"/>
  </g>
</svg>
