<svg id="Group_97" data-name="Group 97" xmlns="http://www.w3.org/2000/svg" xmlns:xlink="http://www.w3.org/1999/xlink" width="408.873" height="377.677" viewBox="0 0 408.873 377.677">
  <defs>
    <clipPath id="clip-path">
      <rect id="Rectangle_67" data-name="Rectangle 67" width="408.873" height="377.676" fill="none"/>
    </clipPath>
  </defs>
  <rect id="Rectangle_62" data-name="Rectangle 62" width="20.377" height="20.376" transform="matrix(0.842, -0.54, 0.54, 0.842, 0, 351.956)" fill="#fff"/>
  <path id="Path_8564" data-name="Path 8564" d="M332.587,644.725l1.366-.874-.239,2.614v.014Z" transform="translate(-182.692 -353.671)" fill="#ededed"/>
  <path id="Path_8565" data-name="Path 8565" d="M365.272,655.618l-1.659,1.059-11.547,7.414,0,0-3.092-4.818L348,657.763l0,0,14.264-8.748.176-.108,1.636-1.005.072.478.388,2.506Z" transform="translate(-191.157 -355.894)" fill="#fff"/>
  <rect id="Rectangle_63" data-name="Rectangle 63" width="20.376" height="20.376" transform="matrix(0.842, -0.54, 0.54, 0.842, 113.598, 322.281)" fill="#fff"/>
  <path id="Path_8566" data-name="Path 8566" d="M248.277,585.372l.613-.054-.482.784-.284.464-.717-1.113Z" transform="translate(-135.902 -321.518)" fill="#ededed"/>
  <path id="Path_8567" data-name="Path 8567" d="M254.03,535.5l-1.51,2.461-.068.108-8.595,14.021L242.2,554.8l-1.082-1.69,2.258-3.687,5.868-9.564,2.127-3.475.18-.288-.153-.023-.252-.041-.158-.023,1.469-.946.816-.523.1-.063.059.09.46.717Z" transform="translate(-132.447 -293.591)" fill="#ededed"/>
  <path id="Path_8568" data-name="Path 8568" d="M240.012,577.44l-3.141.284-5.093.464,2.632-4.3,1.577-2.569,2.258-3.687.482,2.668-1.658,2.709-1.573,2.564-.3.491.581-.054,3.047-.275.87-.081.131.73Z" transform="translate(-127.317 -311.807)" fill="#ededed"/>
  <path id="Path_8569" data-name="Path 8569" d="M146.9,556.082l-17.149,11.006,11.01,17.149-17.149,11.006L101.6,560.95l34.293-22.012,11.006,17.14Z" transform="translate(-55.808 -296.041)" fill="#fff"/>
  <rect id="Rectangle_64" data-name="Rectangle 64" width="20.376" height="20.376" transform="translate(104.501 355.653) rotate(-32.697)" fill="#fff"/>
  <rect id="Rectangle_65" data-name="Rectangle 65" width="40.753" height="20.374" transform="translate(9.047 320.11) rotate(-32.697)" fill="#fff"/>
  <rect id="Rectangle_66" data-name="Rectangle 66" width="20.376" height="20.376" transform="matrix(0.842, -0.54, 0.54, 0.842, 54.34, 315.231)" fill="#fff"/>
  <path id="Path_8570" data-name="Path 8570" d="M106.946,748.481l22.015,34.295,34.294-22.015-11.006-17.145L135.1,754.623l-11.009-17.149Z" transform="translate(-58.746 -405.099)" fill="#fff"/>
  <path id="Path_8571" data-name="Path 8571" d="M267.491,603.661l-17.144,11.006-11.006-17.149-34.3,22.012-11.006-17.144,17.149-11.006-11.01-17.149,6.751-4.331-1.893-2.934-7.36-11.466v0l12.687-8.144,1.262-.807,2.285-1.469.915-.586,9.487-6.089.816-.523.158.022.252.04.153.023-.18.288-2.127,3.475-5.868,9.564-2.258,3.687-1.577,2.569-2.632,4.3,5.093-.464,3.141-.284L238.94,559.3l-8.725,26.591,21.376-7.013,5.215-1.713-.784,8.613-1.758,19.276,10.136-6.215Z" transform="translate(-106.586 -295.459)" fill="#fff"/>
  <path id="Path_8572" data-name="Path 8572" d="M353.254,677.956l0,0-3.092-4.818,0,0Z" transform="translate(-192.343 -369.758)" fill="#ededed"/>
  <g id="Group_71" data-name="Group 71">
    <g id="Group_70" data-name="Group 70" clip-path="url(#clip-path)">
      <path id="Path_8579" data-name="Path 8579" d="M80.468,0,68.628,24.433,49.485,5.154,47.694,32.208l-25.285-9.8,9.8,25.284L5.154,49.484,24.432,68.627,0,80.467,24.668,91.934,4.98,110.684l26.9,4.164L17.651,138.042l27.109-2.47-8.485,25.858,25.859-8.485-2.47,27.109,23.191-14.224,4.165,26.9,18.747-19.688,11.467,24.668,11.841-24.433,19.143,19.279,1.79-27.052,25.287,9.8-9.8-25.286,27.052-1.79-19.278-19.143,24.432-11.84-24.667-11.467,19.688-18.749-26.9-4.166,14.223-23.192-27.109,2.468,8.485-25.859L135.571,44.76l2.47-27.108L114.848,31.875l-4.163-26.9L91.936,24.669Z" transform="matrix(0.966, -0.259, 0.259, 0.966, 72.648, 160.674)" fill="#16161c"/>
      <path id="Path_8573" data-name="Path 8573" d="M375.814,187.687c-.333.014-.667-.018-1,.014-1.258.122-2.506.279-3.759.383-1.65.14-3.3.207-4.949.374-1.722.18-3.43.469-5.151.663-2.181.248-4.363.442-6.544.667a7.119,7.119,0,0,0-.748.158c.009.086.023.171.036.257.874,0,1.753.032,2.623-.009,1.361-.059,2.722-.167,4.079-.266,1.046-.072,2.082-.185,3.128-.23,1.352-.054,2.709-.041,4.065-.095,1.158-.045,2.326-.135,3.488-.212.834-.059,1.672-.135,2.506-.2,1.05-.081,2.1-.158,3.15-.248.194-.014.383-.036.577-.054l.433-1.316c-.644.041-1.294.086-1.938.117m174.721-57.459c-.9-.509-1.505.185-2.06.635-1.505,1.221-2.929,2.542-4.282,3.732-.523-.243-.982-.658-1.316-.572a11.984,11.984,0,0,0-2.628,1.05,6.783,6.783,0,0,1-3.2,1.073,11.434,11.434,0,0,1-6.148-1.875c-1.456-.9-2.884-1.848-4.349-2.736-1.758-1.064-3.542-2.091-5.733-1.929-1.1.086-2.213.041-3.308.171-.906.108-1.794.4-2.691.595l-2.663.581c-1.262.266-2.51.6-3.79.78-1.794.252-3.61.419-5.422.541a7.291,7.291,0,0,1-2.812.014c-1.028-.338-2.163-.207-3.137-.861a8.732,8.732,0,0,1-3.069-2.646c-.392-.667-.153-.924.212-1.379a6.251,6.251,0,0,0,.78-1.465c.149-.343.158-.748.32-1.082.482-.969,1.01-1.915,1.523-2.889a3.035,3.035,0,0,0,3.227-.59c.627-.635,1.154-1.37,1.735-2.051a2.2,2.2,0,0,1,.55-.532c.694-.379,1.424-.681,2.109-1.077s1.262-.739,2.082-.149a1.9,1.9,0,0,0,1.6.113,16.29,16.29,0,0,0,2.7-1.645.877.877,0,0,1,1.149-.041,3.445,3.445,0,0,0,3.326.329,17.856,17.856,0,0,0,2.1-1.393,2.815,2.815,0,0,0,2.384-.05,2.877,2.877,0,0,1,2.19.207c1.244.374,2.456.852,3.7,1.19a28.035,28.035,0,0,0,3.11.6c1.924.288,3.853.532,5.778.8a7.786,7.786,0,0,0,.942.2,8.575,8.575,0,0,1,1.623-.045,4.115,4.115,0,0,0,3.7-1.221,9.094,9.094,0,0,0,2.817-3.822,3.015,3.015,0,0,0-1.1-3.889c-.825-.563-1.695-1.059-2.519-1.618-1.3-.879-2.551-1.83-3.867-2.677-1.2-.771-2.456-1.46-3.709-2.154-1.149-.64-2.3-1.289-3.493-1.843-1.4-.649-2.853-1.181-4.268-1.785-.874-.379-1.717-.82-2.587-1.194-1.28-.536-2.587-1.023-3.872-1.559-2.019-.843-4.007-1.749-6.035-2.555-1.352-.536-2.754-.937-4.128-1.411-1.208-.415-2.407-.861-3.615-1.275-1.623-.559-3.258-1.1-4.895-1.641-1.3-.437-2.609-.87-3.871-1.289a6.855,6.855,0,0,1,3.763-2.65c1.672-.487,3.38-.843,5.052-1.334.374-.108.663-.518.992-.8.068-.059.081-.194.158-.23.725-.374,1.465-.735,2.195-1.1,1.127-.559,2.267-1.1,3.362-1.7.239-.135.5-.636.424-.82a1.493,1.493,0,0,0-.838-.721,2.39,2.39,0,0,0-2.1.388q-1.372.872-2.8,1.65c-.342.189-.946.464-1.1.324-.793-.685-1.613-.243-2.28-.009a26.8,26.8,0,0,0-3.7,1.776c-1.145.622-2.271,1.289-3.362,2a11.014,11.014,0,0,0-2.38,1.834c-.4.46-.757.315-1.145.4a3.086,3.086,0,0,1-.189-.978,26.128,26.128,0,0,0,.135-6.5c-.356-3.132-2.033-5.016-5.156-5.5-2.56-.388-5.138-.626-7.684-1.059a19.082,19.082,0,0,1-6.229-2.181,22.162,22.162,0,0,1-4.836-4.061c.167-.581.356-1.1.478-1.65a1.316,1.316,0,0,1,.811-1.113,2.724,2.724,0,0,0,1.388-1.293c.311-.509.883-1.05.388-1.87a4.091,4.091,0,0,0,.838.027c.433-.072.991-.09,1.262-.361.8-.811,1.478-1.74,2.2-2.619.063-.077.162-.189.239-.18a3.086,3.086,0,0,0,2.943-1.212,3.905,3.905,0,0,0,5.426-1.334c1.568,1.325,3.9.383,4.908-.753a1.765,1.765,0,0,0,2.321.234,2.639,2.639,0,0,1,2.781-.144c1.3.46,2.614.906,3.93,1.325.64.207,1.307.334,1.956.518A17.79,17.79,0,0,0,502.68,57a11.974,11.974,0,0,0,4.426.018,5.434,5.434,0,0,0,2.375-1.478,17.117,17.117,0,0,0,1.884-2.362c.554-.766,1.163-2.411.257-3.331a6.548,6.548,0,0,0-.762-.532c-1-.771-1.933-1.618-2.984-2.3-1.542-1.005-3.169-1.888-4.746-2.844-1.118-.676-2.172-1.447-3.317-2.073-1.654-.9-3.367-1.695-5.048-2.551-.8-.4-1.55-.906-2.375-1.244-2.8-1.145-5.629-2.24-8.451-3.349-.487-.189-.992-.338-1.474-.527-1.036-.406-2.046-.892-3.105-1.212-1.447-.442-2.929-.744-4.39-1.14-1.853-.5-3.682-1.082-5.548-1.528-1.271-.3-2.583-.428-3.876-.64-2.015-.338-4.025-.7-6.039-1.014a.826.826,0,0,1-.757-.825,3.238,3.238,0,0,0-.131-.7c-.216-.523-.464-1.023-.712-1.532a18.911,18.911,0,0,0-1.019-2A8.92,8.92,0,0,0,453.865,21a11.514,11.514,0,0,0-3.425-1.415c-2.5-.541-5.043-.9-7.558-1.37a15.017,15.017,0,0,1-3.168-.82,7.155,7.155,0,0,1-2.623-1.749c-1.23-1.465-1.528-3.385-1.789-5.233a1.82,1.82,0,0,0-.825-1.469,1.006,1.006,0,0,1-.428-.644c-.05-.933,0-1.879-.041-2.817-.063-1.465-.158-2.925-.293-4.381a4.325,4.325,0,0,0-.424-1.1h-1.037c-.248.419-.658.82-.708,1.262a23.048,23.048,0,0,0-.158,3.61c.045,1.275-.131,2.6.532,3.8.04.072-.113.279-.207.4-.266.361-.694.617-.554,1.2a3.541,3.541,0,0,1,.171,1.5,2.75,2.75,0,0,0,.626,2.069,23.275,23.275,0,0,0,1.938,2.8,14.324,14.324,0,0,0,1.992,2.024c1.884,1.577,4.259,2.078,6.513,2.794,1.812.577,3.7.883,5.53,1.424a17.609,17.609,0,0,1,5.584,3.029,3.832,3.832,0,0,1,1.69,2.222c-1.028-.131-2.033-.23-3.029-.374-1.154-.167-2.3-.41-3.452-.541a44.84,44.84,0,0,0-4.52-.379,3.25,3.25,0,0,0-3.159,2.118c-.185.8-.171,1.65-.356,2.447-.2.834.649,1.465.329,2.321a3.774,3.774,0,0,0-.158,1.37c.023,1.447.1,2.889.131,4.336.041,1.794.117,3.592.058,5.381a24.648,24.648,0,0,1-.455,3.98,22.4,22.4,0,0,1-2.127,5.638,10.85,10.85,0,0,1-.865,2.154c-1.009,1.221-.789,2.763-1.28,4.11a10.761,10.761,0,0,0-.2,3.385,2.542,2.542,0,0,0,.2.744c.076.162.009.406.09.568.252.518.573,1,.843,1.514a.465.465,0,0,1-.036.343c-.649,1.343-1.307,2.682-1.947,4.025-.577,1.2-1.145,2.393-1.7,3.6-.717,1.564-1.442,3.123-2.132,4.7-.266.613-.275,1.433-.7,1.866-.658.663-.239,1.78-1.136,2.244-.022.014,0,.1-.014.144-.085.225-.167.455-.27.672a5.74,5.74,0,0,0-.3.5c-.284.789-.491,1.6-.825,2.362-.379.865-.915,1.659-1.285,2.524-.64,1.5-1.2,3.033-1.8,4.557a16.127,16.127,0,0,1-.626,1.726,20.835,20.835,0,0,0-1.19,2.655c-.523,1.33-1.064,2.65-1.555,3.989-.113.306.086.865-.095.992-.654.478-.645,1.244-.929,1.866-.739,1.632-.919,3.443-1.577,5.111-.473,1.208-.744,2.5-1.113,3.75-.491,1.668-.987,3.326-1.483,4.989-.185.617-.37,1.239-.536,1.789a4.1,4.1,0,0,0-1.127-.527,4.028,4.028,0,0,0-2.709.892c-1.568,1.14-3.119,2.308-4.732,3.385-1.681,1.122-3.439,2.132-5.142,3.209q-3.921,2.481-7.824,5c-.856.554-1.695,1.154-2.56,1.7s-1.753,1-2.6,1.546c-.906.586-1.749,1.262-2.655,1.843-1.537.987-3.105,1.92-4.647,2.893-1.212.757-2.411,1.541-3.606,2.321-.87.559-1.726,1.127-2.592,1.69-.969.631-1.934,1.262-2.911,1.888-1.1.712-2.217,1.411-3.322,2.123-.478.306-.937.645-1.42.946-1.244.771-2.506,1.51-3.732,2.3-1.127.726-2.159,1.609-3.331,2.231-1.758.933-3.335,2.136-5.021,3.168-2.272,1.4-4.453,2.939-6.679,4.408-1.262.838-2.528,1.663-3.781,2.483a7.343,7.343,0,0,0-3.889-1.97,11.971,11.971,0,0,0-2.605-.361,13.894,13.894,0,0,0-1.559.045c-.334.027-.676.063-1.023.108a9.746,9.746,0,0,0-5.6,2.8,7.068,7.068,0,0,0-2.42,3.908c-.009.068-.144.113-.194.18a4.889,4.889,0,0,0-.667.969c-.433,1.118-.825,2.258-1.19,3.4-.59,1.852-1.077,3.736-1.794,5.544-.532,1.343-.982,2.722-1.6,4.025-.771,1.641-1.654,3.241-2.542,4.822-.753,1.339-1.523,2.677-2.393,3.948-.753,1.109-1.636,2.136-2.492,3.177-1.465,1.789-2.925,3.583-4.435,5.332a27.316,27.316,0,0,1-2.015,1.942c-1.7,1.6-3.4,3.2-5.093,4.8-.644.6-1.239,1.262-1.911,1.839-.825.712-1.726,1.339-2.555,2.046-1.307,1.113-2.569,2.28-3.876,3.394-1.438,1.235-2.911,2.434-4.367,3.642-.361.293-.73.581-1.1.865-.667.509-1.357,1-2.006,1.532-.735.6-1.406,1.28-2.145,1.875-1.442,1.163-2.929,2.267-4.363,3.434-1.1.9-2.114,1.893-3.214,2.79-1.55,1.266-3.15,2.47-4.714,3.718-.212.167-.279.5-.487.671-.852.676-1.74,1.316-2.605,1.979-1.614,1.235-3.218,2.483-4.836,3.718q-1.3,1-2.623,1.992c-.108.077-.212.158-.32.239-.563.424-1.131.847-1.695,1.271l.153.023-2.308,3.763.041,0a20.233,20.233,0,0,0,1.911-1c.451-.284.892-.59,1.325-.9.595-.419,1.181-.856,1.78-1.28,1.686-1.2,3.421-2.344,5.057-3.606,1.826-1.42,3.57-2.939,5.332-4.43.717-.608,1.384-1.28,2.078-1.915,1.136-1.037,2.253-2.091,3.412-3.105,1.113-.969,2.281-1.888,3.4-2.853,1.361-1.176,2.7-2.371,4.047-3.57.757-.676,1.478-1.406,2.258-2.06.717-.6,1.528-1.1,2.235-1.713,1.019-.883,1.965-1.861,2.975-2.749,1.118-.987,2.3-1.9,3.416-2.889,1.569-1.375,3.105-2.781,4.647-4.187q2.549-2.332,5.075-4.692c.473-.455.87-.992,1.325-1.469,1.3-1.343,2.637-2.641,3.9-4.02.964-1.059,1.87-2.186,2.749-3.322,1.194-1.555,2.4-3.11,3.5-4.732.91-1.343,1.686-2.781,2.492-4.191.744-1.307,1.478-2.623,2.172-3.962.509-.964.969-1.952,1.406-2.952s.825-2.037,1.257-3.047c.5-1.19,1.014-2.371,1.541-3.547.361-.816.717-1.641,1.145-2.429a7.525,7.525,0,0,1,1.307-1.988c1.14-1.041,1.934-2.461,3.43-3.119a14.947,14.947,0,0,0,1.731-1.028,6.241,6.241,0,0,0-.852,3.538,19.948,19.948,0,0,0,1.293,6.612,14,14,0,0,1,.96,3.128c.212,1.532.18,3.1.248,4.656a12.458,12.458,0,0,1-1.442,6.377,27.451,27.451,0,0,1-3.615,5.363c-.37.433-.6.987-1,1.379-.9.9-1.866,1.717-2.794,2.578a16.254,16.254,0,0,1-2.136,2.006,20.022,20.022,0,0,0-2.154,1.974c-1.32,1.167-2.785,2.154-4.079,3.353-.55.5-1.086,1.019-1.672,1.478-.442.338-.978.554-1.42.888-.762.559-1.492,1.163-2.226,1.762-.766.631-1.492,1.32-2.285,1.92-.829.631-1.74,1.154-2.578,1.767-.951.708-1.884,1.451-2.794,2.217-1.23,1.032-2.438,2.091-3.646,3.159-.374.329-.712.708-1.073,1.064-.955.946-1.97,1.843-2.857,2.853-.928,1.059-1.735,2.213-2.592,3.34-.8,1.055-1.659,2.082-2.384,3.191-.559.861-.906,1.857-1.42,2.745a25.194,25.194,0,0,0-2.213,5.836,16.589,16.589,0,0,0-.518,2.524,25.558,25.558,0,0,0-.329,4.255,23.8,23.8,0,0,0,.735,4.412,10.029,10.029,0,0,0,1.1,2.56c.509.883,1.212,1.654,1.749,2.528a9.978,9.978,0,0,0,4.336,3.664c1.329.654,2.74,1.131,4.115,1.695a41.626,41.626,0,0,1,4.3,1.812,38.862,38.862,0,0,1,5.039,3.25,23.366,23.366,0,0,1,3.331,3.313c1.073,1.244,1.983,2.623,2.984,3.93a28.607,28.607,0,0,1,2.465,4.029c.681,1.3,1.379,2.6,1.943,3.944a31.7,31.7,0,0,0,2.1,3.971,11.329,11.329,0,0,0,2.767,2.8,2.211,2.211,0,0,0,2.362.663,1.757,1.757,0,0,0,1.988.455,9.862,9.862,0,0,1-2.461,1.109c-1.8.392-3.637.6-5.453.924-.861.149-1.7.388-2.565.541-.883.158-1.8.185-2.668.406-1.122.293-2.222.649-3.326,1-.284.09-.563.18-.847.266s-.573.176-.861.261l-.185.054.009.054.3,1.929.09.572c.049-.018.1-.036.153-.05.577-.194,1.158-.383,1.731-.581.37-.126.735-.257,1.1-.4,1.523-.595,3.114-.807,4.642-1.28.626-.194,1.221-.5,1.83-.757a2.693,2.693,0,0,0,1.154-.059,37.146,37.146,0,0,0,5.39-1.357,30.471,30.471,0,0,0,4.593-2.691,16.022,16.022,0,0,1,2.474-1.686,8.3,8.3,0,0,0,2.736-2.168,15.188,15.188,0,0,0,2.29-3.263,16.557,16.557,0,0,0,.9-2.195c.316-.766.721-1.51.96-2.3.388-1.28.676-2.6.992-3.9a25.3,25.3,0,0,0,.518-2.5,13.221,13.221,0,0,0,.014-1.839c1.023-.37,2.132-.852,3.286-1.163,1.744-.464,3.529-.807,5.291-1.2l3.353-.744c2.227-.491,4.457-.964,6.675-1.492,2.249-.527,4.475-1.14,6.715-1.677,1.433-.347,2.884-.595,4.322-.933,2.073-.487,4.137-1.019,6.211-1.514,1.158-.275,2.33-.469,3.479-.762.982-.248,1.938-.608,2.92-.856.933-.239,1.9-.374,2.835-.595.726-.171,1.433-.428,2.163-.6.793-.185,1.6-.293,2.4-.478.744-.171,1.46-.451,2.2-.613,1.42-.306,2.853-.577,4.273-.874.464-.095.929-.194,1.388-.3a29.73,29.73,0,0,1,2.979-.789,16.969,16.969,0,0,0,2.722-.626c.514-.149,1.023-.3,1.546-.428.568-.14,1.14-.279,1.713-.415,1.1-.261,2.213-.518,3.317-.784.753-.176,1.5-.37,2.253-.541.789-.18,1.582-.343,2.371-.518.307-.068.618-.14.924-.212.946-.221,1.884-.469,2.83-.712.928-.234,1.861-.469,2.79-.717.708-.189,1.4-.428,2.114-.59.982-.225,1.983-.37,2.961-.6,1.077-.261,2.123-.649,3.209-.865a36.352,36.352,0,0,0,4.507-1.118c2.033-.694,4.092-1.3,6.111-2a2.636,2.636,0,0,0,1.271-.933c1.064-1.649,1.167-3.556,1.411-5.444.14-1.113-.3-2.38,1.1-3.277a11.054,11.054,0,0,0,2.506-2.948,8.078,8.078,0,0,0,1.875-3.069,15.1,15.1,0,0,1,1.248-2.893c.712-1.555.775-3.241,1.415-4.782a12.4,12.4,0,0,0,.541-2.213c.131-.595.2-1.2.347-1.8.257-1.059.586-2.1.834-3.168.293-1.262.491-2.546.8-3.8.275-1.1.676-2.177.96-3.281.248-.955.4-1.929.626-2.889.275-1.212.59-2.411.879-3.624q.405-1.7.784-3.416c.171-.789.316-1.582.473-2.38.135-.712.225-1.429.406-2.132.46-1.825.987-3.642,1.442-5.476.545-2.217,1.018-4.453,1.564-6.666.514-2.073,1.077-4.128,1.627-6.188.563-2.123,1.154-4.246,1.695-6.377.527-2.082,1-4.178,1.5-6.269.342-1.424.68-2.844,1.037-4.259.329-1.271.716-2.524,1.028-3.8.437-1.816.8-3.646,1.244-5.462.383-1.564.834-3.11,1.248-4.651.122.095.356.176.41.324a3.816,3.816,0,0,0,1.645,1.8,3.053,3.053,0,0,0,4.074-.879,10.388,10.388,0,0,0,1.478-3.754c.207-1.068.554-2.118.708-3.191a7.562,7.562,0,0,1,1.275-3.286,22.361,22.361,0,0,1,2.5-2.7,9.043,9.043,0,0,1,2.844-1.789c.149-.063.379.068.572.077.708.041.559.771.9,1.1a34.41,34.41,0,0,0,2.722,2.659,28.32,28.32,0,0,0,3.227,1.9c.036.027.095.014.144.027,1.573.347,3.141.73,4.723,1.032a11.638,11.638,0,0,0,5.264-.374c.6-.167,1.2-.356,1.807-.5,2.425-.613,4.849-1.235,7.279-1.807a13.034,13.034,0,0,1,2.992-.5,10.178,10.178,0,0,1,5.476,1.663c2,1.275,4.106,2.371,6.071,3.682a12.3,12.3,0,0,0,4.692,1.825,14.2,14.2,0,0,0,3.1.158,6.557,6.557,0,0,0,4.227-1.149c.758-.631,1.817-1.05,1.56-2.357-.018-.1.122-.27.234-.347.938-.649,1.884-1.294,2.849-1.911a14.664,14.664,0,0,0,3.421-2.812v-.888c-.23-.149-.451-.311-.69-.442M508.385,80.3a16.145,16.145,0,0,1,1.46-.775,5.259,5.259,0,0,1,1.1-.243c.032.095.059.194.09.293q-2.8,1.318-5.6,2.646c-.041-.081-.072-.158-.113-.239q1.535-.838,3.06-1.681M494.135,126c-.527.658-1.1,1.293-1.654,1.933-.059-.054-.117-.113-.176-.167.73-.685.419-2.506-.144-3.3-.879-1.221-1.69-2.488-2.538-3.75a6.423,6.423,0,0,1,.5-.446c.248-.18.55-.5.766-.455a1.214,1.214,0,0,1,.7.654c.451,1,.8,2.046,1.258,3.042.329.708.78,1.352,1.167,2.037.077.131.176.374.113.451M434.72,182.77a7.218,7.218,0,0,1-3.254.532,13.542,13.542,0,0,0-2.235.352c-.315.041-.658-.113-.982-.086-1.33.122-2.655.3-3.989.415-.554.05-1.127-.05-1.681-.009-1.866.144-3.736.315-5.6.473-.113.009-.23-.014-.478-.027.807-.464,1.487-.888,2.195-1.262,1.082-.577,2.195-1.1,3.272-1.686,1.181-.649,2.321-1.375,3.507-2.019,1.713-.928,3.457-1.789,5.165-2.727.676-.374,1.258-.9,1.915-1.289,1.068-.635,2.15-1.239,3.254-1.8.671-.342.762-.96.919-1.555.388-1.505-.063-2.984-.23-4.457a25.848,25.848,0,0,1-.572-3.389c.032-.987-.906-1.388-.951-2.249,0-.086-.379-.153-.577-.225.856-1.451,1.8-2.839,2.528-4.34a42.415,42.415,0,0,0,1.46-3.984c.077-.221.293-.4.347-.617.28-1.1.518-2.208.784-3.308.149-.59.338-1.167.487-1.758.289-1.113.573-2.231.838-3.349.275-1.158.559-2.317.784-3.479.185-.96.243-1.938.419-2.893.158-.852.442-1.686.595-2.542.32-1.776.577-3.569.879-5.35.135-.771.356-1.523.5-2.294.1-.536.149-1.082.225-1.622.04-.293.1-.577.153-.87.347-1.884.721-3.768,1.018-5.661s.487-3.808.771-5.71c.221-1.483.527-2.952.762-4.439.185-1.131.3-2.281.478-3.412.108-.667.334-1.312.433-1.974.208-1.37.324-2.758.555-4.124.194-1.181.5-2.339.743-3.511.126-.622.23-1.244.347-1.87.225-1.136.447-2.281.685-3.412.415-1.924.807-3.849,1.253-5.764.4-1.7.843-3.38,1.276-5.066.027-.1.14-.185.257-.329a3.1,3.1,0,0,0,2.781.915,2.559,2.559,0,0,0,1.816-1.348c1.487-2.064,1.812-4.561,2.555-6.909a8.365,8.365,0,0,1,1.789-3.556c1.771,1.636,3.056.158,4.444-.572a33.27,33.27,0,0,0,2.245,2.6,10.189,10.189,0,0,0,4.98,2.7c2.488.5,5.007.874,7.5,1.348a30.481,30.481,0,0,1,3.75.906,6.132,6.132,0,0,1,3.709,3.876,15.635,15.635,0,0,1,.987,4.881,11.378,11.378,0,0,1-.05,1.158c-1.379-.406-2.731-.825-4.1-1.2-2.055-.554-4.115-1.086-6.179-1.609-1.253-.32-2.506-.676-3.781-.883a51.155,51.155,0,0,0-5.106-.586,19.918,19.918,0,0,0-4.047.162,5.887,5.887,0,0,0-3.61,2.069,6.146,6.146,0,0,0-1.046,3.141,7.985,7.985,0,0,0,0,2.452,4.328,4.328,0,0,0,.707,1.284,16.422,16.422,0,0,0-.734,5.444c-.009,1.938-.131,3.885.027,5.8a21.944,21.944,0,0,1-.514,7.022,32.862,32.862,0,0,1-1.731,4.813c-.473,1.14-1.163,2.2-1.677,3.331-.446.987-.757,2.033-1.158,3.042a18.762,18.762,0,0,0-1.055,2.6c-.194.825-.645,1.726-.014,2.587-.464,1.221.627,1.717,1.185,2.434.2.252.681.284.974.392-.929,1.924-1.9,3.93-2.858,5.945-.946,1.988-1.92,3.957-2.8,5.967-.906,2.046-1.672,4.155-2.6,6.193a68.063,68.063,0,0,0-2.731,6.3c-.275.5-.708,1.2-1.037,1.942-.275.631-.383,1.334-.631,1.979-.171.455-.491.847-.69,1.289a6.62,6.62,0,0,0-.275,1.01,4.7,4.7,0,0,0-.753.96q-1.156,2.637-2.226,5.309c-.69,1.717-1.343,3.452-1.988,5.2-.252.694-.23,1.641-.7,2.078-.645.6-.338,1.442-.915,2.064a5.453,5.453,0,0,0-.739,1.713c-.388,1.185-.874,2.348-1.307,3.524-.261.721-.509,1.447-.717,2.186a2.3,2.3,0,0,0,.054.744m-.915,1.924c-.369,1.208-.739,2.416-1.14,3.723a6.036,6.036,0,0,1,1.14-3.723m1.334-11.741c-1.542-.018-2.38-1.14-3.2-2.244-.879-1.181-1.69-2.407-2.465-3.52,1.6-1.735,3.114-3.385,4.705-5.106.162,1.091.27,2.127.478,3.15a46.725,46.725,0,0,1,1.055,4.908c.081.879.523,2.006-.568,2.812M457.471,60.19a1.751,1.751,0,0,0,1.122.658,3.258,3.258,0,0,0,2.646-1.9,1.2,1.2,0,0,0-.275-1.487c-.284-.234-.852-.122-1.456-.18-.036-.077-.329-.266.194-.572,1.1-.649,2.154-1.4,3.232-2.109.036-.027.117.009.252.023a6.256,6.256,0,0,0-.726,1.041c-.135.315-.275.847-.122,1.028.311.356.8.73,1.352.383.744-.464,1.181-.108,1.559.5a27.562,27.562,0,0,0-5.327,4.62c-1.041,1.167-2.028,2.389-3.078,3.551a8.928,8.928,0,0,1-1.731,1.6,1.8,1.8,0,0,1-1.911.063c-.82-.469-1.641-.942-2.438-1.451-.077-.05-.067-.419.027-.545.554-.748,1.149-1.474,1.735-2.2.617-.762,1.212-1.55,1.87-2.276a11.7,11.7,0,0,1,1.122-.838c.6-.514,1.181-1.055,1.767-1.586.077.023.153.045.225.072a3.151,3.151,0,0,1,.045.581c-.022.356-.243.829-.086,1.032m2.943-2.177c.315.937-.284,1.758-1.505,2.091-.577.153-.933-.014-1.005-.685a.892.892,0,0,1,.225.032c.293.117.69.419.852.32a1.145,1.145,0,0,0,.5-.879c-.063-.78.352-.879.933-.879M481.506,48.6c-.6.122-1.086.721-.937,1.2.194.631.672.744,1.257.59.185.559-.013.784-.59.883-.744.131-1.46.41-2.2.577a13.24,13.24,0,0,1-1.51.158c-.05-.045-.225-.239-.482-.518.225-.1.433-.131.536-.248a2.478,2.478,0,0,0,.555-.834c.031-.09-.329-.437-.536-.464a13.3,13.3,0,0,0-2.159-.095,2.23,2.23,0,0,0-1.131.365c-.361.248-.653.7-.266,1.127a3.74,3.74,0,0,0,.982.568c.05-.045.1-.095.144-.144.275.9.275.888-.676,1.136a3.189,3.189,0,0,0-.663.347c-.347-.32-.694-.635-1.059-.969.361-.829.126-1.176-.928-1.208a3.914,3.914,0,0,0-2.528.838c-.541.41-.879,1.019-.41,1.568.28.334.933.356,1.415.518.036-.072.067-.144.1-.225.126.2.243.406.365.6-.834.442-1.645.838-2.425,1.293-.455.27-.879.383-1.28-.023s-1.19-.5-1.113-1.348c.009-.1-.338-.352-.518-.347-.518.014-1.037.122-1.618.117,1.136-.568,2.263-1.149,3.4-1.7,1.2-.577,2.384-1.2,3.619-1.677a33.066,33.066,0,0,1,3.66-1.136c1.257-.32,2.524-.581,3.8-.8,1.316-.225,2.646-.361,3.971-.532.013.054.027.113.045.171-.275.072-.55.144-.825.207m.915,4.9c.018.1-.2.329-.329.347a24.133,24.133,0,0,1-2.61.2c-.288,0-.572-.32-.852-.5,0-.059,0-.122,0-.189.635-.158,1.267-.325,1.9-.473.257-.054.532-.041.793-.095a.792.792,0,0,1,1.1.7m-6.472-3.186h1.577c-1.068.685-1.068.685-1.577,0m1.226,4.994c-1.01-.176-1.979-.032-2.677-.847,1.478-.811,1.591-.78,2.677.847m-6.332,2.4c-.013.117-.676.2-1.036.189-.149,0-.284-.3-.4-.433.207-.856.4-1.681,1.487-1.979a17.392,17.392,0,0,1-.05,2.222m-6.878-2.371c.022.153.077.5.144.964-.387.032-.766.063-1.149.1l-.108-.27c.392-.279.78-.559,1.113-.793m1.952,5.886a25.367,25.367,0,0,1-.469-2.628,1.351,1.351,0,0,1,.1-.464c.054-.009.113-.014.171-.023.514,1.212,1.122,2.389,1.523,3.637.469,1.447.455,1.6-.613,4.083.446-1.65-.315-3.1-.717-4.606m-.964,5.877c.5-.315.987-.631,1.478-.951-.383.442-.577,1.176-1.478.951m1.041.865c-1.1.559-2.145,1.339-3.723.649.793-.685,1.46-1.253,2.195-1.879.1,1.217.316,1.361,1.528,1.23m-.248-5.034c.009.122,0,.243,0,.433-1.564-.536-3.056-1.055-4.575-1.577.379-.482.356-.374.852-.27a14.465,14.465,0,0,0,2.461.257c.919.027,1.176.225,1.262,1.158m-3.02-2.677c.613-.46,1.221-.919,1.843-1.352.036-.023.311.158.325.27.068.437.081.883.117,1.451l-2.235-.2c-.014-.054-.032-.113-.049-.171m-9.861,8.757a19.985,19.985,0,0,0,2.164-.419c1.064-.324,1.622-1.266,2.258-2.082,1.068-1.375,2.109-2.772,3.182-4.2a6.93,6.93,0,0,0,5.345,1.744c.144.946-.234,1.424-1.185,1.839a7.883,7.883,0,0,0-2.939,2.407c-1.6,2.006-2.1,4.394-2.844,6.729a19.96,19.96,0,0,1-1.613,3.714c-.8,1.406-2.4,1.456-3.628.334a6.775,6.775,0,0,1-1.929-4.692,9.95,9.95,0,0,1,.045-2.812,11.428,11.428,0,0,1,1.032-2.357c.045-.09.095-.171.113-.207m4.651,57.964a3.32,3.32,0,0,1-.563-3.218c.207-.766.189-1.591.379-2.362a12.537,12.537,0,0,1,.712-1.825c.518-1.253,1.064-2.488,1.559-3.754.446-1.131.865-2.281,1.239-3.448a27.44,27.44,0,0,0,.888-3.218c.266-1.393.428-2.812.59-4.228.113-.987.167-1.979.212-2.975.068-1.348.032-2.7.171-4.043a35.379,35.379,0,0,1,.829-4.489c.162-.69.185-1.411.306-2.109a.487.487,0,0,1,.315-.32c.843-.05,1.681-.086,2.524-.081,1.239,0,2.483.027,3.723.068a50.117,50.117,0,0,1,8.532,1.352c1.086.225,2.141.635,3.29.987a7.2,7.2,0,0,0-3.11,3.078,4.523,4.523,0,0,0-1.032,2.7c.032.365-.311.744-.455,1.127a6.864,6.864,0,0,0-.23,4.137,41.567,41.567,0,0,1,.933,4.155,14.9,14.9,0,0,1,.059,3.443,10.653,10.653,0,0,0,.415,4.475c.288.852.491,1.731.762,2.691-.658.577-1.451,1.212-2.172,1.924a27.3,27.3,0,0,0-2.47,2.637c-.73.928-1.321,1.979-1.961,2.975a1.241,1.241,0,0,0-.113.338c-.1.374-.18.428-.536.149-1.19-.933-2.42-1.812-3.659-2.677-.18-.126-.478-.086-.784-.126-.451-.906-4.336-1.041-5.557-.861-2.24.329-3.574,1.8-4.8,3.5m61.312-19.2a3.387,3.387,0,0,0-2.461.081c-.04.018-.1,0-.144.027-.455.293-1,.631-.811,1.226.117.352.622.577,1.032.82.081.667-.518.69-1.014.73-1.28.108-2.565.167-3.836.239-.1-.212-.212-.419-.32-.635a4.322,4.322,0,0,0,.91-.672c.32-.379.374-.87-.176-1.1a3.4,3.4,0,0,0-3.34.09,1.475,1.475,0,0,0-.64,1.077c.036.514.618.41,1.032.415.117,0,.234.032.383.05-.072.388-.14.735-.18.964-1.5.356-2.929.712-4.367,1.032-.631.144-1.23.122-1.365-.744.266-.185.626-.32.784-.586a1.357,1.357,0,0,0,.131-1,1.019,1.019,0,0,0-.73-.46c-1.208-.18-2.159.514-3.186.969a.764.764,0,0,0-.383,1.131c.1.225.554.311.87.406a1.445,1.445,0,0,0,.527-.063c.036.3.072.631.117,1.032l-3,1.068c-.252-.2-.608-.482-.951-.757a.979.979,0,0,0-.906-1.546,3.579,3.579,0,0,0-.857.126,1.623,1.623,0,0,1-.807,0c.973-.383,1.938-.8,2.93-1.14,1.447-.491,2.893-1.01,4.376-1.361,1.83-.433,3.7-.717,5.553-1.055,1.082-.194,2.168-.415,3.263-.541,1.145-.126,2.3-.14,3.457-.225.883-.063,1.767-.153,2.65-.243a5.952,5.952,0,0,1,4.178,1.014,11.77,11.77,0,0,0,1.812.874c.162.081.32.153.559.27-.176.158-.257.279-.352.3-1.6.306-3.2.617-4.8.892-.176.027-.388-.167-.581-.257.14-.153.266-.324.419-.464.067-.059.189-.054.279-.081.469-.122.933-.293.906-.883s-.455-.852-.969-1.032m-1.321.428c-.32.491-.527.825-.807,1.253-.243-.194-.433-.347-.735-.586.528-.23.929-.4,1.541-.667m-1.627,4.336c.351,1.131.351,1.131-.861,1.312.293-.451.545-.838.861-1.312m-1.915,1.487c-.338-.162-.744-.356-1.271-.6.942-.811.969-2.429,2.5-1.979-.374.784-.757,1.591-1.226,2.583m-4.471-1.262c.306.586.6,1.149.888,1.717-.654.045-1.334.095-2,.144.356-.6.717-1.2,1.109-1.861m-2.29,1.848c-.153.194-.672.09-1.023.122a4.062,4.062,0,0,1,.212-.955c.153-.338.451-.608.627-.933.243-.442.5-.757,1.073-.712a4.286,4.286,0,0,0,.956-.158c-.654.955-1.19,1.839-1.844,2.637m1.361-5.26c.644-.23,1.14-.41,1.645-.581.027.059.058.117.086.18-.2.266-.4.541-.622.838l-1.109-.437m-2.5,3.209c-.234.514-.424.928-.649,1.438-.383-.356-.708-.649-1.163-1.068.7-.14,1.2-.248,1.812-.37m-3.984,1.154a4.914,4.914,0,0,1,.577,1.127.891.891,0,0,1-.3.766c-.676.473-1.212.045-1.721-.428.635-.311.3-1.469,1.442-1.465m-11.11,2.127c.117-.27.2-.753.05-.9a1.323,1.323,0,0,0-.992-.311,6.8,6.8,0,0,0-1.388.514c-.032-.077-.063-.144-.095-.216,1.97-.987,3.935-1.979,6.071-3.047-.122.284-.153.5-.23.518-.73.171-.87.757-1.014,1.361-.135.586.126.946.7.879.41-.045.807-.149,1.257-.234.126.185.279.4.469.672-1.325.721-2.609,1.5-3.975,2.114-.392.18-1.005-.14-1.672-.257a6.757,6.757,0,0,0,.816-1.1m-1.257.523H488.33c.654-.365,1.194-.672,1.735-.973.041.027.077.059.117.09-.167.311-.329.622-.469.883m5.629,1.424a4.2,4.2,0,0,0,.023-1.284c.3-.045.559-.086.775-.122v2.853c-.834-.257-1.068-.681-.8-1.447m12.232-10.659c-2.943.563-5.864,1.28-8.734,2.132a48.028,48.028,0,0,0-8.428,3.322c-2.632,1.361-5.215,2.817-7.874,4.264-.2-.672-.415-1.393-.631-2.114-.424-1.447-.915-2.884-1.262-4.354a14.665,14.665,0,0,1-.054-5.341,21.716,21.716,0,0,1,1.447-4.98,26.6,26.6,0,0,1,1.514-3.551,7.175,7.175,0,0,1,1.866-1.934c.23-.176.825.05,1.221.189,1.947.676,3.876,1.42,5.832,2.078,1.388.464,2.817.811,4.214,1.248,1.492.469,2.984.946,4.448,1.483,1.979.721,3.939,1.505,5.909,2.253,1.794.685,3.6,1.348,5.386,2.046.491.194.947.5,1.433.721.919.415,1.852.8,2.781,1.2a70.46,70.46,0,0,0-9.068,1.339m-24.468,12.908c.05-.252.527-.415.884-.518-.618,1.235-1.258,2.42-2.835,2.767.063-.419.113-.739.167-1.068,1.2.293,1.532.027,1.785-1.181M481.984,98c-.356,1.122-.9,2.186-1.321,3.29a17.293,17.293,0,0,0-1.19,5.611,19.094,19.094,0,0,0,1.451,7.5,22.565,22.565,0,0,1,.789,2.9,19.246,19.246,0,0,1,.446,3.213c-.383-.361-.919-.649-1.122-1.091a14.944,14.944,0,0,1-1.744-4.908,34.322,34.322,0,0,1-.059-4.146,18.255,18.255,0,0,0-.618-5.323,10.887,10.887,0,0,1,.009-3.745,11.916,11.916,0,0,1,1.992-5.025,7.73,7.73,0,0,1,2.227-1.9,8.564,8.564,0,0,1,1.451-.726A11.674,11.674,0,0,0,481.984,98m-8.663,29.624c.631-.856,1.244-1.74,1.956-2.528s1.537-1.5,2.33-2.226c.888-.816,1.8-1.609,2.727-2.434.185.18.343.334.5.478-.374.554-.762,1.032-.311,1.7a1.065,1.065,0,0,0,1.325.442,7.8,7.8,0,0,0,2.916-3.047,1.049,1.049,0,0,0-1-1.5c-.2,0-.406-.032-.82-.063,1.618-1.046,2.925-2.294,4.678-2.92a10.788,10.788,0,0,0-1.2,1.375,1.183,1.183,0,0,0-.086,1.037c.243.374.613.856,1.239.464a3.759,3.759,0,0,1,.789-.266c.266.239.568.514.9.82-.455.338-.937.658-1.384,1.028a28.712,28.712,0,0,0-5.3,5.1c-.915,1.271-2.024,2.407-3.038,3.61a4.864,4.864,0,0,1-2.885,1.577,1.987,1.987,0,0,1-1.375-.4,18.2,18.2,0,0,1-1.911-1.776.482.482,0,0,1-.045-.473m15.157-6.093a7.985,7.985,0,0,1,1.816,1.064c.167.117.234.383.306.509-1.009-.32-2-.64-3.029-.969.261-.18.681-.685.906-.6m3.876-1.032c.55.189.955.334,1.357.469-.189.514-.32.865-.469,1.275-.27-.536-.541-1.059-.888-1.744m2.132,3.917c-.568-.568-.735-1.077-.27-1.731a6.187,6.187,0,0,0,.545-1.28c.239.063.536.144.928.248-.41.942-.793,1.83-1.2,2.763m2.123-3.268a11.754,11.754,0,0,1-4.7-1.988c-.847-.626-1.807-1.1-2.7-1.668-.108-.063-.167-.212-.261-.338,1.127.433,2.213.775,3.236,1.266,1.244.59,2.443,1.28,3.637,1.974a2.766,2.766,0,0,0,2.506.325c-.32-.284-.55-.5-.784-.708.852-.185,1.735-.379,2.619-.577a3.237,3.237,0,0,1-3.552,1.713m.825-2.132v-2.668c.987.595,2.042,1.23,3.182,1.924-1.113.257-2.163.5-3.182.744m1.96-2c-1.388-.437-2.235-1.555-2.875-3.6.365.252.73.518,1.1.757,1.334.861,2.637,1.758,4.02,2.528.3.167.87-.126,1.312-.23.649-.144,1.293-.374,1.821.185-1.713,1.7-3.583.919-5.377.356m9.352-.356a2.219,2.219,0,0,1-2.461-.243,24.8,24.8,0,0,1-3.394-2.826,2.037,2.037,0,0,1-.523-2.276,22.818,22.818,0,0,0,1.911,2.429,21.26,21.26,0,0,0,2.767,2.181c.207.144.653,0,.969-.081.879-.234,1.744-.509,2.7-.8.032.068.135.243.261.464-.775.4-1.523.739-2.235,1.149m6.914-1.257a3.885,3.885,0,0,1-5.165-2.673,18.2,18.2,0,0,1-.432-1.974c.955,1.221,1.731,2.357,2.655,3.358.455.5,1,1.064,1.938.6a7.037,7.037,0,0,1,2.222-.248,5.23,5.23,0,0,1-1.217.937m1.176-2.033c-.811-1.176-.194-2.3.514-3.358a6.906,6.906,0,0,0,1.411,4.187,1.819,1.819,0,0,1-1.924-.829m1.375-1.9c1.023-.469,1.276-.361,1.614.7.18.563.361,1.122.573,1.767-1.019-.6-1.979-1.149-2.186-2.465m17.942,5.282c-1.32-.149-2.641-.3-3.962-.46-2.366-.293-4.741-.509-7.085-.924a8.625,8.625,0,0,1-2.993-1.239c-.478-.306-.658-1.086-.951-1.663-.18-.343-.316-.712-.478-1.1,1.19-.293,2.307-.568,3.425-.852.162-.041.392-.063.464-.176.437-.663.793-.279,1.262-.009,1.456.834,2.943,1.613,4.417,2.416,1.631.892,3.281,1.762,4.885,2.7a6.3,6.3,0,0,1,1.154,1.167c-.045.041-.095.09-.14.131m-39.86-27.321c1.222.46,2.488.807,3.723,1.239,1.28.451,2.538.955,3.813,1.415,1.023.365,2.06.681,3.087,1.041,1.167.41,2.33.843,3.5,1.271,1.514.554,3.029,1.086,4.534,1.677,1.086.428,2.141.937,3.218,1.4,2.317.992,4.642,1.97,6.954,2.961,1.194.509,2.357,1.122,3.578,1.537a38.749,38.749,0,0,1,4.94,2.555c2.168,1.091,4.137,2.564,6.2,3.862a13.187,13.187,0,0,1,1.185.667,10.211,10.211,0,0,1,1.654,1.487,1.454,1.454,0,0,1,.153,1.154,6.672,6.672,0,0,1-1.7,3.245,14.938,14.938,0,0,1-2.569,1.735c-.455.257-.829-.149-1.027-.509a2.862,2.862,0,0,0-1.334-1.285c-.595-.293-1.023-.883-1.677-1.185a23.415,23.415,0,0,1-2.371-1.406c-.266-.167-.487-.424-.762-.577-1.1-.613-2.19-1.235-3.313-1.785-1.294-.644-2.623-1.208-3.93-1.839-1.384-.667-2.745-1.366-4.115-2.055a37.026,37.026,0,0,0-3.371-1.659c-1.027-.388-1.965-.924-2.961-1.348-.635-.27-1.352-.329-1.987-.595-.915-.379-1.767-.9-2.682-1.271s-1.87-.6-2.794-.933c-1.113-.406-2.2-.879-3.326-1.266-1.284-.433-2.6-.78-3.885-1.194-.811-.261-1.6-.595-2.407-.856-1.316-.419-2.65-.8-3.971-1.221A11.635,11.635,0,0,0,490.768,95a24.042,24.042,0,0,1-2.7-.892,4.138,4.138,0,0,1-.744-.343c1.9-.762,3.759-1.42,5.539-2.258a5.136,5.136,0,0,0,1.65-1.55c.73-.955.667-.942,1.785-.523m.185-4.291a69,69,0,0,1,6.481-3.457c.694-.361,1.037-.131,1.6,1a10.154,10.154,0,0,1-3.331,1.167,31.089,31.089,0,0,0-4.394,1.537,4.938,4.938,0,0,0-2.4,2.47,6.3,6.3,0,0,1-3.98,3.25c-.708.239-1.406.5-2.109.753-.009-.027-.018-.054-.027-.077.662-.442,1.343-.856,1.983-1.334.5-.365.937-.807,1.406-1.212a47.1,47.1,0,0,1,4.777-4.1m-4.75,2.97c-1.722,1.046-3.3,2.064-4.931,2.988-.87.487-1.9.717-2.727,1.248-.766.491-1.4.1-2.055-.023-1.2-.23-2.366-.617-3.556-.915-1.1-.279-2.208-.572-3.331-.771-1.036-.185-2.1-.257-3.146-.37-1.131-.122-2.258-.316-3.389-.325a43.237,43.237,0,0,0-4.453.2c-1.163.113-1.365-.032-1.573-1.172a7.6,7.6,0,0,1,.54-3.9,2.97,2.97,0,0,1,1.844-1.636,9.133,9.133,0,0,1,4.417-.613c2.272.27,4.543.536,6.8.9a36.87,36.87,0,0,1,3.642.937c1.118.3,2.218.7,3.353.924,1.541.311,3.015.865,4.538,1.239.861.216,1.735.406,2.592.649a12.934,12.934,0,0,1,1.438.64M468.684,69a21.12,21.12,0,0,0,3.93,2.5,27.377,27.377,0,0,0,4.94,1.523c2.479.577,5.007.973,7.495,1.523a15.6,15.6,0,0,1,3.439,1.1,3.84,3.84,0,0,1,1.83,2.727,23.361,23.361,0,0,1,.663,6.156,19.122,19.122,0,0,0,.158,1.974c-.122.009-.176.032-.221.014-.13-.059-.257-.126-.423-.212a1.262,1.262,0,0,0,.117-.379,22.408,22.408,0,0,0-.158-3.213,10.137,10.137,0,0,0-2.334-5.377,7.353,7.353,0,0,0-4.191-2.064c-2.709-.545-5.449-.955-8.1-1.686a15.6,15.6,0,0,1-5.381-2.281c-.883-.663-1.7-1.4-2.551-2.109-.356-.3-.707-.6-1.063-.906l.6-.96A7.255,7.255,0,0,0,468.684,69m-.491-7.283c-.712-1.2-1.357-2.294-2.064-3.488a30.694,30.694,0,0,0,4.557,2.551c-.847.32-1.7.635-2.492.937m2-2.231c-1.622-.879-3.227-1.8-4.831-2.722a7.683,7.683,0,0,1-.811-.613,1.885,1.885,0,0,1,2.24.113c1.086.807,2.114,1.695,3.155,2.564.194.167.32.415.581.622,0-.672.261-.807.793-.726.658.1,1.329.113,2.019.162a2.5,2.5,0,0,1-3.146.6m1.271-1.55c.194-.879.334-1.523.46-2.1.744.509,1.433.987,2.28,1.573-.915.18-1.735.338-2.74.527m-.487-5.291c1.406-.077,2.127.829,2.79,1.879a6.833,6.833,0,0,0,1.2,1.42.854.854,0,0,0,1.212.158c.221-.158.771.162,1.348.311-3.4.541-6.814-1.483-6.553-3.768m9.546,3.434c-.712.288-1.564.644-2.033-.446-1.65-.807-1.929-2.492-2.524-3.971a.881.881,0,0,1,0-.288,1.784,1.784,0,0,1,.153-.1A17.908,17.908,0,0,0,477.2,52.88a29.99,29.99,0,0,0,2.2,2.4,1.082,1.082,0,0,0,1.6-.171,1.262,1.262,0,0,1,.428-.207c.491-.185.987-.365,1.537-.568.027.032.122.135.288.315-.942.5-1.8,1.041-2.731,1.424m4.638-1.167a2.955,2.955,0,0,1-1.74-.906,3.615,3.615,0,0,1-.888-3.448c.031-.189.1-.374.18-.69.442.69.8,1.343,1.248,1.929a19.067,19.067,0,0,0,1.735,1.979,1.249,1.249,0,0,0,.933.27,13.515,13.515,0,0,0,1.7-.5,4.935,4.935,0,0,1-3.168,1.361m.455-2.591c.874-.063,1.654-.126,2.447-.189.072.266.131.469.194.694-.937.171-1.875.559-2.641-.5m3.218.352a2.879,2.879,0,0,1,.933-3.222c.221,1.456-.87,3.065.784,4.182a1.582,1.582,0,0,1-1.717-.96m1.519-.635c.428.009.766-.748,1.145-.162a11.432,11.432,0,0,1,.609,1.271c-.685-.433-1.221-.771-1.753-1.109m-.009-1.812c.027-.036.054-.095.086-.095.838-.036,1.375-.406,1.357-.946-.014-.473-.708-.978-1.348-1.041a3.56,3.56,0,0,0-2.366.487c-.617.4-.6.942.009,1.357a1.589,1.589,0,0,1,.311.41c-.149.086-.3.252-.451.261-1.208.086-2.416.153-3.628.189-.216.009-.433-.171-.811-.334.694-.32,1.339-.415,1.2-1.239-.144-.9-1.019-.563-1.65-1.086,1.564-.122,2.948-.243,4.327-.329,1.239-.072,2.479-.09,3.718-.149.631-.032,1.257-.108,1.889-.14a.931.931,0,0,1,.478.149c.766.451,1.519.915,2.294,1.384-2.136,1.262-4.773,1.505-5.417,1.122m16.351,5.7a6.054,6.054,0,0,1-1.3.1,48.573,48.573,0,0,1-5.674-.807c-1.893-.464-3.691-1.307-5.557-1.888a2.382,2.382,0,0,1-1.577-1.812c1.37-.613,2.682-1.2,4.268-1.915,3.087,1.924,6.472,4.034,9.857,6.152,0,.054-.009.108-.018.167M459.161,29.9c.834.122,1.564.221,2.3.329,1.393.207,2.794.374,4.178.645,1.433.275,2.853.622,4.264.992,2.2.572,4.408,1.158,6.585,1.8,1.456.428,2.875.964,4.3,1.469,1.789.626,3.583,1.235,5.354,1.911,1.294.5,2.551,1.091,3.826,1.641,1.573.681,3.159,1.339,4.714,2.055.811.383,1.559.888,2.339,1.33,1.857,1.055,3.727,2.073,5.557,3.164,1.668,1,3.281,2.082,4.926,3.123.933.595,1.884,1.158,2.8,1.78a8.409,8.409,0,0,1,1,.982c-1.041,1.586-2.042,3.119-2.974,4.538-1.69-1.1-3.236-2.136-4.8-3.132-.825-.523-1.7-.973-2.524-1.5-.5-.315-.924-.739-1.41-1.082a13.937,13.937,0,0,0-1.487-.928c-1.4-.73-2.83-1.42-4.241-2.15-.892-.464-1.749-1.005-2.646-1.451-1.059-.527-2.163-.964-3.227-1.487-1.082-.527-2.109-1.167-3.2-1.654-1.834-.825-3.7-1.577-5.552-2.344-1.587-.654-3.168-1.33-4.773-1.929-.847-.311-1.753-.469-2.623-.73-1.365-.41-2.722-.852-4.079-1.28-.5-.153-1-.311-1.5-.437-.838-.2-1.685-.388-2.528-.563-1.541-.32-3.083-.631-4.579-.933Zm-.126,5.111a117.84,117.84,0,0,1,32.36,11.65c-1.582,0-3.191-.063-4.791.018-1.848.09-3.7.3-5.544.464-.9.086-1.807.126-2.7.288-1.6.293-3.186.622-4.759,1.019-1.086.275-2.141.676-3.209,1.028a20.41,20.41,0,0,0-5.111,2.267c-.662.446-1.478.649-2.177,1.059-.915.532-1.78,1.163-2.672,1.744-.437.288-.888.563-1.361.856a21.723,21.723,0,0,1-1.807-5.827,21.471,21.471,0,0,1-.108-5.237c.144-1.33.455-2.641.685-3.962s.433-2.659.694-3.984a9.5,9.5,0,0,1,.5-1.384M432.277,1.483c0-.225.329-.451.509-.681.067.041.126.081.194.122.113,2.564.23,5.124.343,7.765-.293.108-.5.086-.645-.433a22.656,22.656,0,0,1-.4-6.774m19.605,21.886a26.516,26.516,0,0,0-6.67-2.2c-2.47-.654-4.931-1.361-7.346-2.181a7,7,0,0,1-3.38-3.105c-.942-1.415-2.015-2.767-2.258-4.538-.171-1.253-.185-1.28.992-1.568.392-.1,1.009-.361,1.136-.216a2.877,2.877,0,0,1,.532,1.379c.122.667.113,1.357.185,2.028a7.585,7.585,0,0,0,1.267,3.2,6.687,6.687,0,0,0,4.11,2.848,35.413,35.413,0,0,0,4.493.834c2.713.482,5.512.658,8,1.961a8.927,8.927,0,0,1,2.871,2.492,10.761,10.761,0,0,1,1.722,3.286,11.061,11.061,0,0,1,.518,4.953c-.131,1.055-.117,2.127-.252,3.177-.108.784-.365,1.541-.509,2.321-.176.955-.306,1.92-.455,2.88a21.391,21.391,0,0,0-.419,2.948,45.322,45.322,0,0,0,.207,5.535,34.182,34.182,0,0,0,.969,4.3c.338,1.352.717,2.691,1.073,4.038.054.216.077.442.117.658a22.849,22.849,0,0,1-3.385-6.44,22.624,22.624,0,0,1-.766-4.2c-.325-2.821.473-5.453,1.384-8.1a31.676,31.676,0,0,0,1.492-6.12,11.116,11.116,0,0,0-.843-5.494c-.906-2.294-2.776-3.524-4.786-4.678m-9.974,6.251c.509-1.523,1.591-1.771,2.952-1.686,1.149.072,2.3.171,3.448.3,1.343.153,2.686.343,4.029.545a27.214,27.214,0,0,0,2.97.5c.6.023.7.352.784.708.194.888.334,1.789.446,2.691a2.419,2.419,0,0,1-.171.757c-2.19-.239-4.291-.478-6.4-.681-1.113-.108-2.227-.176-3.349-.216-.636-.023-1.275.095-1.911.054-.965-.054-1.925-.167-2.88-.311-.135-.018-.343-.361-.32-.532a10.56,10.56,0,0,1,.4-2.123M437.78,61.529a17.257,17.257,0,0,1,.406-1.952c.261-.978.559-1.947.852-2.916.4-1.3.789-2.6,1.217-3.88,1.478-4.394,1.388-8.933,1.289-13.485-.031-1.74.122-3.493.216-5.237a2.645,2.645,0,0,1,.275-.739c4.8.252,9.613-.018,14.4,1.271-.369,1.487-.716,2.92-1.068,4.349a57.635,57.635,0,0,0-1.555,6.612,19.118,19.118,0,0,0,.284,5.377,22.959,22.959,0,0,0,1.33,4.119,13.357,13.357,0,0,0,.793,1.447,1.118,1.118,0,0,1-.446,1.541,14.9,14.9,0,0,0-3.669,3.849c-.726,1.1-1.492,2.163-2.294,3.335-.541-.32-1.149-.694-1.758-1.059-1-.6-2-1.226-3.019-1.785a15.46,15.46,0,0,0-2.285-1.023c-2.1-.721-3.628.545-4.557,2.145a13.409,13.409,0,0,0-.608,1.433c-.063-.014-.131-.032-.189-.045.126-1.118.239-2.24.392-3.358M416.259,124.68a8.861,8.861,0,0,1,.685-1.271c.045-.077.176-.149.167-.207-.194-1.167.577-2.082.829-3.132.343-1.411.82-2.794,1.289-4.169.234-.672.631-1.293.861-1.965.342-.987.586-2.015.915-3.011.185-.559.473-1.082.69-1.636.365-.955.73-1.915,1.05-2.893a3.215,3.215,0,0,0,.04-.888c.009-.144-.023-.356.054-.419a2.558,2.558,0,0,0,.9-2.29c-.009-.095.086-.212.158-.3a7.5,7.5,0,0,0,1.122-2.8,10.221,10.221,0,0,0,.689-1.7c.1-.919,1.032-1.555.8-2.564-.023-.077.117-.194.185-.284a3.9,3.9,0,0,0,.388-.545c.69-1.55,1.393-3.105,2.051-4.669.342-.8.577-1.654.915-2.465.243-.581.613-1.109.856-1.695.252-.608.388-1.271.645-1.875.41-.946.9-1.852,1.321-2.79.3-.676.541-1.375.829-2.055.338-.8.78-1.568,1.036-2.393.473-1.5,1.253-2.857,1.843-4.3.4-.96.834-1.9,1.194-2.866.194-.509.266-1.064.419-1.591a4.017,4.017,0,0,1,.324-.726,6.165,6.165,0,0,0,.473-.816c.392-1.1.735-2.213,1.122-3.313.054-.158.248-.27.392-.374,1.01-.694,1.929-.05,2.862.225.7.2,1.127.924,2,.906.383-.009.735.676,1.172.928,1.654.951,3.1,2.195,4.647,3.295a9.1,9.1,0,0,0,.825.451,23.552,23.552,0,0,0-1.194,2.235,7.93,7.93,0,0,0-.225,5.9c.284.784.753,1.492,1.073,2.258a1.951,1.951,0,0,1,.135,1.05c-.212,1.226-.464,2.452-.753,3.669-.315,1.348-.7,2.682-1.037,4.025-.388,1.541-.793,3.078-1.122,4.633-.2.951-.216,1.947-.406,2.9-.18.919-.518,1.807-.7,2.727-.342,1.7-.613,3.412-.924,5.115-.275,1.487-.586,2.97-.838,4.462s-.433,3.024-.685,4.525c-.108.658-.347,1.289-.473,1.943-.221,1.149-.392,2.308-.6,3.461-.293,1.672-.6,3.344-.9,5.012-.288,1.582-.586,3.164-.87,4.746-.126.7-.239,1.415-.342,2.127-.194,1.379-.374,2.772-.577,4.151-.054.374-.2.73-.275,1.1-.275,1.33-.527,2.668-.807,4-.158.762-.4,1.505-.532,2.267-.18,1.059-.275,2.132-.451,3.186-.077.442-.307.856-.406,1.294-.275,1.235-.451,2.483-.789,3.7-.365,1.325-.879,2.61-1.3,3.921-.28.892-.491,1.807-.766,2.7a5.542,5.542,0,0,1-.424.735,44.465,44.465,0,0,1-1.97,4,50.813,50.813,0,0,1-3.056,4.164c-.509.671-1.1,1.275-1.74,2-1.586-3.011-3.105-5.846-4.57-8.712-.676-1.325-1.248-2.709-1.843-4.074-.473-1.1-.919-2.217-1.357-3.331-.658-1.69-1.311-3.38-1.943-5.079-.8-2.136-1.555-4.282-2.361-6.418-.356-.942-.816-1.852-1.163-2.8a16,16,0,0,1-.554-2.078c-.239-1.059-.352-2.159-.681-3.191-.248-.766.14-1.33.311-1.952.406-1.406.879-2.785,1.366-4.164m-2.511-1.672a1.088,1.088,0,0,1,1.533-.807c.405.2.568.356.261.865a7.26,7.26,0,0,0-.55,1.816c-.144.5-.3,1-.446,1.5-.149.523-.279,1.046-.419,1.568-.081,0-.162.009-.244.009-.05-.6-.131-1.2-.149-1.8-.022-1.05-.04-2.1.013-3.146m-3.894,3.736a4.607,4.607,0,0,0,.153-1.388c-.095-.726.284-1.05.82-1.357a11.81,11.81,0,0,0,1.113-.834,16.634,16.634,0,0,1-.023,2.339,12.879,12.879,0,0,0,.2,2.646,29.976,29.976,0,0,0,.757,4.079,40.041,40.041,0,0,0,1.2,4.182c.217.721.46,1.438.69,2.159s.4,1.438.663,2.136c.5,1.339,1.019,2.677,1.573,3.993.613,1.447,1.271,2.875,1.924,4.309.928,2.024,1.83,4.061,2.812,6.053.717,1.451,1.541,2.848,2.321,4.273,1.352,2.465,2.686,4.944,4.07,7.391a26.607,26.607,0,0,0,1.911,3c.856,1.149,1.8,2.226,2.749,3.3a5.241,5.241,0,0,0,1.032.7c-1.275.613-2.452,1.185-3.642,1.74a.482.482,0,0,1-.433-.05c-1.3-1.447-2.605-2.9-3.88-4.381-.82-.946-1.636-1.906-2.384-2.916a18.37,18.37,0,0,1-1.181-2c-1.262-2.244-2.637-4.439-3.741-6.76-1.1-2.294-1.947-4.705-2.853-7.089-1.181-3.105-2.389-6.211-3.439-9.365a55.256,55.256,0,0,1-1.348-5.562c-.37-1.668-.726-3.331-1.009-5.012a15.647,15.647,0,0,1-.059-5.593m-73.549,44.393c-.243-2.069-.05-4,1.753-5.462a.5.5,0,0,1,.054-.045,2.4,2.4,0,0,1,1.429-.514c.162-.013.329-.013.5-.013a15.654,15.654,0,0,1,3.754.532,1.534,1.534,0,0,1,.253.149q-2.015,1.393-3.984,2.758c-.469.325-.942.649-1.411.974-.784.541-1.564,1.082-2.353,1.622m-21.124,42.793a7.174,7.174,0,0,1,1.609-1.352c1.046-.834,2.1-1.654,3.254-2.425a21.4,21.4,0,0,0-1.222,2.042q-.838,1.771-1.523,3.606c-.419,1.122-.775,2.271-1.086,3.425-.243.915-.365,1.861-.568,2.785-.144.667-.379,1.321-.487,2a22.545,22.545,0,0,0-.234,2.335c-.063,1.113-.113,2.231-.108,3.349a24.3,24.3,0,0,0,.162,2.627c.189,1.794.342,3.592.644,5.368.325,1.9.744,3.786,1.239,5.652.288,1.091.829,2.114,1.221,3.182a10.812,10.812,0,0,1,.279,1.3c-1.893-.09-3.258,1.014-4.683,2.2-.73-1.825-1.492-3.552-2.1-5.327a26.144,26.144,0,0,1-.663-3.168c-.135-.608-.351-1.2-.437-1.816-.108-.708-.086-1.433-.167-2.145-.108-.982-.32-1.956-.37-2.943-.041-.9.077-1.8.122-2.7.014-.248,0-.5.032-.753.2-1.681.361-3.362.626-5.034a25.294,25.294,0,0,1,.685-2.673c.009-.045.072-.09.063-.126-.112-.856.419-1.514.667-2.258.257-.78.388-1.6.653-2.384a14,14,0,0,1,.789-1.663,28.758,28.758,0,0,1,1.6-3.1m3.452,36.763c-1.37.27-2.664.685-3.294,2.114a1.652,1.652,0,0,1-.189.275,7.9,7.9,0,0,0-.6-1.2.787.787,0,0,1,.189-1.221,7.806,7.806,0,0,1,3.709-1.586c.275-.027.59.32.883.5.018.009.023.045.023.068.1.365.189.726.288,1.086a4.435,4.435,0,0,0-1-.027m1.474.685c.7,1.149,1.289,2.154,1.92,3.132.4.613.865,1.19,1.3,1.785.288.4.554.82.865,1.2.829,1,1.645,2.01,2.533,2.957a16.541,16.541,0,0,0,1.96,1.762c.852.676,1.852,1.244,2.6,1.943a16.011,16.011,0,0,0,3.317,2.1,21.035,21.035,0,0,0,5.913,2.163,8.391,8.391,0,0,0,1.429.081c.027.117.05.23.077.343-1.483.293-2.947.649-4.439.852a14.9,14.9,0,0,1-8.87-1.857c-.856-.433-1.586-1.118-2.425-1.6-1.663-.955-2.853-2.474-4.349-3.633a8.62,8.62,0,0,1-1.51-1.8c-1.307-1.785-2.587-3.592-3.88-5.381-.131-.18-.356-.3-.442-.487-.37-.811-.225-1.307.712-1.866,1.041-.617,2.154-1.113,3.295-1.69m24.054,20.777a14.474,14.474,0,0,1-1.136,3.213c-1.1,1.952-1.852,4.083-3.281,5.882a28.461,28.461,0,0,1-3.556,3.587,6.9,6.9,0,0,1-4.723,1.573,4.94,4.94,0,0,1-3.308-1.393,14.539,14.539,0,0,1-1.636-1.654,20.718,20.718,0,0,1-1.307-2.172c-.3-.523-.59-1.059-.865-1.6-.541-1.014-1.019-2.06-1.614-3.042-.694-1.136-1.478-2.222-2.222-3.326-.4-.6-.771-1.226-1.221-1.789-.554-.685-1.194-1.307-1.776-1.974a12.66,12.66,0,0,0-.933-1.181,60,60,0,0,0-5.03-4.376,30.79,30.79,0,0,0-5.2-2.884c-2.172-1-4.493-1.686-6.634-2.736a10.971,10.971,0,0,1-4.412-3.421,18.622,18.622,0,0,1-1.861-2.542,12.528,12.528,0,0,1-1.5-4.489c-.054-1-.234-1.983-.279-2.979a15.179,15.179,0,0,1,.879-5.368,44.408,44.408,0,0,1,2.181-5.535,37.163,37.163,0,0,1,2.592-4.124,24,24,0,0,1,1.74-2.353c.595-.69,1.3-1.294,1.956-1.938.888-.874,1.735-1.8,2.673-2.619,1.122-.978,2.317-1.875,3.479-2.812q1.988-1.6,3.971-3.214c.78-.635,1.541-1.293,2.384-2.006.023.2.086.37.036.415-1.073.992-1.375,2.4-1.947,3.655-.5,1.109-.748,2.344-1.32,3.412a17.553,17.553,0,0,0-1.505,6.075,45.763,45.763,0,0,0-.482,5.593c-.027,1.609.239,3.218.342,4.822.041.658.365,1.289.4,1.852a10.919,10.919,0,0,0,.131,1.87c.2.883.455,1.753.73,2.614.365,1.154.743,2.312,1.172,3.448.419,1.113.879,2.213,1.375,3.286a10.543,10.543,0,0,0,1.352,2.492c.717.847,1.059,1.9,1.753,2.754.717.879,1.271,1.915,2.051,2.736,1.839,1.943,3.678,3.907,5.692,5.661a19.114,19.114,0,0,0,4.728,3,26.306,26.306,0,0,0,4.971,1.668,12.56,12.56,0,0,0,5.48-.032c2.01-.428,4-.973,6.057-1.478.482,1.163-.041,2.289-.369,3.421m84.492-25.482c-1.7.388-3.412.762-5.106,1.2-1.429.37-2.821.9-4.254,1.248-1.654.4-3.335.649-4.994,1.032-.149.036-.293.072-.433.113-.726.207-1.424.5-2.15.708-.514.144-1.064.176-1.587.288-.491.1-.973.212-1.46.324-1.055.23-2.109.473-3.16.712-1.695.392-3.376.793-5.066,1.19s-3.376.775-5.057,1.185c-1,.248-1.988.577-3,.816-1.284.3-2.587.536-3.88.811-.451.095-.9.2-1.339.32-1.334.365-2.663.775-4.007,1.1-2.488.608-4.985,1.167-7.482,1.753-1.559.365-3.123.73-4.678,1.131-1.4.356-2.776.784-4.178,1.136-1.167.293-2.357.491-3.52.789-1.068.27-2.109.635-3.178.91-.694.185-1.429.243-2.127.419-1.307.329-2.6.7-3.9,1.055q-3.028.8-6.053,1.6a22.489,22.489,0,0,0-2.429.663c-1.839.717-3.6.293-5.39-.216a20.416,20.416,0,0,1-5.4-2.564,24.209,24.209,0,0,1-4.678-3.587c-1.046-1.109-2.2-2.1-3.259-3.2a16.964,16.964,0,0,1-1.7-2.109c-.987-1.42-1.956-2.853-2.853-4.327a28.524,28.524,0,0,1-1.442-2.907c-.491-1.091-.956-2.195-1.406-3.3a70.6,70.6,0,0,1-2.226-7.482c-.392-1.415-.343-2.871-.59-4.286a24.647,24.647,0,0,1-.266-5.4,53.434,53.434,0,0,1,.455-5.571,41.983,41.983,0,0,1,1.158-4.71c.306-1.109.644-2.213,1.045-3.29a21.1,21.1,0,0,1,1.523-3.574,9.5,9.5,0,0,1,3.078-3.506,12.832,12.832,0,0,0,1.758-1.5c1.239-1.1,2.492-2.195,3.709-3.322a10.212,10.212,0,0,0,1.74-1.906c.333-.5,1.077-.892,1.532-1.469.654-.825,1.348-1.618,2.028-2.425a25.983,25.983,0,0,0,2.9-4.313,27.883,27.883,0,0,0,1.794-3.989,8.867,8.867,0,0,0,.356-2.812,25.57,25.57,0,0,1-.216-2.592,10.439,10.439,0,0,0-.527-3.556c-.338-1.474-.915-2.884-1.4-4.322-.252-.78-.55-1.541-.766-2.33a.752.752,0,0,1,.32-.6c.64-.437,1.293-.847,1.951-1.257.2-.122.4-.248.6-.37.275-.171.554-.338.829-.5,1.005-.6,2.019-1.2,3.011-1.825,1.3-.829,2.555-1.722,3.862-2.546.965-.6,2-1.086,2.948-1.7,1.695-1.082,3.335-2.24,5.021-3.34.969-.635,1.992-1.2,2.97-1.83,1-.654,1.951-1.375,2.952-2.024,1.343-.87,2.718-1.695,4.074-2.555.829-.532,1.645-1.077,2.456-1.627.559-.374,1.1-.775,1.645-1.154,1.519-1.041,3.029-2.091,4.566-3.105.793-.523,1.668-.928,2.461-1.451.969-.644,1.875-1.406,2.857-2.033,1.848-1.181,3.768-2.262,5.607-3.461,2.078-1.352,4.088-2.808,6.156-4.173,2.01-1.334,4.074-2.591,6.089-3.921,2.727-1.807,5.417-3.669,8.144-5.476,1.1-.73,2.267-1.384,3.452-2.1-.027.176-.054.347-.086.518a25.5,25.5,0,0,0-.622,3.646,15.434,15.434,0,0,0,1.379,6.2c.613,1.519.906,3.164,1.447,4.719.7,2.01,1.492,3.989,2.258,5.976,1.154,2.975,2.276,5.963,3.488,8.915,1.041,2.528,2.15,5.039,3.3,7.522a53.526,53.526,0,0,0,2.573,4.944c1.064,1.776,2.272,3.47,3.462,5.174.613.874,1.3,1.69,1.987,2.506a4.936,4.936,0,0,0,.8.635,20.36,20.36,0,0,1-1.9,1.339c-1.064.581-2.19,1.05-3.268,1.618-.807.424-1.586.915-2.371,1.388-1.438.861-2.866,1.731-4.3,2.6a3.872,3.872,0,0,0-.811.473c-1.176,1.2-2.736.955-4.174,1.122-1.167.131-2.348.131-3.52.212-1.041.072-2.078.185-3.114.27-1.564.122-3.123.252-4.692.356-.762.05-1.532.041-2.294.09q-2.015.128-4.029.293c-1.8.144-3.6.3-5.4.455-1.771.162-3.542.325-5.314.5-.816.086-1.632.234-2.447.324-.2.023-.424-.113-.626-.09-.279.027-.559.063-.843.108s-.577.086-.874.131c-.144.018-.284.023-.433.032-.126,0-.257.014-.383.023-.644.041-1.294.086-1.938.117-.333.014-.667-.018-1,.014-1.258.122-2.506.279-3.759.383-1.65.14-3.3.207-4.949.374-1.722.18-3.43.469-5.151.663-2.181.248-4.363.442-6.544.667a7.119,7.119,0,0,0-.748.158c.009.086.023.171.036.257.874,0,1.753.032,2.623-.009,1.361-.059,2.722-.167,4.079-.266,1.046-.072,2.082-.185,3.128-.23,1.352-.054,2.709-.041,4.065-.095,1.158-.045,2.326-.135,3.488-.212.834-.059,1.672-.135,2.506-.2,1.05-.081,2.1-.158,3.15-.248.194-.014.383-.036.577-.054.559-.05,1.122-.1,1.681-.158.766-.072,1.528-.135,2.29-.185,1.294-.077,2.6-.027,3.894-.113,1.46-.09,2.92-.284,4.385-.41.965-.081,1.933-.108,2.9-.171,1.478-.1,2.961-.185,4.439-.315,1.343-.117,2.682-.27,4.025-.419.761-.086,1.519-.23,2.28-.275,1.388-.086,2.776-.086,4.164-.18,1.6-.1,3.2-.279,4.8-.419,1.762-.153,3.52-.325,5.282-.446,1.6-.108,3.2-.126,4.8-.234,1.1-.077,2.208-.243,3.313-.365a1.43,1.43,0,0,1,.343.063c-.325.816-.658,1.591-.928,2.389a25.756,25.756,0,0,1-.807,2.646,11.469,11.469,0,0,0-.762,4.57,35.334,35.334,0,0,0,.144,3.777c.05.784.167,1.559.239,2.344q.372,4.266.73,8.532c.167,2,.234,4.016.478,6.008a67.314,67.314,0,0,0,1.3,8.689,115.253,115.253,0,0,0,3.6,10.979,30.173,30.173,0,0,0,2.6,5.115c1,1.645,2.208,3.164,3.326,4.737-2.276.514-4.737,1.064-7.2,1.632m10.474-2.262a12.374,12.374,0,0,1-1.587.18.463.463,0,0,1-.315-.149,42.4,42.4,0,0,1-4.232-5.566c-.879-1.632-1.979-3.159-2.736-4.845-1.744-3.908-3.443-7.856-4.065-12.133-.36-2.443-.568-4.908-.757-7.369-.216-2.808-.361-5.62-.482-8.432-.059-1.316.036-2.632.041-3.948,0-2.866-.041-5.728.022-8.595a14.16,14.16,0,0,1,.455-3.069c.406-1.645.91-3.263,1.415-4.886a.845.845,0,0,1,.554-.518c1.154-.122,2.321-.176,3.484-.252.167-.014.333-.023.333-.023-.352,1.289-.766,2.628-1.064,3.989a31.78,31.78,0,0,0-.577,3.8c-.094,1.041-.022,2.1-.027,3.155q-.007.953-.013,1.906c0,.32-.009.64.013.965.09,1.474.194,2.947.284,4.426.009.135-.1.275-.1.41.009.356.054.708.081,1.064.032,0,.063,0,.095,0a2.226,2.226,0,0,0-.189.69c.122,1.411.262,2.821.428,4.228.041.338.324.676.293.992a4.406,4.406,0,0,0,.23,2.078,14.042,14.042,0,0,1,.275,2.794,11.439,11.439,0,0,0,.415,1.564c.036.135.131.288.1.41-.32,1.23.347,2.308.527,3.461.113.73.2,1.469.388,2.186.275,1.113.64,2.2.937,3.313.225.834.338,1.7.617,2.51.572,1.668,1.195,3.317,1.852,4.949.248.613.662,1.149.955,1.753.167.338.2.744.356,1.1a10.87,10.87,0,0,0,.7,1.266,27.95,27.95,0,0,0,2.037,3.155,31.225,31.225,0,0,0,2.718,2.619c-1.077.261-2.263.572-3.466.834m7.693-4.994a9.738,9.738,0,0,1-.973,2.452c-.681,1.212-1.271.915-2.258.361a10.08,10.08,0,0,1-3.074-3.394,2.344,2.344,0,0,1-.2-.726,12.682,12.682,0,0,0,6.778-2.425l.27.122c-.171,1.2-.27,2.429-.541,3.61m27.073-97.954c-.27,1.352-.478,2.718-.78,4.065-.4,1.771-.874,3.529-1.3,5.3-.523,2.154-1.037,4.3-1.523,6.467a11.282,11.282,0,0,1-.527,2.65,23.554,23.554,0,0,0-1.136,3.831c-.532,1.672-.8,3.43-1.221,5.142-.288,1.158-.649,2.3-.96,3.466-.4,1.487-.775,2.993-1.163,4.484-.437,1.7-.892,3.385-1.316,5.084-.252,1.023-.428,2.064-.676,3.087-.442,1.8-1.059,3.574-1.334,5.4-.252,1.677-.883,3.245-1.163,4.908-.212,1.266-.5,2.524-.789,3.777-.144.631-.379,1.244-.532,1.87-.392,1.586-.762,3.186-1.15,4.773-.252,1.041-.55,2.069-.8,3.11-.356,1.55-.658,3.114-1.041,4.66-.27,1.1-.645,2.177-.933,3.277-.162.631-.2,1.293-.356,1.924-.072.311-.334.577-.419.888a9.278,9.278,0,0,1-.717,2.767c-.55.816-.342,1.722-.766,2.483-.122.221-.316.4-.442.622s-.194.469-.3.7c-.216.451-.41.915-.658,1.339a16.723,16.723,0,0,1-1.091,1.695,30.339,30.339,0,0,1-2.064,2.6,29.508,29.508,0,0,1-2.948,2.817,13.83,13.83,0,0,1-2.7,1.641c-.843.4-1.78.586-2.659.915-.5.185-.73-.014-.978-.415a33.943,33.943,0,0,1-2.754-6.923c-.775-2.24-1.438-4.534-2.006-6.837-.437-1.771-.662-3.6-.965-5.408-.3-1.834-.608-3.669-.87-5.507-.113-.793-.1-1.6-.171-2.393-.081-.919-.216-1.834-.284-2.754-.117-1.636-.2-3.277-.3-4.913-.077-1.194-.212-2.384-.23-3.574-.014-.874.113-1.753.162-2.632.036-.563.063-1.127.059-1.7-.014-1.307.716-2.366,1.145-3.533.383-1.037.726-2.091,1.122-3.123.545-1.429,1.131-2.844,1.685-4.268.28-.708.5-1.433.784-2.136s.613-1.357.892-2.046c.559-1.379,1.091-2.763,1.645-4.137.2-.5.487-.96.681-1.46.293-.775.491-1.582.82-2.339.419-.964.969-1.87,1.393-2.835.5-1.131.924-2.312,1.411-3.457.293-.69.658-1.352.969-2.033a7.18,7.18,0,0,0,.838-2.064c.09-.843.789-1.424.744-2.308-.018-.293.442-.586.595-.919a4.479,4.479,0,0,0,.212-1.01c.888-.279.8-1.293,1.154-2.015a39.048,39.048,0,0,0,1.488-3.687c.266-.708.41-1.456.672-2.159.2-.541.532-1.023.726-1.559.343-.933.586-1.9.937-2.826.419-1.086.915-2.145,1.37-3.222.37-.874.735-1.758,1.1-2.637.343-.807.708-1.609,1.023-2.425.374-.96.649-1.952,1.064-2.884.572-1.275,1.266-2.492,1.839-3.763.383-.852.631-1.758.964-2.628a1.392,1.392,0,0,1,.46-.595,5.22,5.22,0,0,1,2.641-1.1c.744-.05,1.487.1,2.231.122a9.478,9.478,0,0,1,5.8,2.6c.87.717,1.8,1.357,2.727,2.055-1.442,1.037-1.573,2.628-1.375,4.2a36.123,36.123,0,0,0,1.01,4.611,5.742,5.742,0,0,0,.888,1.911,1.024,1.024,0,0,1,.144.983m11.8-10.325a12.2,12.2,0,0,0-3.574,5.471c-.455,1.447-.694,2.961-1.154,4.408a3.49,3.49,0,0,1-1.465,2.362,1.569,1.569,0,0,1-1.884.023,12.584,12.584,0,0,1-2.172-2.38,26.824,26.824,0,0,1-1.749-3.416,4.01,4.01,0,0,1-.243-1.861,31.779,31.779,0,0,1,.167-3.529,6.564,6.564,0,0,1,.671-1.591c2.7.9,4.75-.126,6.526-1.888,1.194-1.181,2.29-2.47,3.448-3.691.343-.361.757-.663,1.2-1.046,2,.617,3.182,2.465,4.867,3.533-1.564,1.2-3.186,2.312-4.642,3.606m5.877-4.453a4.208,4.208,0,0,1-.23.415c-1.226-1.992-3.317-2.646-5.2-3.642.572-.644,1.14-.446,1.807-.288a7.135,7.135,0,0,1,3.177,1.546c.8.685.857.96.446,1.97M542.4,138.21c-.793.243-1.609.383-2.42.572a23.53,23.53,0,0,1-4.277-.338,13.641,13.641,0,0,1-3.826-1.388c-1.87-1.064-3.718-2.177-5.6-3.222a16.743,16.743,0,0,0-2.686-1.217,11.346,11.346,0,0,0-3.006-.7,12.7,12.7,0,0,0-3.2.37c-2.857.595-5.58,1.762-8.5,2.091a35.9,35.9,0,0,1-4.376.406,31.425,31.425,0,0,1-4.11-.55,11.923,11.923,0,0,1-4.259-1.758,31.482,31.482,0,0,1-3.651-2.578c-.167-.131-.388-.482-.333-.541a1.058,1.058,0,0,1,.636-.415c.14-.023.4.18.491.347a7.888,7.888,0,0,0,4.881,3.637,10.627,10.627,0,0,0,4.6.446c2.308-.261,4.638-.347,6.936-.658,1.393-.194,2.736-.721,4.119-1.023,1.956-.428,3.916-.847,5.891-1.149a8.023,8.023,0,0,1,5.508,1.194c1.866,1.14,3.646,2.425,5.53,3.533a13.052,13.052,0,0,0,6.526,2.06,6.912,6.912,0,0,0,3.588-1.181,11.206,11.206,0,0,1,1.649-.852.815.815,0,0,1,.735.221,3.856,3.856,0,0,1,.563,1.181c.131.446-.617,1.284-1.4,1.514m7.788-6.661c-.59.46-1.221.87-1.825,1.312q-1.94,1.406-3.862,2.817a1.193,1.193,0,0,1-.113-.05,1.5,1.5,0,0,1,.212-.374q2.4-2.055,4.814-4.1c.126-.1.257-.279.387-.284a2.536,2.536,0,0,1,.649.162c-.086.176-.126.415-.261.518" transform="translate(-142.351)" fill="#fff"/>
      <path id="Path_8574" data-name="Path 8574" d="M855.053,250.668c-.046.042-.093.089-.139.132-1.321-.151-2.641-.3-3.961-.461-2.366-.291-4.743-.507-7.085-.926a8.553,8.553,0,0,1-2.993-1.239c-.476-.306-.658-1.084-.952-1.661-.178-.345-.314-.713-.476-1.1,1.189-.294,2.308-.569,3.427-.852.163-.039.391-.062.465-.174.433-.666.793-.283,1.262-.012,1.452.837,2.943,1.615,4.414,2.416,1.634.895,3.283,1.762,4.886,2.706a6.337,6.337,0,0,1,1.154,1.165" transform="translate(-461.112 -134.043)" fill="#16161c"/>
      <path id="Path_8575" data-name="Path 8575" d="M791.227,116.2c0,.054-.008.112-.015.17a6.143,6.143,0,0,1-1.3.1,48.685,48.685,0,0,1-5.676-.8c-1.893-.465-3.69-1.309-5.556-1.89a2.388,2.388,0,0,1-1.58-1.812c1.371-.612,2.683-1.2,4.27-1.913,3.086,1.924,6.47,4.034,9.854,6.148" transform="translate(-426.867 -60.453)" fill="#16161c"/>
      <path id="Path_8576" data-name="Path 8576" d="M461.038,523.814a24.188,24.188,0,0,1-.639,4.844,28.775,28.775,0,0,1-2.254,4.785,8.844,8.844,0,0,1-1.355,1.8,20.812,20.812,0,0,1-1.584,1.444,8.467,8.467,0,0,1-1.014,1.274c-1.177.995-2.4,1.936-3.608,2.884A16.845,16.845,0,0,1,449.016,542c-.732.449-1.495.844-2.257,1.235-.647.333-1.3.666-1.967.937a21.788,21.788,0,0,1-8,2.134,3.348,3.348,0,0,1-1.417-.217,42.043,42.043,0,0,0,9.134-2.985c.135-.224.178-.631.7-.329a.333.333,0,0,0,.317-.1c.415-.767,1.2-.991,1.882-1.4a15.515,15.515,0,0,0,2.1-1.754c.616-.538,1.247-1.065,1.835-1.634.562-.542,1.08-1.127,1.607-1.7.387-.422.736-.875,1.131-1.289.747-.786,1.545-1.534,2.265-2.346.31-.353.418-.871.7-1.247a17.285,17.285,0,0,0,2.451-4.433,13,13,0,0,0,.782-3.837,45.157,45.157,0,0,0-.228-4.739c-.008-.159,0-.317,0-.476.082-.016.163-.027.24-.043.248,1.189.55,2.37.72,3.57a10.831,10.831,0,0,1,.027,2.478" transform="translate(-239.154 -284.412)" fill="#fff"/>
      <path id="Path_8577" data-name="Path 8577" d="M722.253,238.152a7.251,7.251,0,0,0-3.98-3.056,5.079,5.079,0,0,0-1.5-.324,9.192,9.192,0,0,0-4.223.78,8.1,8.1,0,0,0-3.471,2.731,12.219,12.219,0,0,0-1.167,2.312,9.384,9.384,0,0,0-.816,2.839,8.108,8.108,0,0,0,1.762,5.458,7.069,7.069,0,0,0,4.336,2.736,7.99,7.99,0,0,0,4.669-.608c.167-.068.261-.3.392-.46.032.032.063.063.095.09a7.66,7.66,0,0,0,1.379-.865c.469-.451.762-1.073,1.217-1.541a9.3,9.3,0,0,0,1.866-4.074,6.684,6.684,0,0,0,.2-1.352,7.445,7.445,0,0,0-.762-4.665m-1.2,5.8c-.036,1.041-.717,1.8-1.028,2.713-.144.424-.7.69-.946,1.1-.586,1-1.641,1.325-2.515,1.9a3.848,3.848,0,0,1-1.4.622,4.306,4.306,0,0,1-1.933-.009c-2.8-.9-4.232-3-4.791-5.792a2.642,2.642,0,0,1-.05-.428c-.013-.149,0-.293,0-.446a7.746,7.746,0,0,1,3.056-6.278,6.248,6.248,0,0,1,3.335-1.411,7.266,7.266,0,0,1,4.7,1.293,5.067,5.067,0,0,1,1.88,3.56,17.124,17.124,0,0,1-.3,3.168" transform="translate(-388.407 -128.958)" fill="#fff"/>
      <path id="Path_8578" data-name="Path 8578" d="M390.478,426.744l-20.052-19.907,11.988-5.809-2.544.55-5.163,1.18-.234.113-7.121,3.452,19.019,18.889-26.645,1.762,9.636,24.86L344.5,442.2l-1.762,26.645-18.884-19.019L312.13,474.017l-11.375-24.473L282.1,469.122l-2.952-19.06-.735-4.737-.388-2.506-.072-.478-1.636,1.005-.176.108L261.882,452.2l0,0-7.04,4.313,1.221-13.377v-.013l.239-2.614,1.005-11.038-8.266,2.713-17.55,5.755,7.189-21.895,1.284-3.917-3.588.329-18.348,1.672-.613.054-.87.081-3.047.275-.581.054.3-.491,1.573-2.565,1.659-2.709,8.595-14.021.068-.108,1.51-2.461.473-.771-1.073-.162-.018,0-.14-.022-3.425-.532L221,390.535l-20.691-3.2L219.9,368.685l-24.473-11.38,24.193-11.723L200.6,326.7l26.641-1.762-9.631-24.86,24.86,9.631,1.762-26.645,18.889,19.024,11.723-24.193,11.375,24.473,18.645-19.583,4.146,26.78,23.125-14.179-.415,4.57,1.92-1.239.613-6.747-23.878,14.643-4.291-27.722-19.348,20.317-11.862-25.518L262.6,299.008,242.7,278.961l-1.866,28.177-26.384-10.222L224.672,323.3l-28.182,1.866,20.047,19.907-25.32,12.273L216.736,369.2l-20.317,19.348,22.3,3.452,4.859.753.158.023.252.041.153.022-.18.288-2.127,3.475-5.868,9.564-2.258,3.687-1.577,2.569-2.632,4.3,5.093-.464,3.141-.284,19.659-1.789-8.725,26.591,21.376-7.013,5.215-1.713-.784,8.613-1.758,19.276,10.136-6.215,0,0,13.588-8.333.149-.09.095.613.807,5.215,3.258,21.02.135.879.969-1.014,18.375-19.3,11.862,25.514,12.272-25.32,19.907,20.047,1.866-28.177,26.379,10.222L362.3,428.609Z" transform="translate(-105.037 -150.338)" fill="#ce1953"/>
    </g>
  </g>
</svg>
