<svg xmlns="http://www.w3.org/2000/svg" width="265" height="256.997" viewBox="0 0 265 256.997">
  <path id="Path_9031" data-name="Path 9031" d="M-4176.143-8846c-1.314-.139-2.626-.367-3.944-.4-2.653-.056-5.31-.021-7.963,0-2.024.02-4.044.108-6.065.121-3.113.021-6.228,0-9.341,0q-2.019,0-4.037,0-5.157,0-10.313-.012c-2.946-.016-5.894-.07-8.841-.14-2.317-.05-4.633-.183-6.949-.207a3.011,3.011,0,0,0-.877.172,2.221,2.221,0,0,1-1.072.147,13.772,13.772,0,0,0-3.745-.155,17.2,17.2,0,0,1-3.09-.038,32.12,32.12,0,0,0-4.753.208c-1.642.027-3.286-.054-4.928-.093-.934-.024-1.866-.069-2.8-.087q-5.5-.094-11.005-.172c-.55-.007-1.1.106-1.652.106q-9.548.012-19.092,0-6.049,0-12.1-.01c-1.892,0-3.783.009-5.676.01q-2.673,0-5.345,0c-3.9,0-7.791-.009-11.686.014-2.87.017-5.74.181-8.607.193-2.034.008-4.069-.12-6.1-.2a30.963,30.963,0,0,0-5.3-.174c-2.1.288-4.191.07-6.284.326a12.718,12.718,0,0,1-2.6-.043c-.576-.049-1.152-.1-1.724-.093-1.31.006-2.619.2-3.93.229-1.765.035-3.534-.011-5.3-.025-1.979-.019-3.959,0-5.937-.084-1.233-.05-2.459-.367-3.689-.359-1.268.01-2.529.317-3.8.407-.887.062-1.782-.029-2.674-.04-1.958-.023-3.915-.063-5.872-.048-3.12.024-6.239.138-9.357.121-3.348-.016-6.7-.129-10.043-.224-2.283-.067-4.564-.183-6.846-.257-.566-.021-1.138,0-1.711.02a12.28,12.28,0,0,1-3.429-.2c-5.21-1.366-8.417-3.17-8.933-9.934-.156-2.048-.427-4.092-.442-6.141a48.648,48.648,0,0,1,.4-5.62,47.594,47.594,0,0,1,.881-6.183,29.562,29.562,0,0,1,2.04-5.636c1.282-2.706,2.785-5.308,4.176-7.963,1.36-2.6,2.629-5.247,4.06-7.8,2.653-4.747,5.322-9.483,7.784-14.331,1.318-2.594,2.728-5.142,4.12-7.7.85-1.559,1.8-3.065,2.605-4.645,1.5-2.945,2.9-5.945,4.406-8.889,2.151-4.214,4.317-8.42,6.556-12.586,1.3-2.42,2.821-4.724,4.131-7.141,1.45-2.673,2.754-5.427,4.157-8.123,1.33-2.56,2.761-5.064,4.045-7.648,1.432-2.879,2.718-5.833,4.128-8.726,1.027-2.11,2.185-4.163,3.23-6.267,1.67-3.362,3.229-6.783,4.959-10.113,2.043-3.938,4.291-7.771,6.311-11.72,1.337-2.611,2.372-5.371,3.642-8.019,1.262-2.625,2.665-5.183,3.979-7.784.9-1.788,1.68-3.648,2.665-5.39a7.851,7.851,0,0,1,4.383-3.914c4.047-1.234,8.2-.969,12.367-.643a22.73,22.73,0,0,0,3.1-.046c.709-.041,1.417-.085,2.124-.082,2.492.008,4.982.122,7.474.154,2.683.031,5.368.011,8.053.032.526,0,1.051.1,1.88.183a41.822,41.822,0,0,1-8.838-16.653,52.9,52.9,0,0,1-1.59-18.75c-1.576,0-2.941.041-4.3-.019a4.357,4.357,0,0,1-1.641-.426c-1.486-.71-1.711-1.442-.621-2.7,3.472-4.022,5.241-8.958,7.486-13.641a31.283,31.283,0,0,1,7.384-10.061,38.12,38.12,0,0,1,9.358-6.434,29.1,29.1,0,0,1,10.2-3.028c1.557-.106,3.094-.513,4.651-.609a22.868,22.868,0,0,1,8.943,1.53,23.941,23.941,0,0,1,7.938,4.665,64.657,64.657,0,0,1,7.221,7.152,28,28,0,0,1,5.548,9.687,63.95,63.95,0,0,1,1.572,6.455c.237,1.209-.487,1.962-1.644,2.319-1.369.421-2.729.873-4.092,1.309.736,7.067-.523,13.854-2.766,20.514a57.758,57.758,0,0,1-10.133,18.183c1.882.1,3.362.211,4.846.254.611.016,1.227,0,1.843-.008a22.338,22.338,0,0,1,3.247.1,24.493,24.493,0,0,0,4.248.047,22.24,22.24,0,0,1,4.656.108,9.586,9.586,0,0,0,2.5-.054,10.8,10.8,0,0,1,2.232-.092,6.216,6.216,0,0,1,4.789,2.744c2.437,3.711,4.982,7.354,7.314,11.128,1.757,2.841,3.213,5.864,4.883,8.763,1.586,2.752,3.322,5.42,4.906,8.175.658,1.146,1.039,2.447,1.646,3.628.455.883,1.106,1.662,1.606,2.523.472.81.832,1.689,1.292,2.508.544.975,1.174,1.9,1.709,2.87,2.566,4.667,5.139,9.33,7.655,14.024,2.05,3.825,4.012,7.7,6.043,11.535.438.828,1.043,1.567,1.5,2.385.523.934,1.373,1.658,1.278,2.972-.043.6.832,1.265,1.255,1.92.6.928,1.213,1.854,1.727,2.827.581,1.105,1.021,2.28,1.589,3.393.706,1.385,1.5,2.721,2.218,4.1.888,1.715,1.694,3.469,2.6,5.177.8,1.51,1.648,3,2.542,4.455a20.915,20.915,0,0,1,2.1,4.413,18.275,18.275,0,0,0,2.008,3.424c.808,1.344,1.677,2.654,2.389,4.045.544,1.06.826,2.255,1.338,3.337.382.809.983,1.469,1.359,2.342a59,59,0,0,0,3.014,5.218c1.052,1.884,1.982,3.834,3.022,5.726,1.048,1.908,2.124,3.8,3.264,5.655,2.056,3.343,4.284,6.585,6.22,9.994a87.009,87.009,0,0,1,4.784,9.617,24.191,24.191,0,0,1,1.35,6.169c.287,2.229.285,4.493.425,6.744a1.652,1.652,0,0,0,.253.534v1.856c-.1.6-.245,1.19-.283,1.788-.109,1.646-.1,3.3-.279,4.938a34.446,34.446,0,0,1-.762,3.762,11.073,11.073,0,0,1-2.691,5.174c-1.638,1.789-3.806,2.508-6.009,3.114a9.358,9.358,0,0,1-3.827.431,2.083,2.083,0,0,0-2.026.4Zm-7.274-2.336c1.847.007,3.694.11,5.542.146a19.867,19.867,0,0,0,3.969-.026,25.754,25.754,0,0,0,6.375-1.8,7.239,7.239,0,0,0,3.711-4.876,24.782,24.782,0,0,0,.7-5.294c.219-2.976.335-5.957.483-8.739a31.974,31.974,0,0,1-5.407,2.37,21.529,21.529,0,0,1-6.8.8c-2.613-.206-5.277.327-7.924.389-2.017.046-4.04-.213-6.06-.223-2.987-.008-5.974.124-8.961.124-2.758,0-5.515-.071-8.271-.145-1.661-.046-3.321-.231-4.982-.225-2.7.006-5.4.189-8.1.159-1.92-.021-3.836-.312-5.756-.413-2.539-.135-5.081-.177-7.617-.306-4.106-.207-8.212-.49-12.321-.655a12.729,12.729,0,0,0-2,.137,14.548,14.548,0,0,1-1.752.143c-3.444-.008-6.888-.133-10.331-.149-5.052-.021-10.106-.04-15.155.044-2.725.048-5.447.341-8.17.462-1.563.07-3.133.043-4.7.01-3.231-.063-6.463-.209-9.7-.229-1.95-.011-3.9.207-5.856.224-4.685.038-9.369.028-14.053.011-.674,0-1.353-.249-2.021-.222-1.216.05-2.425.321-3.635.317-2.307-.006-4.611-.182-6.918-.21-.98-.013-1.963.018-2.947.05-.867.025-1.736.054-2.6.053-2.042-.006-4.082-.094-6.123-.137-1.422-.03-2.848-.1-4.268-.055-1.736.06-3.47.287-5.207.321-1.83.036-3.66-.108-5.49-.113-2.02,0-4.038,0-6.056.013q-2.458.012-4.918.016c-1.6,0-3.212-.089-4.817-.067-1.542.019-3.085.183-4.628.167-1-.015-2-.354-3-.345-2.038.018-4.071.229-6.107.257-1.349.02-2.7,0-4.044-.014-1.286-.015-2.57-.03-3.854-.014-2.06.027-4.119.2-6.178.232a13.918,13.918,0,0,1-1.534-.09,12.878,12.878,0,0,0-1.594-.091c-1.2.028-2.4.33-3.591.306-2.867-.062-5.731-.244-8.6-.374-2.43-.109-4.862-.209-7.017-2.112,0,2.486-.137,4.772.041,7.037a43.22,43.22,0,0,0,1.049,6.632c1.107,4.638,4.075,6.487,7.882,6.578,3.292.083,6.6-.274,9.9-.372,3.318-.1,6.641-.145,9.96-.162,2.063-.01,4.125.1,6.188.107.928,0,1.859-.018,2.79-.04.99-.019,1.981-.042,2.971-.033,2.224.015,4.447.117,6.671.142a51.7,51.7,0,0,0,5.838-.072,21.573,21.573,0,0,1,2.728-.061,22.74,22.74,0,0,0,2.552-.04c2.666-.233,5.381.107,8.075.136,3.382.038,6.763.009,10.144.009,2.234,0,4.469-.011,6.7,0,2.851.017,5.7.06,8.545.082q4.142.037,8.282.061c.76,0,1.52,0,2.28,0,1-.006,2-.011,3,0,1.8.021,3.591.1,5.388.114,1.187.006,2.376,0,3.565,0,1.585-.007,3.171-.015,4.757.01,2.9.041,5.8.227,8.7.236,2.435.007,4.87-.189,7.3-.22,1.226-.017,2.454,0,3.681.026.958.017,1.919.034,2.879.034,3.025,0,6.048-.059,9.073-.061.6,0,1.2.215,1.791.2,1.338-.028,2.675-.184,4.015-.2.92-.01,1.84.014,2.761.037.821.02,1.644.04,2.465.038,3.884-.012,7.771-.092,11.654-.076,2.424.012,4.849.228,7.274.218,3.271-.012,6.543-.207,9.814-.218,2.76,0,5.518.2,8.276.2,2.559,0,5.118-.187,7.677-.207q6.412-.06,12.822,0c1.839.011,3.678.19,5.519.207,2.565.025,5.131-.023,7.7-.06,1.793-.023,3.586-.111,5.378-.111Zm1.453-19.492c2.352.061,4.708.432,7.043.315a36.24,36.24,0,0,0,6.8-1.087,6.345,6.345,0,0,0,4.947-4.378c.818-2.68-.035-5.164-1.062-7.519-1.111-2.544-2.537-4.956-3.887-7.392q-4.015-7.248-8.1-14.463c-1.282-2.273-2.609-4.522-3.908-6.791-.534-.928-1.008-1.895-1.578-2.8-1.11-1.771-2.318-3.478-3.39-5.269-.793-1.33-1.4-2.77-2.153-4.127-1.146-2.074-2.385-4.1-3.5-6.185s-1.869-4.416-3.254-6.286c-2.149-2.9-2.767-6.579-5.114-9.325-.047-.059-.011-.18-.047-.256a34.221,34.221,0,0,0-2.739-5.427,10.023,10.023,0,0,1-1.9-3.892,14.931,14.931,0,0,0-1.5-3.55c-.7-1.631-1.72-3.123-2.552-4.7-.4-.761-.619-1.617-1.029-2.368-1.389-2.549-2.871-5.049-4.237-7.608-1.606-3.012-3.06-6.109-4.712-9.095-1.423-2.576-3.064-5.028-4.547-7.57-.767-1.32-1.332-2.757-2.112-4.065-.829-1.4-1.847-2.684-2.708-4.065q-2.374-3.812-4.656-7.685c-.55-.938-.729-2.291-1.51-2.852-1.365-.979-1.492-2.619-2.589-3.756-1.144-1.187-1.616-3.019-2.414-4.551-1.578-3.026-3.1-6.087-4.792-9.05-1.894-3.322-3.844-4.652-7.77-4.395-1.884.121-3.774.114-5.664.109q-.827,0-1.65,0c-1.815.006-3.627-.052-5.443-.066-1.775-.015-3.554,0-5.331-.021a12.713,12.713,0,0,0-2.917-.042,2.675,2.675,0,0,1-.819,0c-.728-.071-1.491-.143-1.656,1.088,1.221.093,2.44.273,3.659.268,3.716-.023,7.433-.11,11.149-.184,2.881-.057,5.765-.214,8.645-.16,1.537.027,3.253-.08,4.226,1.6,1.237,2.135,2.493,4.26,3.718,6.4,1.491,2.61,2.978,5.226,4.428,7.859,1,1.824,1.954,3.678,2.911,5.527.8,1.543,1.561,3.109,2.363,4.651.731,1.414,1.487,2.809,2.242,4.207.984,1.817,2.015,3.612,2.959,5.449.817,1.592,1.538,3.231,2.313,4.844.759,1.571,1.489,3.165,2.314,4.7.723,1.349,1.632,2.6,2.341,3.954,1.686,3.221,3.271,6.5,4.958,9.721.916,1.753,2.015,3.412,2.922,5.169,1.879,3.643,3.646,7.342,5.532,10.979,2.067,3.992,4.216,7.943,6.327,11.917q5.227,9.836,10.452,19.679,2.788,5.235,5.607,10.455c2,3.73,4.024,7.45,6.007,11.19,1.283,2.422,2.511,4.876,3.77,7.313,1.145,2.222,2.368,4.409,3.422,6.674a11.749,11.749,0,0,1,1.011,3.48c.589,4.794-2.444,6.962-6.277,8.132a29.95,29.95,0,0,1-8.58.845c-4.277.013-8.552-.36-12.831-.46-1.942-.046-3.884-.037-5.828-.029-1.928.008-3.857.017-5.782-.028-4.526-.1-9.047-.371-13.571-.488-3.084-.075-6.172-.038-9.259,0-2.574.035-5.148.208-7.723.208-1.277,0-2.554-.049-3.83-.1s-2.572-.1-3.857-.1c-2.5.006-5,.138-7.5.253-4.974.228-9.952.043-14.932.438-3.3.262-6.636.053-9.961.312-2.405.188-4.837.033-7.259.033-2.2,0-4.4-.025-6.6.013-3.179.059-6.355.177-9.533.242-2.256.047-4.516.037-6.775.072-2.761.045-5.522.205-8.281.148-4.255-.088-8.506-.337-12.76-.479-.883-.03-1.767-.02-2.653-.012-.769.01-1.539.017-2.307,0-2.29-.052-4.579-.219-6.869-.222-1.449,0-2.9.034-4.343.074-1.75.044-3.5.091-5.247.068-4.614-.061-9.227-.331-13.841-.377-3.649-.038-7.3.135-10.95.2-2.186.035-4.375-.013-6.56.067-2.3.084-4.584.329-6.879.405-1.924.067-3.853.009-5.778-.018-2.146-.032-4.3.035-6.433-.174-2.382-.233-4.738-.746-7.108-1.107a4.048,4.048,0,0,1-3.13-2.818,11.335,11.335,0,0,1,1.309-7.719c.846-1.712,2.03-3.257,2.862-4.976,1.882-3.892,3.568-7.88,5.467-11.768,2.408-4.928,4.938-9.8,7.433-14.684,1.452-2.842,2.962-5.651,4.407-8.5q4.531-8.915,9.009-17.857c1.635-3.277,3.2-6.587,4.765-9.9,1.473-3.113,2.86-6.267,4.368-9.363q3.319-6.813,6.759-13.568c2.429-4.8,4.875-9.588,7.376-14.349,1.8-3.435,3.729-6.809,5.564-10.226,1.777-3.3,3.488-6.643,5.267-9.944,1.031-1.916,2.234-3.742,3.183-5.7,1.153-2.372,2.123-4.831,3.168-7.256a7.157,7.157,0,0,1,5.03-4.385,34.622,34.622,0,0,1,7.123-.807c6.744-.1,13.49-.029,20.236-.026q3.3,0,6.6,0,.086-.3.172-.6a4.754,4.754,0,0,0-1.349-.471c-2.014-.067-4.028-.07-6.044-.067-.917,0-1.833,0-2.75,0-2.881-.006-5.763-.011-8.642.064-2.785.071-5.565.325-8.346.522-2.255.16-4.516.269-6.757.551-2.325.294-4.542,1.081-5.836,3.174a46.911,46.911,0,0,0-2.571,5.363c-.863,1.905-1.634,3.857-2.53,5.749-.854,1.795-1.838,3.528-2.723,5.309-1.409,2.839-2.733,5.718-4.188,8.531-1.287,2.49-2.716,4.905-4.055,7.364-.846,1.55-1.617,3.14-2.465,4.688-1.272,2.322-2.623,4.606-3.87,6.943-1.465,2.744-2.833,5.54-4.281,8.294-2.068,3.926-4.232,7.8-6.247,11.756-2.539,4.982-4.945,10.029-7.454,15.029-1.542,3.074-3.2,6.088-4.747,9.163-.934,1.861-1.674,3.819-2.627,5.669-1.449,2.807-3.045,5.541-4.509,8.343-.961,1.838-1.772,3.754-2.7,5.612-1.659,3.308-3.249,6.652-5.059,9.876-3.8,6.761-7.721,13.45-11.581,20.172-2.238,3.893-4.275,7.891-4.881,12.4-.156,1.159-.01,2.932.723,3.521,2.142,1.722,4.907,2.027,7.621,2.067,1.2.019,2.408,0,3.614-.02,1.029-.014,2.057-.031,3.086-.021,1.773.01,3.55.175,5.32.121,1.715-.047,3.425-.372,5.141-.426,1.342-.041,2.69-.038,4.036-.034,1.322,0,2.645.008,3.965-.031,2.928-.088,5.852-.334,8.778-.425,1.251-.042,2.5-.009,3.756.025,1.625.045,3.25.089,4.88-.025,1.486-.109,3,.288,4.5.3,3.556.021,7.116-.068,10.673-.081.91,0,1.819.156,2.73.159.436,0,.873-.033,1.311-.069a13.661,13.661,0,0,1,1.426-.065c1.576.032,3.153.217,4.728.21,1.718-.006,3.436-.24,5.152-.227,3.809.029,7.617.189,11.426.227,1.609.015,3.221-.011,4.833-.036,1.319-.02,2.641-.04,3.962-.039,1.255,0,2.643.507,3.734.117a10.8,10.8,0,0,1,4.251-.385,17.374,17.374,0,0,0,2.62-.019,1.85,1.85,0,0,1,.717.11,2.177,2.177,0,0,0,.653.12c2.548-.093,5.1-.35,7.642-.311,1.721.024,3.433-.009,5.152-.033,2.456-.039,4.911.095,7.368.142.6.012,1.207-.047,1.811-.071,1.125-.041,2.252-.08,3.377-.127.347-.015.692-.075,1.039-.07.715.013,1.43.053,2.146.078a8.158,8.158,0,0,0,.818.013c1.629-.1,3.259-.286,4.892-.313,1.031-.017,2.065.013,3.1.043,1,.027,1.991.054,2.988.044,1.405-.019,2.81-.277,4.215-.282,1.807,0,3.611.153,5.417.208.936.03,1.874.025,2.81.023h.909l1.819,0c1.246-.006,2.492-.014,3.739.011,1.036.019,2.072.169,3.111.191.875.014,1.752.014,2.629.014,1.058,0,2.117,0,3.176.027,1.188.033,2.373.254,3.56.264a12.98,12.98,0,0,0,1.564-.106,10.511,10.511,0,0,1,1.954-.088c4.882.374,9.763.625,14.66.615,4.608-.01,9.216.094,13.823.15s9.208.092,13.81.171c.618.01,1.232.315,1.849.319.829.007,1.659-.016,2.487-.039.716-.019,1.431-.039,2.146-.039C-4182.55-8867.841-4182.257-8867.838-4181.964-8867.829Zm-151.613-5.933c3.342.07,6.678.426,10.017.435,6.02.018,12.041-.126,18.06-.214,3.835-.054,7.67-.166,11.506-.182,1.158-.007,2.316.031,3.473.069,1.308.044,2.615.09,3.923.069,2.624-.039,5.243-.272,7.864-.354,2.942-.09,5.886-.057,8.828-.164,3.3-.119,6.593-.418,9.891-.481,4.321-.086,8.645-.016,12.967-.013,3.04,0,6.079,0,9.119.012,2.64.009,5.279.041,7.918.056q8.673.044,17.344.083c2.1.014,4.2.1,6.3.077,1.821-.02,3.642-.249,5.458-.2,2.5.069,4.994.367,7.495.472,3.349.142,6.7.217,10.051.273a18.67,18.67,0,0,0,6.789-1.079,5.676,5.676,0,0,0,3.6-5.107,15.527,15.527,0,0,0-2.116-6.968c-2.887-5.622-5.665-11.3-8.551-16.923-1.761-3.43-3.652-6.79-5.456-10.193-2.51-4.745-4.973-9.506-7.491-14.243-1.528-2.878-3.147-5.705-4.678-8.58-1.88-3.525-3.723-7.069-5.562-10.62-1.517-2.922-2.961-5.888-4.52-8.791-1.777-3.3-3.679-6.535-5.466-9.83-1.255-2.317-2.37-4.711-3.62-7.031-1.307-2.431-2.727-4.8-4.045-7.224q-2.458-4.521-4.826-9.094c-.727-1.4-1.3-2.876-2.059-4.259-1.123-2.041-2.4-4-3.511-6.045-1.248-2.294-2.386-4.653-3.583-6.979-.841-1.634-1.726-3.241-2.542-4.889-.739-1.489-1.287-3.09-2.145-4.5-1.491-2.458-2.255-5.331-4.539-7.356a7.8,7.8,0,0,0-5.164-2.053c-1.95-.05-3.9-.035-5.85-.021-1.332.011-2.668.021-4,.011-3.043-.023-6.088-.068-9.128-.182-1.5-.056-2.961-.2-4.088,1.088-.118.132-.414.1-.613.178-1.47.579-2.952,1.132-4.392,1.786a1.281,1.281,0,0,0-.636.979c.279,3.642.865,7.151,2.9,10.368,2.945,4.658,7.74,6.462,12.393,8.454,2.081.892,4.434,1.133,6.625,1.791,2.907.873,5.849,1.7,8.647,2.848,5.164,2.13,9.658,5.146,12.135,10.456a27.491,27.491,0,0,0,1.5,2.874,27.679,27.679,0,0,1,3.828,14.556c.028,1.728.162,3.45.232,4.854a62.685,62.685,0,0,1,7.366,2.283,9.258,9.258,0,0,1,3.926,3.156c1.6,2.475.922,5.1-.865,7.3a23.418,23.418,0,0,1-8.147,6.59c-6.041,2.835-12.206,5.4-18.324,8.068a4.377,4.377,0,0,1-.847.188c4.625-2.3,9.285-4.375,13.861-6.62,4.429-2.168,8.7-4.605,11.821-8.6,2.295-2.941,1.949-5.4-.372-7.338a18.456,18.456,0,0,0-8.178-3.812c0,1.051.03,2.072-.008,3.1a42.139,42.139,0,0,1-.359,6.3c-.469,2.45-2.482,4-4.393,5.292a85.382,85.382,0,0,1-9.8,5.832,94.946,94.946,0,0,1-12.265,5.21,128.08,128.08,0,0,1-13.331,3.3c-2.088.448-4.263.48-6.4.721-1.74.2-3.474.524-5.218.614-2.494.133-5,.13-7.5.13-2.165,0-4.345.065-6.494-.144-2.843-.277-5.67-.755-8.491-1.215-2.878-.472-5.762-.934-8.6-1.585a61.031,61.031,0,0,1-6.289-1.924c-3.713-1.291-7.442-2.56-11.084-4.029-2.621-1.058-5.128-2.41-7.663-3.675-1.337-.666-2.663-1.367-3.932-2.154a42.047,42.047,0,0,1-5.1-3.438,16.832,16.832,0,0,1-2.949-3.665c-.281-.428,0-1.211,0-1.834,0-.257-.069-.515-.086-.771-.192-2.749-.714-5.526-.468-8.236a26.073,26.073,0,0,1,2.026-7.341,62.332,62.332,0,0,1,4.219-8.388,51.752,51.752,0,0,1,4.759-6.439,35.8,35.8,0,0,1,4.531-4.564,33.3,33.3,0,0,1,8.71-5.02,58.965,58.965,0,0,1,6.39-2.205c4.034-1.14,8.108-2.122,12.156-3.212,4.291-1.155,7.132-4.154,8.955-7.947a24.509,24.509,0,0,0,2.315-11.009c-.015-1.036-.291-1.382-1.336-1.392-2.878-.022-5.759-.086-8.63-.279a9.155,9.155,0,0,1-4.09-.878,4.8,4.8,0,0,0-2.718-.687q-1.692-.021-3.379-.014-1.267,0-2.532,0c-2.109,0-4.219,0-6.325.074-2.716.094-5.429.313-8.14.537-1.9.156-3.743.588-4.855,2.347a31.236,31.236,0,0,0-1.687,3.208c-1.146,2.381-2.174,4.824-3.408,7.159-1.442,2.724-3.151,5.308-4.568,8.043-2.148,4.148-4.105,8.4-6.215,12.566-2.565,5.075-5.227,10.1-7.8,15.175q-3.879,7.639-7.658,15.324c-1.517,3.085-2.953,6.207-4.422,9.313-1.547,3.272-3.039,6.575-4.653,9.814-1.444,2.906-3.04,5.738-4.535,8.619-2.065,3.973-4.1,7.962-6.148,11.946-1.285,2.5-2.618,4.983-3.836,7.519-2.088,4.357-4.071,8.764-6.165,13.117-1.665,3.468-3.56,6.833-5.119,10.348-1.756,3.951-3.263,8.016-4.853,12.039a3.205,3.205,0,0,0,1.788,4.072,10.791,10.791,0,0,0,2.778.564c1.557.113,3.124.043,4.683.124,1.87.1,3.734.377,5.6.387,2.735.018,5.472-.181,8.208-.208,1-.011,2,.023,3,.055,1.018.037,2.038.07,3.055.059,3.535-.038,7.071-.246,10.6-.219,5.209.041,10.419.256,15.628.338,2.458.036,4.916-.085,7.374-.088,1.346,0,2.693.016,4.041.031,1.6.021,3.193.041,4.791.031,2.179-.013,4.358-.175,6.535-.175Q-4333.987-8873.77-4333.577-8873.762Zm-9.212-110.853a44.009,44.009,0,0,0-3.746,6.077,67.7,67.7,0,0,0-3.326,7.01,14.361,14.361,0,0,0-.985,4.541c-.18,3.7-.143,7.414-.2,11.338.227.209.673.656,1.154,1.061a41.551,41.551,0,0,0,8.1,5c1.935.994,3.864,2.015,5.853,2.887,2.393,1.051,4.838,1.979,7.277,2.915,1.757.673,3.523,1.335,5.323,1.881,2.877.872,5.776,1.677,8.687,2.439,1.871.489,3.761.95,5.671,1.251,2.422.383,4.871.632,7.314.873a81.512,81.512,0,0,0,9.861.79c3.471-.088,6.969.141,10.437-.508,2.034-.381,4.156-.277,6.206-.6,3.527-.558,7.06-1.145,10.53-1.976a60.929,60.929,0,0,0,8.5-2.663c3.474-1.391,6.89-2.967,10.212-4.692,3.3-1.709,6.47-3.668,9.646-5.606.65-.4,1.45-1.146,1.5-1.793a32.672,32.672,0,0,0-.305-4.337c-.181-3.577-.225-7.163-.491-10.732a33.163,33.163,0,0,0-1.086-7.62,74.016,74.016,0,0,0-4.169-9.671c-.6-1.238-2.453-1.675-2.492-3.407a28.026,28.026,0,0,0-12.94-7.629c-.856-.261-1.492-.2-1.837.785a7.693,7.693,0,0,1-.85,1.628,43.161,43.161,0,0,1-13.765,12.981,43.4,43.4,0,0,1-6.827,3.335,55.368,55.368,0,0,1-7.6,2.4,44.114,44.114,0,0,1-12.55.739,49.824,49.824,0,0,1-11.409-2.146,54.875,54.875,0,0,1-7.109-2.68c-2.627-1.187-5.211-2.5-7.711-3.94a34.684,34.684,0,0,1-9.149-7.589A36.94,36.94,0,0,0-4342.79-8984.614Zm8.078-8.025a4.431,4.431,0,0,0,.567.606c2.783,2.055,5.457,4.289,8.395,6.092a45.044,45.044,0,0,0,8.969,4.44,132.264,132.264,0,0,0,14.057,3.694,24.846,24.846,0,0,0,7.441.627,72.712,72.712,0,0,0,11.621-1.961,41.81,41.81,0,0,0,8.994-3.534,43.653,43.653,0,0,0,10.526-8.2,26.564,26.564,0,0,0,5.287-7.571c-2.058-.556-1.913-.449-3.088,1.131a44.208,44.208,0,0,1-4.819,5.529,53.319,53.319,0,0,1-4.993,3.821,35.338,35.338,0,0,1-10.415,5.186,99.828,99.828,0,0,1-11.3,2.8,31.383,31.383,0,0,1-11.339-.012,41.722,41.722,0,0,1-12.725-3.918,50,50,0,0,1-11.708-7.863c-.906-.865-1.758-1.784-2.643-2.686Zm36.433-29.144a20.092,20.092,0,0,1-.484,8.721,16.461,16.461,0,0,1-11.171,11.516c-2.827.944-5.771,1.533-8.655,2.319-2.387.651-4.782,1.289-7.133,2.062-1.459.479-2.843,1.2-4.418,1.881,12,10.309,25.456,15.577,41,12.4,10.808-2.211,20.2-7.524,27.132-16.6-1.69-.517-3.24-1.023-4.808-1.458a26.519,26.519,0,0,1-9.368-4.407,16.092,16.092,0,0,1-6.79-13.263c-.007-.988,0-1.977,0-3.135a18.787,18.787,0,0,1-15.407-1.285C-4298.336-9022.474-4298.332-9022.125-4298.279-9021.783Zm-17.5-43.24c-.091.079-.053.335-.033.5.433,3.937.77,7.883,1.347,11.8a41.663,41.663,0,0,0,1.55,5.782,38.943,38.943,0,0,0,6.317,12.912c1.322,1.7,2.508,3.539,4.386,4.792,1.1.737,1.886,1.933,2.952,2.743a18.867,18.867,0,0,0,7.125,3.5,14.484,14.484,0,0,0,10.318-1.667,32.018,32.018,0,0,0,9.44-7.851,59.338,59.338,0,0,0,3.591-5.356,52.193,52.193,0,0,0,5.12-10.61,48.1,48.1,0,0,0,2.281-9.213c.562-3.659.692-7.383,1.018-11.158-.649,0-1-.015-1.34,0a3,3,0,0,1-3.369-1.9,9.288,9.288,0,0,0-1.418-1.894l-.151.1a14.891,14.891,0,0,1,1.03,2.2,1.429,1.429,0,0,1-.324,1.283,6.944,6.944,0,0,1-2.111.777c-2.4.572-4.8,1.19-7.234,1.612a24.835,24.835,0,0,1-5.485.46,52.331,52.331,0,0,1-6.034-.98c.109-1.709.212-3.333.315-4.955a1.85,1.85,0,0,0-.839.969c-.524,1.3-.993,2.621-1.558,3.9a1.4,1.4,0,0,1-.846.721,53.681,53.681,0,0,1-5.759,1.154c-2.655.312-5.332.5-8,.545-1.866.039-3.739-.233-5.608-.38-2.377-.186-3.812-1.068-4.177-2.685a13.028,13.028,0,0,1-.131-2.217C-4314.223-9068.408-4314.246-9066.386-4315.775-9065.023Zm9.828-17.061c-1.345,2.1-2.855,4.289-4.185,6.579a13.793,13.793,0,0,0-1.47,7.784,92.12,92.12,0,0,0,21.472.434,12.283,12.283,0,0,1,4.371-8.562c.3,1.6.62,2.814.729,4.049.114,1.3.025,2.628.025,4.026,6.062.551,11.948-.847,17.764-2.628-.418-2.379-2.3-3.55-3.793-5.154,3.015-.169,6.419,2.178,8.41,5.638a19.455,19.455,0,0,0,8.255-2.038,45.5,45.5,0,0,0-1.65-5.4,59,59,0,0,0-4.092-7.982,42.312,42.312,0,0,0-4.57-5.234,27.129,27.129,0,0,0-9.823-7.075,26.937,26.937,0,0,0-11.432-1.905c-3.083.119-6.079.27-8.945,1.571a42.655,42.655,0,0,0-12.895,8.633,42.284,42.284,0,0,0-7.986,12.081c-1.665,3.513-3.189,7.055-6.076,10.071l5.01.308c1.817-7.531,7.489-15.2,10.853-15.2Zm4.233,230.565a45.7,45.7,0,0,0-4.9-.107c-1.375.067-2.243-.72-3.337-1.061a3.254,3.254,0,0,1-2.058-3.286,4.13,4.13,0,0,1,2.359-3.545c3.4-1.756,7.134-1.815,10.813-2.1,3.148-.239,6.3-.39,9.461-.527.931-.041,1.863-.033,2.8-.026.686.007,1.37.011,2.056,0a27.239,27.239,0,0,1,4.45-.122c2.329.35,4.8.465,6.663,2.275,1.05,1.02,1.395,3.839.407,4.942a7.262,7.262,0,0,1-4.444,2.415c-3.212.406-6.457.576-9.688.844-.007-.093-.014-.19-.022-.285-3.435.254-6.866.641-10.306.719-.209,0-.42.007-.63.007C-4299.3-8851.381-4300.509-8851.449-4301.714-8851.519Zm-106.338-1.736a2.27,2.27,0,0,1-1.381-2.213c-.08-.871-.215-1.875,1.143-1.94a.413.413,0,0,0,.233-.09c.473-.4.978-1.187,1.4-1.145a17.014,17.014,0,0,1,3.226.957c-.224.776-.489,1.187-.408,1.507.339,1.345.095,2.14-1.5,1.98-.144-.015-.4.083-.434.187a1.246,1.246,0,0,1-1.262.938A3.794,3.794,0,0,1-4408.053-8853.255Zm189.856-1.709a3,3,0,0,1,1.7-3.271,9.135,9.135,0,0,0,1.049-.473,2.206,2.206,0,0,1,3.314,2.023,3.643,3.643,0,0,1-2.929,3.514.557.557,0,0,1-.1.009C-4215.961-8853.162-4218.045-8854.377-4218.2-8854.964Zm-181.016-.55c0-.79,1.594-2.915,2.213-2.937,1.428-.048,2.814.871,2.814,1.861-.061,1.614-1.562,3.384-2.473,3.385A2.471,2.471,0,0,1-4399.212-8855.514Zm29.788,1.279a3.852,3.852,0,0,1-.759-1.828c-.142-1.271,1.622-2.877,3.04-2.907,1.015-.019,2.862,1.78,2.86,2.79a2.106,2.106,0,0,1-1.968,2.266,3.254,3.254,0,0,1-1.6.528A1.932,1.932,0,0,1-4369.424-8854.234Zm-20.262-1.852c.009-.921,1.4-2.592,2.157-2.6.976-.014,2.841,1.338,2.867,2.076a2.965,2.965,0,0,1-2.748,3.189h-.012A2.532,2.532,0,0,1-4389.686-8856.086Zm9.688,1.8c-1.483-1.129-.844-2.234-.366-3.245a2.775,2.775,0,0,1,2.784-1.452c1.782.024,3.327,2.105,2.708,3.645a3.322,3.322,0,0,1-3.141,1.611A3.338,3.338,0,0,1-4380-8854.285Zm21.978.479c-1.575-.349-2.024-1.242-1.648-2.919a3.1,3.1,0,0,1,1.705-1.928c2.26-.774,2.375,1.22,2.925,2.73-.864.648-1.34,2.161-2.594,2.161A1.8,1.8,0,0,1-4358.021-8853.806Zm157.594-3.224c.287-.764,1.289-1.231,1.892-1.9a1.321,1.321,0,0,1,2.1-.1,18.633,18.633,0,0,1,1.5,1.663c.015.978-1.82,3.3-2.431,3.441a2.487,2.487,0,0,1-.519.057C-4199.515-8853.872-4201.006-8855.494-4200.427-8857.029Zm16.275,1.489c.1-.47-.471-1.317-.278-1.493a12.259,12.259,0,0,1,2.767-1.938c1.4-.691,1.385,1.2,2.316,1.492a7.615,7.615,0,0,1-.108,1.163c-.088,2.1-1.728,2.1-3.184,2.423C-4183.527-8854.1-4184.448-8854.154-4184.151-8855.54Zm-42.291.245a4.175,4.175,0,0,0-.417-.62c.394-.911.75-1.722,1.095-2.537a2.227,2.227,0,0,1,3.386-.589A2.975,2.975,0,0,1-4223.4-8854a.9.9,0,0,1-.349.06A3.917,3.917,0,0,1-4226.442-8855.295Zm37.369,1.343c-1.783-.063-2.721-.739-2.681-1.929.05-1.5,1.234-2.988,2.375-2.978,1.837.015,2.69.709,2.65,2.16-.023.844-1.646,2.746-2.332,2.746Zm-16.89,0a2.514,2.514,0,0,1-2.414-2.264c.089-1.846,1.359-3.34,2.8-3.284,1.133.044,2.169,1.521,2.151,3.072a3.908,3.908,0,0,1-2.529,2.476Zm-135.917-77.594c1.688,1.108,3.368,2.227,5.063,3.32a80.407,80.407,0,0,0,17.662,8.518,62.251,62.251,0,0,0,14.033,3.052c2.554.253,5.089.689,7.631,1.058a6.835,6.835,0,0,1,.97.292q-1.82.1-3.605.1C-4316.009-8915.209-4329.839-8920.929-4341.879-8931.546Zm34.494,7.048c-.794-.243-1.581-.513-2.371-.767,23.74,4.171,46.208-.31,68.108-9.58-.429.288-.853.58-1.288.858s-.884.568-1.349.814a86.9,86.9,0,0,1-18.122,7.179c-2.589.69-5.16,1.48-7.782,2-2.483.5-5.02.748-7.54,1.033-3.087.346-6.181.811-9.28.882-.723.018-1.447.024-2.168.024A62.461,62.461,0,0,1-4307.385-8924.5Zm85.108-10.609c-5.01,5.363-11.388,8.4-18.209,10.643A118.948,118.948,0,0,0-4222.277-8935.107Zm-113.649-1.781c-4.157-1.453-8.344-2.849-12.388-4.571a29.608,29.608,0,0,1-8.78-5.348,9.267,9.267,0,0,1-3.131-6.734,17.543,17.543,0,0,1,.938-4.339,6.61,6.61,0,0,1,.605-1.236l.58.524c0,1.16.021,2.319,0,3.481a10.472,10.472,0,0,0,4.356,8.934c4.76,3.595,10.2,5.961,15.775,7.989,2.135.774,4.309,1.448,6.421,2.383C-4333.013-8936.158-4334.515-8936.4-4335.926-8936.889Zm37.652-99.94c.042-.149.087-.306.128-.457a63.66,63.66,0,0,0,8.336.76,64.389,64.389,0,0,0,8.293-1.3c-.221,1.556-4.1,3.468-5.962,3.653a30.6,30.6,0,0,1-3.078.182A10.168,10.168,0,0,1-4298.274-9036.829Z" transform="translate(4424.5 9102.498)" fill="#c8c8c8" stroke="rgba(0,0,0,0)" stroke-width="1"/>
</svg>
