<svg xmlns="http://www.w3.org/2000/svg" width="293.276" height="434.129" viewBox="0 0 293.276 434.129">
  <g id="Group_151" data-name="Group 151" transform="translate(-17575.291 -9370.111)">
    <g id="Group_150" data-name="Group 150" transform="translate(17575.291 9403.411) rotate(-8)">
      <g id="Group_152" data-name="Group 152" transform="translate(0 0)">
        <path id="Path_8846" data-name="Path 8846" d="M13,11.409c.22-.008,1.313-6.321,1.313-6.321L11.919,0l-4.5,4.323L3.226,2.159S.545,3.365.28,3.952A17.732,17.732,0,0,0,0,7.352s1.613,3.255,1.845,3.563S5.7,14.282,5.7,14.282l2.894,1.306,2.034-.614A34.171,34.171,0,0,1,13,11.409Z" transform="translate(169.564 295.819)" fill="#fff"/>
        <path id="Path_8845" data-name="Path 8845" d="M13,9.25c.22-.008,1.313-6.321,1.313-6.321L11.909.645,7.388,3.725,3.226,0S.545,1.206.28,1.793A17.732,17.732,0,0,0,0,5.193S1.613,8.449,1.845,8.756s3.049,4.631,3.049,4.631l2.73,2.2,3-2.776A34.171,34.171,0,0,1,13,9.25Z" transform="translate(191.326 312.538)" fill="#fff"/>
        <path id="Path_8844" data-name="Path 8844" d="M17.627,12.267c.22-.008,1.2-11.741,1.2-11.741L15.082,0,9.314,5.138,5.153,1.413s-2.819.765-3.083,1.353S0,7.351,0,7.351s1.966,6.972,2.2,7.279,5.059,5.152,5.059,5.152l3,1.433,3.192-4.058S17.407,12.275,17.627,12.267Z" transform="translate(182.775 343.548)" fill="#fff"/>
        <path id="Path_8843" data-name="Path 8843" d="M12.514.276h0L8.956,0,6.839,2.8a7.3,7.3,0,0,1-1.3.819C5.45,3.546,3.1,1.836,3.1,1.836L.459,4.561a6.96,6.96,0,0,0-.4,2.832,28.9,28.9,0,0,0,2.113,4.5c.239.14,4.889,2.645,5.147,2.73a7.945,7.945,0,0,0,2.135.507A54.009,54.009,0,0,0,12.7,10.366c.032-.163,1.791-8.032,1.748-8.171S13.555,1,13.555,1" transform="translate(177.697 80.007)" fill="#fff"/>
        <path id="Path_8842" data-name="Path 8842" d="M14.02,3.992h0l-.2-.443L12.458.45A47.364,47.364,0,0,0,7.982,2.826l-1.271.139L4.5,0,1.161.192,0,4.986,2.939,11.1l3.41,3.341,4.708-4.025,3.507-5.532" transform="translate(190.38 107.181)" fill="#fff"/>
        <path id="Path_8841" data-name="Path 8841" d="M15.927,10.065l-.253-5.343L12.822,0S8.8,2.458,8.772,2.622a20.105,20.105,0,0,1-1.5,1.725L4.207,1.98,0,5.016.818,9.585l2.215,4.509,6.873,4.852,1.425.827,1.142-.936s3.107-5.04,2.975-5.361A22.444,22.444,0,0,1,15.927,10.065Z" transform="translate(190.892 152.962)" fill="#fff"/>
        <path id="Path_8840" data-name="Path 8840" d="M14.862,3.781c-.146-.082-1.679-1.129-1.679-1.129a32.834,32.834,0,0,0-3.322.426,1.606,1.606,0,0,1-1.813-.255A21.006,21.006,0,0,0,5.366.012c-.33-.083-2.7.257-3.166,1.1S.13,3.733.026,4.222s.142,5.4.161,5.745,2.07,5.141,2.07,5.141l2.819,4.367,2.266-.986,6.6-5.576L16,5.827Z" transform="translate(199.053 189.452)" fill="#fff"/>
        <path id="Path_8839" data-name="Path 8839" d="M13.851,15.491l2.166-6.764L15.874,2.76,13.642,0s-3.247.489-3.33.771S7.5,4.235,7.5,4.235L3.573,2.693A27.936,27.936,0,0,0,0,4.9c.053.215.4,3.872.4,3.872l2.447,5.688s4.964,3.6,5.281,3.793,2.245,1.43,2.245,1.43l1.465-.3Z" transform="translate(177.742 233.255)" fill="#fff"/>
        <path id="Path_8838" data-name="Path 8838" d="M12.838,7.9c.16-.006.059-6.62.059-6.62L9.83,1.943l-3.047.77L3.753,0S1.7.557,1.507.985L0,4.325S1.432,9.4,1.6,9.626s3.685,3.753,3.685,3.753l2.183,1.044,2.325-2.955S12.678,7.91,12.838,7.9Z" transform="translate(197.075 263.835)" fill="#fff"/>
        <path id="Path_8837" data-name="Path 8837" d="M19.322,11.7l-.066-8.4L15.986,0,12.518,3.592S10.029,6.8,9.763,6.687,3.65,1.959,3.65,1.959L0,5.711l.22,7.353,8.239,7.9,2.591,2.293,1.975-2.195L15.808,16.4Z" transform="translate(183.195 341.968)" fill="#fff"/>
        <path id="Path_8833" data-name="Path 8833" d="M144.051,402.633h0l-.061,0c-2.768-.08-27.072-.777-28.357-.879-.963-.08-12.268-.092-18.918-.092-2.855,0-4.863,0-4.863,0l-32.832.785-34.588-2.586-10.057-3.436L5.65,390.033.02,374.742,0,347.6l1.039-58.5,1.217-99.123,1.371-127.3L2.975,31.248,5.184,16.174l5.023-9.59L26.883,1.393l9.025-.361L48.414.7,68.234.637l68.654.551L189.059,0l19.506,2.633L220.9,9.58,228.053,22.7l1.473,33.553,4.982,1.477-2.146,74.939-4.1,3.018-.275,9.689,3.248,1.158.816,21.4-4.291,3.336L226.3,300.006l-1.729,41.666.549,19.459-.549,17.047-1.83,9.348-6.912,8.906-13.611,4.217-28.762,1.445Zm-45.6-9.2c6.049,0,16.328.012,17.2.086,1.053.086,18.383.607,25.789.828l.375.012,27.068-.516,26.477-1.379,12.525-4.049,7.766-8.09,1.344-9.545.266-15.818.131-19.064.139-39.969L219.688,74.7l.594-46.613-7.537-12.3L201.2,10.711,183.234,8.186,133.457,6.938,66.072,6.41l-14.326.443-11.6.055-7.609.773L18.6,14.506,13.967,23.7,11.934,38.156,12.541,68.3,11.273,190.393l-1.121,95.072L9.2,341.582l.01,26.035L14.4,382.285l8.029,6.129,9.26,3.293,31.842,2.482,30.223-.75S95.705,393.438,98.447,393.438Z" transform="translate(2.676 1.497)" fill="#fff"/>
        <path id="Path_8831" data-name="Path 8831" d="M171.814,49.8l-3.353-13.242L155.327,17.391,141.714,5.917,127.01,0,105.622.844,85.96,11.49,72.476,23.069,60.091,47.019,52.437,58.328,56.3,60.143l7.526-.215-.136,6.529,2.509,18.7,4.653,17.656s12.345,18.871,12.79,19.3,11.1,9.71,11.1,9.71l-.4,2.873-.453,8.963-3.86,12.55-7.484,8.978L67.38,172.542,49.2,176.428l-14.108,5.5s-9.732,8.33-10.522,8.906-10.348,11.9-10.348,11.9L4.331,221.312S1.493,229.5.958,231.346s-1.3,17.847-.787,19.572,3.493,21.435,3.493,21.435l7.436,9.029s5.75,2.147,7.7,2.53S44.4,286.78,44.4,286.78L66.346,288l44.66.161,42.616.282,32.844-1.807L199.381,283s5.019-4.656,5.727-5.939,4.173-12.335,4.173-12.335l-.237-23.519-3.68-18.329-3.336-12.723-.428-4.628-1.953-5.942a12.327,12.327,0,0,0-1.512-3.767c-1.313-2.359-3.273-1.646-3.273-1.646s-2.922-5.585-4.032-6.186-11.3-7.659-11.3-7.659l-19.918-6.826-14.072-4.169-11.978-5.385s-2.908-4.55-3.333-4.995-3.707-6.488-4.475-7.493-3.563-13.571-3.389-14.215-.06-4.446.677-4.82,14.338-8.87,14.338-8.87l10.188-11.529,6.2-16.358s4.742-9.812,4.934-10.511,1.625-12.391,1.847-13.142-.181-11.948.452-12.677.811-5.768.811-5.768l8.249-1.681Z" transform="translate(11.272 107.488)" fill="#fff"/>
        <path id="Path_8832" data-name="Path 8832" d="M119.377,49.8l-3.353-13.242L102.891,17.391,89.277,5.917,74.573,0,53.186.844,33.523,11.49,20.04,23.069,7.654,47.019,0,58.328l3.862,1.815,7.526-.215L13.838,54.7l4.135-6.867.608,7.533,1.376,3.606,8.933,1.255,14.476.189L53.758,58.98l4.135-1.053,4.456-10.91s1.6.606,1.53,1.089.3,9.108.3,9.108l6.064,1.526L83.618,57.7l14.1-3.474-.784-3.789-1.923-4.057,3.959,1.845,3.906,4.491.689,1.794,4.138-.242,8.7-1.1Z" transform="translate(63.708 107.488)"/>
        <path id="Path_8815" data-name="Path 8815" d="M239.272,62.2a13.592,13.592,0,0,1-.308-1.651,4.058,4.058,0,0,0-3.178-3.633c-2.1-.387-1.982-.41-1.868-3.508.114-2.916-.1-5.854-.137-8.793-.011-1.845.1-3.7.091-5.558-.034-2.221-.091-4.453-.251-6.663-.023-.433-.558-.82-.934-1.321,1.333-2.369.011-4.761-.558-7.027a27.882,27.882,0,0,0-3.394-8.348c-2.665-4.146-5.547-8.314-10.33-10.387a34.984,34.984,0,0,0-5.843-1.651c-2.506-.6-5.011-1.207-7.551-1.595-2.79-.433-5.6-.661-8.417-.923C192.951.8,189.307.443,185.662.227a39.993,39.993,0,0,0-5.6.1c-2.369.194-4.7.718-7.073.8-1.708.057-3.44-.49-5.171-.524C162.792.5,157.781.511,152.758.5c-1.686-.011-3.383-.011-5.08.046-4.066.148-8.143.387-12.221.456-3.143.057-6.287-.125-9.43-.125-4.647.011-9.305.171-13.952.125-4.134-.034-8.269-.353-12.4-.387-1.879-.011-3.77.49-5.661.524A35.732,35.732,0,0,1,90.1.6C88.487.432,86.859.318,85.23.272,80.754.147,76.267-.047,71.779.01c-2.95.034-5.9.513-8.861.672C61.586.751,60.23.375,58.9.409c-4.4.1-8.793.273-13.178.467-4.5.205-9.043.1-13.462.809-3.736.581-7.574.478-11.241,2.141-1.8.82-4.112,1.139-5.911,2.107a15.7,15.7,0,0,0-5.569,5.342c-1.333,2.039-1.56,4.294-2.221,6.469A41.686,41.686,0,0,0,5.96,22.539,31.317,31.317,0,0,0,5.72,27.06c0,.194.273.478.205.581-1.412,1.982-.444,4.271-.854,6.264-.308,1.5.4,2.847-.148,4.305-.353.945.251,2.221.3,3.348.034.82-.251,1.674-.205,2.494.171,2.677.547,5.342.6,8.007.057,2.494-.251,4.989-.273,7.471-.023,2.7.194,5.4.148,8.1-.057,2.677-.342,5.364-.49,8.041-.137,2.54-.216,5.068-.33,7.6C4.456,87.481,4.206,91.7,4.035,95.9c-.08,1.891.068,3.8-.057,5.683-.182,2.6-.615,5.182-.8,7.779-.137,1.913-.046,3.838-.1,5.763-.046,1.469-.239,2.95-.239,4.43,0,4.248.114,8.5.1,12.745-.011,2-.308,4-.342,6-.057,2.312.057,4.624.068,6.948.011,2.027-.023,4.066-.023,6.093,0,1.629.057,3.246.023,4.863-.023,1.663-.194,3.314-.182,4.966.011,3.576.148,7.164.148,10.74-.011,3.189-.239,6.389-.194,9.579.046,2.54.513,5.068.513,7.6.011,3.736-.251,7.46-.364,11.2-.046,1.572-.034,3.132-.034,4.7-.011,2.916-.023,5.82-.011,8.736.023,2.836.068,5.672.08,8.508,0,.729-.114,1.458-.1,2.175.034,2.323.159,4.635.137,6.948-.023,3.143-.182,6.276-.228,9.419-.068,4.51-.046,9.032-.125,13.542-.08,4.635-.239,9.26-.364,13.884-.08,3.155-.114,6.321-.251,9.476-.148,3.656-.159,7.323-.592,10.979-.342,2.9-.251,5.866-.387,8.793C.5,301.9.208,306.352.049,310.817c-.091,2.722-.034,5.456.011,8.189q.137,8.217.33,16.446c.068,3.075.239,6.162.273,9.237C.72,350.771.6,356.853.755,362.935c.1,3.815.569,7.631.934,11.446a47.19,47.19,0,0,0,.9,7.3,41.9,41.9,0,0,0,3.132,8.565,13.934,13.934,0,0,0,4.863,5.626c4.294,2.654,9.134,3.6,13.952,4.624,1.845.387,3.667.968,5.524,1.276,2.642.433,5.307.774,7.984,1,4.408.376,8.815.695,13.235.911,1.97.091,3.964-.216,5.945-.194,2.563.023,5.125.251,7.7.273,4.18.057,8.348.023,12.528.023,2.358,0,4.727-.034,7.084.011,3.143.068,6.287.239,9.442.307,4.294.1,8.576.137,12.87.239.319,0,.638.273.957.421h13.178c.114-.091.228-.273.342-.285,3.633-.057,7.266-.114,10.9-.137.319,0,.638.273.957.421h21.412a8.686,8.686,0,0,1,1.492-.308c5.672-.194,11.344-.387,17.016-.512,4.6-.1,9.214-.057,13.815-.194,2.289-.068,4.579-.421,6.868-.6,1.412-.114,2.825-.08,4.225-.239,2.745-.307,5.5-.626,8.223-1.082,2.585-.421,5.3-.638,7.665-1.651a34.136,34.136,0,0,0,7.768-4.784c4.317-3.451,5.934-8.371,6.389-13.679.353-4.1.524-8.212.649-12.323a54.607,54.607,0,0,0-.1-9.749c-.285-1.868.342-3.622-.114-5.478-.342-1.378.046-2.927.046-4.408,0-2.8-.091-5.615-.046-8.417.023-1.583.251-3.155.342-4.738.251-4.408.729-8.815.615-13.223-.057-2.46,1.071-4.9.125-7.38-.171-.456.433-1.15.4-1.72-.091-2.073-.41-4.134-.444-6.207-.034-1.811.308-3.633.285-5.444-.046-2.893-.33-5.774-.376-8.667-.046-2.528.148-5.057.137-7.574,0-2.8-.159-5.615-.159-8.417,0-1.515.228-3.03.308-4.544.125-2.232.3-4.453.319-6.686.011-2.8-.125-5.6-.159-8.405,0-.216.285-.444.353-.683a10.9,10.9,0,0,0,.387-1.788c.068-.752.023-1.5.034-2.266.011-.159.046-.319.057-.49.125-3.815.228-7.642.364-11.458.068-2.2.205-4.4.251-6.583.023-1.036-.159-2.073-.125-3.109.034-1.31.262-2.608.308-3.918.034-.831-.148-1.663-.125-2.483.08-3.8.171-7.608.308-11.412.057-1.572.273-3.132.319-4.7.057-1.891.011-3.781.011-5.683,0-1.7.046-3.394.011-5.091-.08-3.269-.216-6.526-.273-9.795-.034-1.549.148-3.109.1-4.658-.114-3.2-.262-6.412-.49-9.6a1.857,1.857,0,0,1,1.674-2.255c2.255-.251,3.052-.877,3.143-3.075.1-2.733-.034-5.478-.08-8.212-.023-1.629-.023-3.269-.137-4.886-.182-2.745-.33-5.5-.763-8.212-.1-.649-1.184-1.31-1.948-1.674-1.207-.592-1.811-.968-1.367-2.665.49-1.9.114-4.032.114-5.888,1.173-.581,2.528-.831,3.223-1.651,1.708-2.05,1.913-4.681,2.073-7.255s.41-5.114.524-7.676c.1-2.392.046-4.795.148-7.187.114-3.087.33-6.173.49-9.26.08-1.663.114-3.337.148-5.011.125-4.738.285-9.476.319-14.214.034-5.433-.057-10.854-.046-16.287a18.87,18.87,0,0,1,.387-2.722Zm-9.681,5.228c-.023,1.663.364,3.337.41,5,.068,2.061-.034,4.123-.057,6.184-.046,3.519-.068,7.039-.125,10.558-.046,2.859-.125,5.717-.205,8.576-.068,2.654-.467,5.342-.137,7.95.49,3.838-.547,7.642.011,11.4.6,4.077.023,8.121.205,12.175a39.633,39.633,0,0,1-.091,8.223,34.033,34.033,0,0,0-.308,7.13c.08,2.153-.421,4.317-.535,6.469-.205,3.531-.364,7.061-.421,10.592-.034,2.039.273,4.077.262,6.116-.023,5.387-.114,10.774-.205,16.162-.023,1.64-.182,3.28-.182,4.92a2.32,2.32,0,0,0,.4,1,22.058,22.058,0,0,0-.513,2.893c-.148,2.9-.228,5.8-.285,8.7-.046,2.437.034,4.886-.023,7.312-.068,2.813-.33,5.615-.33,8.428-.011,2.961.251,5.923.239,8.884-.011,3.189-.148,6.389-.319,9.579-.148,2.688-.615,5.364-.547,8.041.046,1.4-.194,2.768-.1,4.157.1,1.492-.114,3,.057,4.476.3,2.506.068,5.011.205,7.517.068,1.3-.456,2.608-.456,3.918.011,2.062.262,4.112.364,6.173a8.771,8.771,0,0,1-.159,2.187c-.444,2.164.216,4.305.194,6.469-.034,3.815-.239,7.665.091,11.5.194,2.323-.273,4.692-.319,7.039-.057,2.688.034,5.376.068,8.064.011,1.025.011,2.05.046,3.064.08,3.554.239,7.107.239,10.661,0,2.46-.228,4.932-.342,7.4-.1,2.346-.148,4.7-.308,7.039-.171,2.4-.478,4.784-.683,7.175a51.427,51.427,0,0,1-.421,5.945c-.387,1.959.057,3.872-.125,5.809a49.353,49.353,0,0,0,.273,6.333c.125,3.713.262,7.426.3,11.139a71.956,71.956,0,0,1-.251,8.143c-.6,5.467-1.128,11.059-5.364,15.216a27.893,27.893,0,0,1-4.362,2.95c-2.312,1.538-5.034,1.754-7.608,2.517-4.282,1.264-8.622.866-12.938,1.173-3.861.273-7.756.33-11.629.342-3.155.011-6.3-.307-9.442-.273-2.825.034-5.638.421-8.462.512-1.811.057-3.633-.216-5.444-.194-2.79.034-5.581.205-8.36.3-1.162.046-2.323-.023-3.485.034a8.893,8.893,0,0,0-1.5.33c-.046-.114-.1-.216-.148-.33-.752-.011-1.515-.023-2.278-.023-4.032,0-8.052-.068-12.084.023-2.62.057-5.251.364-7.87.513-1.595.08-3.189.068-4.784.125-2.449.091-4.9.308-7.346.3-4-.011-8-.159-11.993-.228-3.292-.068-6.583-.046-9.875-.159-3.417-.114-6.834-.4-10.262-.513-2.813-.091-5.626,0-8.44-.068-2.563-.057-5.125-.239-7.676-.3-2.688-.057-5.376.068-8.064-.057-4.67-.228-9.328-.649-14-.877-2.654-.137-5.319-.034-7.984-.08-5.125-.091-9.875-1.629-14.647-3.383-3.292-1.207-6.412-2.6-8.633-5.239A19.723,19.723,0,0,1,6.848,383.8a61.928,61.928,0,0,1-1.811-10.968Q4.3,366.186,4.023,359.5c-.182-4.59.011-9.2-.194-13.793-.228-5.285.251-10.535.342-15.8.046-2.961.1-5.911.171-8.872.1-4.966.171-9.932.353-14.9.091-2.551.5-5.08.592-7.631.114-2.893-.08-5.786.068-8.679.216-4.317.763-8.633.9-12.95.137-4.089-.114-8.189-.125-12.289-.011-1.868.159-3.736.182-5.6.034-3.018.08-6.048-.011-9.066-.125-3.531-.421-7.061-.569-10.6-.046-1.014.239-2.027.239-3.052.034-4.191.046-8.383.011-12.563-.057-4.772-.216-9.544-.239-14.317-.023-3.394.33-6.8.091-10.171-.114-1.788.8-3.61-.364-5.456-.456-.718.3-2.107.3-3.189.023-3.588-.114-7.175-.08-10.763.034-3.44.456-6.891.228-10.307-.285-4.419.273-8.8-.114-13.246-.353-3.975.1-8.018.182-12.039a80.005,80.005,0,0,1,.273-9.191c.33-2.494.1-5.057.182-7.6q.222-6.765.547-13.531c.159-3.246.444-6.481.592-9.727.182-3.907.228-7.813.421-11.72.114-2.358.5-4.715.547-7.084.057-2.574-.194-5.171-.216-7.756-.011-1.754.205-3.519.194-5.285-.023-3.383-.159-6.765-.194-10.148-.046-3.542.046-7.1-.057-10.638-.068-2.21-.478-4.408-.535-6.617A35.521,35.521,0,0,1,8.169,41c.08-.945-.011-1.891.023-2.836a9.165,9.165,0,0,1,.239-2.175,11.165,11.165,0,0,0,.353-5.239c-.159-1,.4-2.1.5-3.166.171-1.7.08-3.417.364-5.091A26.6,26.6,0,0,1,11.13,16.73,54.339,54.339,0,0,1,14.6,10.2c.239-.4.979-.467,1.435-.774a29.31,29.31,0,0,1,5.49-3.075A33.89,33.89,0,0,1,30.3,4.338c5.376-.592,10.8-.9,16.219-1.116,2.882-.125,5.8.182,8.69.285,3.018.1,6.059.4,9.055.228,3.451-.182,6.845.216,10.262.251,2.073.023,4.157.023,6.23.068,2.574.057,5.159.08,7.722.239,2.266.137,4.51.444,6.765.638.4.034.809-.148,1.207-.137.809.011,1.617.08,2.415.148.421.046.979.342,1.241.171,1.082-.74,2.13.08,3.178-.046,3.143-.41,6.3.319,9.465-.023,2.062-.216,4.169.011,6.264-.068,2.677-.091,5.364-.319,8.052-.41,1.15-.034,2.3.262,3.451.239,4.214-.068,8.417-.228,12.619-.3,2.551-.046,5.114.091,7.665-.046,2.847-.148,5.683-.569,8.531-.774,1.287-.091,2.608.114,3.907.125,1.765.023,3.531.023,5.3-.034,1.686-.046,3.371-.171,5.057-.273a34.854,34.854,0,0,1,4.055-.3c2.859.125,5.729.421,8.588.649,2.654.216,5.307.41,7.95.649a48.713,48.713,0,0,0,5.979.581c3.576-.137,6.777,1.344,10.182,1.925a21.239,21.239,0,0,1,11.481,5.444,22.794,22.794,0,0,1,5.057,7.87c1.128,2.825,1.424,5.786,2.3,8.6.8,2.54.273,4.977.478,7.449.262,3.3.091,6.663.182,9.989.068,2.79.068,5.558-.08,8.337a24.712,24.712,0,0,0,.285,2.733c.114,2.039.182,4.077.262,5.923a25.5,25.5,0,0,0-.718,4.066m2.733,80.159a15.267,15.267,0,0,1,.661,2.882c.205,5.046.376,10.1.41,15.159,0,1.5.478,3.314-1.412,4.43-.41-.74-1.048-1.2-.4-2.323.41-.706.023-1.868,0-2.825-.068-4.043-.182-8.075-.194-12.118-.011-1.708.205-3.428.308-5.137l.626-.068m3.314-44.9c-.057,3.326-.205,6.64-.319,9.954-.114,3.633-.091,7.278-.364,10.9-.273,3.542-.809,7.073-1.321,10.592-.068.456-.683.82-.934,1.116,0-2.027-.034-4.055.011-6.082.034-1.253.239-2.506.3-3.77.137-3.178.216-6.355.342-9.533.068-1.515.285-3.018.285-4.533.011-3.2-.08-6.389-.137-9.59-.011-.148-.125-.319-.08-.444,1.23-3.975.592-8.041.581-12.073-.011-2.631-.182-5.251-.182-7.881-.011-5.638.046-11.287.068-16.925V58.78c1.686.023,2,1.219,2.039,2.244.068,2.027-.171,4.055-.239,6.082-.046,1.617-.057,3.246-.011,4.875.068,2.187.308,4.374.3,6.549-.068,8.052-.194,16.1-.33,24.157"/>
        <path id="Path_8817" data-name="Path 8817" d="M215.014,51.66c-.057-2.141-.205-4.282-.285-6.424-.1-2.813-.148-5.615-.262-8.428-.023-.831-.239-1.663-.251-2.494-.034-3.759,1.093-7.437.011-11.332-.569-2.073-.364-4.4-1.811-6.23a63.763,63.763,0,0,0-5.2-6.241c-1.458-1.446-3.417-2.358-5.057-3.633A17.127,17.127,0,0,0,195,3.983c-2.517-.547-5.091-.866-7.654-1.2-2.87-.376-5.763-.718-8.656-.945-2.187-.171-4.385-.159-6.583-.194-1.082-.011-2.164.148-3.235.1-4.351-.194-8.69-.467-13.041-.649-2.335-.1-4.67-.046-7-.1-2.893-.068-5.786-.273-8.679-.285-2.517-.011-5.046.251-7.563.251-3.815.011-7.62-.125-11.435-.148C117.429.794,113.7.84,109.98.863,104.195.9,98.42,1.125,92.623.817,89.65.658,86.666.737,83.682.373A72.063,72.063,0,0,0,75.675.02c-3.69-.046-7.392,0-11.082.011C62.509.043,60.436,0,58.363.077c-2.437.1-4.852.353-7.289.456-2,.091-4.009.091-6.014.068C43.432.578,41.792.418,40.163.4,37.509.35,34.776-.071,32.236.453c-2.779.581-5.6.809-8.394,1.595a46.241,46.241,0,0,0-8.667,3.69c-2.335,1.2-4.749,2.46-6.036,5.1-1.014,2.073-2.711,3.884-3.428,6.036a49.043,49.043,0,0,0-2.118,9.84A75.494,75.494,0,0,0,3.5,35.942c.023,2.95.148,5.888.171,8.838.011,2.175-.137,4.351-.114,6.526.023,3.2.194,6.412.205,9.613.011,2.2-.171,4.4-.239,6.606-.057,2.073-.057,4.157-.1,6.23-.023,1.777-.1,3.554-.091,5.33,0,1.412.194,2.836.148,4.248-.068,2.266-.251,4.533-.4,6.8a.315.315,0,0,1,.1.011q0,4.732.011,9.465c0,.831.034,1.651.057,2.472.034,1.9.137,3.815.091,5.718-.034,1.116-.421,2.221-.467,3.348-.1,2.711-.08,5.433-.137,8.155-.023,1.378-.171,2.745-.148,4.123.034,2.255.216,4.5.228,6.754,0,1.7-.205,3.383-.285,5.068-.091,2.073-.1,4.146-.239,6.219-.148,2.46.125,4.943.171,7.415.034,1.446-.023,2.893-.057,4.339-.046,2.369-.182,4.738-.137,7.107.034,1.674.421,3.326.456,5,.046,2.061-.216,4.123-.148,6.184.068,2,.49,3.986.558,5.991.068,1.788-.171,3.576-.182,5.364-.034,2.483.011,4.966.046,7.437.023,2.244.08,4.476.114,6.708.034,1.788.091,3.565.046,5.342a36.208,36.208,0,0,0-.251,4.943,54.939,54.939,0,0,1-.023,8.44c-.137,2.87.011,5.752-.034,8.622-.046,3.155.456,6.264-.159,9.476a10.271,10.271,0,0,0,.456,6.629c.148.285-.023.74-.08,1.116a23.855,23.855,0,0,0-.513,2.95c-.137,2.927-.1,5.854-.3,8.77-.137,2.232.262,4.43.046,6.674s.023,4.556-.023,6.834c-.046,2.494-.216,4.989-.285,7.483-.057,1.9.011,3.815-.046,5.729-.114,3.28-.308,6.56-.4,9.852-.034,1.128.251,2.267.216,3.394-.068,2.38-.308,4.761-.387,7.141-.1,3.588-.1,7.175-.194,10.763-.068,2.9-.159,5.809-.319,8.713-.239,4.077.615,8.143.034,12.232a60.347,60.347,0,0,0-.626,7.016C.118,344.3-.1,349.482.049,354.653a63.711,63.711,0,0,0,2.585,15.979,25.417,25.417,0,0,0,4.032,8.36c1.492,1.97,3.9,3.212,5.695,4.977,2.494,2.449,5.8,3.212,8.861,3.952,4.51,1.1,9.237,1.344,13.884,1.788,4.5.444,9.009.752,13.508.979,4.271.205,8.542.273,12.813.342,2.893.046,5.786-.011,8.667-.034,4.134-.023,8.223-.752,12.4-.376,3.861.342,7.779-.1,11.674-.114q6.7-.017,13.394.114c4.989.1,9.977.273,14.966.421,3.964.1,7.927.307,11.879.3,5.034-.011,10.068-.228,15.1-.285,3.884-.057,7.779.068,11.663-.034,4.795-.137,9.579-.444,14.362-.626,3.6-.148,7.2-.228,10.8-.342a64.41,64.41,0,0,0,12.9-2.13c1.56-.364,2.585-2.05,3.759-2.232,2.153-.33,2.8-2.1,3.793-3.212a27.811,27.811,0,0,0,3.952-6.891c1.526-3.314,1.583-6.948,1.64-10.5.034-2.79-.387-5.581-.421-8.371-.046-3.713.08-7.426.137-11.139a4.166,4.166,0,0,1,.114-.638,29.889,29.889,0,0,0,.4-3.314c0-2.585-.171-5.159-.171-7.745,0-2.8.171-5.592.171-8.394-.011-3.337-.1-6.686-.205-10.023-.068-2.335-.262-4.67-.3-7-.011-1.355.308-2.711.285-4.055-.034-3.018-.205-6.025-.023-9.055.228-3.576.057-7.175.319-10.763.262-3.508.057-7.05.08-10.569.011-3.257.011-6.5.057-9.761.046-3.326.137-6.663.228-9.989.023-1,.171-2,.171-3.007.023-1.948-.08-3.918-.011-5.866.08-2.187.376-4.362.421-6.549.057-2.449-.091-4.9-.1-7.358,0-1.367.137-2.745.125-4.112-.011-1.185-.194-2.38-.216-3.576-.023-2.335.023-4.67.023-7,0-1.241-.319-2.563.023-3.679.49-1.617-.057-3.166.125-4.772.342-3.064-.046-6.219-.125-9.328-.011-.6-.068-1.207-.046-1.811.046-1.811.125-3.61.171-5.421a13.276,13.276,0,0,0-.068-1.9c-.148-1.241-.456-2.46-.49-3.69-.023-1.173.319-2.346.33-3.519.046-3.952.057-7.9.011-11.845-.023-1.925-.285-3.85-.3-5.774,0-2.221.205-4.442.216-6.663,0-2.1-.216-4.191-.205-6.287.011-2.244.216-4.476.262-6.72.046-2.392-.08-4.795.011-7.2.159-3.872.513-7.733.638-11.606.114-3.7.068-7.426.046-11.139-.011-1.2-.194-2.392-.205-3.588-.011-.866.148-1.731.194-2.6.08-1.253.125-2.517.182-3.77.011-.308.023-.615.011-.923-.057-2.2-.171-4.385-.148-6.583.011-1.9.216-3.8.285-5.718.068-2.266.08-4.533.114-6.8.011-1.2-.023-2.392.046-3.588.091-2,.33-4,.376-6q.171-7.671.216-15.319c.011-2.961-.046-5.934-.125-8.9M209.627,347.1c-.068,2.7-.125,5.387-.171,8.087-.057,3.462-.046,6.936-.194,10.4a18.635,18.635,0,0,1-.774,3.633,32.471,32.471,0,0,1-4.9,10.866c-1.891,2.779-4.658,3.417-7.38,4.317a63.4,63.4,0,0,1-7.7,1.925c-1.595.307-3.257.262-4.875.433-2.984.307-5.945.774-8.929.945-3.075.171-6.173.046-9.271.1-1.446.034-2.882.239-4.328.251-3.929.034-7.87,0-11.8.011-5.535.034-11.059.2-16.594.091-5.672-.114-11.344-.49-17.016-.752-4.932-.216-9.863-.535-14.795-.626-5.444-.114-10.9-.057-16.344-.011-1.412,0-2.825.228-4.237.3-.991.057-1.993.011-2.984.011-4.6,0-9.191.046-13.793-.011-2.756-.034-5.512-.285-8.269-.3a63.085,63.085,0,0,1-6.389-.262c-3.519-.364-7.1-.285-10.649-.421-5.558-.205-11.082-.478-16.537-1.879a24.026,24.026,0,0,1-10.114-5.41,29.12,29.12,0,0,1-3.212-3.576c-.3-.364-.182-1.036-.353-1.538-.945-2.859-2.164-5.661-2.836-8.588a78.741,78.741,0,0,1-1.378-9.806,62.882,62.882,0,0,1-.159-7.175c.034-1.708.364-3.405.467-5.114a37.6,37.6,0,0,1,.068-4.4c.387-2.232,1.093-4.4,1.629-6.606.41-1.674.581-3.428,1.15-5.034a74.667,74.667,0,0,1,3.018-7.175c1.378-2.882,3.3-5.569,4.282-8.565.854-2.6,2.927-4.271,3.872-6.754.638-1.674,2.335-2.961,3.6-4.374,2.3-2.563,4.579-5.148,6.993-7.608a40.574,40.574,0,0,1,4.339-3.667,1.339,1.339,0,0,1,1.219.239c2.733,2.483,5.262,5.216,8.155,7.483a68.018,68.018,0,0,0,15.843,9.476c2.585,1.082,5,2.6,7.631,3.554,4.077,1.492,8.246,2.8,12.437,3.941,3.656,1.014,7.4,1.777,11.139,2.46a49.317,49.317,0,0,0,6.367.535,75.58,75.58,0,0,0,8.178.285,75.011,75.011,0,0,0,10.228-1.2c3.417-.661,6.743-1.754,10.114-2.677a49.707,49.707,0,0,0,13.793-5.786,152.192,152.192,0,0,0,13.508-9.579,50.45,50.45,0,0,0,11.663-12.711c1.264-2.084,2.631-4.1,4.191-6.549a70.913,70.913,0,0,1,7.358,2.551,87.417,87.417,0,0,1,10.991,5.843c2.369,1.549,4.248,3.861,6.355,5.831a52.541,52.541,0,0,1,10.3,18.314s1.31,5.262,2,8c.763,3.007,1.629,5.979,2.3,9.009,1.048,4.795,2.05,9.6,2.882,14.442a25.316,25.316,0,0,1-.091,4.818M97,236.818c-.034-.433-.091-.877-.148-1.492,8.542,4.875,17.358,5.182,26.515,2.289.023,3.565-.513,7.016.649,10.33.137.774.308,1.549.41,2.335.695,5.114,3.8,8.713,7.153,12.369,3.588,3.929,8,6.458,12.654,8.622,2.175,1.014,4.647,1.378,6.959,2.107,1.788.558,3.531,1.287,5.319,1.811a19.306,19.306,0,0,0,3.052.421c.046.216.1.444.159.661-3.018,3.075-5.9,6.287-9.066,9.191a71.707,71.707,0,0,1-17.733,11.9c-3.474,1.651-7.027,3.2-10.638,4.522-2.528.934-5.239,1.389-7.859,2.107a47.015,47.015,0,0,1-8.622,1.355c-2.973.262-5.934.524-8.907.6a63.587,63.587,0,0,1-15.922-1.97c-2.54-.6-5-1.526-7.506-2.3a53.365,53.365,0,0,1-10.877-4.67c-1.446-.82-3.121-1.23-4.567-2.05a38.446,38.446,0,0,1-3.8-2.711c-1.64-1.2-3.257-2.4-4.9-3.588-2.437-1.765-4.886-3.508-7.369-5.3,2.62-1.241,4.989-2.585,7.506-3.519,2.1-.774,4.374-1,6.538-1.595,1.868-.513,3.7-1.2,5.547-1.811.159-.057.308-.091.467-.137,2.21-.535,4.419-1.059,6.629-1.629a82.015,82.015,0,0,0,8.975-2.426A37.311,37.311,0,0,0,85,268.344a23.869,23.869,0,0,0,5.387-4.749,34.653,34.653,0,0,0,4.328-7.118,31.5,31.5,0,0,0,2.8-13.781c-.023-1.959-.342-3.918-.524-5.877M68.705,179.574c-.33-2.517-.638-5.023-.934-7.54-.308-2.631-.626-5.262-.854-7.9a2.762,2.762,0,0,1,.558-1.321,15.192,15.192,0,0,0,1.253-2.141c.831-2.471,1.56-4.989,2.54-7.437-.057,1.378-.1,2.756-.205,4.134-.148,1.913,1.446,3.861,3.519,4.533,3.326,1.093,6.754,1.093,10.171,1.276,2.973.148,5.957.114,8.941.011a41.1,41.1,0,0,0,9.772-1.048c2.825-.786,5.854-.8,8.7-1.526.763-.194,1.3-1.72,1.731-2.733,1.025-2.415,1.936-4.875,2.973-7.506,1.025,2.483.068,4.613-.034,6.777-.114,2.187-.125,2.153,1.925,2.437,1.412.194,2.779.763,4.191.968,3.03.444,6.025,1.071,9.191.3.968-.239,2.38-.091,3.519-.319,3.827-.774,7.62-1.708,11.435-2.574,1.093-.239,2.21-.421,3.292-.695a5.226,5.226,0,0,0,2.323-.888c.547-.535,1.595-1.173.615-2.449a11.6,11.6,0,0,1-1.834-4.237c1.082,1.469,2.175,2.95,3.257,4.43.866,1.173,1.207,2.916,3.462,2.232,1.071-.33,2.4.194,3.633.33,0,2.244.068,4.692-.011,7.141-.114,3.326-.182,6.674-.581,9.966a65.289,65.289,0,0,1-1.674,7.164c-.513,2.118-.911,4.271-1.538,6.344-.581,1.9-1.663,3.667-2.039,5.581-.524,2.631-2.153,4.715-2.961,7.21-1.162,3.565-3.462,6.64-5.319,9.9-.661,1.162-1.219,2.38-1.879,3.531-.33.569-.843,1.025-1.219,1.583a28.868,28.868,0,0,1-2.073,3.064c-1.993,2.187-4.077,4.282-6.184,6.344a42.635,42.635,0,0,1-10.068,7.323c-1.674.877-3.212,2.358-4.977,2.676-2.825.524-5.535,2.084-8.61,1.287a19.011,19.011,0,0,0-4.043-.33c-3.178-.137-5.854-1.651-8.61-3.007-4.556-2.232-8.292-5.626-11.879-9.043-2.836-2.7-4.932-6.207-7.21-9.453a63.376,63.376,0,0,1-4.5-7.369,66.289,66.289,0,0,1-3.075-7.574c-.9-2.506-1.674-5.068-2.38-7.631-.524-1.845-.831-3.747-1.287-5.615a7.519,7.519,0,0,0-.615-1.344c.091-.034.171-.068.262-.1-.228-1.583-.467-3.166-.672-4.749M144.627,145.9a16.181,16.181,0,0,0,1.834,1.583c2.141,1.64,3.246,3.952,4.237,6.412-10.171,3.007-20.4,5.547-30.865,4.6,0-1.925.1-3.781-.034-5.638a62.279,62.279,0,0,0-.82-7.141c-.205-1.139-1.185-.854-1.72-.171a42.28,42.28,0,0,0-3.576,4.977,25.608,25.608,0,0,0-1.879,4.749c-.387,1.241-.547,2.563-.831,3.941a154.321,154.321,0,0,1-36.925-.683,27.676,27.676,0,0,1,2.563-13.485,42.552,42.552,0,0,1,8.018-11.5c-5.752,1.97-9.567,6.15-12.984,10.8a31.444,31.444,0,0,0-6.31,15.706c-2.961-.228-5.911-.456-9.032-.706a30.717,30.717,0,0,0,7.164-9.784c1.538-2.984,2.927-6.048,4.442-9.055a87.886,87.886,0,0,1,4.886-9.294,112.512,112.512,0,0,1,7.278-9.225,31.309,31.309,0,0,1,3.781-3.986A49.436,49.436,0,0,1,88.91,114.4c3.1-2.016,6.139-4.134,9.385-5.888,2.38-1.276,5.125-1.891,7.574-3.075a13.849,13.849,0,0,1,5.569-1.344c1.378-.057,2.745-.228,4.112-.251,5.125-.091,10.25-.376,15.319.957,4.784,1.253,9.4,2.779,13.508,5.626,3.9,2.7,7.722,5.421,10.8,9.123,2.437,2.938,5.2,5.6,7.665,8.519a22.77,22.77,0,0,1,2.46,4.18c1.549,3.007,3.257,5.957,4.5,9.089a66.814,66.814,0,0,1,2.1,7.984c.194.706.467,1.4.843,2.551-4.875,1.139-9.6,2.244-14.317,3.349-1.97-5.182-5.809-7.745-10.4-9.465-.911-.342-1.834-.683-2.768-.957a3.468,3.468,0,0,0-1.025.023,2.992,2.992,0,0,0,.4,1.071M42.361,287.979a37.675,37.675,0,0,0,4.237,3.85c2.8,2.084,5.649,4.134,8.6,6A87.416,87.416,0,0,0,70.026,305.4a82.932,82.932,0,0,0,14.818,3.861,23.011,23.011,0,0,0,6.811.524c2.768-.262,5.638.547,8.383.251a125.6,125.6,0,0,0,15.569-2.528,86.891,86.891,0,0,0,18.85-6.97,60.7,60.7,0,0,0,9.784-5.877c2.608-2.027,5.512-3.759,7.825-6.059,3.519-3.519,7.073-7.118,9.2-11.845,1.3.308,2.449.581,4.009.945-1.822,2.756-3.44,5.592-5.456,8.121a86.676,86.676,0,0,1-7.506,8.189A66.616,66.616,0,0,1,138.522,304.3a49.788,49.788,0,0,1-7.232,3.793c-4.4,1.595-8.907,2.927-13.428,4.089a71.1,71.1,0,0,1-9.772,1.743,55.18,55.18,0,0,1-8.235.251,81.027,81.027,0,0,1-19.487-2.768c-4.692-1.241-9.351-2.654-13.963-4.18a53.8,53.8,0,0,1-7.608-3.212,145.619,145.619,0,0,1-13.405-7.38c-3.759-2.449-7.1-5.547-10.6-8.383-.182-.148-.239-.433-.353-.638,1.617-1.048,3.166-2.039,4.9-3.155.979,1.15,1.925,2.415,3.03,3.519M211.324,80.953c.034,1.162-.4,2.346-.41,3.519-.023,1.378.171,2.768.273,4.146.068.809.49,1.834.137,2.369-1.059,1.651-.387,3.36-.49,5.023-.08,1.469.068,2.938.034,4.408-.046,1.765-.49,3.462.125,5.307.364,1.082-.308,2.494-.387,3.759a14.894,14.894,0,0,0,.239,3.884,2.7,2.7,0,0,0-.262,2.973c.524,1.139-.114,2.813-.216,4.26-.1,1.367-.228,2.733-.239,4.112-.034,4,0,8-.034,11.993-.011,1.412-.251,2.836-.239,4.248.011,2.46.182,4.909.205,7.369.011.957-.33,1.936-.251,2.882.364,4.043-.251,8.075-.011,12.107.091,1.435.444,2.859.513,4.294a24.733,24.733,0,0,1-.353,2.54c-.091,1.743-.216,3.485-.148,5.216a27.285,27.285,0,0,1,.034,5.456c-.057.353.535.8.558.831a22.061,22.061,0,0,0-.558,3.075c-.057,2.21.023,4.419.046,6.629a2.031,2.031,0,0,0,0,.456,17.025,17.025,0,0,1-.023,5.934c-.137,1.39.308,2.813.285,4.225-.023,2.073-.273,4.134-.33,6.207-.034.854.251,1.708.285,2.563.068,2.733.125,5.456.125,8.189,0,3.2-.08,6.4-.114,9.59a31.262,31.262,0,0,0,.08,6.287c.524,2.677-.137,5.262,0,7.893.171,3.667.091,7.346-.046,11.025-.08,1.9.661,3.781-.239,5.786-.467,1.048.251,2.6.319,3.929.023.513-.41,1.036-.421,1.56-.057,2.437,0,4.886-.057,7.335-.057,2.187-.216,4.362-.308,6.549-.114,2.79-.6,5.638-.205,8.348.342,2.346-.41,4.544-.08,6.879.33,2.266-.114,4.647-.216,6.97-.057,1.458-.547,3.109-.034,4.328.9,2.164-.068,4.18.159,6.264.251,2.335.023,4.715.068,7.084.023.979.205,1.97.308,2.95-.137.034-.285.057-.433.091-.4-1.367-.831-2.711-1.184-4.089-.8-3-1.606-5.991-2.3-9.02-.171-.752-.218-.4-4.468-11.065,0,0-.988-1.565-1.034-1.565-1.39-1.97-2.551-3.861-3.952-5.569A38.236,38.236,0,0,0,185.4,281.43a65.023,65.023,0,0,0-7.175-3.474c-3.1-1.287-6.241-2.528-9.453-3.508-2.506-.763-5.171-.991-7.711-1.663-1.936-.5-3.793-1.31-5.683-1.97-.6-.205-1.23-.33-1.811-.558-2.608-1.014-5.239-1.97-7.79-3.121a55.564,55.564,0,0,1-8.212-4.169c-1.856-1.253-3.235-3.223-4.784-4.92-2.3-2.517-3.656-5.615-5.046-8.656a14.445,14.445,0,0,1-.809-3.747c-.49-3.052-.945-6.1-1.4-9.112a24.443,24.443,0,0,0,3.109-1.595c3.132-2.21,6.3-4.408,9.282-6.822,1.56-1.264,2.608-3.166,4.18-4.408a6.6,6.6,0,0,0,2.392-3.371c.4-1.219,1.959-2.05,3-3.064.182-.171.421-.376.456-.6.376-2.061,2.323-3.075,3.166-4.818.888-1.822,1.777-3.645,2.688-5.456.41-.82.934-1.583,1.321-2.415,1.39-2.927,2.813-5.843,4.066-8.827.535-1.3.581-2.79,1.014-4.146.319-.991,1.184-1.868,1.321-2.859.262-1.982,1.4-3.7,1.64-5.6.41-3.246,1.606-6.31,1.333-9.738-.239-2.825.911-5.729,1.048-8.61a62.157,62.157,0,0,0-.535-7.665c1.538-.467,3.348-1.025,5.171-1.572a22.423,22.423,0,0,0,2.62-.786,3.42,3.42,0,0,0,2.118-3.952,56.881,56.881,0,0,0-3.462-13.28,35.317,35.317,0,0,0-2.232-5.011,41.207,41.207,0,0,0-2.927-3.724,15.69,15.69,0,0,1-.843-1.7,42.885,42.885,0,0,0-9.943-11.583c-2.2-1.834-4.112-4.009-6.378-5.729a47.116,47.116,0,0,0-7.528-4.761,69.685,69.685,0,0,0-9.112-3.576,29.1,29.1,0,0,0-13.5-.991c-2.87.433-5.831.456-8.667,1.071-3.155.683-6.2,1.9-9.328,2.768-4.613,1.253-8.633,3.69-12.619,6.184a29.4,29.4,0,0,0-7.266,5.945c-2.061,2.46-4.9,4.282-7.027,6.708a44.241,44.241,0,0,0-4.157,6.481c-1.093,1.8-2.2,3.588-3.143,5.444a89.051,89.051,0,0,0-3.918,8.314,55.581,55.581,0,0,1-8.576,14.305c-.752.957-1.355,2.039-1.982,3,1.765,1.879,3.565,3.2,6.1,3.132,2.187-.068,4.4-.011,6.389-.011,0,3.6-.125,7.039.034,10.467.182,3.815.524,7.642,1,11.435a56.929,56.929,0,0,0,1.663,8.872c1.4,4.829,2.608,9.761,5.364,14.1.592.923.866,2.061,1.412,3.03,2.027,3.576,3.986,7.2,6.891,10.2,2.323,2.4,4.419,5.034,6.811,7.369,1.378,1.344,3.257,2.164,4.67,3.474,1.15,1.071,2.642,1.822,2.551,4.043a50.359,50.359,0,0,1-2.472,14.635,32.987,32.987,0,0,1-5.239,9.738,23.382,23.382,0,0,1-12.255,8.2c-3.064.888-6.059,2.039-9.146,2.847-2.733.729-5.581,1.036-8.326,1.731-1.97.513-3.827,1.412-5.774,2.039-1.321.421-2.688.695-4.043,1.014a11.462,11.462,0,0,0-5.9,2.87c-.1.114-.228.285-.342.285-3.5-.205-5.6,2.54-8.326,3.975-3.964,2.084-7.1,5.216-10.08,8.5-1.435,1.572-3.03,3.007-4.362,4.658a48.074,48.074,0,0,0-3.85,5.581c-2.95,5-5.854,10.023-8.622,15.125A36.827,36.827,0,0,0,4.5,322.842c-.159-.023-.319-.057-.467-.08.148-2.517.319-5.034.433-7.551.057-1.5.011-3.007.034-4.51.034-2,.034-4,.159-5.991.228-3.975.592-7.938.786-11.913.125-2.7-.011-5.41.057-8.109.057-2.631.3-5.262.285-7.893,0-2.95-.285-5.911-.262-8.861.023-2.733.387-5.467.421-8.2.057-3.474-.08-6.959-.091-10.433,0-.843.182-1.7.205-2.551.046-2.677.1-5.353.068-8.018-.034-2.46-.251-4.92-.273-7.369-.023-1.458.285-2.916.273-4.374-.034-2.9-.228-5.809-.262-8.713-.023-1.458.262-2.927.251-4.385-.046-4.214-.216-8.417-.239-12.62-.023-2.13.205-4.26.228-6.389.011-1.378-.194-2.756-.194-4.134,0-1.572.205-3.132.171-4.692-.057-2.426-.273-4.84-.342-7.266-.046-1.526.068-3.064.08-4.6.023-2.267-.011-4.533.011-6.788.023-2.164.137-4.317.137-6.469,0-1.97-.148-3.929-.137-5.9.011-2.335.114-4.67.205-7,.068-1.811.216-3.622.273-5.433.057-1.834.046-3.656.034-5.49,0-1.538-.137-3.075-.034-4.6.114-1.663.478-3.314.672-4.977a11.335,11.335,0,0,0-.137-1.367c-.011-1.777-.057-3.553.046-5.319.057-.991.478-1.97.547-2.973.182-2.6.251-5.194.342-7.79a12.032,12.032,0,0,0-.057-1.811A46.65,46.65,0,0,1,7.2,103.4a27.559,27.559,0,0,1,.569-4.169.3.3,0,0,0,.011-.171c-.945-2.392.239-4.784.011-7.187a53,53,0,0,1,0-5.547c0-.6.228-1.355-.046-1.788-1.219-1.925-.216-3.884-.3-5.82a6.648,6.648,0,0,0-.41-1.515c-.034-.091-.194-.182-.182-.262.137-1.7.273-3.383.433-5.068.023-.262.216-.547.159-.774-.968-3.292.182-6.606-.159-9.954-.581-5.729-.74-11.526-.763-17.289-.023-5,.319-10,.626-15A45.03,45.03,0,0,1,8.216,19.8c.923-3.337,2.153-6.708,5.41-8.758,2.016-1.264,3.861-2.768,5.888-4.02a11.488,11.488,0,0,1,3.007-1.059C26.165,4.951,29.8,3.869,33.5,3.038A18.522,18.522,0,0,1,38,2.97c5.3.091,10.6.216,15.9.319,1.708.034,3.405,0,4.818,0,.854,1.936,1.378,3.9,2.472,5.433a15.058,15.058,0,0,0,11.071,6.435c3.61.376,7.221.82,10.854.957,4.487.159,9,.068,13.5.023,3.052-.034,6.1-.3,9.169-.285,6.4.046,12.813.194,19.214.3,3.5.057,6.993.1,10.49.159,2.38.046,4.761.182,7.141.159a26.866,26.866,0,0,0,10.877-2.05,7.531,7.531,0,0,0,4.624-5.262,22.867,22.867,0,0,1,2.084-4.544c3.03,0,6.207-.057,9.374.034,1.31.034,2.62.444,3.929.581.877.1,1.777-.046,2.642.057,2.437.285,4.863.615,7.289.968a80.683,80.683,0,0,1,8.815,1.378c4.032,1.048,8.1,2.175,11.344,5.1a27.191,27.191,0,0,0,3.064,2.141c.809,1.378,1.538,2.551,2.2,3.759a21.5,21.5,0,0,1,2.574,10.023c.068,3.815.228,7.62.3,11.435a27.449,27.449,0,0,0-.148,3.462c.626,4.2-.74,8.383.011,12.619" transform="translate(9.395 6.152)"/>
        <path id="Path_8818" data-name="Path 8818" d="M19.089,7.944A9.346,9.346,0,0,0,16.64,1.577C15.717.62,14.647-.325,13.007.108a6.745,6.745,0,0,0-4.26,3.61c-.49.9-1.059,1-1.754.262-1.264-1.355-4.032-1.15-5.421.171C-.011,5.655.41,7.636,0,9.037c.011,4.533,2.631,7.255,5.216,10.046a14.533,14.533,0,0,0,5.638,3.531,2.921,2.921,0,0,0,2.472-.194,28.8,28.8,0,0,0,2.688-3.531c2.54-3.223,3.235-6.959,3.075-10.945m-3.428,4.67c-1.059,2.779-2.289,5.5-3.519,8.428-2.631-2.4-5.194-4.487-7.437-6.868-1.788-1.9-2.62-4.26-1.446-6.936.592-1.355,1.515-1.674,2.654-.831a28.7,28.7,0,0,0,2.95,2.016,1.334,1.334,0,0,0,1.253-.342c.649-.888,1.048-1.959,1.708-2.836.524-.695,1.606-1.822,1.879-1.686a4.907,4.907,0,0,1,2.21,2.221,9.162,9.162,0,0,1-.251,6.834" transform="translate(176.368 231.21)"/>
        <path id="Path_8819" data-name="Path 8819" d="M18.677,4.566c-.49-2.118-2.517-3.508-4.374-2.847C12.561,2.334,10.932,3.29,10,.728,9.987.682,9.907.671,9.862.648,6.023-.958,2.071.466.545,4.418c-1.219,3.155-.171,5.991.968,8.69,1.082,2.574,2.95,4.806,4.362,7.255a2.182,2.182,0,0,0,3.223.809,26.029,26.029,0,0,0,5.3-3.941,15.176,15.176,0,0,0,4.715-9.67c-.137-.968-.205-2-.433-3M11.969,15.5c-1.412,1.355-2.916,2.62-4.408,3.952C6.4,16.924,5.169,14.589,4.224,12.14c-1-2.62-1.629-5.376-.057-8.03a2.764,2.764,0,0,1,4.841-.148,3.473,3.473,0,0,1,.239,1.412c.057.558.091,1.128.171,2.073,1.674-.934,3.064-1.674,4.419-2.46,1.321-.763,2.084-.319,2.255,1.219.456,3.929-1.492,6.765-4.123,9.294" transform="translate(196.837 188.518)"/>
        <path id="Path_8834" data-name="Path 8834" d="M18.677,4.566c-.49-2.118-2.517-3.508-4.374-2.847C12.561,2.334,10.932,3.29,10,.728,9.987.682,9.907.671,9.862.648,6.023-.958,2.071.466.545,4.418c-1.219,3.155-.171,5.991.968,8.69,1.082,2.574,2.95,4.806,4.362,7.255a2.182,2.182,0,0,0,3.223.809,26.029,26.029,0,0,0,5.3-3.941,15.176,15.176,0,0,0,4.715-9.67c-.137-.968-.205-2-.433-3M11.969,15.5c-1.412,1.355-2.916,2.62-4.408,3.952C6.4,16.924,5.169,14.589,4.224,12.14c-1-2.62-1.629-5.376-.057-8.03a2.764,2.764,0,0,1,4.841-.148,3.473,3.473,0,0,1,.239,1.412c.057.558.091,1.128.171,2.073,1.674-.934,3.064-1.674,4.419-2.46,1.321-.763,2.084-.319,2.255,1.219.456,3.929-1.492,6.765-4.123,9.294" transform="matrix(0.899, -0.438, 0.438, 0.899, 186.744, 157.39)"/>
        <path id="Path_8820" data-name="Path 8820" d="M14.67.587c-1.7-.615-2.938.273-4.077,1.2-1.036.843-1.674,1.526-2.437-.308C7.585.086,3.645-.552,2.927.587,1.777,2.421.923,4.448,0,6.293a27.8,27.8,0,0,0,1.925,4.9,29.9,29.9,0,0,0,4.134,5.068,3.264,3.264,0,0,0,2.677.763A8.056,8.056,0,0,0,12,15.063a40.233,40.233,0,0,0,3.679-4.282,9.736,9.736,0,0,0,1.822-6.253A4.194,4.194,0,0,0,14.67.587M12.153,9.562c-1.116,1.595-2.528,2.984-4.043,4.738-1.538-1.925-3.121-3.838-4.624-5.809-.843-1.093-.376-5,.8-5.638,1-.547,1.765.342,2.335,1.128s1.025,1.64,1.572,2.437a.6.6,0,0,0,.376.194c1.515-.957,2.927-1.845,4.339-2.733,1.3,2.267.376,4.066-.752,5.683" transform="translate(195.434 262.394)"/>
        <path id="Path_8835" data-name="Path 8835" d="M14.67.587c-1.7-.615-2.938.273-4.077,1.2-1.036.843-1.674,1.526-2.437-.308C7.585.086,3.645-.552,2.927.587,1.777,2.421.923,4.448,0,6.293a27.8,27.8,0,0,0,1.925,4.9,29.9,29.9,0,0,0,4.134,5.068,3.264,3.264,0,0,0,2.677.763A8.056,8.056,0,0,0,12,15.063a40.233,40.233,0,0,0,3.679-4.282,9.736,9.736,0,0,0,1.822-6.253A4.194,4.194,0,0,0,14.67.587M12.153,9.562c-1.116,1.595-2.528,2.984-4.043,4.738-1.538-1.925-3.121-3.838-4.624-5.809-.843-1.093-.376-5,.8-5.638,1-.547,1.765.342,2.335,1.128s1.025,1.64,1.572,2.437a.6.6,0,0,0,.376.194c1.515-.957,2.927-1.845,4.339-2.733,1.3,2.267.376,4.066-.752,5.683" transform="translate(188.6 105.458)"/>
        <path id="Path_8821" data-name="Path 8821" d="M12.231,6.454c.965-1.729,1.657-3.165,2.527-4.484,1.74-2.639,5.6-2.54,7.682-.222,2.292,2.55,2.013,5.262,1.663,8.3-.431,3.754-2.287,6.795-4.1,9.877a27.2,27.2,0,0,1-3.882,5.189c-2.319,2.37-3.79,1.431-5.928-.294a41.5,41.5,0,0,1-4.63-4.268C2.508,17.209-.332,13.717.031,8.737A8.674,8.674,0,0,1,4.946,2.37c.7-.235,5.514.893,5.883,1.467.509.8.9,1.667,1.4,2.617M13.038,23.7l.474.074C13.3,22.02,14.978,21.324,15.3,19.6c.405-2.165,2.073-4.076,3.1-6.146A11.746,11.746,0,0,0,19.591,6.1c-.158-.9-.772-1.658-1.868-.885-1.718,1.214-3.85,2.04-4.006,4.665-.063,1.06-.828,1.432-1.789.864a17.447,17.447,0,0,1-1.476-1.2A19.138,19.138,0,0,0,7.533,7.471c-1.038-.508-2.325-.688-2.954.675-1.221,2.637.244,7.4,2.091,9.312,2.063,2.137,4.241,4.163,6.369,6.237" transform="translate(180.535 339.39)"/>
        <path id="Path_8822" data-name="Path 8822" d="M25.2,1.525A11.246,11.246,0,0,0,24.1,2.575a9.916,9.916,0,0,1-8.88,4.018c-1.9-.122-3.795-.28-5.69-.255a15.309,15.309,0,0,0-3.864.535c-1.437.4-4.61-.632-5.343-1.949C-.36,3.691.047,2.908,1.443,2.983c1.683.09,3.356.382,5.041.485.793.048,1.607-.251,2.4-.2,2.839.18,5.672.481,8.511.655a5.348,5.348,0,0,0,4.473-1.36c.229-.236.474-.456.711-.683,2.645-2.548,3.325-2.531,5.88.211,1.522,1.631,3.393,1.487,5.356,1.194,2.253-.337,4.531-.508,6.785-.843a9.089,9.089,0,0,0,2.636-.8C46.167.2,48.806-.046,51.377,2.564c.837.848,2.407,1.047,3.683,1.371,2.054.522,4.14.909,6.216,1.337a9.68,9.68,0,0,0,6.257-.894c1.345-.633,2.781-1.648,4.446-.418-.124.35-.145.821-.388,1.031a20.56,20.56,0,0,1-7.206,3.691c-2.438.794-4.516-.4-6.613-1.351A24.2,24.2,0,0,1,54.907,5.86,23.09,23.09,0,0,1,51.122,3.2c-1.894-1.811-3.743-1.363-5.3-.019a15.5,15.5,0,0,1-4.033,2.089c-3.009,1.3-6.33.79-9.469,1.438a4.1,4.1,0,0,1-2.555-.376A12.9,12.9,0,0,1,27.37,4.255c-.765-.815-1.4-1.749-2.173-2.73" transform="translate(49.313 373.456)"/>
        <path id="Path_8823" data-name="Path 8823" d="M9.162,17.917c-2.271-.757-4.476-1.161-6.325-2.2C.818,14.582.051,12.529,0,10.071-.088,5.509,2.309,2.743,6.018.736c2.4-1.3,4.632-.741,6.812.6,1.418.872,2.826,1.932,3.148,3.539a13.185,13.185,0,0,1-.015,5.259,9.625,9.625,0,0,1-2.145,4.273,30.324,30.324,0,0,1-4.657,3.511m1.159-7.028c.139-.435.5-.951.387-1.333-.286-1-.531-2.307-1.257-2.788A3.06,3.06,0,0,0,6.6,7.02,3.124,3.124,0,0,0,5.578,9.754c.548,1.374.544,2.284-.523,3.3a10.236,10.236,0,0,0-1.249,2.088c2.06.222,3.888.517,5.723.566a3.184,3.184,0,0,0,2.047-.879,1.954,1.954,0,0,0,.378-1.743,10.694,10.694,0,0,0-1.632-2.2" transform="translate(27.011 332.289)"/>
        <path id="Path_8824" data-name="Path 8824" d="M5.939,0c1.7,0,3.05,0,4.394,0,1.722-.007,4.63,1.993,5.3,3.584a9.871,9.871,0,0,1-.79,9.379,7.848,7.848,0,0,1-6.317,4.129A7.475,7.475,0,0,1,2.136,14.21C-.727,10.615-.836,5.117,2.565,2.146A24.445,24.445,0,0,1,5.939,0m.426,9.917c-.722,1.326-1.433,2.47-1.974,3.689-.315.71-.456,1.371.908,1.331a54.163,54.163,0,0,1,5.62.444,1.316,1.316,0,0,0,.736-.29c1.116-.761,1.132-1.7.191-3.03-.466-.659-1.292-1.688-1.081-2.091.846-1.614,1.238-2.777-.146-4.507a2.2,2.2,0,0,0-2.861-.9A3.447,3.447,0,0,0,6.365,9.917" transform="translate(28.115 367.504)"/>
        <path id="Path_8825" data-name="Path 8825" d="M63.283,4.685a23.057,23.057,0,0,1-3.13.863,55.611,55.611,0,0,1-11.232.228A43.476,43.476,0,0,1,35.664,2.327c-1.042-.415-1.781-.653-2.847.6a8.838,8.838,0,0,1-5.5,2.63,28.989,28.989,0,0,1-6.041.549,39.885,39.885,0,0,1-5.879-1.382A18.06,18.06,0,0,0,12.5,4.271a11.042,11.042,0,0,0-3.177.082,13.91,13.91,0,0,0-3.69,1.43C3.851,6.8.876,5.781.358,3.761.142,2.922-.214,1.746.171,1.2c.918-1.305,1.7.467,2.632.468a8.683,8.683,0,0,0,2.944-.1c1.462-.555,2.566.12,3.6.761a3.415,3.415,0,0,0,3.673.289c1.238-.517,3.087.237,4.607.64a13.257,13.257,0,0,0,6.2.419A19.775,19.775,0,0,0,32.333.253a2.925,2.925,0,0,1,2.708.19c3.723,2.749,7.811,2.913,12.23,2.612,3.815-.261,7.686.318,11.534.484.714.031,1.443-.239,2.154-.19a15.5,15.5,0,0,1,2.293.487l.031.849" transform="translate(46.518 339.835)"/>
        <path id="Path_8826" data-name="Path 8826" d="M15.666,6.147c-.272,4.887-1.772,8.421-6.182,10.078-.149.057-.29.235-.421.22a26.8,26.8,0,0,1-5.246-.685A5.514,5.514,0,0,1,.3,11.632,10.358,10.358,0,0,1,1,4.622,7.663,7.663,0,0,1,6.484.413,19.151,19.151,0,0,1,10.814,0c.268,0,.638-.032.788.122C13.451,2,16.066,3.412,15.666,6.147M10.232,9.954A8.327,8.327,0,0,1,10.781,9a1.983,1.983,0,0,0-.014-2.795C9.845,5.244,8.713,4.1,7.36,4.743c-.943.45-2.542,1.117-1.917,2.8.764,2.06.251,3.916-.566,5.8-.358.827.023,1.244.918,1.5A5.806,5.806,0,0,0,12.127,13.1l-1.9-3.145" transform="translate(27.585 350.374)"/>
        <path id="Path_8827" data-name="Path 8827" d="M9.165,2.937C10.6,1.514,12.025-.222,14.658.023c2.059.191,2.739,1,3.265,3.09,1.146,4.539-1.088,7.664-3.788,10.85A11.9,11.9,0,0,1,10.013,17.6a2.417,2.417,0,0,1-3.1-.588c-2.2-2.864-4.32-5.8-6.231-8.856A3.023,3.023,0,0,1,.451,4.7c.376-.6-.067-1.808.636-2.73a3.578,3.578,0,0,1,5.523-.528,14.337,14.337,0,0,0,2.556,1.5m-.03,13.142a7.326,7.326,0,0,1,1.085-1.705,19.072,19.072,0,0,0,5.031-7.133,3.882,3.882,0,0,0-.228-2.74c-.533-1.179-1.583-.535-2.318-.118-1.276.723-2.461,1.6-3.975,2.6A26.869,26.869,0,0,1,6.705,4.647,2.6,2.6,0,0,0,3.628,3.37c-.784.241-1.426,2.683-.9,3.524C3.862,8.7,5.1,10.45,6.32,12.2c.9,1.293,1.853,2.553,2.815,3.876" transform="translate(189.437 310.847)"/>
        <path id="Path_8828" data-name="Path 8828" d="M7.747,4.54C8.522,2.564,9.277.829,11.524.206c2.274-.63,4.5.177,5.186,2.5a10.068,10.068,0,0,1,.333,4.426c-.613,3.465-1.65,6.825-4.214,9.452-.624.638-.118,1.978-1.581,2.153a7.944,7.944,0,0,1-4.88-1.376,10.479,10.479,0,0,1-3.031-2.1C1.954,13.623.318,12.057.058,9.738A6.1,6.1,0,0,1,2.42,3.819a3.458,3.458,0,0,1,5.327.721m2.994,11.14a27.647,27.647,0,0,0,1.538-2.871c.966-2.436,2.194-4.853,1.81-7.577a7.787,7.787,0,0,0-1.222-2.3,13.092,13.092,0,0,0-1.9,1.407c-.67.7-1.1,1.638-1.788,2.319a1.358,1.358,0,0,1-2.233-.1,1.7,1.7,0,0,0-2.724-.632,3.441,3.441,0,0,0-1.231,2.32,6.112,6.112,0,0,0,4.285,5.9c1.15.445,2.261.992,3.47,1.53" transform="translate(168.467 294.048)"/>
        <path id="Path_8836" data-name="Path 8836" d="M7.747,4.54C8.522,2.564,9.277.829,11.524.206c2.274-.63,4.5.177,5.186,2.5a10.068,10.068,0,0,1,.333,4.426c-.613,3.465-1.65,6.825-4.214,9.452-.624.638-.118,1.978-1.581,2.153a7.944,7.944,0,0,1-4.88-1.376,10.479,10.479,0,0,1-3.031-2.1C1.954,13.623.318,12.057.058,9.738A6.1,6.1,0,0,1,2.42,3.819a3.458,3.458,0,0,1,5.327.721m2.994,11.14a27.647,27.647,0,0,0,1.538-2.871c.966-2.436,2.194-4.853,1.81-7.577a7.787,7.787,0,0,0-1.222-2.3,13.092,13.092,0,0,0-1.9,1.407c-.67.7-1.1,1.638-1.788,2.319a1.358,1.358,0,0,1-2.233-.1,1.7,1.7,0,0,0-2.724-.632,3.441,3.441,0,0,0-1.231,2.32,6.112,6.112,0,0,0,4.285,5.9c1.15.445,2.261.992,3.47,1.53" transform="translate(175.961 77.725)"/>
        <path id="Path_8829" data-name="Path 8829" d="M44.88,2.2a23.97,23.97,0,0,1-3.432.776A43.585,43.585,0,0,1,33.7,3.3,26.251,26.251,0,0,0,23.5,4.548,5.22,5.22,0,0,1,20.951,4.4a15.68,15.68,0,0,0-7.764-.138C10.7,4.892,8.068,6.4,5.5,4.967A46.661,46.661,0,0,1,0,.807L.321.013c.7.052,1.592-.153,2.077.2C5.236,2.266,8.253,2.1,11.416,1.307a9.011,9.011,0,0,1,6.9.947,6.325,6.325,0,0,0,7.147-.013,11.835,11.835,0,0,1,6.574-1.5c3.686.1,7.372.21,11.057.363a7.374,7.374,0,0,1,1.667.474c.041.208.083.417.124.625" transform="translate(46.55 359.855)"/>
        <path id="Path_8830" data-name="Path 8830" d="M.352.957a17.264,17.264,0,0,1,2.942.354,33.2,33.2,0,0,0,16.655.733c2.759-.6,5.481-1.363,8.225-2.023a3.253,3.253,0,0,1,1.013.092c-.034.287.042.689-.12.842C27.654,2.3,26.419,3.818,24.379,4.4c-1.7.482-3.236,1.663-4.941,1.943-4.09.672-8.164,1.09-12.318-.341A20.961,20.961,0,0,1,1.674,3.369,12.362,12.362,0,0,1,0,1.616L.352.957" transform="translate(106.285 215.789)"/>
      </g>
    </g>
  </g>
</svg>
