<svg xmlns="http://www.w3.org/2000/svg" xmlns:xlink="http://www.w3.org/1999/xlink" width="249" height="474" viewBox="0 0 249 474">
  <defs>
    <clipPath id="clip-path">
      <rect id="Rectangle_397" data-name="Rectangle 397" width="249" height="474" transform="translate(1431 2375)" fill="#fff" stroke="#707070" stroke-width="1"/>
    </clipPath>
  </defs>
  <g id="Mask_Group_40" data-name="Mask Group 40" transform="translate(-1431 -2375)" clip-path="url(#clip-path)">
    <path id="Path_9031" data-name="Path 9031" d="M-4018.9-8684.078c-2.147-.227-4.292-.6-6.445-.646-4.337-.092-8.68-.033-13.016.006-3.307.033-6.609.178-9.914.2-5.088.037-10.178.01-15.267.01-2.2,0-4.4,0-6.6,0q-8.428,0-16.855-.021c-4.816-.023-9.635-.113-14.451-.225-3.787-.084-7.572-.3-11.357-.34a4.973,4.973,0,0,0-1.433.281,3.661,3.661,0,0,1-1.753.24,22.591,22.591,0,0,0-6.121-.254,27.976,27.976,0,0,1-5.051-.062c-2.527-.342-5.174.295-7.769.34-2.685.045-5.371-.086-8.055-.15-1.527-.039-3.051-.113-4.575-.143q-8.993-.152-17.986-.281c-.9-.012-1.8.174-2.7.174q-15.6.021-31.205.008-9.886,0-19.772-.016c-3.092,0-6.184.014-9.277.016q-4.368,0-8.735-.008c-6.366,0-12.733-.012-19.1.023-4.689.027-9.382.295-14.068.314-3.323.014-6.649-.193-9.971-.324-2.894-.113-5.839-.668-8.661-.283-3.43.471-6.851.113-10.27.531a20.872,20.872,0,0,1-4.259-.068c-.941-.08-1.883-.156-2.817-.152-2.14.01-4.279.334-6.422.373-2.885.057-5.775-.018-8.664-.043-3.235-.029-6.472,0-9.7-.135-2.015-.082-4.02-.6-6.029-.586-2.072.016-4.133.518-6.21.664-1.448.1-2.911-.049-4.371-.066-3.2-.037-6.4-.1-9.6-.078-5.1.041-10.2.225-15.294.2-5.472-.027-10.943-.211-16.413-.365-3.73-.109-7.46-.3-11.189-.422-.924-.033-1.86,0-2.8.031a19.888,19.888,0,0,1-5.6-.332c-8.516-2.229-13.758-5.174-14.6-16.215-.254-3.344-.7-6.682-.722-10.025a79.342,79.342,0,0,1,.656-9.174,77.722,77.722,0,0,1,1.439-10.1,48.352,48.352,0,0,1,3.334-9.2c2.095-4.418,4.551-8.664,6.825-13,2.223-4.242,4.3-8.564,6.636-12.736,4.336-7.75,8.7-15.48,12.723-23.395,2.154-4.236,4.458-8.395,6.733-12.566,1.389-2.545,2.94-5,4.259-7.584,2.459-4.807,4.745-9.7,7.2-14.51,3.516-6.879,7.056-13.746,10.715-20.547,2.126-3.949,4.611-7.711,6.751-11.656,2.37-4.361,4.5-8.859,6.794-13.262,2.173-4.178,4.514-8.268,6.612-12.484,2.341-4.7,4.442-9.523,6.746-14.246,1.679-3.445,3.57-6.795,5.279-10.23,2.729-5.488,5.278-11.072,8.105-16.51,3.341-6.43,7.014-12.686,10.314-19.133,2.185-4.262,3.877-8.77,5.953-13.09,2.062-4.285,4.355-8.461,6.5-12.707,1.479-2.92,2.745-5.957,4.355-8.8,1.638-2.893,3.93-5.4,7.163-6.389,6.614-2.016,13.41-1.58,20.214-1.049a37.307,37.307,0,0,0,5.072-.074c1.159-.066,2.314-.139,3.472-.133,4.071.012,8.143.2,12.215.25,4.384.051,8.773.018,13.161.053.859.008,1.718.16,3.073.3-6.937-8.27-11.863-17.119-14.445-27.186a86.255,86.255,0,0,1-2.6-30.609c-2.576,0-4.807.066-7.034-.031a7.1,7.1,0,0,1-2.681-.693c-2.43-1.158-2.8-2.354-1.015-4.414,5.674-6.564,8.566-14.625,12.234-22.268a51.149,51.149,0,0,1,12.069-16.426,62.327,62.327,0,0,1,15.3-10.5c5.316-2.449,10.73-4.537,16.674-4.945,2.545-.174,5.057-.838,7.6-.994,5.049-.311,9.794.84,14.617,2.5a39.069,39.069,0,0,1,12.975,7.617,105.586,105.586,0,0,1,11.8,11.674,45.692,45.692,0,0,1,9.067,15.814,104.063,104.063,0,0,1,2.57,10.537c.387,1.973-.8,3.2-2.687,3.785-2.236.689-4.462,1.428-6.688,2.139,1.2,11.537-.854,22.613-4.521,33.486a94.235,94.235,0,0,1-16.562,29.686c3.076.166,5.5.344,7.921.414,1,.025,2.006.008,3.013-.012a36.677,36.677,0,0,1,5.308.158,40.012,40.012,0,0,0,6.942.076,36.607,36.607,0,0,1,7.609.176,15.657,15.657,0,0,0,4.092-.086,17.641,17.641,0,0,1,3.648-.15,10.158,10.158,0,0,1,7.827,4.48c3.982,6.059,8.143,12.006,11.956,18.166,2.872,4.639,5.25,9.574,7.979,14.3,2.594,4.492,5.43,8.85,8.019,13.344,1.075,1.873,1.7,4,2.691,5.924.743,1.441,1.809,2.713,2.625,4.121.771,1.322,1.359,2.758,2.11,4.094.89,1.59,1.92,3.094,2.794,4.686,4.193,7.619,8.4,15.23,12.511,22.895,3.35,6.246,6.557,12.568,9.877,18.83.717,1.354,1.706,2.559,2.459,3.895.854,1.523,2.244,2.707,2.09,4.852-.071.988,1.359,2.063,2.051,3.135.975,1.514,1.982,3.025,2.822,4.615.949,1.8,1.669,3.723,2.6,5.537,1.153,2.26,2.458,4.441,3.625,6.691,1.45,2.8,2.768,5.662,4.241,8.449,1.307,2.465,2.694,4.9,4.156,7.273a34.147,34.147,0,0,1,3.439,7.2c.662,2.01,2.163,3.734,3.283,5.59,1.321,2.2,2.741,4.334,3.9,6.6.89,1.73,1.35,3.682,2.188,5.449.625,1.318,1.605,2.4,2.22,3.824,1.287,2.99,3.325,5.648,4.925,8.516,1.72,3.076,3.24,6.26,4.94,9.348,1.713,3.115,3.47,6.207,5.333,9.232,3.361,5.457,7,10.75,10.167,16.314a142.16,142.16,0,0,1,7.819,15.7,39.482,39.482,0,0,1,2.206,10.07c.47,3.641.465,7.338.695,11.012a2.714,2.714,0,0,0,.414.873v3.029c-.161.973-.4,1.943-.463,2.92-.178,2.686-.159,5.389-.456,8.061a56.534,56.534,0,0,1-1.245,6.143,18.07,18.07,0,0,1-4.4,8.445c-2.678,2.92-6.22,4.094-9.822,5.084a15.368,15.368,0,0,1-6.254.7c-1.391-.219-2.329-.266-3.312.648Zm-11.889-3.812c3.019.012,6.037.18,9.059.238a32.833,32.833,0,0,0,6.486-.041,42.188,42.188,0,0,0,10.419-2.941c3.447-1.613,5.08-4.686,6.066-7.959a40.4,40.4,0,0,0,1.141-8.643c.358-4.857.547-9.727.79-14.268-2.974,1.348-5.778,3.135-8.836,3.871a35.2,35.2,0,0,1-11.121,1.3c-4.271-.336-8.625.537-12.951.637-3.3.074-6.6-.348-9.9-.363-4.881-.014-9.765.2-14.646.2-4.508,0-9.015-.115-13.518-.236-2.716-.074-5.428-.377-8.143-.365-4.416.008-8.831.309-13.245.26-3.139-.035-6.271-.51-9.408-.676-4.15-.219-8.3-.287-12.449-.5-6.712-.336-13.422-.8-20.137-1.068a20.619,20.619,0,0,0-3.261.223,23.657,23.657,0,0,1-2.864.234c-5.63-.014-11.257-.219-16.885-.246-8.256-.035-16.518-.066-24.77.072-4.455.078-8.9.557-13.354.754-2.556.113-5.12.068-7.681.016-5.281-.1-10.562-.34-15.847-.373-3.187-.018-6.379.338-9.571.365-7.656.061-15.312.045-22.969.018-1.1-.008-2.211-.406-3.3-.361-1.986.082-3.963.523-5.94.518-3.77-.01-7.536-.3-11.306-.344-1.6-.02-3.21.027-4.816.082-1.417.043-2.838.088-4.255.086-3.336-.01-6.671-.152-10.006-.223-2.325-.049-4.654-.166-6.976-.088-2.839.1-5.672.469-8.51.523-2.99.059-5.982-.178-8.973-.186-3.3-.008-6.6.006-9.9.02q-4.017.021-8.038.025c-2.623,0-5.25-.143-7.873-.109-2.521.031-5.043.3-7.564.273-1.639-.023-3.272-.578-4.9-.562-3.33.029-6.653.371-9.982.418-2.205.031-4.408,0-6.61-.021-2.1-.025-4.2-.049-6.3-.023-3.366.045-6.731.324-10.1.381a22.957,22.957,0,0,1-2.507-.148,21.245,21.245,0,0,0-2.6-.146c-1.959.047-3.919.539-5.87.5-4.685-.1-9.367-.4-14.05-.609-3.971-.18-7.946-.34-11.468-3.449,0,4.059-.225,7.793.065,11.488a70.44,70.44,0,0,0,1.716,10.828c1.809,7.57,6.66,10.59,12.883,10.738,5.381.135,10.78-.449,16.174-.607,5.423-.162,10.853-.236,16.279-.264,3.371-.018,6.742.162,10.114.174,1.517,0,3.039-.029,4.56-.064,1.619-.031,3.238-.07,4.856-.055,3.634.023,7.27.191,10.9.23a83.986,83.986,0,0,0,9.542-.119,35.424,35.424,0,0,1,4.458-.1,37.686,37.686,0,0,0,4.172-.064c4.357-.383,8.795.174,13.2.221,5.527.063,11.052.016,16.579.016,3.651,0,7.306-.018,10.957.006,4.659.027,9.313.1,13.968.133q6.769.059,13.536.1c1.241,0,2.483,0,3.727-.008,1.634-.01,3.271-.018,4.909,0,2.935.033,5.869.168,8.8.186,1.941.01,3.885,0,5.828-.008,2.592-.01,5.183-.023,7.774.016,4.742.068,9.481.371,14.222.387,3.979.012,7.96-.309,11.938-.359,2-.027,4.011.008,6.016.045,1.568.027,3.138.055,4.707.055,4.943,0,9.884-.1,14.828-.1.976,0,1.955.352,2.927.332,2.188-.045,4.372-.3,6.562-.322,1.5-.018,3.008.021,4.512.061,1.342.031,2.687.064,4.028.063,6.349-.021,12.7-.152,19.049-.125,3.962.02,7.925.371,11.889.355,5.346-.02,10.693-.338,16.04-.355,4.51-.01,9.018.328,13.526.33,4.183,0,8.365-.3,12.548-.34q10.479-.1,20.957,0c3.006.02,6.012.313,9.02.34,4.192.041,8.387-.039,12.579-.1,2.93-.039,5.861-.182,8.792-.182C-4030.994-8687.893-4030.893-8687.893-4030.791-8687.891Zm2.375-31.824c3.843.1,7.693.707,11.51.516a59.208,59.208,0,0,0,11.117-1.773c3.812-.939,6.846-3.09,8.085-7.148,1.337-4.373-.058-8.43-1.736-12.273-1.816-4.152-4.146-8.088-6.352-12.066q-6.563-11.833-13.241-23.609c-2.1-3.713-4.264-7.385-6.386-11.086-.874-1.518-1.648-3.094-2.579-4.574-1.814-2.889-3.79-5.676-5.541-8.6-1.3-2.172-2.29-4.523-3.518-6.738-1.873-3.387-3.9-6.687-5.728-10.1s-3.054-7.211-5.318-10.264c-3.513-4.734-4.522-10.74-8.358-15.223-.078-.1-.018-.293-.078-.418-1.416-2.984-2.517-6.107-4.476-8.859a16.364,16.364,0,0,1-3.112-6.352c-.372-2.242-1.636-3.891-2.457-5.795-1.148-2.662-2.811-5.1-4.171-7.674-.655-1.242-1.011-2.639-1.682-3.865-2.271-4.162-4.693-8.244-6.925-12.422-2.625-4.918-5-9.975-7.7-14.848-2.327-4.205-5.009-8.207-7.433-12.359-1.253-2.154-2.176-4.5-3.451-6.637-1.354-2.283-3.018-4.381-4.425-6.637q-3.88-6.223-7.61-12.545c-.9-1.531-1.189-3.74-2.467-4.656-2.231-1.6-2.439-4.273-4.231-6.131-1.87-1.937-2.64-4.928-3.945-7.43-2.579-4.939-5.069-9.936-7.831-14.771-3.1-5.424-6.283-7.6-12.7-7.176-3.079.2-6.168.188-9.257.178q-1.351,0-2.7,0c-2.965.01-5.928-.084-8.895-.109-2.9-.025-5.81,0-8.714-.033-1.6-.018-3.264-.416-4.768-.068a4.382,4.382,0,0,1-1.337,0c-1.19-.115-2.437-.232-2.707,1.777,2,.152,3.988.447,5.979.438,6.073-.037,12.147-.182,18.222-.3,4.709-.092,9.422-.35,14.128-.262,2.514.045,5.318-.133,6.908,2.613,2.021,3.486,4.074,6.953,6.076,10.451,2.438,4.262,4.867,8.533,7.238,12.832,1.64,2.977,3.194,6,4.758,9.021,1.306,2.521,2.551,5.076,3.861,7.6,1.2,2.307,2.43,4.584,3.664,6.865,1.609,2.969,3.294,5.9,4.837,8.9,1.337,2.6,2.514,5.273,3.782,7.906,1.24,2.566,2.433,5.168,3.782,7.676,1.182,2.2,2.668,4.24,3.828,6.455,2.754,5.258,5.346,10.605,8.1,15.867,1.5,2.863,3.293,5.57,4.777,8.439,3.071,5.947,5.958,11.984,9.04,17.924,3.38,6.518,6.893,12.969,10.34,19.455q8.544,16.058,17.083,32.123,4.556,8.549,9.164,17.07c3.275,6.09,6.576,12.162,9.817,18.27,2.1,3.953,4.1,7.961,6.16,11.936,1.872,3.629,3.871,7.2,5.595,10.895a19.2,19.2,0,0,1,1.652,5.684c.963,7.826-3.994,11.365-10.259,13.275-4.412,1.346-9.327,1.369-14.022,1.379-6.99.02-13.978-.588-20.971-.75-3.173-.074-6.348-.061-9.525-.049-3.151.014-6.3.027-9.451-.045-7.4-.168-14.787-.607-22.181-.8-5.041-.123-10.086-.062-15.131.006-4.208.057-8.416.34-12.623.34-2.087,0-4.174-.082-6.259-.158-2.1-.082-4.2-.164-6.3-.16-4.086.008-8.171.223-12.255.412-8.128.371-16.265.068-24.4.713-5.389.428-10.848.086-16.281.508-3.932.309-7.905.055-11.863.055-3.594,0-7.187-.041-10.781.021-5.2.1-10.388.289-15.581.4-3.687.074-7.381.061-11.072.117-4.512.074-9.026.336-13.534.244-6.955-.145-13.9-.553-20.855-.785-1.443-.049-2.888-.031-4.335-.018-1.258.016-2.516.027-3.771,0-3.743-.084-7.484-.357-11.228-.361-2.367,0-4.732.057-7.1.121-2.859.072-5.719.148-8.575.111-7.541-.1-15.08-.539-22.622-.615-5.964-.062-11.931.221-17.9.32-3.573.059-7.151-.021-10.722.109-3.751.139-7.492.539-11.243.664-3.145.109-6.3.014-9.443-.029-3.507-.055-7.033.057-10.515-.285-3.893-.381-7.743-1.219-11.617-1.807a6.615,6.615,0,0,1-5.116-4.6c-1.042-4.484.188-8.652,2.139-12.6,1.382-2.793,3.317-5.316,4.678-8.121,3.076-6.355,5.832-12.865,8.936-19.211,3.937-8.045,8.07-16,12.148-23.973,2.372-4.639,4.841-9.227,7.2-13.873q7.4-14.552,14.724-29.152c2.672-5.35,5.227-10.754,7.787-16.162,2.407-5.084,4.675-10.232,7.14-15.287q5.424-11.124,11.047-22.15c3.97-7.834,7.967-15.652,12.056-23.426,2.948-5.605,6.095-11.113,9.094-16.693,2.9-5.393,5.7-10.842,8.607-16.234,1.685-3.127,3.651-6.107,5.2-9.3,1.884-3.871,3.469-7.887,5.178-11.844a11.685,11.685,0,0,1,8.221-7.158,56.706,56.706,0,0,1,11.643-1.318c11.022-.16,22.048-.047,33.074-.041q5.4.006,10.792,0c.095-.322.189-.648.281-.979a7.794,7.794,0,0,0-2.205-.768c-3.291-.111-6.584-.115-9.878-.111q-2.247,0-4.5-.006c-4.709-.01-9.419-.018-14.123.105-4.554.115-9.1.531-13.641.852-3.686.262-7.382.439-11.044.9-3.8.48-7.424,1.764-9.538,5.18a76.93,76.93,0,0,0-4.2,8.756c-1.41,3.113-2.671,6.3-4.136,9.385-1.395,2.932-3,5.762-4.45,8.668-2.3,4.635-4.467,9.334-6.845,13.928-2.1,4.064-4.438,8.006-6.628,12.021-1.382,2.529-2.642,5.127-4.028,7.652-2.08,3.793-4.287,7.52-6.325,11.336-2.395,4.48-4.63,9.045-7,13.539-3.38,6.41-6.916,12.738-10.21,19.191-4.148,8.133-8.082,16.373-12.182,24.535-2.521,5.02-5.237,9.939-7.759,14.961-1.527,3.037-2.736,6.232-4.295,9.252-2.367,4.584-4.976,9.049-7.368,13.621-1.57,3-2.9,6.129-4.419,9.162-2.71,5.4-5.31,10.859-8.269,16.123-6.2,11.037-12.619,21.957-18.928,32.932-3.657,6.354-6.987,12.881-7.978,20.24-.255,1.891-.017,4.785,1.18,5.746,3.5,2.811,8.02,3.311,12.456,3.375,1.967.029,3.936,0,5.906-.031,1.682-.023,3.361-.051,5.044-.035,2.9.016,5.8.285,8.7.2,2.8-.078,5.6-.607,8.4-.693,2.194-.068,4.4-.062,6.6-.057,2.161.008,4.323.014,6.481-.051,4.785-.145,9.563-.547,14.347-.7,2.045-.068,4.093-.014,6.139.043,2.655.072,5.313.145,7.976-.043,2.43-.178,4.9.471,7.36.486,5.813.037,11.63-.111,17.443-.131,1.488-.008,2.973.254,4.462.26.713,0,1.428-.055,2.142-.113a22.166,22.166,0,0,1,2.331-.107c2.576.053,5.153.355,7.728.344,2.807-.01,5.614-.393,8.42-.371,6.225.049,12.448.311,18.674.371,2.631.023,5.266-.02,7.9-.059,2.155-.033,4.315-.066,6.475-.064,2.051,0,4.32.826,6.1.191a17.648,17.648,0,0,1,6.947-.629,28.489,28.489,0,0,0,4.282-.031,3.043,3.043,0,0,1,1.172.182,3.625,3.625,0,0,0,1.067.2c4.164-.152,8.331-.572,12.49-.51,2.813.041,5.61-.014,8.42-.055,4.013-.062,8.027.156,12.043.232.984.018,1.973-.076,2.959-.115,1.839-.068,3.681-.133,5.52-.209.567-.023,1.133-.123,1.7-.115,1.168.021,2.338.088,3.507.129.444.016.892.049,1.337.021,2.663-.17,5.326-.469,7.994-.512,1.687-.027,3.377.02,5.066.068,1.628.045,3.255.09,4.884.072,2.3-.031,4.593-.451,6.89-.459,2.953-.006,5.9.25,8.853.338,1.529.049,3.063.041,4.593.039.5,0,.988,0,1.485,0,.989,0,1.98-.006,2.973-.006,2.036-.01,4.072-.021,6.11.018,1.694.029,3.387.275,5.085.313,1.431.023,2.864.023,4.3.023,1.729,0,3.46,0,5.191.045,1.941.053,3.877.416,5.818.432a21.665,21.665,0,0,0,2.556-.176,17.371,17.371,0,0,1,3.193-.145c7.979.611,15.957,1.021,23.961,1.006,7.531-.016,15.062.154,22.593.244s15.049.15,22.571.281c1.01.016,2.014.514,3.021.52,1.355.012,2.711-.023,4.065-.062,1.17-.031,2.339-.064,3.507-.064C-4029.374-8719.732-4028.9-8719.729-4028.416-8719.715Zm-247.8-9.684c5.462.115,10.914.7,16.372.711,9.838.029,19.678-.207,29.516-.35,6.269-.088,12.536-.271,18.806-.3,1.893-.012,3.785.053,5.676.113,2.138.072,4.274.146,6.412.113,4.287-.062,8.567-.445,12.852-.576,4.809-.148,9.621-.1,14.429-.27,5.391-.193,10.774-.684,16.165-.787,7.063-.139,14.129-.025,21.193-.021,4.968,0,9.935,0,14.9.02,4.314.016,8.629.068,12.942.092q14.175.07,28.347.135c3.431.021,6.861.162,10.291.127,2.976-.031,5.953-.406,8.922-.322,4.087.113,8.161.6,12.25.771,5.473.23,10.95.354,16.427.447a30.524,30.524,0,0,0,11.1-1.766,9.265,9.265,0,0,0,5.889-8.334c-.04-4.119-1.6-7.771-3.458-11.377-4.72-9.178-9.259-18.449-13.977-27.627-2.878-5.6-5.969-11.084-8.917-16.641-4.1-7.744-8.128-15.52-12.243-23.252-2.5-4.7-5.143-9.312-7.646-14.006-3.072-5.756-6.084-11.543-9.089-17.338-2.479-4.771-4.84-9.611-7.388-14.352-2.9-5.389-6.013-10.668-8.933-16.049-2.051-3.781-3.874-7.691-5.917-11.477-2.137-3.969-4.457-7.836-6.612-11.793q-4.017-7.38-7.888-14.846c-1.187-2.283-2.128-4.7-3.365-6.953-1.835-3.332-3.917-6.525-5.737-9.867-2.04-3.748-3.9-7.6-5.856-11.4-1.374-2.666-2.82-5.291-4.154-7.98-1.208-2.432-2.1-5.043-3.506-7.35-2.437-4.014-3.686-8.7-7.418-12.01a12.769,12.769,0,0,0-8.44-3.352c-3.187-.082-6.371-.059-9.562-.033-2.178.018-4.36.033-6.538.018-4.974-.039-9.949-.113-14.919-.3-2.448-.09-4.839-.332-6.681,1.777-.193.217-.677.164-1,.291-2.4.945-4.825,1.85-7.178,2.914a2.091,2.091,0,0,0-1.039,1.6c.456,5.943,1.413,11.674,4.74,16.926,4.813,7.6,12.65,10.549,20.255,13.8,3.4,1.457,7.246,1.85,10.829,2.924,4.75,1.426,9.559,2.766,14.133,4.65,8.439,3.477,15.786,8.4,19.833,17.07a45.357,45.357,0,0,0,2.456,4.691c4.522,7.285,6.129,15.318,6.257,23.762.045,2.818.265,5.631.38,7.924,4.267,1.27,8.334,2.092,12.038,3.727a15.15,15.15,0,0,1,6.416,5.152c2.613,4.041,1.507,8.32-1.413,11.912a38.287,38.287,0,0,1-13.317,10.76c-9.872,4.627-19.948,8.816-29.948,13.17a7.3,7.3,0,0,1-1.384.307c7.56-3.756,15.175-7.143,22.656-10.807,7.237-3.541,14.221-7.52,19.319-14.043,3.752-4.8,3.186-8.814-.606-11.979a30.148,30.148,0,0,0-13.367-6.225c0,1.715.05,3.383-.013,5.053-.131,3.432.055,6.938-.586,10.281-.766,4-4.058,6.525-7.181,8.637a139.339,139.339,0,0,1-16.014,9.521,155.008,155.008,0,0,1-20.047,8.506,209.78,209.78,0,0,1-21.787,5.387c-3.412.732-6.967.785-10.453,1.178-2.844.32-5.677.855-8.527,1-4.077.215-8.17.209-12.256.209-3.538,0-7.1.107-10.613-.232-4.646-.453-9.267-1.232-13.877-1.984-4.7-.77-9.418-1.525-14.058-2.586a99.311,99.311,0,0,1-10.278-3.143c-6.068-2.107-12.163-4.178-18.116-6.578-4.284-1.727-8.382-3.934-12.524-6-2.185-1.088-4.353-2.232-6.425-3.518a68.646,68.646,0,0,1-8.34-5.615,27.383,27.383,0,0,1-4.82-5.98c-.458-.7,0-1.979,0-2.994,0-.42-.112-.84-.142-1.26-.313-4.488-1.166-9.023-.764-13.445a42.51,42.51,0,0,1,3.312-11.984,101.735,101.735,0,0,1,6.9-13.693,84.408,84.408,0,0,1,7.779-10.512,58.468,58.468,0,0,1,7.405-7.451,54.414,54.414,0,0,1,14.237-8.2,96.412,96.412,0,0,1,10.442-3.6c6.593-1.857,13.253-3.463,19.868-5.242,7.013-1.885,11.656-6.781,14.635-12.975a39.959,39.959,0,0,0,3.783-17.971c-.024-1.691-.475-2.256-2.185-2.271-4.7-.037-9.411-.141-14.1-.457-2.278-.152-4.851-.3-6.685-1.434a7.839,7.839,0,0,0-4.442-1.119q-2.766-.032-5.522-.021-2.073.006-4.138,0c-3.448,0-6.9,0-10.339.121-4.438.152-8.872.51-13.3.877-3.11.254-6.116.959-7.936,3.83a51.228,51.228,0,0,0-2.757,5.238c-1.873,3.887-3.553,7.875-5.57,11.686-2.356,4.447-5.149,8.666-7.465,13.131-3.511,6.771-6.71,13.707-10.158,20.516-4.192,8.285-8.542,16.494-12.748,24.771q-6.338,12.472-12.516,25.018c-2.479,5.035-4.825,10.133-7.227,15.2-2.529,5.342-4.968,10.732-7.6,16.021-2.361,4.746-4.968,9.367-7.412,14.072-3.375,6.484-6.7,13-10.048,19.5-2.1,4.086-4.279,8.135-6.271,12.275-3.413,7.111-6.654,14.307-10.076,21.412-2.722,5.662-5.817,11.156-8.366,16.893-2.87,6.451-5.332,13.086-7.932,19.654a5.231,5.231,0,0,0,2.922,6.648,17.737,17.737,0,0,0,4.54.922c2.546.184,5.107.07,7.654.2,3.056.158,6.1.615,9.153.631,4.47.027,8.942-.295,13.416-.34,1.632-.018,3.27.037,4.9.09,1.664.059,3.331.115,4.993.1,5.778-.062,11.557-.4,17.332-.357,8.515.066,17.029.418,25.544.551,4.016.061,8.033-.139,12.051-.143,2.2,0,4.4.025,6.6.051,2.608.035,5.22.066,7.83.051,3.561-.021,7.123-.285,10.681-.285Q-4276.881-8729.41-4276.212-8729.4Zm-15.058-180.969a71.982,71.982,0,0,0-6.122,9.922,110.6,110.6,0,0,0-5.435,11.443,23.411,23.411,0,0,0-1.61,7.414c-.295,6.043-.233,12.1-.321,18.508.37.342,1.1,1.072,1.886,1.732,4.007,3.385,8.616,5.795,13.246,8.166,3.162,1.621,6.315,3.287,9.566,4.711,3.91,1.715,7.907,3.232,11.894,4.758,2.872,1.1,5.759,2.18,8.7,3.07,4.7,1.424,9.44,2.738,14.2,3.984,3.058.8,6.147,1.549,9.269,2.041,3.959.625,7.962,1.033,11.955,1.426,5.368.525,10.759,1.42,16.117,1.289,5.673-.143,11.391.229,17.057-.828,3.325-.621,6.793-.453,10.144-.982,5.766-.91,11.538-1.869,17.21-3.225a99.709,99.709,0,0,0,13.9-4.35c5.678-2.27,11.261-4.844,16.691-7.658,5.389-2.791,10.575-5.988,15.765-9.154,1.063-.646,2.37-1.871,2.459-2.926.2-2.326-.382-4.711-.5-7.08-.295-5.84-.366-11.693-.8-17.52-.312-4.178-.512-8.5-1.774-12.441a120.815,120.815,0,0,0-6.814-15.789c-.986-2.02-4.009-2.732-4.073-5.562-5.788-6.287-13.092-10.01-21.148-12.453-1.4-.424-2.44-.32-3,1.281a12.488,12.488,0,0,1-1.388,2.658c-5.8,8.859-13.579,15.678-22.5,21.191a70.731,70.731,0,0,1-11.158,5.445,90.656,90.656,0,0,1-12.415,3.916c-6.735,1.592-13.606,1.572-20.513,1.207a81.474,81.474,0,0,1-18.646-3.5,89.741,89.741,0,0,1-11.619-4.377c-4.295-1.937-8.518-4.084-12.6-6.43a56.724,56.724,0,0,1-14.954-12.393A60.407,60.407,0,0,0-4291.27-8910.367Zm13.2-13.1a7.273,7.273,0,0,0,.927.992c4.549,3.354,8.919,7,13.721,9.943a73.625,73.625,0,0,0,14.657,7.25,216.8,216.8,0,0,0,22.975,6.031,40.742,40.742,0,0,0,12.163,1.023,118.906,118.906,0,0,0,18.992-3.2,68.115,68.115,0,0,0,14.7-5.77,71.263,71.263,0,0,0,17.2-13.393,43.311,43.311,0,0,0,8.642-12.357c-3.363-.908-3.128-.734-5.047,1.846a72.1,72.1,0,0,1-7.876,9.025c-2.457,2.354-5.424,4.182-8.16,6.24a57.846,57.846,0,0,1-17.022,8.465,163.319,163.319,0,0,1-18.474,4.574,51.3,51.3,0,0,1-18.532-.018c-7.2-1.186-14.235-2.975-20.8-6.4-6.867-3.584-13.5-7.457-19.136-12.838-1.48-1.412-2.874-2.912-4.32-4.383C-4275.017-8925.432-4276.488-8924.484-4278.067-8923.469Zm59.546-47.574a32.756,32.756,0,0,1-.791,14.234c-2.749,9.414-8.986,15.719-18.258,18.8-4.62,1.539-9.434,2.5-14.146,3.785-3.9,1.063-7.815,2.1-11.658,3.365-2.385.783-4.646,1.961-7.222,3.072,19.614,16.828,41.6,25.428,67.017,20.238,17.664-3.609,33.021-12.285,44.345-27.094-2.761-.844-5.295-1.672-7.857-2.381a43.335,43.335,0,0,1-15.311-7.193c-7.211-5.543-11.025-12.574-11.1-21.652-.013-1.613,0-3.225,0-5.115-8.814,2.762-17.091,2.348-25.182-2.1C-4218.615-8972.172-4218.607-8971.6-4218.521-8971.043Zm-28.6-70.592c-.148.129-.086.547-.054.822.706,6.428,1.258,12.869,2.2,19.262a68.109,68.109,0,0,0,2.533,9.441,63.551,63.551,0,0,0,10.326,21.078c2.16,2.781,4.1,5.777,7.168,7.822,1.8,1.2,3.083,3.154,4.823,4.479a30.771,30.771,0,0,0,11.646,5.715c5.942,1.385,11.677.076,16.863-2.721a52.276,52.276,0,0,0,15.43-12.814,96.6,96.6,0,0,0,5.869-8.746,85.038,85.038,0,0,0,8.368-17.32,78.439,78.439,0,0,0,3.728-15.039c.918-5.975,1.132-12.055,1.664-18.215-1.061,0-1.626-.025-2.19,0-2.5.129-4.444-.518-5.506-3.109a15.151,15.151,0,0,0-2.317-3.092c-.081.055-.165.113-.246.17a24.206,24.206,0,0,1,1.682,3.59,2.328,2.328,0,0,1-.528,2.094,11.389,11.389,0,0,1-3.45,1.27c-3.929.934-7.85,1.943-11.823,2.631a40.787,40.787,0,0,1-8.965.752,85.851,85.851,0,0,1-9.862-1.6c.179-2.789.347-5.441.515-8.09a3.024,3.024,0,0,0-1.371,1.582c-.856,2.121-1.623,4.279-2.546,6.367a2.286,2.286,0,0,1-1.383,1.176,87.772,87.772,0,0,1-9.413,1.887c-4.339.506-8.715.811-13.083.889-3.05.063-6.111-.383-9.166-.621-3.885-.3-6.23-1.744-6.826-4.383a21.354,21.354,0,0,1-.215-3.619C-4244.58-9047.16-4244.618-9043.859-4247.117-9041.635Zm16.063-27.852c-2.2,3.432-4.668,7-6.84,10.742-2.255,3.887-2.613,8.221-2.4,12.705,11.8,1.8,23.442,1.643,35.093.709a20.043,20.043,0,0,1,7.144-13.977c.487,2.609,1.013,4.594,1.19,6.609.187,2.131.042,4.291.042,6.572,9.906.9,19.527-1.381,29.033-4.289-.683-3.883-3.764-5.795-6.2-8.414,4.929-.275,10.492,3.555,13.746,9.2a31.837,31.837,0,0,0,13.492-3.326,73.9,73.9,0,0,0-2.7-8.811,96.074,96.074,0,0,0-6.687-13.031c-2.021-3.148-4.923-5.74-7.47-8.545a44.338,44.338,0,0,0-16.054-11.551,44.066,44.066,0,0,0-18.685-3.111c-5.038.2-9.935.441-14.62,2.566a69.709,69.709,0,0,0-21.075,14.094c-5.718,5.73-9.663,12.576-13.052,19.723-2.72,5.734-5.212,11.516-9.931,16.439,2.99.184,5.608.346,8.188.5,2.97-12.293,12.24-24.811,17.738-24.811Zm6.917,376.4a74.718,74.718,0,0,0-8.012-.176c-2.248.111-3.667-1.174-5.455-1.732-2.289-.711-3.44-3.172-3.363-5.363a6.738,6.738,0,0,1,3.855-5.787c5.563-2.867,11.659-2.965,17.672-3.43,5.146-.393,10.3-.639,15.463-.863,1.521-.066,3.046-.053,4.574-.043,1.121.012,2.239.018,3.359,0,2.43-.045,4.912-.553,7.274-.2,3.806.57,7.84.76,10.889,3.715,1.717,1.664,2.279,6.266.665,8.07a11.872,11.872,0,0,1-7.264,3.939c-5.25.664-10.553.941-15.834,1.379-.012-.152-.023-.311-.036-.467-5.613.416-11.223,1.047-16.844,1.176-.343.008-.687.012-1.03.012C-4220.192-8692.859-4222.166-8692.973-4224.137-8693.086Zm-173.8-2.836c-1.58-.457-2.116-2.068-2.258-3.611-.131-1.424-.353-3.059,1.868-3.168a.679.679,0,0,0,.381-.146c.773-.656,1.6-1.939,2.288-1.867a27.951,27.951,0,0,1,5.272,1.561c-.366,1.27-.8,1.938-.667,2.459.554,2.2.154,3.494-2.456,3.234-.234-.023-.649.135-.709.3a2.038,2.038,0,0,1-2.062,1.533A6.137,6.137,0,0,1-4397.936-8695.922Zm310.3-2.787a4.9,4.9,0,0,1,2.778-5.342,14.38,14.38,0,0,0,1.715-.771,3.606,3.606,0,0,1,5.418,3.3,5.949,5.949,0,0,1-4.788,5.734.886.886,0,0,1-.167.014C-4083.981-8695.77-4087.386-8697.752-4087.634-8698.709Zm-295.853-.9c-.007-1.291,2.606-4.76,3.617-4.795,2.333-.078,4.6,1.42,4.6,3.039-.1,2.635-2.554,5.523-4.041,5.525A4.04,4.04,0,0,1-4383.486-8699.607Zm48.686,2.088a6.258,6.258,0,0,1-1.24-2.986c-.231-2.072,2.65-4.693,4.968-4.744,1.659-.031,4.679,2.908,4.675,4.553a3.44,3.44,0,0,1-3.215,3.7,5.332,5.332,0,0,1-2.623.861A3.154,3.154,0,0,1-4334.8-8697.52Zm-33.116-3.023c.016-1.5,2.28-4.23,3.526-4.244,1.595-.021,4.643,2.186,4.685,3.393a4.841,4.841,0,0,1-4.491,5.205h-.02C-4366.212-8696.189-4367.937-8698.215-4367.917-8700.543Zm15.833,2.939c-2.424-1.842-1.38-3.646-.6-5.3a4.538,4.538,0,0,1,4.55-2.371c2.912.041,5.438,3.439,4.425,5.949-.7,1.736-2.989,2.633-5.133,2.633A5.452,5.452,0,0,1-4352.084-8697.6Zm35.921.785c-2.574-.57-3.309-2.029-2.694-4.766a5.058,5.058,0,0,1,2.786-3.146c3.693-1.268,3.882,1.99,4.781,4.455-1.412,1.061-2.19,3.529-4.24,3.529A2.975,2.975,0,0,1-4316.163-8696.818Zm257.572-5.264c.469-1.246,2.106-2.01,3.092-3.1a2.16,2.16,0,0,1,3.43-.168,30.561,30.561,0,0,1,2.451,2.715c.025,1.594-2.974,5.395-3.973,5.619a4.049,4.049,0,0,1-.847.092C-4057.1-8696.928-4059.538-8699.576-4058.591-8702.082Zm26.6,2.432c.164-.768-.77-2.15-.456-2.437a20.119,20.119,0,0,1,4.522-3.166c2.287-1.129,2.263,1.967,3.785,2.438a12.213,12.213,0,0,1-.177,1.9c-.144,3.432-2.823,3.434-5.2,3.955C-4030.971-8697.3-4032.475-8697.389-4031.99-8699.65Zm-69.12.4a6.94,6.94,0,0,0-.681-1.012c.644-1.486,1.227-2.809,1.789-4.141a3.642,3.642,0,0,1,5.535-.963c2.7,2.883,1.929,6.684-1.669,8.227a1.453,1.453,0,0,1-.57.1C-4098.105-8697.043-4100.615-8698.238-4101.11-8699.252Zm61.076,2.193c-2.914-.1-4.447-1.207-4.382-3.15.081-2.453,2.017-4.877,3.882-4.859,3,.023,4.4,1.158,4.331,3.527-.038,1.377-2.689,4.482-3.811,4.482Zm-27.6,0c-1.988-.01-4.031-1.926-3.944-3.7.144-3.012,2.221-5.451,4.569-5.361,1.853.072,3.545,2.482,3.516,5.018-.014,1.3-2.815,4.041-4.134,4.041Zm-222.142-126.674c2.759,1.811,5.5,3.637,8.275,5.422a131.527,131.527,0,0,0,28.865,13.9,101.947,101.947,0,0,0,22.936,4.982c4.174.412,8.317,1.125,12.472,1.727a11.38,11.38,0,0,1,1.585.477q-2.975.158-5.893.158C-4247.5-8797.062-4270.1-8806.4-4289.781-8823.732Zm56.377,11.506c-1.3-.395-2.584-.836-3.874-1.252,38.8,6.811,75.522-.5,111.314-15.639-.7.471-1.394.949-2.1,1.4s-1.446.928-2.2,1.328a142.085,142.085,0,0,1-29.619,11.721c-4.231,1.125-8.433,2.416-12.72,3.271-4.058.811-8.2,1.219-12.323,1.684-5.046.566-10.1,1.324-15.167,1.439-1.181.029-2.364.041-3.543.041A102.153,102.153,0,0,1-4233.4-8812.227Zm139.1-17.32c-8.189,8.756-18.612,13.717-29.761,17.377A194.462,194.462,0,0,0-4094.3-8829.547Zm-185.747-2.908c-6.794-2.371-13.637-4.648-20.247-7.463a48.355,48.355,0,0,1-14.35-8.729,15.118,15.118,0,0,1-5.116-10.994c-.024-2.357.931-4.736,1.532-7.082a10.792,10.792,0,0,1,.989-2.02c.315.283.633.57.948.855,0,1.895.035,3.789-.007,5.684a17.09,17.09,0,0,0,7.12,14.584c7.779,5.869,16.667,9.732,25.783,13.043,3.49,1.266,7.042,2.365,10.5,3.893C-4275.291-8831.262-4277.745-8831.648-4280.052-8832.455Zm61.538-163.152c.069-.244.142-.5.21-.746,4.544.457,9.1,1.387,13.625,1.24,4.546-.148,9.063-1.371,13.554-2.115-.361,2.537-6.708,5.658-9.744,5.963a50.151,50.151,0,0,1-5.031.3C-4210.526-8990.969-4214.892-8991.947-4218.514-8995.607Z" transform="matrix(0.966, -0.259, 0.259, 0.966, 7967.959, 10092.32)" fill="#c8c8c8" stroke="rgba(0,0,0,0)" stroke-width="1"/>
  </g>
</svg>
