<svg xmlns="http://www.w3.org/2000/svg" xmlns:xlink="http://www.w3.org/1999/xlink" width="210.865" height="214.521" viewBox="0 0 210.865 214.521">
  <g id="Group_236" data-name="Group 236" transform="translate(-189.989 -8367.829)">
    <g id="Group_125" data-name="Group 125" transform="translate(189.989 8367.829)">
      <g id="Group_124" data-name="Group 124" transform="translate(0 0)" >
        <path id="Path_8736" data-name="Path 8736" d="M156.735,210.283c-5,1.252-9.928.221-14.281-.688-2.326-.486-5.511-1.152-6.738-.844s-3.722,2.4-5.544,3.923c-3.407,2.855-7.27,6.091-12.264,7.343a16.938,16.938,0,0,1-3.736.509c-7,.156-12.368-3.977-16.681-7.3-1.711-1.318-4.3-3.309-5.371-3.53-1.136-.236-4.357.572-5.733.917l-1.614.408c-4.355,1.092-10.937,2.742-17.176-.106-6.3-2.874-9.321-8.877-11.753-13.7-.986-1.957-2.476-4.913-3.394-5.613-.9-.684-4.125-1.334-6.259-1.763-5.314-1.07-11.927-2.4-16.382-7.743-4.4-5.272-4.522-11.96-4.624-17.333-.044-2.35-.1-5.57-.656-6.658-.476-.938-3.154-2.966-4.755-4.177-4.353-3.294-9.769-7.393-11.483-14.229s1.128-13.005,3.412-17.962c.84-1.824,2.246-4.875,2.222-5.926-.027-1.22-1.493-4.087-2.564-6.181-2.446-4.786-5.491-10.742-4.1-17.464,1.407-6.812,6.61-11.105,10.791-14.556,1.679-1.385,4.218-3.481,4.686-4.508.48-1.05.4-4.36.346-6.55-.133-5.4-.3-12.122,3.9-17.624,4.158-5.453,10.734-7.1,15.086-8.193l1.636-.409c1.372-.344,4.586-1.15,5.476-1.892.842-.7,2.182-3.678,3.07-5.646,2.235-4.963,5.017-11.137,11.264-14.305a16.938,16.938,0,0,1,3.534-1.313c5-1.252,9.927-.221,14.278.689,2.327.486,5.512,1.151,6.739.844s3.721-2.4,5.544-3.923c3.407-2.855,7.27-6.091,12.265-7.344a16.925,16.925,0,0,1,3.735-.509c7-.154,12.369,3.978,16.681,7.3,1.711,1.317,4.3,3.308,5.372,3.53,1.136.236,4.361-.573,5.737-.918l1.6-.4c4.358-1.093,10.945-2.744,17.185.1,6.294,2.873,9.319,8.876,11.751,13.7.986,1.957,2.477,4.914,3.395,5.614.9.684,4.126,1.334,6.259,1.765,5.314,1.069,11.926,2.4,16.381,7.741,4.4,5.272,4.522,11.96,4.623,17.333.045,2.351.1,5.571.656,6.658.476.94,3.155,2.966,4.756,4.178,4.353,3.293,9.769,7.393,11.483,14.228s-1.128,13.006-3.412,17.964c-.839,1.823-2.246,4.875-2.222,5.926.027,1.22,1.493,4.087,2.563,6.182,2.446,4.786,5.49,10.741,4.1,17.464-1.409,6.811-6.612,11.105-10.793,14.555-1.68,1.387-4.219,3.481-4.687,4.508-.479,1.049-.4,4.359-.344,6.55.132,5.4.3,12.122-3.9,17.625-4.157,5.455-10.744,7.106-15.1,8.2l-1.6.4c-1.377.345-4.6,1.154-5.494,1.9-.84.7-2.18,3.676-3.067,5.644-2.237,4.963-5.019,11.139-11.267,14.306a16.9,16.9,0,0,1-3.532,1.313" transform="translate(-6.461 -6.465)" fill="#f4f2f2"/>
        <path id="Path_8737" data-name="Path 8737" d="M156.735,210.283c-5,1.252-9.928.221-14.281-.688-2.326-.486-5.511-1.152-6.738-.844s-3.722,2.4-5.544,3.923c-3.407,2.855-7.27,6.091-12.264,7.343a16.938,16.938,0,0,1-3.736.509c-7,.156-12.368-3.977-16.681-7.3-1.711-1.318-4.3-3.309-5.371-3.53-1.136-.236-4.357.572-5.733.917l-1.614.408c-4.355,1.092-10.937,2.742-17.176-.106-6.3-2.874-9.321-8.877-11.753-13.7-.986-1.957-2.476-4.913-3.394-5.613-.9-.684-4.125-1.334-6.259-1.763-5.314-1.07-11.927-2.4-16.382-7.743-4.4-5.272-4.522-11.96-4.624-17.333-.044-2.35-.1-5.57-.656-6.658-.476-.938-3.154-2.966-4.755-4.177-4.353-3.294-9.769-7.393-11.483-14.229s1.128-13.005,3.412-17.962c.84-1.824,2.246-4.875,2.222-5.926-.027-1.22-1.493-4.087-2.564-6.181-2.446-4.786-5.491-10.742-4.1-17.464,1.407-6.812,6.61-11.105,10.791-14.556,1.679-1.385,4.218-3.481,4.686-4.508.48-1.05.4-4.36.346-6.55-.133-5.4-.3-12.122,3.9-17.624,4.158-5.453,10.734-7.1,15.086-8.193l1.636-.409c1.372-.344,4.586-1.15,5.476-1.892.842-.7,2.182-3.678,3.07-5.646,2.235-4.963,5.017-11.137,11.264-14.305a16.938,16.938,0,0,1,3.534-1.313c5-1.252,9.927-.221,14.278.689,2.327.486,5.512,1.151,6.739.844s3.721-2.4,5.544-3.923c3.407-2.855,7.27-6.091,12.265-7.344a16.925,16.925,0,0,1,3.735-.509c7-.154,12.369,3.978,16.681,7.3,1.711,1.317,4.3,3.308,5.372,3.53,1.136.236,4.361-.573,5.737-.918l1.6-.4c4.358-1.093,10.945-2.744,17.185.1,6.294,2.873,9.319,8.876,11.751,13.7.986,1.957,2.477,4.914,3.395,5.614.9.684,4.126,1.334,6.259,1.765,5.314,1.069,11.926,2.4,16.381,7.741,4.4,5.272,4.522,11.96,4.623,17.333.045,2.351.1,5.571.656,6.658.476.94,3.155,2.966,4.756,4.178,4.353,3.293,9.769,7.393,11.483,14.228s-1.128,13.006-3.412,17.964c-.839,1.823-2.246,4.875-2.222,5.926.027,1.22,1.493,4.087,2.563,6.182,2.446,4.786,5.49,10.741,4.1,17.464-1.409,6.811-6.612,11.105-10.793,14.555-1.68,1.387-4.219,3.481-4.687,4.508-.479,1.049-.4,4.359-.344,6.55.132,5.4.3,12.122-3.9,17.625-4.157,5.455-10.744,7.106-15.1,8.2l-1.6.4c-1.377.345-4.6,1.154-5.494,1.9-.84.7-2.18,3.676-3.067,5.644-2.237,4.963-5.019,11.139-11.267,14.306A16.9,16.9,0,0,1,156.735,210.283Z" transform="translate(-6.461 -6.465)" fill="none" stroke="#16161c" stroke-width="1"/>
        <path id="Path_8738" data-name="Path 8738" d="M399.051,1758.056a3.032,3.032,0,0,1-3.648-2.7,4.913,4.913,0,0,1-.041-.967l-2.64.395-.19-1.269,8.885-1.328.332,2.221a3.031,3.031,0,0,1-2.7,3.648m1.43-3.458-.142-.952-3.668.548a4.259,4.259,0,0,0,0,.973,1.925,1.925,0,0,0,3.808-.569" transform="translate(-366.698 -1636.866)"/>
        <path id="Path_8739" data-name="Path 8739" d="M385.928,1678.875l-.09-1.28,1.28-.09.089,1.28Zm5.716-1.043.045.64,1.92-.134-.089-1.28,1.28-.089.268,3.841-1.28.09-.089-1.28-1.92.134-.045-.64-1.92.134.089,1.28-1.28.09-.179-2.561Z" transform="translate(-360.444 -1566.597)"/>
        <path id="Path_8740" data-name="Path 8740" d="M431.906,1585.351l-1.6-.026s1.3-.942,1.314-1.9a1.175,1.175,0,0,0-1.262-1.3l-.8-.013a6.282,6.282,0,0,1,.133,1.286,2.888,2.888,0,0,1-5.775-.094l.042-2.567,6.416.1a2.351,2.351,0,0,1,2.525,2.608,2.406,2.406,0,0,1-.994,1.909m-3.5-1.982a6.991,6.991,0,0,0-.159-1.286l-3.028-.049-.021,1.283a1.6,1.6,0,1,0,3.208.052" transform="translate(-396.016 -1476.693)"/>
        <path id="Path_8741" data-name="Path 8741" d="M388.551,1507.059l.11-1.279,1.279.11-.11,1.279Zm7.782-.62.11-1.279,1.279.11-.33,3.836-1.279-.11.11-1.279-3.836-.33-.11,1.279-1.279-.11.22-2.557Z" transform="translate(-362.978 -1406.098)"/>
        <path id="Path_8742" data-name="Path 8742" d="M404.764,1431.1l-3.176-.456-.182,1.27-1.27-.182.182-1.27-1.27-.182-1.088-1.453,2.541.365.273-1.906,1.27.182-.273,1.906,3.176.456c.635.091.681-.226.726-.544a3.32,3.32,0,0,0-.135-1.316l1.27.182a3.318,3.318,0,0,1,.135,1.316,1.7,1.7,0,0,1-2.179,1.632" transform="translate(-371.767 -1333.349)"/>
        <path id="Path_8743" data-name="Path 8743" d="M455.234,1323.7a2.963,2.963,0,0,1-2.465-3.544c.293-1.25,1.377-1.655,2.939-1.288l-2.5-.586.293-1.25,6.248,1.465-.293,1.25-2.5-.586c1.562.366,2.353,1.211,2.059,2.46a2.963,2.963,0,0,1-3.783,2.079m2.607-2.684c.22-.937-.258-1.708-1.508-2s-2.021.185-2.241,1.122a1.925,1.925,0,0,0,3.749.879" transform="translate(-422.898 -1230.347)"/>
        <path id="Path_8744" data-name="Path 8744" d="M442.846,1227.105l-.4,1.221-1.221-.4.793-2.441,2.441.793-.2.61,3.051.991-.2.61,1.831.595.4-1.221,1.221.4-1.19,3.662-1.221-.4.4-1.221-1.831-.595.2-.61-3.051-.991.2-.61Z" transform="translate(-412.189 -1144.832)"/>
        <path id="Path_8745" data-name="Path 8745" d="M500.222,1118.84l-2.924-1.321-.528,1.169-1.17-.528.528-1.17-1.17-.528-.641-1.7,2.339,1.057.793-1.754,1.17.528-.793,1.754,2.924,1.321c.585.264.717-.028.849-.321a3.319,3.319,0,0,0,.236-1.3l1.17.528a3.317,3.317,0,0,1-.236,1.3,1.7,1.7,0,0,1-2.547.962" transform="translate(-461.784 -1040.744)"/>
        <path id="Path_8746" data-name="Path 8746" d="M571.59,1009.187c.629-1.119,1.782-1.206,3.181-.42l-2.238-1.258.629-1.119,2.8,1.573-.315.559,2.8,1.573-.629,1.119-2.238-1.258c1.4.786,1.923,1.817,1.294,2.936a2.963,2.963,0,0,1-4.212.945l.315-.559a2.962,2.962,0,0,1-1.382-4.09m4.318,2.8c.472-.839.227-1.713-.892-2.342l.315-.559c-1.119-.629-1.993-.384-2.464.455a1.849,1.849,0,0,0,.735,2.622l-.314.559a1.849,1.849,0,0,0,2.622-.735" transform="translate(-533.628 -940.154)"/>
        <path id="Path_8747" data-name="Path 8747" d="M583.588,946.34l.72-1.063-5.313-3.6-.72,1.063-1.063-.72,1.439-2.125,6.376,4.318.72-1.063,1.063.72-2.159,3.188Z" transform="translate(-539.223 -878.037)"/>
        <path id="Path_8748" data-name="Path 8748" d="M672.149,880.127a2.963,2.963,0,0,1,4.309-.254l.251.2-2.787,3.49a1.842,1.842,0,0,0,2.439-.483,2.811,2.811,0,0,0,.7-1.9l1,.8a2.81,2.81,0,0,1-.7,1.9,3.032,3.032,0,0,1-4.51.5,2.963,2.963,0,0,1-.705-4.259m2.967.4a1.566,1.566,0,0,0-1.922,2.407Z" transform="translate(-627.334 -821.214)"/>
        <path id="Path_8749" data-name="Path 8749" d="M727.7,797.122l2.777,2.667-.889.926-2.314-2.223c-.926-.889-1.833-.871-2.5-.177s-.649,1.6.277,2.491l2.314,2.223-.889.926-4.628-4.445.889-.926,1.851,1.778a2.266,2.266,0,1,1,3.112-3.239" transform="translate(-674.34 -743.871)"/>
        <path id="Path_8750" data-name="Path 8750" d="M797.5,723.155l-2.133-2.4-.959.853-.853-.959.959-.853-.853-.959.106-1.812,1.706,1.918,1.438-1.28.853.959-1.438,1.28,2.133,2.4c.427.479.666.266.906.053a3.32,3.32,0,0,0,.745-1.093l.853.959a3.318,3.318,0,0,1-.745,1.093,1.7,1.7,0,0,1-2.718-.158" transform="translate(-741.328 -669.836)"/>
        <path id="Path_8751" data-name="Path 8751" d="M910.738,641.4a2.963,2.963,0,0,1,.55-4.281c1.056-.73,2.131-.3,3.043,1.016l-1.46-2.111,1.055-.73,3.65,5.277-1.055.73-1.46-2.111c.913,1.319.932,2.476-.123,3.206a2.963,2.963,0,0,1-4.2-1m3.734-.242c.792-.548.954-1.44.224-2.5s-1.623-1.218-2.414-.671a1.925,1.925,0,0,0,2.19,3.167" transform="translate(-850.18 -593.481)"/>
        <path id="Path_8752" data-name="Path 8752" d="M1005.566,592.857l-.788-1.4s1.469.645,2.307.173a1.175,1.175,0,0,0,.488-1.748l-.391-.693a6.284,6.284,0,0,1-1.042.764,2.888,2.888,0,0,1-2.836-5.031l2.236-1.26,3.151,5.59a2.351,2.351,0,0,1-.976,3.5,2.406,2.406,0,0,1-2.15.107m-.056-4.02a6.99,6.99,0,0,0,1.03-.787l-1.487-2.639-1.118.63a1.6,1.6,0,0,0,1.575,2.8" transform="translate(-935.894 -545.25)"/>
        <path id="Path_8753" data-name="Path 8753" d="M1098.209,548.527a2.963,2.963,0,0,1,3.955,1.73l.132.292-4.653,2.108a1.842,1.842,0,0,0,2.392.677,2.811,2.811,0,0,0,1.489-1.379l.53,1.169a2.811,2.811,0,0,1-1.489,1.379,3.031,3.031,0,0,1-4.247-1.6l.584-.265a2.963,2.963,0,0,1,1.306-4.114m2.462,1.7a1.566,1.566,0,0,0-2.806,1.271Z" transform="translate(-1024.164 -512.186)"/>
        <path id="Path_8754" data-name="Path 8754" d="M1187.855,507.851a2.289,2.289,0,0,1,2.962,1.692l.21.606-.607.21,1.049,3.032-1.213.42-1.049-3.032.607-.21c-.42-1.213-1.236-1.61-2.145-1.3s-1.306,1.131-.887,2.344l-.607.21,1.049,3.032-1.213.419-1.049-3.032.606-.21L1184.519,509l1.213-.419.839,2.426a2.288,2.288,0,0,1,1.284-3.16" transform="translate(-1106.559 -474.304)"/>
        <path id="Path_8755" data-name="Path 8755" d="M1292.563,480.159a3.894,3.894,0,0,1,1.634-.078l.311,1.245a6.53,6.53,0,0,0-1.634.077,1.849,1.849,0,0,0-1.4,2.334l-.623.156a1.849,1.849,0,0,0,2.334,1.4,6.523,6.523,0,0,0,1.479-.7l.311,1.245a3.893,3.893,0,0,1-1.479.7,3.031,3.031,0,0,1-3.891-2.335l.623-.156a3.031,3.031,0,0,1,2.335-3.891" transform="translate(-1204.729 -448.437)"/>
        <path id="Path_8756" data-name="Path 8756" d="M1374.423,469.766l-.206-1.267a4.438,4.438,0,0,0,2.32.273,1.516,1.516,0,0,0,1.326-1.841l-.361-2.217a1.925,1.925,0,1,1-3.8.618l-.618-3.8,1.267-.206.515,3.167a1.283,1.283,0,0,0,2.534-.412l-.515-3.167,1.267-.206.979,6.017a2.876,2.876,0,0,1-2.387,3.314,4.439,4.439,0,0,1-2.32-.273" transform="translate(-1282.713 -430.386)"/>
        <path id="Path_8757" data-name="Path 8757" d="M1673.363,424.839l1.276.138-.138,1.276-1.276-.138Zm.553-5.1,1.276.138-.138,1.276-1.276-.138Zm2,5.38-1.276-.138.138-1.276,1.276.138.138-1.276-1.276-.138.138-1.276,1.276.138.276-2.552,1.276.138-.276,2.552,1.276.138-.138,1.276-1.276-.138-.138,1.276,1.276.138-.138,1.276-1.276-.138-.276,2.552-1.276-.138Zm2.552.276,1.276.138-.138,1.276-1.276-.138Zm.553-5.1,1.276.138-.138,1.276-1.276-.138Z" transform="translate(-1563.1 -391.177)"/>
        <path id="Path_8758" data-name="Path 8758" d="M1976.659,510.429a3.031,3.031,0,0,1,4.171-1.787,4.913,4.913,0,0,1,.855.453l.992-2.478,1.192.477-3.338,8.341-2.085-.834a3.031,3.031,0,0,1-1.787-4.171m2.264,2.979.894.358,1.378-3.444a4.262,4.262,0,0,0-.841-.489,1.925,1.925,0,1,0-1.43,3.575" transform="translate(-1846.307 -473.274)"/>
        <path id="Path_8759" data-name="Path 8759" d="M2058.975,548.3l-.575-.285-.855,1.725,1.15.57-.57,1.15-3.45-1.709.57-1.15,1.15.57.854-1.725.575.285.854-1.725-1.15-.57.57-1.15,2.3,1.139Zm1.988-5.46,1.15.57-.57,1.15-1.15-.57Z" transform="translate(-1919.446 -507.113)"/>
        <path id="Path_8760" data-name="Path 8760" d="M2118,617.935l.823-1.377s.168,1.6.994,2.089a1.175,1.175,0,0,0,1.76-.443l.409-.683A6.284,6.284,0,0,1,2120.8,617a2.888,2.888,0,0,1,2.964-4.957l2.2,1.317-3.293,5.508a2.351,2.351,0,0,1-3.521.886,2.406,2.406,0,0,1-1.158-1.814m3.463-2.042a7,7,0,0,0,1.194.5l1.554-2.6-1.1-.659a1.6,1.6,0,0,0-1.647,2.754" transform="translate(-1978.6 -571.37)"/>
        <path id="Path_8761" data-name="Path 8761" d="M2205.862,638.189l1.047.743-.743,1.046-3.139-2.229.743-1.046,1.046.743,2.229-3.139-1.046-.743.743-1.046,2.093,1.486Zm3.412-7.021,1.046.743-.743,1.046-1.046-.743Z" transform="translate(-2058.032 -589.627)"/>
        <path id="Path_8762" data-name="Path 8762" d="M2275.229,686.218l2-2.507-1-.8.8-1,1,.8.8-1,1.8-.2-1.6,2.005,1.5,1.2-.8,1-1.5-1.2-2,2.507c-.4.5-.15.7.1.9a3.32,3.32,0,0,0,1.2.551l-.8,1a3.319,3.319,0,0,1-1.2-.551,1.7,1.7,0,0,1-.3-2.706" transform="translate(-2124.984 -636.651)"/>
        <path id="Path_8763" data-name="Path 8763" d="M2331.446,762.667a2.963,2.963,0,0,1,4.3-.331c.929.885.729,2.025-.377,3.186l1.771-1.858.929.885-4.427,4.646-.929-.885,1.771-1.858c-1.107,1.162-2.235,1.416-3.165.53a2.963,2.963,0,0,1,.123-4.315m.995,3.607c.7.664,1.6.642,2.49-.287s.864-1.836.167-2.5a1.925,1.925,0,0,0-2.656,2.787" transform="translate(-2177.07 -711.436)"/>
        <path id="Path_8764" data-name="Path 8764" d="M2397.694,815.77l-.853-.959.959-.853,1.706,1.918-1.918,1.706-.427-.48-2.4,2.132-.427-.48-1.439,1.279.853.959-.959.853-2.559-2.877.959-.853.853.959,1.439-1.279.427.48,2.4-2.132.427.479Z" transform="translate(-2232.918 -760.387)"/>
        <path id="Path_8765" data-name="Path 8765" d="M2485.631,923.745l2.615-1.859-.744-1.046,1.046-.744.744,1.046,1.046-.744,1.79.3-2.092,1.487,1.115,1.569-1.046.744-1.115-1.569-2.615,1.859c-.523.372-.337.633-.151.895a3.317,3.317,0,0,0,1.005.86l-1.046.744a3.32,3.32,0,0,1-1-.86,1.7,1.7,0,0,1,.454-2.684" transform="translate(-2321.181 -859.539)"/>
        <path id="Path_8766" data-name="Path 8766" d="M2532.481,1018.5c.649,1.107.144,2.147-1.24,2.959l2.214-1.3.649,1.107-2.768,1.623-.325-.554-2.768,1.623-.649-1.107,2.214-1.3c-1.384.812-2.539.745-3.188-.362a2.963,2.963,0,0,1,1.306-4.114l.325.554a2.963,2.963,0,0,1,4.229.867m-4.59,2.321c.487.83,1.365,1.059,2.472.41l.324.554c1.107-.649,1.336-1.528.849-2.358a1.85,1.85,0,0,0-2.635-.687l-.324-.554a1.849,1.849,0,0,0-.687,2.635" transform="translate(-2359.964 -950.137)"/>
        <path id="Path_8767" data-name="Path 8767" d="M2565.333,1081.035l.555,1.157,5.786-2.774-.555-1.157,1.157-.555,1.11,2.314-6.943,3.329.555,1.157-1.157.555-1.665-3.472Z" transform="translate(-2395.412 -1006.776)"/>
        <path id="Path_8768" data-name="Path 8768" d="M2614.527,1180.577a2.963,2.963,0,0,1-1.956,3.848l-.3.115-1.606-4.167a1.842,1.842,0,0,0-.814,2.349,2.81,2.81,0,0,0,1.291,1.566l-1.2.462a2.811,2.811,0,0,1-1.291-1.566,3.032,3.032,0,0,1,1.84-4.148,2.963,2.963,0,0,1,4.033,1.541m-1.842,2.36a1.566,1.566,0,0,0-1.108-2.874Z" transform="translate(-2436.723 -1101.192)"/>
        <path id="Path_8769" data-name="Path 8769" d="M2635.272,1272.935l-3.705,1.047-.349-1.235,3.088-.872c1.235-.349,1.678-1.141,1.417-2.067s-1.054-1.369-2.289-1.021l-3.088.872-.349-1.235,6.176-1.744.349,1.235-2.47.7a2.266,2.266,0,1,1,1.221,4.323" transform="translate(-2456.902 -1183.313)"/>
        <path id="Path_8770" data-name="Path 8770" d="M2665.269,1367.835l3.147-.625-.25-1.259,1.259-.25.25,1.259,1.258-.25,1.509,1.009-2.518.5.375,1.888-1.259.25-.375-1.888-3.147.625c-.629.125-.567.439-.5.754a3.319,3.319,0,0,0,.565,1.2l-1.259.25a3.314,3.314,0,0,1-.564-1.2,1.7,1.7,0,0,1,1.513-2.263" transform="translate(-2488.38 -1275.817)"/>
        <path id="Path_8771" data-name="Path 8771" d="M2682.059,1496.954a2.962,2.962,0,0,1,3.411,2.645c.094,1.28-.819,1.99-2.419,2.108l2.56-.188.094,1.28-6.4.47-.094-1.28,2.56-.188c-1.6.118-2.607-.452-2.7-1.732a2.963,2.963,0,0,1,2.988-3.115m-1.685,3.341c.071.96.758,1.553,2.038,1.459s1.873-.781,1.8-1.741a1.925,1.925,0,1,0-3.84.282" transform="translate(-2502.738 -1398.421)"/>
        <path id="Path_8772" data-name="Path 8772" d="M2644.321,1606.5l1.6.027s-1.3.94-1.316,1.9a1.175,1.175,0,0,0,1.261,1.305l.8.014a6.27,6.27,0,0,1-.132-1.286,2.888,2.888,0,1,1,5.774.1l-.044,2.567-6.416-.11a2.35,2.35,0,0,1-2.522-2.61,2.406,2.406,0,0,1,1-1.908m3.5,1.985a7,7,0,0,0,.158,1.286l3.029.052.022-1.283a1.6,1.6,0,1,0-3.208-.055" transform="translate(-2469.352 -1499.945)"/>
        <path id="Path_8773" data-name="Path 8773" d="M2682.183,1707.947a2.963,2.963,0,0,1-3.491,2.54l-.319-.033.529-5.081a1.842,1.842,0,0,0-1.792,1.723,2.809,2.809,0,0,0,.439,1.981l-1.277-.133a2.812,2.812,0,0,1-.439-1.981,3.031,3.031,0,0,1,3.524-2.859l-.067.638a2.963,2.963,0,0,1,2.892,3.2m-2.713,1.266a1.566,1.566,0,0,0,.319-3.064Z" transform="translate(-2499.702 -1591.927)"/>
        <path id="Path_8774" data-name="Path 8774" d="M2659.874,1803.494a2.289,2.289,0,0,1-2.955,1.7l-.63-.125.125-.629-3.147-.624.25-1.259,3.147.624-.125.629c1.259.25,2.013-.255,2.2-1.2s-.317-1.7-1.576-1.948l.125-.629-3.147-.624.25-1.259,3.147.625-.125.629,3.147.624-.25,1.259-2.518-.5a2.289,2.289,0,0,1,2.081,2.7" transform="translate(-2478.64 -1679.807)"/>
        <path id="Path_8775" data-name="Path 8775" d="M2640.145,1911.607a3.89,3.89,0,0,1-.758,1.45l-1.232-.36a6.521,6.521,0,0,0,.757-1.45,1.849,1.849,0,0,0-1.309-2.387l.18-.616a1.85,1.85,0,0,0-2.388,1.309,6.538,6.538,0,0,0-.141,1.63l-1.232-.36a3.888,3.888,0,0,1,.142-1.63,3.031,3.031,0,0,1,3.979-2.181l-.18.616a3.031,3.031,0,0,1,2.181,3.979" transform="translate(-2460.634 -1781.353)"/>
        <path id="Path_8776" data-name="Path 8776" d="M2574.568,1971.188l1.2.462a4.44,4.44,0,0,0-1.406,1.865,1.516,1.516,0,0,0,.92,2.074l2.1.807a1.925,1.925,0,1,1,1.384-3.593l3.593,1.384-.461,1.2-2.994-1.154a1.284,1.284,0,0,0-.923,2.4l2.994,1.154-.461,1.2-5.688-2.192a2.876,2.876,0,0,1-1.656-3.733,4.441,4.441,0,0,1,1.406-1.865" transform="translate(-2403.624 -1841.453)"/>
        <path id="Path_8777" data-name="Path 8777" d="M2457.758,2251.5l-.766,1.03-1.03-.766.766-1.029Zm1.532-2.059.766-1.03,1.03.766-.766,1.03,1.03.766.766-1.03,1.03.766-.766,1.03,2.059,1.532-.766,1.03-2.06-1.532-.766,1.03-1.03-.766.766-1.03-1.03-.766-.766,1.03-1.03-.766.766-1.03-2.059-1.532.766-1.03Zm1.532-2.059-.766,1.03-1.03-.766.766-1.03Zm1.054,7.183-.766,1.03-1.03-.766.766-1.03Zm3.064-4.119-.766,1.03-1.03-.766.766-1.03Z" transform="translate(-2294.321 -2098.755)"/>
        <path id="Path_8778" data-name="Path 8778" d="M2240.4,2475.908a3.031,3.031,0,0,1-.562,4.5,4.916,4.916,0,0,1-.823.51l1.639,2.107-1.013.788-5.516-7.091,1.772-1.379a3.031,3.031,0,0,1,4.5.562m-3.714.451-.76.591,2.277,2.927a4.247,4.247,0,0,0,.846-.479,1.925,1.925,0,1,0-2.364-3.039" transform="translate(-2087.082 -2311.725)"/>
        <path id="Path_8779" data-name="Path 8779" d="M2173.6,2520.988l.536-.353-1.059-1.607-1.072.706-.706-1.072,3.215-2.119.706,1.072-1.072.706,1.06,1.608-.536.353,1.059,1.607,1.072-.706.706,1.072-2.143,1.412Zm3.714,4.469-1.072.706-.706-1.072,1.072-.707Z" transform="translate(-2028.394 -2350.915)"/>
        <path id="Path_8780" data-name="Path 8780" d="M2086.117,2538.144l.775,1.405s-1.463-.659-2.306-.195a1.175,1.175,0,0,0-.5,1.744l.384.7a6.279,6.279,0,0,1,1.05-.754,2.888,2.888,0,1,1,2.788,5.058l-2.248,1.239-3.1-5.62a2.35,2.35,0,0,1,1.009-3.487,2.406,2.406,0,0,1,2.151-.087m.018,4.021a7,7,0,0,0-1.037.777l1.463,2.652,1.124-.62a1.6,1.6,0,1,0-1.549-2.81" transform="translate(-1945.488 -2370.895)"/>
        <path id="Path_8781" data-name="Path 8781" d="M2021.809,2604.924l-1.169.529-.529-1.169,3.508-1.586.529,1.169-1.169.529,1.587,3.508,1.169-.529.529,1.169-2.339,1.058Zm4.342,6.487-1.169.529-.529-1.169,1.169-.529Z" transform="translate(-1887.156 -2431.399)"/>
        <path id="Path_8782" data-name="Path 8782" d="M1963.534,2642.1l1.153,2.994,1.2-.461.461,1.2-1.2.461.461,1.2-.736,1.659-.922-2.4-1.8.692-.461-1.2,1.8-.692-1.153-2.994c-.231-.6-.53-.484-.83-.368a3.319,3.319,0,0,0-1.082.76l-.461-1.2a3.318,3.318,0,0,1,1.082-.761,1.7,1.7,0,0,1,2.488,1.1" transform="translate(-1830.967 -2466.997)"/>
        <path id="Path_8783" data-name="Path 8783" d="M1864.973,2667.865a2.963,2.963,0,0,1-1.891,3.88c-1.234.354-2.116-.395-2.558-1.937l.708,2.467-1.234.354-1.769-6.168,1.234-.354.708,2.467c-.442-1.542-.091-2.644,1.143-3a2.963,2.963,0,0,1,3.66,2.288m-3.615-.966c-.925.265-1.365,1.059-1.011,2.293s1.147,1.674,2.073,1.408a1.925,1.925,0,1,0-1.061-3.7" transform="translate(-1735.928 -2490.035)"/>
        <path id="Path_8784" data-name="Path 8784" d="M1787.165,2692.013l1.259-.249.25,1.259-2.518.5-.5-2.518.63-.125-.624-3.147.629-.125-.374-1.888-1.259.25-.249-1.259,3.777-.748.25,1.259-1.259.249.374,1.889-.63.125.624,3.147-.63.125Z" transform="translate(-1666.967 -2507.314)"/>
        <path id="Path_8785" data-name="Path 8785" d="M1665.853,2709.044l.276,3.2,1.279-.11.11,1.279-1.279.111.11,1.279-1.168,1.389-.221-2.557-1.918.166-.11-1.279,1.918-.166-.276-3.2c-.055-.639-.375-.612-.694-.584a3.319,3.319,0,0,0-1.251.43l-.11-1.279a3.322,3.322,0,0,1,1.251-.43,1.7,1.7,0,0,1,2.083,1.752" transform="translate(-1553.098 -2529.097)"/>
        <path id="Path_8786" data-name="Path 8786" d="M1549.342,2716.014c-1.283-.021-1.909-.994-1.883-2.6l-.042,2.567-1.283-.021.052-3.208.642.01.052-3.208,1.283.021-.042,2.566c.026-1.6.683-2.556,1.966-2.535a2.963,2.963,0,0,1,2.835,3.255l-.642-.01a2.962,2.962,0,0,1-2.939,3.161m.4-5.128c-.963-.016-1.614.616-1.635,1.9l-.642-.01c-.021,1.283.61,1.935,1.573,1.951a1.85,1.85,0,0,0,1.956-1.894l.642.01a1.849,1.849,0,0,0-1.894-1.956" transform="translate(-1444.374 -2531.225)"/>
        <path id="Path_8787" data-name="Path 8787" d="M1484.863,2705.748l-1.279-.106-.528,6.4,1.279.105-.106,1.279-2.558-.211.634-7.675-1.279-.105.106-1.279,3.837.317Z" transform="translate(-1383.551 -2526.176)"/>
        <path id="Path_8788" data-name="Path 8788" d="M1377.786,2701.167a2.963,2.963,0,0,1-2.336-3.63l.051-.317,4.408.716a1.842,1.842,0,0,0-1.618-1.888,2.812,2.812,0,0,0-2,.325l.206-1.267a2.811,2.811,0,0,1,2-.324,3.031,3.031,0,0,1,2.653,3.681,2.963,2.963,0,0,1-3.365,2.7m-1.109-2.781a1.566,1.566,0,0,0,3.04.494Z" transform="translate(-1284.874 -2517.378)"/>
        <path id="Path_8789" data-name="Path 8789" d="M1271.394,2668.526l.966-3.727,1.242.322-.8,3.106c-.322,1.242.138,2.025,1.07,2.266s1.714-.219,2.036-1.461l.8-3.106,1.242.322-1.609,6.212-1.242-.322.644-2.485a2.266,2.266,0,1,1-4.348-1.126" transform="translate(-1187.609 -2489.413)"/>
        <path id="Path_8790" data-name="Path 8790" d="M1189.1,2646.938l-1.049,3.032,1.213.419-.419,1.213-1.213-.419-.419,1.213-1.632.793.839-2.426-1.819-.629.419-1.213,1.819.629,1.048-3.032c.21-.607-.094-.711-.4-.816a3.317,3.317,0,0,0-1.318-.116l.419-1.213a3.316,3.316,0,0,1,1.318.116,1.7,1.7,0,0,1,1.19,2.448" transform="translate(-1106.633 -2470.313)"/>
        <path id="Path_8791" data-name="Path 8791" d="M1051.111,2586.6a2.963,2.963,0,0,1-4.006,1.609c-1.152-.566-1.3-1.712-.6-3.153l-1.131,2.3-1.152-.565,2.827-5.761,1.152.565-1.13,2.3c.707-1.44,1.707-2.022,2.859-1.456a2.962,2.962,0,0,1,1.179,4.152m-2.033-3.142c-.864-.424-1.723-.13-2.288,1.021s-.272,2.011.592,2.435a1.925,1.925,0,1,0,1.7-3.457" transform="translate(-975.498 -2411.158)"/>
        <path id="Path_8792" data-name="Path 8792" d="M963.454,2514.53l-.836,1.369s-.152-1.6-.974-2.1a1.175,1.175,0,0,0-1.764.426l-.415.679a6.281,6.281,0,0,1,1.176.537,2.888,2.888,0,0,1-3.01,4.929l-2.19-1.338,3.345-5.477a2.35,2.35,0,0,1,3.528-.853,2.406,2.406,0,0,1,1.141,1.825m-3.482,2.009a6.97,6.97,0,0,0-1.189-.516l-1.579,2.584,1.1.669a1.6,1.6,0,1,0,1.672-2.738" transform="translate(-892.557 -2346.897)"/>
        <path id="Path_8793" data-name="Path 8793" d="M879.129,2492.828a2.963,2.963,0,0,1-.419-4.3l.191-.258,4.11,3.032a1.842,1.842,0,0,0-.576-2.418,2.81,2.81,0,0,0-1.93-.626l.762-1.033a2.812,2.812,0,0,1,1.93.627,3.031,3.031,0,0,1,.677,4.487l-.516-.381a2.963,2.963,0,0,1-4.228.867m.285-2.98a1.566,1.566,0,0,0,2.478,1.829Z" transform="translate(-820.204 -2323.521)"/>
        <path id="Path_8794" data-name="Path 8794" d="M793.985,2413.94a2.288,2.288,0,0,1,.028-3.41l.427-.479.479.427,2.133-2.4.959.853-2.133,2.4-.48-.427c-.853.959-.8,1.865-.081,2.5s1.625.587,2.478-.372l.479.427,2.133-2.4.959.853-2.133,2.4-.479-.427-2.133,2.4-.959-.853,1.706-1.917a2.289,2.289,0,0,1-3.384.424" transform="translate(-741.032 -2249.591)"/>
        <path id="Path_8795" data-name="Path 8795" d="M719.451,2354.752a3.892,3.892,0,0,1-.868-1.387l.933-.881a6.53,6.53,0,0,0,.868,1.387,1.85,1.85,0,0,0,2.721.078l.441.467a1.849,1.849,0,0,0,.078-2.721,6.535,6.535,0,0,0-1.335-.947l.933-.881a3.894,3.894,0,0,1,1.335.946,3.032,3.032,0,0,1-.131,4.536l-.44-.467a3.031,3.031,0,0,1-4.536-.131" transform="translate(-671.289 -2195.209)"/>
        <path id="Path_8796" data-name="Path 8796" d="M666.332,2269.655l-1,.8a4.439,4.439,0,0,0-.9-2.156,1.516,1.516,0,0,0-2.255-.252l-1.755,1.4a1.925,1.925,0,0,1,2.4,3.009l-3.009,2.4-.8-1,2.507-2a1.283,1.283,0,1,0-1.6-2.006l-2.507,2-.8-1,4.764-3.8a2.876,2.876,0,0,1,4.059.454,4.439,4.439,0,0,1,.9,2.156" transform="translate(-613.395 -2117.243)"/>
        <path id="Path_8797" data-name="Path 8797" d="M484.224,2019.359l.5,1.181-1.181.5-.5-1.181-1.181.5.5,1.181-1.181.5-.5-1.181-2.362,1.005-.5-1.181,2.362-1.005-.5-1.181,1.181-.5.5,1.181,1.181-.5-.5-1.181,1.181-.5.5,1.181,2.362-1.005.5,1.181Zm-5.729-.351-.5-1.181,1.181-.5.5,1.181Zm2.011,4.724-.5-1.181,1.181-.5.5,1.181Zm2.713-6.734-.5-1.181,1.181-.5.5,1.181Zm2.011,4.724-.5-1.181,1.181-.5.5,1.181Z" transform="translate(-446.369 -1882.674)"/>
        <circle id="Ellipse_35" data-name="Ellipse 35" cx="86.282" cy="86.282" r="86.282" transform="translate(19.15 20.978)" fill="none" stroke="#000" stroke-width="1"/>
        <circle id="Ellipse_36" data-name="Ellipse 36" cx="64.047" cy="64.047" r="64.047" transform="translate(41.386 43.214)" fill="none" stroke="#000" stroke-width="1"/>
      </g>
    </g>
    <g id="Group_127" data-name="Group 127" transform="translate(268.785 8437.105)">
      <g id="Group_126" data-name="Group 126" transform="translate(0 0)" clip-path="url(#clip-path-2)">
        <path id="Path_8798" data-name="Path 8798" d="M20.123,25.118c.2-1.079.376-2.163.616-3.231.511-2.27,1.095-4.524,1.579-6.8a45.283,45.283,0,0,1,3-8.943A15.077,15.077,0,0,1,29.019.871,3.59,3.59,0,0,1,32.31.091c2.481.441,3.708,2.008,4.336,4.291a19.82,19.82,0,0,1,.967,6.4,94.511,94.511,0,0,1-1.744,14.894c-.109.5-.169,1-.246,1.5,0,.029.041.065.063.1,5.128-1.316,6.347-.8,9.087,3.85a1.419,1.419,0,0,0,.321-.087,4.029,4.029,0,0,1,5.072.638,9.19,9.19,0,0,1,2.909,5.68,17.777,17.777,0,0,1-3.012,12.708,27.776,27.776,0,0,1-2.979,3.312c.1,1.331.193,2.7.311,4.065.088,1.016.168,2.035.322,3.041a16.219,16.219,0,0,1-.746,8.045,8.208,8.208,0,0,1-3.262,4.247c-4.247,2.769-8.8,3.937-13.861,2.69A15.834,15.834,0,0,0,22.92,75.4a17.893,17.893,0,0,1-8.217-.185c-5.543-1.488-8.741-5.159-9.759-10.721a47.571,47.571,0,0,1,1.522-23.95,3.089,3.089,0,0,0-.037-2.266Q4.262,32.7,2.218,27.083a41.483,41.483,0,0,1-1.969-7.79,18.06,18.06,0,0,1,.67-8.755c1-2.9,2.408-3.722,5.291-3.9,1.694-.106,2.978.907,4.16,1.99a24.559,24.559,0,0,1,5.176,7.167c1.552,3.058,3.026,6.155,4.578,9.326M27.1,53.947c-.978.37-1.858.707-2.742,1.035a1.171,1.171,0,0,1-1.389-.27c-.242-.443.027-.96.686-1.318.069-.038.14-.074.211-.107,1.286-.6,2.6-1.153,3.851-1.823,1.912-1.025,3.822-2.065,5.651-3.227a13.94,13.94,0,0,0,4.154-4,6.42,6.42,0,0,0,.983-5.362,1.625,1.625,0,0,0-.9-1.144,4.626,4.626,0,0,0-3.108-.218,44.28,44.28,0,0,0-17.726,6.939c-.162.109-.341.293-.5.283-.323-.02-.765-.055-.921-.263a1.036,1.036,0,0,1,.02-.941,2.332,2.332,0,0,1,.891-.756c2.082-1.124,4.144-2.292,6.279-3.306a43.464,43.464,0,0,1,7.849-2.619,1.458,1.458,0,0,0,.909-.583,17.283,17.283,0,0,0,1.3-3.41q1.336-6.245,2.462-12.535c.323-1.817.418-3.678.558-5.523.15-1.967.286-3.938.324-5.909A11.006,11.006,0,0,0,34.908,4.3a3.088,3.088,0,0,0-3.059-2.028A3.842,3.842,0,0,0,28.881,3.8a13.334,13.334,0,0,0-1.492,2.271,43.962,43.962,0,0,0-2.562,6.347A93.216,93.216,0,0,0,21.4,26.3c-.393,2.526-.7,5.024,1.44,7.067.535.512.318,1.13-.387,1.388-.889.325-1.8.6-2.715.836a2.145,2.145,0,0,1-1.047-.027c-.271-.072-.677-.293-.7-.485a1.111,1.111,0,0,1,.363-.892,2.614,2.614,0,0,0,.911-3.259C18.6,28.7,17.924,26.47,17.25,24.241a32.849,32.849,0,0,0-6.581-12.478A20.933,20.933,0,0,0,7.677,8.917a3.187,3.187,0,0,0-4.526,1.03,7.529,7.529,0,0,0-.826,2.32,19.081,19.081,0,0,0,.126,6.473A82.124,82.124,0,0,0,7.818,36.364a2.531,2.531,0,0,0,.446.83c1.239,1.249,1.478,2.93,1.927,4.5.24.838-.329,1.4-1.187,1.251a.992.992,0,0,0-1.182.526,7.8,7.8,0,0,0-.738,1.845c-.352,1.616-.7,3.242-.9,4.881a36.035,36.035,0,0,0-.132,9.68c.143.97.31,1.938.406,2.913a12.185,12.185,0,0,0,3.626,7.993,12.061,12.061,0,0,0,8.442,3.193,41.106,41.106,0,0,0,5.415-.473,10.874,10.874,0,0,1,5.36.35,10.529,10.529,0,0,0,1.828.49c4.115.769,7.814-.354,11.28-2.515a7.345,7.345,0,0,0,3.166-4.147,14.605,14.605,0,0,0,.632-4.9,35.139,35.139,0,0,0-1.044-5.929c-.128-.639-.235-1.281-.367-2.01-2.391,1.056-4.659,1.232-6.85-.229a5.765,5.765,0,0,1-3.945,1.809,6.794,6.794,0,0,1-3.991-1.7c-.379,2.166-.8,4.173-1.068,6.2-.376,2.862-2.015,4.892-4.1,6.682-.371.319-.73.519-1.137.136-.467-.439-.1-.776.2-1.1a11.912,11.912,0,0,0,2.416-3.469,15.867,15.867,0,0,0,.777-9.219m6.573-18.216a11.611,11.611,0,0,1,1.419-.078,14.062,14.062,0,0,1,2.673.308,3.5,3.5,0,0,1,2.567,2.684,7.352,7.352,0,0,1-.758,5.485,17.1,17.1,0,0,1-5.046,5.4c-1.313.993-2.512,2.135-3.753,3.2,1.568,2.1,4.022,2.8,6.019.512a36.3,36.3,0,0,0,3.1-4.024,23.558,23.558,0,0,0,4.018-13.745,8.658,8.658,0,0,0-2.182-5.557,2.651,2.651,0,0,0-2.553-1.141c-.269.046-.553-.008-.828.01a5.585,5.585,0,0,0-3.055,1.148c-.65.492-.509,1.29-.7,1.949-.349,1.235-.6,2.5-.921,3.847m5.433,17.752c.064.086.1.165.155.2a4.083,4.083,0,0,0,4.172.116,12.813,12.813,0,0,0,5.85-5.481,16.168,16.168,0,0,0,2.173-10.089A7.958,7.958,0,0,0,49.579,33.6a5.716,5.716,0,0,0-1.894-1.333,1.463,1.463,0,0,0-2.143,1.258,14.621,14.621,0,0,0-.086,1.89c-.015,1.065.075,2.139-.028,3.2a24.533,24.533,0,0,1-3.71,10.978c-.842,1.321-1.745,2.6-2.614,3.894" transform="translate(0 0.005)"/>
        <path id="Path_8799" data-name="Path 8799" d="M58.4,87.845a15.867,15.867,0,0,1-.777,9.219,11.913,11.913,0,0,1-2.416,3.469c-.3.324-.664.661-.2,1.1.408.383.766.182,1.137-.136,2.085-1.79,3.723-3.821,4.1-6.682.266-2.028.689-4.035,1.068-6.2a6.794,6.794,0,0,0,3.991,1.7,5.765,5.765,0,0,0,3.945-1.809c2.191,1.46,4.459,1.285,6.85.229.132.728.239,1.371.367,2.01a35.133,35.133,0,0,1,1.044,5.929,14.607,14.607,0,0,1-.632,4.9,7.346,7.346,0,0,1-3.166,4.147c-3.467,2.162-7.165,3.285-11.28,2.515a10.527,10.527,0,0,1-1.829-.49,10.874,10.874,0,0,0-5.36-.35,41.107,41.107,0,0,1-5.415.473,12.061,12.061,0,0,1-8.442-3.193,12.185,12.185,0,0,1-3.626-7.993c-.1-.975-.263-1.943-.406-2.913a36.04,36.04,0,0,1,.132-9.68c.2-1.64.544-3.265.9-4.881a7.8,7.8,0,0,1,.738-1.845.992.992,0,0,1,1.182-.526c.858.145,1.427-.413,1.187-1.251-.449-1.57-.688-3.251-1.927-4.5a2.531,2.531,0,0,1-.446-.83A82.124,82.124,0,0,1,33.75,52.638a19.082,19.082,0,0,1-.126-6.473,7.527,7.527,0,0,1,.826-2.32,3.188,3.188,0,0,1,4.526-1.03,20.941,20.941,0,0,1,2.992,2.847,32.849,32.849,0,0,1,6.581,12.478c.674,2.229,1.354,4.456,2.018,6.688a2.614,2.614,0,0,1-.911,3.259,1.111,1.111,0,0,0-.363.892c.022.192.429.413.7.485a2.145,2.145,0,0,0,1.047.027c.916-.237,1.826-.511,2.715-.836.706-.258.923-.876.387-1.388C52,65.223,52.309,62.726,52.7,60.2a93.216,93.216,0,0,1,3.424-13.884,43.956,43.956,0,0,1,2.562-6.347A13.335,13.335,0,0,1,60.18,37.7a3.842,3.842,0,0,1,2.969-1.527A3.087,3.087,0,0,1,66.208,38.2a11.006,11.006,0,0,1,1.032,4.591c-.037,1.971-.174,3.942-.324,5.909-.14,1.845-.235,3.706-.558,5.523Q65.241,60.511,63.9,66.757a17.279,17.279,0,0,1-1.3,3.41,1.458,1.458,0,0,1-.909.583,43.46,43.46,0,0,0-7.849,2.619c-2.135,1.014-4.2,2.182-6.279,3.306a2.332,2.332,0,0,0-.891.756,1.036,1.036,0,0,0-.02.941c.156.207.6.243.921.263.161.01.341-.174.5-.283a44.28,44.28,0,0,1,17.726-6.938,4.626,4.626,0,0,1,3.107.218,1.625,1.625,0,0,1,.9,1.144,6.42,6.42,0,0,1-.983,5.362,13.94,13.94,0,0,1-4.154,4c-1.829,1.162-3.74,2.2-5.651,3.227-1.25.67-2.565,1.22-3.851,1.823-.071.034-.142.07-.211.107-.659.357-.928.875-.686,1.318a1.171,1.171,0,0,0,1.389.27c.884-.328,1.764-.665,2.742-1.035" transform="translate(-31.3 -33.893)" fill="#fff"/>
        <path id="Path_8800" data-name="Path 8800" d="M491.866,463.7c.317-1.35.572-2.612.921-3.847.187-.66.046-1.457.7-1.949a5.585,5.585,0,0,1,3.055-1.148c.275-.019.56.036.828-.01a2.651,2.651,0,0,1,2.553,1.141,8.658,8.658,0,0,1,2.182,5.557,23.558,23.558,0,0,1-4.018,13.745,36.284,36.284,0,0,1-3.1,4.024c-2,2.288-4.452,1.583-6.019-.512,1.241-1.067,2.44-2.21,3.753-3.2a17.1,17.1,0,0,0,5.047-5.4,7.352,7.352,0,0,0,.758-5.485,3.5,3.5,0,0,0-2.567-2.684,14.061,14.061,0,0,0-2.673-.308,11.607,11.607,0,0,0-1.419.078" transform="translate(-458.194 -427.969)" fill="#fff"/>
        <path id="Path_8801" data-name="Path 8801" d="M621.349,531.633c.869-1.291,1.771-2.573,2.614-3.894a24.534,24.534,0,0,0,3.71-10.978c.1-1.056.013-2.13.028-3.2a14.623,14.623,0,0,1,.086-1.89,1.463,1.463,0,0,1,2.143-1.258,5.716,5.716,0,0,1,1.893,1.333,7.958,7.958,0,0,1,1.876,4.631,16.167,16.167,0,0,1-2.173,10.089,12.813,12.813,0,0,1-5.85,5.482,4.083,4.083,0,0,1-4.172-.116c-.058-.038-.09-.116-.155-.2" transform="translate(-582.244 -478.145)" fill="#fff"/>
      </g>
    </g>
  </g>
</svg>
