<svg xmlns="http://www.w3.org/2000/svg" xmlns:xlink="http://www.w3.org/1999/xlink" width="280.646" height="280.646" viewBox="0 0 280.646 280.646">

  <g id="Group_235" data-name="Group 235" transform="translate(-564.458 -8400.459)">
    <g id="Group_117" data-name="Group 117" transform="translate(564.458 8400.463)">
      <path id="Path_8677" data-name="Path 8677" d="M100.965,260.97l-26.127,6.24-6.947-25.95-26.767-2.18,1.415-26.815L17.748,201.952l9.6-25.08-20.4-17.479,16.919-20.864L9.9,115.6l22.5-14.641-6.24-26.127,25.95-6.947L54.3,41.121,81.11,42.536,91.422,17.743l25.08,9.6,17.479-20.4,20.865,16.919L177.773,9.9l14.64,22.5,26.127-6.24,6.946,25.95,26.767,2.18-1.415,26.815,24.793,10.312-9.6,25.08,20.4,17.479-16.919,20.864,13.965,22.927-22.5,14.64,6.24,26.127-25.95,6.947-2.181,26.766-26.815-1.415-10.312,24.793-25.08-9.6-17.479,20.4-20.864-16.919-22.927,13.965Z" transform="translate(-6.366 -6.366)" fill="#f4f2f2"/>
      <g id="Group_116" data-name="Group 116" transform="translate(0 -0.004)">
        <g id="Group_115" data-name="Group 115" transform="translate(0 0)" >
          <path id="Path_8678" data-name="Path 8678" d="M100.965,260.97l-26.127,6.24-6.947-25.95-26.767-2.18,1.415-26.815L17.748,201.952l9.6-25.08-20.4-17.479,16.919-20.864L9.9,115.6l22.5-14.641-6.24-26.127,25.95-6.947L54.3,41.121,81.11,42.536,91.422,17.743l25.08,9.6,17.479-20.4,20.865,16.919L177.773,9.9l14.64,22.5,26.127-6.24,6.946,25.95,26.767,2.18-1.415,26.815,24.793,10.312-9.6,25.08,20.4,17.479-16.919,20.864,13.965,22.927-22.5,14.64,6.24,26.127-25.95,6.947-2.181,26.766-26.815-1.415-10.312,24.793-25.08-9.6-17.479,20.4-20.864-16.919-22.927,13.965Z" transform="translate(-6.366 -6.362)" fill="none" stroke="#16161c" stroke-width="1"/>
          <path id="Path_8679" data-name="Path 8679" d="M503.279,1788.886a4.443,4.443,0,1,1,3.781-5.019,4.2,4.2,0,0,1-3.781,5.019m2.021-4.771a2.666,2.666,0,1,0-2.268,3.012,2.561,2.561,0,0,0,2.268-3.012" transform="translate(-456.437 -1630.799)"/>
          <path id="Path_8680" data-name="Path 8680" d="M446.4,1553.371a1.178,1.178,0,0,0,1.311,1.354l.444.007.029-1.777,1.777.029-.043,2.666,2.666.043-.014.889,4.443.072-.029,1.777-4.443-.072.014-.888-2.666-.043-.072,4.443,2.666.043-.014.889,4.443.072-.029,1.777-4.443-.072.014-.888-2.666-.043-.029,1.777-1.777-.029.043-2.666-.444-.007c-1.777-.029-3.1-.939-3.067-2.716a2.6,2.6,0,0,1,.473-1.77l1.777.029a1.947,1.947,0,0,0-.466,1.326,1.178,1.178,0,0,0,1.311,1.354l.444.007.072-4.443-.444-.007c-1.777-.029-3.1-.939-3.067-2.716a2.6,2.6,0,0,1,.473-1.77l-.416-1.784.029-1.777,1.777.029-.029,1.777.415,1.784a1.946,1.946,0,0,0-.466,1.326m6.242-1.232.014-.889-4.443-.072.029-1.777,4.443.072-.014.889,4.443.072-.029,1.777Z" transform="translate(-407.245 -1418.638)"/>
          <path id="Path_8681" data-name="Path 8681" d="M500.933,1467.956l1.759.252a9.039,9.039,0,0,0-.755,2.136,2.666,2.666,0,0,0,5.278.757,9.046,9.046,0,0,0-.124-2.262l1.759.253a5.391,5.391,0,0,1,.124,2.262,4.443,4.443,0,1,1-8.8-1.262,5.393,5.393,0,0,1,.755-2.136" transform="translate(-458.192 -1344.888)"/>
          <path id="Path_8682" data-name="Path 8682" d="M473.03,1391.784l.394-1.733,1.733.394-.394,1.733Zm10.793.63.394-1.733,1.733.394-1.182,5.2-1.733-.394.394-1.733-5.2-1.182-.394,1.733-1.733-.394.788-3.466Z" transform="translate(-433.373 -1273.515)"/>
          <path id="Path_8683" data-name="Path 8683" d="M544.352,1270.668c-2.535-.824-3.676-3.064-2.989-5.177.55-1.69,2.092-2.123,4.2-1.436l-3.38-1.1.55-1.69,8.451,2.748-.55,1.69-3.38-1.1c2.113.687,3.106,1.944,2.556,3.635-.687,2.113-2.927,3.253-5.462,2.429m3.909-3.4c.412-1.268-.158-2.387-1.848-2.937s-2.81.021-3.222,1.288a2.666,2.666,0,1,0,5.071,1.649" transform="translate(-495.797 -1155.526)"/>
          <path id="Path_8684" data-name="Path 8684" d="M541.135,1187.441l.7-1.633-8.167-3.5-.7,1.633-1.633-.7,1.4-3.267,9.8,4.2.7-1.634,1.633.7-2.1,4.9Z" transform="translate(-486.79 -1081.046)"/>
          <path id="Path_8685" data-name="Path 8685" d="M581.393,1079.64l-.823,1.575-1.575-.823,1.646-3.151,3.15,1.646-.411.788,3.938,2.057-.411.788,2.363,1.234.823-1.575,1.575.823-2.469,4.726-1.575-.823.823-1.575-2.363-1.234.411-.788-3.938-2.057.411-.788Z" transform="translate(-530.454 -986.93)"/>
          <path id="Path_8686" data-name="Path 8686" d="M659.18,1013.748l-1.5-.955a6.145,6.145,0,0,0,2.42-2.146,2.1,2.1,0,0,0-.681-3.067l-2.624-1.67a2.666,2.666,0,1,1-2.864,4.5l-4.5-2.864.955-1.5,3.748,2.386a1.777,1.777,0,0,0,1.909-3l-3.748-2.386.955-1.5,7.121,4.534a3.982,3.982,0,0,1,1.226,5.521,6.148,6.148,0,0,1-2.42,2.146" transform="translate(-594.989 -917.58)"/>
          <path id="Path_8687" data-name="Path 8687" d="M753.229,906.984l-1.371-1.131a9.682,9.682,0,0,0,2.04-1.773c.566-.685.506-1.311.163-1.594-1.028-.849-3.171,3.144-5.57,1.164-1.371-1.131-1.208-2.725-.076-4.1a9.683,9.683,0,0,1,2.04-1.773l1.371,1.131a9.687,9.687,0,0,0-2.04,1.773c-.566.685-.506,1.311-.163,1.594,1.028.848,3.171-3.144,5.57-1.164,1.371,1.131,1.208,2.725.076,4.1a9.685,9.685,0,0,1-2.04,1.773" transform="translate(-684.847 -822.514)"/>
          <path id="Path_8688" data-name="Path 8688" d="M816.38,824.709l1.276,1.237a9.035,9.035,0,0,0-1.866,1.285,2.666,2.666,0,1,0,3.827,3.713,9.038,9.038,0,0,0,1.228-1.9l1.276,1.238a5.39,5.39,0,0,1-1.228,1.9,4.443,4.443,0,0,1-6.378-6.188,5.391,5.391,0,0,1,1.866-1.285" transform="translate(-744.977 -755.568)"/>
          <path id="Path_8689" data-name="Path 8689" d="M867.326,764.358l1.33-1.179,2.357,2.661a3.27,3.27,0,0,1,.3-5.018l1.179,1.33c-1.33,1.179-2.366,2.69-.893,4.353l2.947,3.326-1.33,1.179Z" transform="translate(-794.613 -697.037)"/>
          <path id="Path_8690" data-name="Path 8690" d="M953.594,704.417a4.2,4.2,0,0,1,6.217.911l-.713.531a4.443,4.443,0,0,1-7.128,5.307l.713-.531a4.2,4.2,0,0,1,.911-6.217m3.533,6.233a2.561,2.561,0,0,0,.546-3.73l.713-.531a2.666,2.666,0,1,0-4.277,3.184l-.713.531a2.561,2.561,0,0,0,3.73.546" transform="translate(-871.913 -644.459)"/>
          <path id="Path_8691" data-name="Path 8691" d="M1010.679,630.8l1.515-.929-4.645-7.576-1.515.929-.929-1.515,3.03-1.858,5.574,9.092,1.515-.929.929,1.515-4.546,2.787Z" transform="translate(-920.841 -567.888)"/>
          <path id="Path_8692" data-name="Path 8692" d="M1090.154,585.948l1.582-.811-4.056-7.907-1.581.811-.811-1.581,3.163-1.622,4.867,9.488,1.581-.811.811,1.581-4.744,2.433Z" transform="translate(-994.301 -526.645)"/>
          <path id="Path_8693" data-name="Path 8693" d="M1200.051,535.68l-.819.344,1.032,2.458,1.639-.688.688,1.639-4.916,2.065-.688-1.639,1.639-.688-1.032-2.458.819-.344-1.032-2.458-1.639.688-.688-1.639,3.277-1.377Zm-3.916-7.03,1.639-.688.688,1.639-1.639.688Z" transform="translate(-1094.865 -483.699)"/>
          <path id="Path_8694" data-name="Path 8694" d="M1278.276,540l1.61,5.083-1.694.537-1.342-4.236c-.537-1.694-1.652-2.273-2.923-1.871s-1.85,1.518-1.313,3.213l1.342,4.236-1.694.537-2.684-8.472,1.694-.537,1.073,3.389c-.671-2.118.2-3.791,1.892-4.328s3.368.331,4.039,2.449" transform="translate(-1163.142 -492.346)"/>
          <path id="Path_8695" data-name="Path 8695" d="M1394.372,515.876l-.455-2.174s1.669,1.466,2.974,1.193a1.628,1.628,0,0,0,1.375-2.1l-.226-1.079a8.687,8.687,0,0,1-1.7.573,4,4,0,0,1-1.639-7.828l3.479-.729,1.822,8.7a3.255,3.255,0,0,1-2.751,4.208,3.333,3.333,0,0,1-2.883-.758m1.608-5.331a9.679,9.679,0,0,0,1.689-.608l-.86-4.106-1.74.364a2.222,2.222,0,1,0,.911,4.349" transform="translate(-1274.864 -461.497)"/>
          <path id="Path_8696" data-name="Path 8696" d="M1716.734,457.019l1.771.152-.152,1.771-1.771-.152Zm.609-7.083,1.771.152-.152,1.771-1.771-.152Zm2.933,7.388-1.771-.152.152-1.771,1.771.152.152-1.771-1.771-.152.152-1.771,1.771.152.3-3.542,1.771.152-.3,3.542,1.771.152-.152,1.771-1.771-.152-.152,1.771,1.771.152-.152,1.771-1.771-.152-.3,3.542-1.771-.152Zm3.542.3,1.771.152-.152,1.771-1.771-.152Zm.609-7.083,1.771.152-.152,1.771-1.771-.152Z" transform="translate(-1572.671 -410.871)"/>
          <path id="Path_8697" data-name="Path 8697" d="M2047.162,572.393a4.443,4.443,0,1,1,2.443,5.79,4.2,4.2,0,0,1-2.443-5.79m3.112,4.143a2.666,2.666,0,1,0-1.465-3.474,2.561,2.561,0,0,0,1.465,3.474" transform="translate(-1875.179 -521.811)"/>
          <path id="Path_8698" data-name="Path 8698" d="M2173.975,604.913a1.178,1.178,0,0,0-1.826.469l-.226.382,1.53.9-.9,1.53-2.295-1.357-1.357,2.295-.765-.452-2.261,3.825-1.53-.9,2.261-3.825.765.452,1.357-2.295-3.825-2.261-1.356,2.295-.765-.452-2.261,3.825-1.53-.9,2.261-3.825.765.452,1.357-2.295-1.53-.9.9-1.53,2.295,1.357.226-.382c.9-1.53,2.348-2.225,3.878-1.321,1.147.678,1.3,1.287,1.3,1.287l-.9,1.53a1.947,1.947,0,0,0-.922-1.061,1.178,1.178,0,0,0-1.826.469l-.226.383,3.825,2.261.226-.382c.9-1.53,2.348-2.225,3.878-1.321,1.147.678,1.3,1.287,1.3,1.287l1.756.522,1.53.9-.9,1.53-1.53-.9-1.756-.522a1.947,1.947,0,0,0-.922-1.061m-2.018,6.033.765.452,2.261-3.825,1.53.9-2.261,3.825-.765-.452-2.261,3.825-1.53-.9Z" transform="translate(-1977.986 -549.322)"/>
          <path id="Path_8699" data-name="Path 8699" d="M2341.073,740.788l-1.105,1.392a9.041,9.041,0,0,0-1.463-1.73,2.666,2.666,0,1,0-3.316,4.175,9.031,9.031,0,0,0,2.016,1.034l-1.105,1.392a5.391,5.391,0,0,1-2.016-1.034,4.443,4.443,0,1,1,5.527-6.958,5.393,5.393,0,0,1,1.463,1.73" transform="translate(-2136.765 -676.117)"/>
          <path id="Path_8700" data-name="Path 8700" d="M2391.922,777.427l1.3,1.214-1.213,1.3-3.9-3.64,1.214-1.3,1.3,1.213,3.64-3.9-1.3-1.214,1.213-1.3,2.6,2.427Zm5.982-9.006,1.3,1.214-1.213,1.3-1.3-1.214Z" transform="translate(-2187.902 -703.999)"/>
          <path id="Path_8701" data-name="Path 8701" d="M2465.745,864.932c1.987-1.777,4.5-1.637,5.978.019,1.185,1.325.784,2.876-.872,4.357l2.65-2.37,1.185,1.325-6.624,5.924-1.185-1.325,2.65-2.37c-1.656,1.481-3.242,1.707-4.427.383-1.481-1.656-1.341-4.166.646-5.943m.975,5.089c.889.994,2.143,1.064,3.468-.121s1.395-2.44.506-3.433a2.666,2.666,0,0,0-3.974,3.554" transform="translate(-2257.525 -791.248)"/>
          <path id="Path_8702" data-name="Path 8702" d="M2523.563,921.466l1.061,1.426,7.129-5.306-1.062-1.426,1.426-1.061,2.123,2.851-8.554,6.367,1.062,1.426-1.426,1.061-3.184-4.277Z" transform="translate(-2310.691 -838.38)"/>
          <path id="Path_8703" data-name="Path 8703" d="M2581.5,1011l-.95-1.5,1.5-.95,1.9,3-3,1.9-.475-.751-3.755,2.375-.475-.751-2.253,1.425.95,1.5-1.5.95-2.85-4.506,1.5-.95.951,1.5,2.253-1.425.475.751,3.755-2.376.475.751Z" transform="translate(-2355.08 -923.991)"/>
          <path id="Path_8704" data-name="Path 8704" d="M2585.623,1095.729l1.578-.819a6.146,6.146,0,0,0,.644,3.17,2.1,2.1,0,0,0,3,.949l2.761-1.432a2.666,2.666,0,0,1-2.455-4.733l4.733-2.455.819,1.578-3.944,2.046a1.777,1.777,0,0,0,1.637,3.155l3.944-2.046.818,1.578-7.494,3.888a3.982,3.982,0,0,1-5.391-1.708,6.149,6.149,0,0,1-.644-3.17" transform="translate(-2368.841 -998.993)"/>
          <path id="Path_8705" data-name="Path 8705" d="M2681.4,1238.5l1.667-.617a9.691,9.691,0,0,0,.509,2.655c.309.833.88,1.1,1.3.942,1.25-.463-1.125-4.321,1.792-5.4,1.667-.617,2.963.325,3.58,1.991a9.681,9.681,0,0,1,.509,2.655l-1.667.617a9.68,9.68,0,0,0-.508-2.655c-.309-.833-.88-1.1-1.3-.942-1.25.463,1.126,4.321-1.791,5.4-1.667.617-2.963-.325-3.58-1.991a9.681,9.681,0,0,1-.509-2.655" transform="translate(-2456.603 -1132.28)"/>
          <path id="Path_8706" data-name="Path 8706" d="M2723.748,1329.619l-1.711.48a9.047,9.047,0,0,0-.172-2.259,2.666,2.666,0,1,0-5.134,1.438,9.041,9.041,0,0,0,1.027,2.019l-1.711.479a5.388,5.388,0,0,1-1.027-2.019,4.443,4.443,0,1,1,8.557-2.4,5.392,5.392,0,0,1,.172,2.259" transform="translate(-2487.218 -1213.072)"/>
          <path id="Path_8707" data-name="Path 8707" d="M2737,1414.664l.348,1.743-3.486.695a3.27,3.27,0,0,1,4.181,2.791l-1.743.348c-.348-1.743-1.131-3.4-3.31-2.965l-4.358.869-.347-1.743Z" transform="translate(-2499.559 -1296.064)"/>
          <path id="Path_8708" data-name="Path 8708" d="M2756.16,1498.848a4.2,4.2,0,0,1-3.923,4.909l-.1-.883a4.443,4.443,0,1,1-.986-8.832l.1.883a4.2,4.2,0,0,1,4.909,3.923m-7.164-.095a2.561,2.561,0,0,0,2.945,2.354l.1.883a2.666,2.666,0,0,0-.592-5.3l-.1-.883a2.561,2.561,0,0,0-2.354,2.945" transform="translate(-2516.88 -1368.787)"/>
          <path id="Path_8709" data-name="Path 8709" d="M2755.161,1615.014l.039,1.777,8.884-.193-.039-1.777,1.777-.039.077,3.554-10.661.232.039,1.777-1.777.039-.116-5.331Z" transform="translate(-2522.552 -1479.405)"/>
          <path id="Path_8710" data-name="Path 8710" d="M2753.172,1700.259l-.094,1.775,8.874.471.094-1.775,1.775.094-.188,3.55-10.649-.565-.094,1.775-1.775-.094.282-5.324Z" transform="translate(-2520.473 -1557.63)"/>
          <path id="Path_8711" data-name="Path 8711" d="M2745.819,1787.058l.114-.881-2.644-.342-.228,1.763-1.762-.228.683-5.288,1.763.228-.228,1.763,2.644.342-.114.881,2.644.342.228-1.763,1.763.228-.456,3.525Zm8.046.144-.228,1.762-1.763-.228.228-1.763Z" transform="translate(-2511.48 -1632.679)"/>
          <path id="Path_8712" data-name="Path 8712" d="M2723.37,1871.983l-5.2-1.158.386-1.735,4.337.965c1.735.386,2.8-.288,3.085-1.589s-.385-2.362-2.12-2.748l-4.337-.965.386-1.735,8.675,1.931-.386,1.735-3.47-.773c2.169.483,3.18,2.074,2.794,3.809s-1.977,2.747-4.146,2.264" transform="translate(-2490.285 -1706.83)"/>
          <path id="Path_8713" data-name="Path 8713" d="M2659.135,1974.808l2.109.7s-2.106.707-2.524,1.973a1.628,1.628,0,0,0,1.129,2.246l1.046.346a8.691,8.691,0,0,1,.356-1.754,4,4,0,0,1,7.593,2.512l-1.116,3.375-8.437-2.791a3.255,3.255,0,0,1-2.259-4.491,3.333,3.333,0,0,1,2.1-2.113m3.8,4.066a9.658,9.658,0,0,0-.322,1.766l3.982,1.317.558-1.687a2.222,2.222,0,1,0-4.219-1.4" transform="translate(-2434.057 -1809.248)"/>
          <path id="Path_8714" data-name="Path 8714" d="M2546.415,2271.952l-1.025,1.452-1.452-1.025,1.025-1.452Zm2.05-2.9,1.025-1.452,1.452,1.025-1.025,1.452,1.452,1.025,1.025-1.452,1.452,1.025-1.025,1.452,2.9,2.05-1.025,1.452-2.9-2.05-1.025,1.452-1.452-1.025,1.025-1.452-1.452-1.025-1.025,1.452-1.452-1.025,1.025-1.452-2.9-2.05,1.025-1.452Zm2.05-2.9-1.025,1.452-1.452-1.025,1.025-1.452Zm1.708,9.908-1.025,1.452-1.452-1.025,1.025-1.452Zm4.1-5.808-1.025,1.452-1.452-1.025,1.025-1.452Z" transform="translate(-2330.665 -2075.22)"/>
          <path id="Path_8715" data-name="Path 8715" d="M2320.815,2518.265a4.443,4.443,0,1,1-6.233-.794,4.2,4.2,0,0,1,6.233.794m-5.146.611a2.666,2.666,0,1,0,3.74.477,2.561,2.561,0,0,0-3.74-.477" transform="translate(-2118.859 -2305.466)"/>
          <path id="Path_8716" data-name="Path 8716" d="M2122.693,2590.2l-.775.435,2.176,3.874-1.55.87-2.176-3.874.775-.435-2.176-3.874,1.55-.87Zm4.209,4.771a1.178,1.178,0,0,0,.509-1.815l-.217-.387-1.55.87-.871-1.55,2.325-1.305-1.306-2.325.775-.435-2.176-3.874,1.549-.87,2.176,3.874-.775.435,1.306,2.324,3.874-2.176-1.306-2.325.775-.435-2.176-3.874,1.55-.87,2.176,3.874-.775.435,1.306,2.324,1.55-.87.87,1.55-2.325,1.306.218.387c.871,1.55.748,3.147-.8,4.017a2.6,2.6,0,0,1-1.767.483l-.87-1.55a1.947,1.947,0,0,0,1.38-.265,1.178,1.178,0,0,0,.509-1.815l-.218-.387-3.874,2.176.218.388c.871,1.549.748,3.147-.8,4.017a2.6,2.6,0,0,1-1.767.483l-1.332,1.258-1.55.87-.87-1.55,1.55-.87,1.332-1.258a1.946,1.946,0,0,0,1.38-.265" transform="translate(-1941.322 -2363.916)"/>
          <path id="Path_8717" data-name="Path 8717" d="M2038.169,2688.756l-.648-1.655a9.043,9.043,0,0,0,2.231-.4,2.666,2.666,0,1,0-1.945-4.964,9.043,9.043,0,0,0-1.906,1.224l-.648-1.655a5.39,5.39,0,0,1,1.906-1.224,4.443,4.443,0,1,1,3.242,8.274,5.391,5.391,0,0,1-2.23.4" transform="translate(-1864.624 -2455.062)"/>
          <path id="Path_8718" data-name="Path 8718" d="M1957.256,2702.263l-1.7.512-.512-1.7,5.106-1.536.512,1.7-1.7.512,1.536,5.106,1.7-.512.512,1.7-3.4,1.024Zm4.774,9.7-1.7.512-.512-1.7,1.7-.512Z" transform="translate(-1791.139 -2473.219)"/>
          <path id="Path_8719" data-name="Path 8719" d="M1853.458,2734.086c.533,2.612-.853,4.709-3.03,5.153-1.741.355-2.879-.772-3.323-2.95l.711,3.483-1.741.355-1.777-8.707,1.741-.356.711,3.483c-.444-2.177.16-3.661,1.9-4.016,2.177-.444,4.274.941,4.807,3.554m-4.887-1.724c-1.306.267-2,1.315-1.644,3.057s1.4,2.435,2.71,2.168a2.666,2.666,0,0,0-1.066-5.225" transform="translate(-1689.68 -2501.541)"/>
          <path id="Path_8720" data-name="Path 8720" d="M1768.727,2745.873l-1.766.2.984,8.832,1.766-.2.2,1.766-3.533.394-1.181-10.6-1.766.2-.2-1.766,5.3-.591Z" transform="translate(-1615.409 -2514.052)"/>
          <path id="Path_8721" data-name="Path 8721" d="M1683.354,2763.288l1.776-.063.063,1.776-3.552.126-.127-3.552.888-.032-.158-4.44.888-.032-.095-2.664-1.776.063-.063-1.776,5.329-.19.063,1.776-1.776.063.095,2.664-.888.032.159,4.44-.888.032Z" transform="translate(-1540.253 -2521.744)"/>
          <path id="Path_8722" data-name="Path 8722" d="M1580.817,2711.944l-.086,1.775a6.147,6.147,0,0,0-3.064-1.038,2.1,2.1,0,0,0-2.326,2.112l-.151,3.107a2.666,2.666,0,1,1,5.326.258l-.258,5.326-1.775-.086.215-4.438a1.777,1.777,0,1,0-3.551-.172l-.215,4.438-1.775-.086.408-8.432a3.982,3.982,0,0,1,4.188-3.8,6.147,6.147,0,0,1,3.064,1.038" transform="translate(-1441.27 -2483.63)"/>
          <path id="Path_8723" data-name="Path 8723" d="M1446.255,2738.559l-.3,1.751a9.678,9.678,0,0,0-2.551-.893c-.876-.152-1.389.21-1.465.648-.227,1.313,4.3,1.2,3.772,4.261-.3,1.751-1.768,2.4-3.52,2.1a9.691,9.691,0,0,1-2.551-.893l.3-1.751a9.692,9.692,0,0,0,2.551.893c.876.152,1.389-.21,1.465-.648.227-1.313-4.3-1.2-3.772-4.261.3-1.751,1.768-2.4,3.52-2.1a9.694,9.694,0,0,1,2.551.893" transform="translate(-1318.944 -2508.086)"/>
          <path id="Path_8724" data-name="Path 8724" d="M1341.861,2723.018l.444-1.721a9.046,9.046,0,0,0,2.04.985,2.666,2.666,0,1,0,1.333-5.163,9.045,9.045,0,0,0-2.262-.125l.444-1.721a5.394,5.394,0,0,1,2.262.125,4.443,4.443,0,0,1-2.221,8.6,5.393,5.393,0,0,1-2.04-.986" transform="translate(-1229.365 -2487.577)"/>
          <path id="Path_8725" data-name="Path 8725" d="M1260.054,2707.293l-1.682-.574,1.149-3.364a3.27,3.27,0,0,1-4.513,2.215l.574-1.682c1.682.574,3.508.728,4.225-1.375l1.436-4.2,1.682.574Z" transform="translate(-1149.793 -2472.094)"/>
          <path id="Path_8726" data-name="Path 8726" d="M1156.241,2665.941a4.2,4.2,0,0,1-2.274-5.858l.813.358a4.443,4.443,0,1,1,8.132,3.583l-.813-.358a4.2,4.2,0,0,1-5.858,2.274m3.68-6.147a2.561,2.561,0,0,0-3.515,1.365l-.813-.359a2.666,2.666,0,1,0,4.879,2.15l.813.358a2.561,2.561,0,0,0-1.364-3.515" transform="translate(-1056.814 -2434.908)"/>
          <path id="Path_8727" data-name="Path 8727" d="M1078.28,2608.5l-1.555-.861-4.3,7.774,1.555.861-.861,1.555-3.11-1.722,5.166-9.329-1.555-.861.861-1.555,4.665,2.583Z" transform="translate(-980.299 -2386.025)"/>
          <path id="Path_8728" data-name="Path 8728" d="M999.366,2564.262l-1.485-.977L993,2570.711l1.485.977-.976,1.485-2.97-1.953,5.859-8.911-1.485-.976.976-1.485,4.455,2.929Z" transform="translate(-907.494 -2345.24)"/>
          <path id="Path_8729" data-name="Path 8729" d="M899.7,2521.2l-1.407-1.086,1.086-1.407,1.407,1.086Zm4.183-6.875.7.543,1.629-2.111-1.407-1.086,1.086-1.407,4.221,3.258-1.086,1.407-1.407-1.086-1.629,2.111-.7-.543-1.629,2.111,1.407,1.086-1.086,1.407-2.814-2.172Z" transform="translate(-822.985 -2299.813)"/>
          <path id="Path_8730" data-name="Path 8730" d="M849.26,2438.24l3.623-3.912,1.3,1.208-3.019,3.26c-1.208,1.3-1.16,2.56-.182,3.466s2.234.857,3.442-.447l3.019-3.26,1.3,1.208-6.039,6.52-1.3-1.208,2.415-2.608c-1.51,1.63-3.393,1.7-4.7.495s-1.376-3.091.133-4.721" transform="translate(-777.034 -2230.243)"/>
          <path id="Path_8731" data-name="Path 8731" d="M769.43,2349.821l-1.663,1.473s.447-2.176-.437-3.174a1.628,1.628,0,0,0-2.509-.153l-.825.73a8.693,8.693,0,0,1,1.338,1.189,4,4,0,1,1-5.989,5.3l-2.356-2.662,6.654-5.891a3.255,3.255,0,0,1,5.018.305,3.333,3.333,0,0,1,.769,2.88M764,2351.064a9.692,9.692,0,0,0-1.364-1.166l-3.141,2.781,1.178,1.331a2.222,2.222,0,0,0,3.327-2.946" transform="translate(-693.526 -2148.949)"/>
          <path id="Path_8732" data-name="Path 8732" d="M560.9,2090.624l.742,1.615-1.615.742-.742-1.615-1.615.742.742,1.615-1.615.742-.742-1.615-3.23,1.484-.742-1.615,3.23-1.484-.742-1.615,1.615-.742.742,1.615,1.615-.742-.742-1.615,1.615-.742.742,1.615,3.23-1.484.742,1.615Zm-7.944-.262-.742-1.615,1.615-.742.742,1.615Zm2.968,6.46-.742-1.615,1.615-.742.742,1.615Zm3.492-9.428-.742-1.615,1.615-.742.742,1.615Zm2.968,6.46-.742-1.615,1.615-.742.742,1.615Z" transform="translate(-505.797 -1910.236)"/>
          <circle id="Ellipse_33" data-name="Ellipse 33" cx="109.906" cy="109.906" r="109.906" transform="translate(30.417 30.417)" fill="none" stroke="#000" stroke-width="1"/>
          <circle id="Ellipse_34" data-name="Ellipse 34" cx="81.583" cy="81.583" r="81.583" transform="translate(58.74 58.74)" fill="none" stroke="#000" stroke-width="1"/>
        </g>
      </g>
    </g>
    <g id="Group_119" data-name="Group 119" transform="translate(646.414 8522.037)">
      <g id="Group_118" data-name="Group 118" clip-path="url(#clip-path-2)">
        <path id="Path_8733" data-name="Path 8733" d="M2.6,9.582C2.189,9.04,1.25,9.3.645,8.956c-.67-.386-.686-1.33-.617-2.1.112-.994.179-2,.268-2.993C.363,3.1.229,1.735.688,1.084a1.494,1.494,0,0,1,.56-.432A6.728,6.728,0,0,1,4.862.024C8.644.289,12.424.583,16.2.866c.059,0,.117.01.176.016,5.123.543,10.249,1.054,15.366,1.639,6.8.778,13.569,1.823,20.388,2.493,7.084.7,14.185,1.2,21.285,1.692,8.38.585,16.763,1.161,25.119,2.039,3.867.407,7.734.879,11.548,1.646,1.906.383,5.007.255,6.207,2.1,1.018,1.564.054,3.779-.618,5.292a3.381,3.381,0,0,1-1.72,1.871,4.356,4.356,0,0,1-1.9.152c-6.791-.487-13.543-1.662-20.308-2.429-1.137-.128-2.285-.159-3.43-.2-.79-.032-.83-.018-1.013.747q-.511,2.137-.936,4.293A22.679,22.679,0,0,1,84.6,28.006a17.047,17.047,0,0,1-15.021,9.479A19.045,19.045,0,0,1,54.7,31.307a21.361,21.361,0,0,1-4.548-9.4,30.369,30.369,0,0,1-.725-5.115c-.093-1.6-.36-2.763-2-3.409a7.317,7.317,0,0,0-4.667-.268A4.486,4.486,0,0,0,40.5,14.717a3.394,3.394,0,0,0-.4,1.327,28.978,28.978,0,0,1-2.338,6.536,22.458,22.458,0,0,1-5.45,6.866,14.573,14.573,0,0,1-8.052,3.286c-4.781.491-9.823.077-13.977-2.539a13.5,13.5,0,0,1-4.231-4.113C3.14,21.493,3.2,15.521,2.79,10.288a1.41,1.41,0,0,0-.161-.657q-.016-.026-.034-.049M60.128,12.27c.1.274.157.437.226.593.751,1.693,1.509,3.384,2.258,5.079,1.188,2.69,2.367,5.385,3.558,8.074.34.767.356.775,1.193.591.689-.151,1.377-.312,2.049-.523a.735.735,0,0,1,.966.36,4.921,4.921,0,0,1,.24.472q1.582,3.449,3.164,6.9c.144.313.324.609.506.947a59.87,59.87,0,0,0,5.83-2.659c-1.15-3.028-2.6-5.78-3.885-8.63-.885.166-1.686.336-2.5.463-.994.156-1.163.074-1.593-.823-.763-1.591-1.515-3.187-2.242-4.795-.773-1.711-1.512-3.438-2.285-5.2l-7.49-.843M30.815,27.79c-.061-.121-.135-.241-.186-.369-1.019-2.566-2.055-5.125-3.038-7.705a1.06,1.06,0,0,0-1.075-.813c-.673-.028-1.342-.151-2.015-.213a1.789,1.789,0,0,1-1.644-1.344c-1.011-2.792-2.08-5.562-3.13-8.339-.122-.323-.259-.64-.386-.953a63.8,63.8,0,0,0-6.829-.45,2.719,2.719,0,0,0,.057.436c1.324,3.96,2.842,7.846,4.477,11.688a.764.764,0,0,0,.732.517,11.092,11.092,0,0,0,1.755.084,1.451,1.451,0,0,1,1.673,1.056c1.084,2.6,2.224,5.185,3.353,7.77.185.425.424.826.631,1.223a11.454,11.454,0,0,0,5.625-2.588" transform="translate(0 0)"/>
        <path id="Path_8734" data-name="Path 8734" d="M690.125,140.83l7.49.843c.773,1.765,1.512,3.492,2.285,5.2.727,1.608,1.479,3.2,2.242,4.795.43.9.6.979,1.593.823.808-.127,1.61-.3,2.495-.463,1.287,2.85,2.735,5.6,3.885,8.63a59.924,59.924,0,0,1-5.83,2.659c-.182-.338-.362-.634-.506-.947q-1.588-3.446-3.164-6.9a4.937,4.937,0,0,0-.24-.472.735.735,0,0,0-.966-.36c-.672.211-1.361.372-2.049.523-.837.184-.853.176-1.193-.591-1.191-2.689-2.37-5.383-3.558-8.074-.749-1.695-1.507-3.385-2.258-5.079-.069-.156-.122-.319-.226-.593" transform="translate(-629.997 -128.56)" fill="#fff"/>
        <path id="Path_8735" data-name="Path 8735" d="M161.917,107.459a11.454,11.454,0,0,1-5.625,2.588c-.206-.4-.445-.8-.631-1.223-1.129-2.585-2.269-5.166-3.353-7.77A1.451,1.451,0,0,0,150.635,100a11.094,11.094,0,0,1-1.755-.084.764.764,0,0,1-.732-.517c-1.634-3.842-3.153-7.728-4.477-11.688a2.722,2.722,0,0,1-.057-.436,63.8,63.8,0,0,1,6.829.45c.127.314.264.631.386.953,1.05,2.777,2.119,5.547,3.13,8.339a1.789,1.789,0,0,0,1.644,1.344c.673.062,1.342.185,2.015.213a1.06,1.06,0,0,1,1.075.813c.983,2.58,2.019,5.139,3.038,7.705.051.129.124.248.186.369" transform="translate(-131.102 -79.668)" fill="#fff"/>
      </g>
    </g>
  </g>
</svg>
