<svg xmlns="http://www.w3.org/2000/svg" width="18.64" height="34" viewBox="0 0 18.64 34">
  <g id="facebook" transform="translate(9543 5188)" fill="#16161c">
    <path d="M -9536.97265625 -5154.5 C -9537.931640625 -5154.5 -9538.8759765625 -5154.5478515625 -9539.630859375 -5154.634765625 L -9539.818359375 -5154.65625 L -9539.9453125 -5154.7958984375 C -9540.384765625 -5155.2822265625 -9540.36328125 -5155.8466796875 -9540.3466796875 -5156.2998046875 C -9540.34375 -5156.39501953125 -9540.33984375 -5156.48486328125 -9540.3408203125 -5156.56982421875 C -9540.3447265625 -5156.88037109375 -9540.34765625 -5157.1923828125 -9540.349609375 -5157.50390625 C -9540.3515625 -5157.73681640625 -9540.353515625 -5157.96923828125 -9540.3564453125 -5158.2021484375 L -9540.3623046875 -5158.70751953125 L -9539.8564453125 -5158.70751953125 L -9538.9287109375 -5158.70751953125 C -9538.94921875 -5160.66748046875 -9538.9677734375 -5162.70849609375 -9538.986328125 -5164.92919921875 L -9538.990234375 -5165.43310546875 L -9538.486328125 -5165.43310546875 L -9537.546875 -5165.43310546875 L -9537.5478515625 -5165.52978515625 C -9537.552734375 -5166.12744140625 -9537.5576171875 -5166.72509765625 -9537.564453125 -5167.3232421875 C -9537.5673828125 -5167.65869140625 -9537.5771484375 -5167.99951171875 -9537.5888671875 -5168.35986328125 C -9537.5908203125 -5168.4140625 -9537.591796875 -5168.46923828125 -9537.59375 -5168.52490234375 C -9538.0419921875 -5168.5966796875 -9538.4765625 -5168.6083984375 -9538.85546875 -5168.6083984375 C -9539.0771484375 -5168.6083984375 -9539.3046875 -5168.603515625 -9539.525390625 -5168.59912109375 L -9539.53125 -5168.59912109375 C -9539.7548828125 -5168.5947265625 -9539.986328125 -5168.58984375 -9540.216796875 -5168.58984375 C -9540.7001953125 -5168.58984375 -9541.3388671875 -5168.6083984375 -9541.9912109375 -5168.75 L -9542.3466796875 -5168.82763671875 L -9542.3818359375 -5169.189453125 C -9542.5263671875 -5170.63916015625 -9542.5068359375 -5172.0224609375 -9542.4853515625 -5173.4873046875 C -9542.4794921875 -5173.87646484375 -9542.4736328125 -5174.27880859375 -9542.4716796875 -5174.67822265625 L -9542.4697265625 -5175.05810546875 L -9542.103515625 -5175.15771484375 C -9541.3486328125 -5175.36328125 -9540.5986328125 -5175.3916015625 -9539.9013671875 -5175.3916015625 C -9539.740234375 -5175.3916015625 -9539.580078125 -5175.39013671875 -9539.41796875 -5175.388671875 L -9539.4111328125 -5175.388671875 C -9539.240234375 -5175.38671875 -9539.0693359375 -5175.384765625 -9538.8974609375 -5175.384765625 C -9538.5146484375 -5175.384765625 -9538.0791015625 -5175.3935546875 -9537.630859375 -5175.4482421875 C -9537.6318359375 -5175.685546875 -9537.6337890625 -5175.9169921875 -9537.6357421875 -5176.1435546875 C -9537.6416015625 -5176.9345703125 -9537.6484375 -5177.681640625 -9537.62109375 -5178.427734375 C -9537.6162109375 -5178.55224609375 -9537.6123046875 -5178.677734375 -9537.6083984375 -5178.80322265625 C -9537.580078125 -5179.70703125 -9537.55078125 -5180.64111328125 -9537.3798828125 -5181.5517578125 C -9536.7255859375 -5185.0595703125 -9534.234375 -5187.2138671875 -9530.546875 -5187.46240234375 C -9530.1767578125 -5187.4873046875 -9529.8017578125 -5187.5 -9529.431640625 -5187.5 C -9528.1357421875 -5187.5 -9526.8564453125 -5187.3515625 -9525.5205078125 -5187.046875 L -9525.3046875 -5186.998046875 L -9525.1962890625 -5186.80517578125 C -9524.82421875 -5186.1455078125 -9524.849609375 -5185.4482421875 -9524.87109375 -5184.8330078125 C -9524.87890625 -5184.61669921875 -9524.8857421875 -5184.4130859375 -9524.876953125 -5184.2158203125 C -9524.853515625 -5183.673828125 -9524.865234375 -5183.14453125 -9524.8759765625 -5182.6328125 C -9524.880859375 -5182.4130859375 -9524.8857421875 -5182.2060546875 -9524.88671875 -5182.005859375 L -9524.888671875 -5181.7861328125 L -9525.05078125 -5181.63916015625 C -9525.501953125 -5181.2294921875 -9525.95703125 -5181.17431640625 -9526.3427734375 -5181.17431640625 C -9526.3974609375 -5181.17431640625 -9526.4521484375 -5181.17529296875 -9526.5068359375 -5181.17626953125 C -9526.5546875 -5181.17724609375 -9526.6005859375 -5181.17822265625 -9526.646484375 -5181.17822265625 C -9526.6923828125 -5181.17822265625 -9526.7294921875 -5181.17724609375 -9526.7626953125 -5181.17529296875 C -9527.0078125 -5181.16015625 -9527.251953125 -5181.158203125 -9527.48828125 -5181.15625 C -9527.85546875 -5181.15380859375 -9528.2021484375 -5181.15087890625 -9528.5341796875 -5181.10107421875 C -9529.515625 -5180.9541015625 -9530.1142578125 -5180.41943359375 -9530.365234375 -5179.4677734375 C -9530.53515625 -5178.826171875 -9530.5185546875 -5176.603515625 -9530.3115234375 -5175.4521484375 C -9529.97265625 -5175.40576171875 -9529.5947265625 -5175.384765625 -9529.1298828125 -5175.384765625 C -9528.8701171875 -5175.384765625 -9528.6025390625 -5175.39111328125 -9528.3427734375 -5175.3974609375 C -9528.0732421875 -5175.40380859375 -9527.7958984375 -5175.41064453125 -9527.5166015625 -5175.41064453125 C -9527.0126953125 -5175.41064453125 -9526.34765625 -5175.3916015625 -9525.6611328125 -5175.24267578125 L -9525.3779296875 -5175.18115234375 L -9525.291015625 -5174.90478515625 C -9525.0498046875 -5174.142578125 -9525.2001953125 -5173.44775390625 -9525.3330078125 -5172.83447265625 C -9525.3974609375 -5172.53662109375 -9525.458984375 -5172.25537109375 -9525.4736328125 -5171.984375 C -9525.5087890625 -5171.322265625 -9525.630859375 -5170.66357421875 -9525.75 -5170.02685546875 C -9525.80078125 -5169.75390625 -9525.8525390625 -5169.4716796875 -9525.8984375 -5169.1923828125 L -9525.951171875 -5168.8623046875 L -9526.2763671875 -5168.78564453125 C -9526.9453125 -5168.626953125 -9527.5869140625 -5168.60546875 -9528.1259765625 -5168.60546875 C -9528.3291015625 -5168.60546875 -9528.5283203125 -5168.60888671875 -9528.7216796875 -5168.6123046875 C -9528.9169921875 -5168.61572265625 -9529.115234375 -5168.61962890625 -9529.3076171875 -5168.61962890625 C -9529.587890625 -5168.61962890625 -9529.939453125 -5168.61279296875 -9530.2958984375 -5168.56787109375 C -9530.4013671875 -5168.28125 -9530.388671875 -5167.98291015625 -9530.375 -5167.64794921875 C -9530.37109375 -5167.54052734375 -9530.3662109375 -5167.42919921875 -9530.3662109375 -5167.31689453125 C -9530.365234375 -5166.8837890625 -9530.3623046875 -5166.451171875 -9530.359375 -5166.01904296875 C -9530.357421875 -5165.65771484375 -9530.3544921875 -5165.29638671875 -9530.353515625 -5164.93505859375 L -9530.3515625 -5164.43310546875 L -9530.853515625 -5164.43310546875 L -9531.7919921875 -5164.43310546875 C -9531.787109375 -5163.4814453125 -9531.78125 -5162.52978515625 -9531.775390625 -5161.578125 C -9531.7685546875 -5160.45556640625 -9531.7626953125 -5159.3330078125 -9531.755859375 -5158.21044921875 L -9531.7529296875 -5157.70751953125 L -9532.255859375 -5157.70751953125 L -9533.185546875 -5157.70751953125 L -9533.1796875 -5156.7177734375 C -9533.1787109375 -5156.35400390625 -9533.2021484375 -5156.00048828125 -9533.2255859375 -5155.658203125 C -9533.2353515625 -5155.50830078125 -9533.2451171875 -5155.3671875 -9533.2529296875 -5155.22802734375 L -9533.2724609375 -5154.85595703125 L -9533.6337890625 -5154.7685546875 C -9534.337890625 -5154.59765625 -9535.5556640625 -5154.5 -9536.97265625 -5154.5 Z" stroke="none"/>
    <path d="M -9536.97265625 -5155 C -9535.69140625 -5155 -9534.447265625 -5155.0859375 -9533.751953125 -5155.25439453125 C -9533.7275390625 -5155.71826171875 -9533.677734375 -5156.216796875 -9533.6796875 -5156.71484375 C -9533.6826171875 -5157.212890625 -9533.685546875 -5157.7099609375 -9533.6884765625 -5158.20751953125 L -9532.255859375 -5158.20751953125 C -9532.2685546875 -5160.44970703125 -9532.2822265625 -5162.69140625 -9532.294921875 -5164.93310546875 L -9538.486328125 -5164.93310546875 C -9538.4677734375 -5162.69140625 -9538.447265625 -5160.44970703125 -9538.423828125 -5158.20751953125 L -9539.8564453125 -5158.20751953125 C -9539.8505859375 -5157.6630859375 -9539.84765625 -5157.119140625 -9539.8408203125 -5156.57470703125 C -9539.8359375 -5156.08056640625 -9539.951171875 -5155.54833984375 -9539.57421875 -5155.13134765625 C -9538.8095703125 -5155.04345703125 -9537.8818359375 -5155 -9536.97265625 -5155 M -9530.853515625 -5164.93310546875 C -9530.8564453125 -5165.72705078125 -9530.8642578125 -5166.5205078125 -9530.8662109375 -5167.31494140625 C -9530.8681640625 -5167.8623046875 -9530.9775390625 -5168.43505859375 -9530.630859375 -5169.0224609375 C -9530.0048828125 -5169.13623046875 -9529.36328125 -5169.1240234375 -9528.712890625 -5169.1123046875 C -9527.94921875 -5169.09912109375 -9527.173828125 -5169.08642578125 -9526.3916015625 -5169.27197265625 C -9526.240234375 -5170.20947265625 -9526.0205078125 -5171.10546875 -9525.97265625 -5172.01171875 C -9525.923828125 -5172.90869140625 -9525.4599609375 -5173.78173828125 -9525.767578125 -5174.75390625 C -9526.6171875 -5174.93896484375 -9527.4736328125 -5174.91845703125 -9528.3291015625 -5174.8974609375 C -9529.1376953125 -5174.87841796875 -9529.9384765625 -5174.859375 -9530.7275390625 -5175.01416015625 C -9531.0048828125 -5176.048828125 -9531.0712890625 -5178.7568359375 -9530.8486328125 -5179.59521484375 C -9530.5400390625 -5180.765625 -9529.759765625 -5181.4228515625 -9528.6083984375 -5181.595703125 C -9528.01171875 -5181.68505859375 -9527.396484375 -5181.63671875 -9526.79296875 -5181.67431640625 C -9526.6943359375 -5181.6806640625 -9526.595703125 -5181.6787109375 -9526.4970703125 -5181.67626953125 C -9526.4462890625 -5181.67529296875 -9526.39453125 -5181.67431640625 -9526.3427734375 -5181.67431640625 C -9526.03515625 -5181.67431640625 -9525.71484375 -5181.71142578125 -9525.38671875 -5182.00927734375 C -9525.3818359375 -5182.677734375 -9525.34375 -5183.4375 -9525.376953125 -5184.1943359375 C -9525.4111328125 -5184.98876953125 -9525.2158203125 -5185.8212890625 -9525.6318359375 -5186.5595703125 C -9527.28515625 -5186.9375 -9528.8974609375 -5187.072265625 -9530.513671875 -5186.96337890625 C -9533.8291015625 -5186.740234375 -9536.2509765625 -5184.8759765625 -9536.888671875 -5181.4599609375 C -9537.0751953125 -5180.4638671875 -9537.0859375 -5179.4287109375 -9537.12109375 -5178.40966796875 C -9537.16015625 -5177.3388671875 -9537.1298828125 -5176.26806640625 -9537.1298828125 -5175.02001953125 C -9537.9111328125 -5174.8720703125 -9538.671875 -5174.88037109375 -9539.416015625 -5174.888671875 C -9540.279296875 -5174.89697265625 -9541.1259765625 -5174.9052734375 -9541.9716796875 -5174.67529296875 C -9541.982421875 -5172.82666015625 -9542.0654296875 -5171.05517578125 -9541.884765625 -5169.23876953125 C -9541.09765625 -5169.0673828125 -9540.3154296875 -5169.08349609375 -9539.5361328125 -5169.09912109375 C -9538.7294921875 -5169.11669921875 -9537.91796875 -5169.13232421875 -9537.10546875 -5168.93701171875 C -9537.08984375 -5168.341796875 -9537.068359375 -5167.8349609375 -9537.064453125 -5167.32861328125 C -9537.0556640625 -5166.52978515625 -9537.0498046875 -5165.7314453125 -9537.04296875 -5164.93310546875 L -9530.853515625 -5164.93310546875 M -9536.97265625 -5154 C -9537.9501953125 -5154 -9538.9150390625 -5154.048828125 -9539.6884765625 -5154.1376953125 L -9540.0634765625 -5154.18115234375 L -9540.31640625 -5154.4609375 C -9540.8916015625 -5155.09765625 -9540.8642578125 -5155.83251953125 -9540.8466796875 -5156.318359375 C -9540.8427734375 -5156.40771484375 -9540.83984375 -5156.49169921875 -9540.8408203125 -5156.56494140625 C -9540.8447265625 -5156.875 -9540.84765625 -5157.18701171875 -9540.849609375 -5157.49951171875 C -9540.8515625 -5157.73193359375 -9540.853515625 -5157.96435546875 -9540.8564453125 -5158.19677734375 L -9540.8671875 -5159.20751953125 L -9539.4345703125 -5159.20751953125 C -9539.4521484375 -5161.01318359375 -9539.4697265625 -5162.89404296875 -9539.486328125 -5164.9248046875 L -9539.4951171875 -5165.93310546875 L -9538.0517578125 -5165.93310546875 C -9538.0556640625 -5166.39453125 -9538.0595703125 -5166.85595703125 -9538.064453125 -5167.3173828125 C -9538.06640625 -5167.56640625 -9538.072265625 -5167.81884765625 -9538.080078125 -5168.08056640625 C -9538.3525390625 -5168.103515625 -9538.615234375 -5168.1083984375 -9538.85546875 -5168.1083984375 C -9539.072265625 -5168.1083984375 -9539.2978515625 -5168.10400390625 -9539.515625 -5168.09912109375 C -9539.74609375 -5168.0947265625 -9539.9814453125 -5168.08984375 -9540.216796875 -5168.08984375 C -9540.7255859375 -5168.08984375 -9541.3984375 -5168.109375 -9542.09765625 -5168.26171875 L -9542.8076171875 -5168.41650390625 L -9542.8798828125 -5169.1396484375 C -9543.02734375 -5170.6181640625 -9543.005859375 -5172.08056640625 -9542.9853515625 -5173.49462890625 C -9542.9794921875 -5173.88232421875 -9542.9736328125 -5174.28369140625 -9542.9716796875 -5174.68115234375 L -9542.966796875 -5175.4404296875 L -9542.234375 -5175.64013671875 C -9541.4228515625 -5175.861328125 -9540.6337890625 -5175.8916015625 -9539.9013671875 -5175.8916015625 C -9539.7392578125 -5175.8916015625 -9539.5771484375 -5175.89013671875 -9539.4140625 -5175.888671875 L -9539.40625 -5175.888671875 C -9539.236328125 -5175.88671875 -9539.0673828125 -5175.884765625 -9538.8974609375 -5175.884765625 C -9538.66015625 -5175.884765625 -9538.4013671875 -5175.88818359375 -9538.1337890625 -5175.90478515625 C -9538.134765625 -5175.9833984375 -9538.134765625 -5176.06201171875 -9538.1357421875 -5176.1396484375 C -9538.1416015625 -5176.9365234375 -9538.1484375 -5177.68896484375 -9538.1201171875 -5178.4462890625 C -9538.1162109375 -5178.56884765625 -9538.1123046875 -5178.69384765625 -9538.1083984375 -5178.8193359375 C -9538.0791015625 -5179.74169921875 -9538.048828125 -5180.6953125 -9537.8720703125 -5181.64404296875 C -9537.5166015625 -5183.54541015625 -9536.6669921875 -5185.0703125 -9535.34765625 -5186.17578125 C -9534.103515625 -5187.2177734375 -9532.455078125 -5187.8349609375 -9530.5810546875 -5187.9609375 C -9530.2001953125 -5187.98681640625 -9529.8134765625 -5188 -9529.431640625 -5188 C -9528.09765625 -5188 -9526.78125 -5187.84765625 -9525.4091796875 -5187.53466796875 L -9524.9775390625 -5187.43603515625 L -9524.7607421875 -5187.05029296875 C -9524.3203125 -5186.2685546875 -9524.3486328125 -5185.462890625 -9524.37109375 -5184.81494140625 C -9524.37890625 -5184.609375 -9524.3857421875 -5184.4150390625 -9524.3779296875 -5184.2373046875 C -9524.353515625 -5183.67919921875 -9524.365234375 -5183.11767578125 -9524.3759765625 -5182.6220703125 C -9524.380859375 -5182.404296875 -9524.3857421875 -5182.19873046875 -9524.38671875 -5182.001953125 L -9524.3896484375 -5181.5634765625 L -9524.71484375 -5181.2685546875 C -9525.2958984375 -5180.74169921875 -9525.8896484375 -5180.67431640625 -9526.3427734375 -5180.67431640625 C -9526.4482421875 -5180.67431640625 -9526.55078125 -5180.67822265625 -9526.646484375 -5180.67822265625 C -9526.681640625 -5180.67822265625 -9526.708984375 -5180.677734375 -9526.732421875 -5180.67626953125 C -9526.990234375 -5180.66015625 -9527.2412109375 -5180.658203125 -9527.484375 -5180.65625 C -9527.8330078125 -5180.65380859375 -9528.1630859375 -5180.6513671875 -9528.4599609375 -5180.60693359375 C -9529.2431640625 -5180.4892578125 -9529.681640625 -5180.0986328125 -9529.8818359375 -5179.34033203125 C -9530.017578125 -5178.82763671875 -9530.013671875 -5177.0390625 -9529.8740234375 -5175.9091796875 C -9529.65234375 -5175.892578125 -9529.408203125 -5175.884765625 -9529.1298828125 -5175.884765625 C -9528.8759765625 -5175.884765625 -9528.6220703125 -5175.890625 -9528.3544921875 -5175.89697265625 C -9528.0830078125 -5175.90380859375 -9527.802734375 -5175.91064453125 -9527.5166015625 -5175.91064453125 C -9526.98828125 -5175.91064453125 -9526.2880859375 -5175.89013671875 -9525.5556640625 -5175.73095703125 L -9524.9892578125 -5175.60791015625 L -9524.814453125 -5175.0556640625 C -9524.533203125 -5174.16650390625 -9524.7060546875 -5173.369140625 -9524.8447265625 -5172.728515625 C -9524.904296875 -5172.45068359375 -9524.9619140625 -5172.1884765625 -9524.974609375 -5171.95751953125 C -9525.0107421875 -5171.26318359375 -9525.13671875 -5170.587890625 -9525.2578125 -5169.93505859375 C -9525.30859375 -5169.66552734375 -9525.3603515625 -5169.38623046875 -9525.404296875 -5169.11279296875 L -9525.5107421875 -5168.453125 L -9526.1611328125 -5168.298828125 C -9526.8798828125 -5168.12841796875 -9527.5576171875 -5168.10546875 -9528.1259765625 -5168.10546875 C -9528.333984375 -5168.10546875 -9528.53515625 -5168.10888671875 -9528.73046875 -5168.1123046875 C -9528.9326171875 -5168.1162109375 -9529.1201171875 -5168.11962890625 -9529.3076171875 -5168.11962890625 C -9529.4775390625 -5168.11962890625 -9529.6748046875 -5168.1171875 -9529.880859375 -5168.10400390625 C -9529.8876953125 -5167.9833984375 -9529.8828125 -5167.8427734375 -9529.8759765625 -5167.66796875 C -9529.87109375 -5167.55615234375 -9529.8662109375 -5167.4404296875 -9529.8662109375 -5167.318359375 C -9529.865234375 -5166.8857421875 -9529.8623046875 -5166.4541015625 -9529.859375 -5166.0224609375 C -9529.857421875 -5165.66064453125 -9529.8544921875 -5165.298828125 -9529.853515625 -5164.93701171875 L -9529.849609375 -5163.93310546875 L -9531.2890625 -5163.93310546875 C -9531.2841796875 -5163.1494140625 -9531.2802734375 -5162.365234375 -9531.275390625 -5161.5810546875 C -9531.2685546875 -5160.45849609375 -9531.2626953125 -5159.3359375 -9531.255859375 -5158.21337890625 L -9531.25 -5157.20751953125 L -9532.6826171875 -5157.20751953125 L -9532.6796875 -5156.720703125 C -9532.677734375 -5156.33837890625 -9532.703125 -5155.97509765625 -9532.7265625 -5155.6240234375 C -9532.736328125 -5155.4765625 -9532.74609375 -5155.3369140625 -9532.7529296875 -5155.20166015625 L -9532.79296875 -5154.4580078125 L -9533.5166015625 -5154.28271484375 C -9534.5693359375 -5154.02734375 -9536.2841796875 -5154 -9536.97265625 -5154 Z" stroke="none" fill="#fff"/>
  </g>
</svg>
