<svg xmlns="http://www.w3.org/2000/svg" width="43.712" height="42.078" viewBox="0 0 43.712 42.078">
  <g id="instagram" transform="translate(9698.031 4887.999)" fill="#16161c">
    <path d="M -9677.021484375 -4846.42138671875 C -9678.6826171875 -4846.42138671875 -9680.3935546875 -4846.43310546875 -9682.1044921875 -4846.45556640625 C -9683.7744140625 -4846.47705078125 -9685.40625 -4846.572265625 -9686.9521484375 -4846.73876953125 C -9692.77734375 -4847.3701171875 -9696.6875 -4851.42529296875 -9697.1552734375 -4857.32177734375 C -9697.3310546875 -4859.53955078125 -9697.37890625 -4861.81298828125 -9697.42578125 -4864.01123046875 C -9697.4462890625 -4864.990234375 -9697.4677734375 -4866.0029296875 -9697.5 -4867.00732421875 L -9697.515625 -4867.50341796875 L -9697.01953125 -4867.52294921875 C -9696.44140625 -4867.5458984375 -9695.9140625 -4867.56591796875 -9695.4228515625 -4867.5830078125 C -9695.400390625 -4868.3701171875 -9695.380859375 -4869.169921875 -9695.36328125 -4869.94775390625 C -9695.3115234375 -4872.103515625 -9695.2587890625 -4874.3330078125 -9695.1259765625 -4876.5390625 C -9694.9560546875 -4879.31982421875 -9693.96875 -4881.71435546875 -9692.19140625 -4883.65673828125 C -9690.232421875 -4885.79638671875 -9687.69140625 -4886.96044921875 -9684.421875 -4887.21533203125 C -9682.2138671875 -4887.3876953125 -9680.0087890625 -4887.47509765625 -9677.8671875 -4887.47509765625 L -9677.796875 -4887.47509765625 C -9676.931640625 -4887.47509765625 -9676.0693359375 -4887.48095703125 -9675.1884765625 -4887.4873046875 C -9674.3896484375 -4887.4931640625 -9673.5634765625 -4887.4990234375 -9672.7353515625 -4887.4990234375 C -9670.8046875 -4887.4990234375 -9668.515625 -4887.47119140625 -9666.1689453125 -4887.265625 C -9664.62890625 -4887.1298828125 -9663.462890625 -4886.89892578125 -9662.3876953125 -4886.51806640625 C -9658.9912109375 -4885.3125 -9656.705078125 -4882.9697265625 -9655.5947265625 -4879.5556640625 C -9655.0859375 -4877.9892578125 -9654.8369140625 -4876.5595703125 -9654.833984375 -4875.18408203125 C -9654.826171875 -4872.61328125 -9654.8232421875 -4870.00048828125 -9654.8203125 -4867.4736328125 L -9654.8203125 -4867.46044921875 L -9654.8193359375 -4866.9716796875 L -9655.30859375 -4866.9599609375 C -9655.8056640625 -4866.9482421875 -9656.326171875 -4866.93701171875 -9656.88671875 -4866.92578125 C -9656.884765625 -4863.6103515625 -9656.8857421875 -4860.87255859375 -9656.8896484375 -4858.34326171875 C -9656.8935546875 -4856.8720703125 -9657.193359375 -4855.341796875 -9657.7802734375 -4853.7939453125 C -9659.3359375 -4849.70751953125 -9662.4013671875 -4847.345703125 -9666.8935546875 -4846.77294921875 C -9668.763671875 -4846.5341796875 -9670.66796875 -4846.47802734375 -9672.2841796875 -4846.45458984375 C -9673.83203125 -4846.4326171875 -9675.42578125 -4846.42138671875 -9677.021484375 -4846.42138671875 Z M -9692.8828125 -4866.5986328125 C -9692.8525390625 -4865.75927734375 -9692.826171875 -4864.92236328125 -9692.80078125 -4864.1083984375 C -9692.732421875 -4861.91943359375 -9692.66796875 -4859.8515625 -9692.5361328125 -4857.748046875 C -9692.310546875 -4854.10400390625 -9690.166015625 -4851.83154296875 -9686.4951171875 -4851.3486328125 C -9685.611328125 -4851.23291015625 -9684.7470703125 -4851.1279296875 -9683.89453125 -4851.11865234375 C -9680.5380859375 -4851.0810546875 -9677.2529296875 -4851.04736328125 -9673.9638671875 -4851.04736328125 C -9673.095703125 -4851.04736328125 -9672.2451171875 -4851.0498046875 -9671.435546875 -4851.0546875 C -9670.0341796875 -4851.0625 -9668.6201171875 -4851.23046875 -9667.4208984375 -4851.3935546875 C -9664.4794921875 -4851.7939453125 -9662.48828125 -4853.61767578125 -9661.8134765625 -4856.52734375 C -9661.62890625 -4857.32421875 -9661.5341796875 -4858.12158203125 -9661.5302734375 -4858.89697265625 C -9661.5234375 -4861.7138671875 -9661.5234375 -4864.57177734375 -9661.5302734375 -4867.39013671875 L -9661.53125 -4867.88427734375 L -9661.037109375 -4867.89111328125 C -9660.5517578125 -4867.89794921875 -9660.0341796875 -4867.90625 -9659.4658203125 -4867.91650390625 C -9659.4716796875 -4870.0732421875 -9659.482421875 -4872.33056640625 -9659.49609375 -4874.63525390625 C -9659.5009765625 -4875.435546875 -9659.5810546875 -4876.24169921875 -9659.734375 -4877.03125 C -9660.3134765625 -4880.0185546875 -9661.94921875 -4881.75634765625 -9664.7353515625 -4882.34375 C -9665.41796875 -4882.48828125 -9666.19140625 -4882.65185546875 -9666.9169921875 -4882.654296875 C -9669.044921875 -4882.6630859375 -9671.275390625 -4882.6669921875 -9673.736328125 -4882.6669921875 C -9677.0791015625 -4882.6669921875 -9680.3935546875 -4882.6591796875 -9683.478515625 -4882.65087890625 C -9684.5380859375 -4882.64794921875 -9685.603515625 -4882.40771484375 -9686.734375 -4881.91650390625 C -9688.248046875 -4881.25830078125 -9689.3310546875 -4880.12646484375 -9689.953125 -4878.55224609375 C -9690.306640625 -4877.65478515625 -9690.4921875 -4876.79931640625 -9690.51953125 -4875.93798828125 C -9690.5859375 -4873.8310546875 -9690.6640625 -4871.70751953125 -9690.740234375 -4869.654296875 C -9690.7724609375 -4868.8056640625 -9690.8037109375 -4867.96337890625 -9690.8330078125 -4867.12890625 L -9690.8505859375 -4866.66064453125 L -9691.318359375 -4866.64697265625 C -9691.8037109375 -4866.63330078125 -9692.3095703125 -4866.61767578125 -9692.8828125 -4866.5986328125 Z M -9677.041015625 -4856.150390625 L -9677.046875 -4856.150390625 C -9679.875 -4856.150390625 -9682.6640625 -4857.33642578125 -9684.69921875 -4859.40380859375 C -9686.73828125 -4861.47705078125 -9687.8369140625 -4864.18994140625 -9687.7919921875 -4867.0439453125 C -9687.7919921875 -4867.1083984375 -9687.7890625 -4867.16748046875 -9687.7861328125 -4867.224609375 L -9687.7841796875 -4867.28662109375 L -9687.765625 -4867.76171875 L -9687.2900390625 -4867.767578125 C -9686.76953125 -4867.77392578125 -9686.2353515625 -4867.7802734375 -9685.6953125 -4867.78564453125 C -9685.509765625 -4870.3798828125 -9684.41015625 -4872.796875 -9682.568359375 -4874.63623046875 C -9680.580078125 -4876.62255859375 -9677.92578125 -4877.71630859375 -9675.0966796875 -4877.71630859375 C -9675.06640625 -4877.71630859375 -9675.037109375 -4877.7158203125 -9675.0068359375 -4877.7158203125 C -9672.224609375 -4877.69384765625 -9669.59765625 -4876.6123046875 -9667.607421875 -4874.66943359375 C -9665.62890625 -4872.7373046875 -9664.46875 -4870.14111328125 -9664.33984375 -4867.35791015625 L -9664.3154296875 -4866.83740234375 L -9664.8359375 -4866.8349609375 C -9665.35546875 -4866.83251953125 -9665.875 -4866.83056640625 -9666.39453125 -4866.82861328125 C -9666.39453125 -4866.802734375 -9666.39453125 -4866.77685546875 -9666.39453125 -4866.7509765625 C -9666.4150390625 -4863.94140625 -9667.5419921875 -4861.28515625 -9669.56640625 -4859.271484375 C -9671.5888671875 -4857.2607421875 -9674.2431640625 -4856.15234375 -9677.041015625 -4856.150390625 Z M -9683.146484375 -4866.7900390625 C -9683.126953125 -4863.91748046875 -9681.130859375 -4861.0009765625 -9677.2255859375 -4860.8017578125 C -9677.1357421875 -4860.796875 -9677.0458984375 -4860.794921875 -9676.9560546875 -4860.794921875 C -9673.822265625 -4860.79443359375 -9671.1318359375 -4863.548828125 -9671.080078125 -4866.80908203125 C -9671.076171875 -4866.97509765625 -9671.0869140625 -4867.14453125 -9671.0966796875 -4867.29052734375 L -9671.1328125 -4867.82373046875 L -9670.59765625 -4867.82421875 C -9670.0927734375 -4867.82470703125 -9669.5888671875 -4867.82568359375 -9669.0849609375 -4867.82666015625 C -9669.51171875 -4870.7529296875 -9671.9736328125 -4873.01318359375 -9674.900390625 -4873.06591796875 C -9674.935546875 -4873.06640625 -9674.970703125 -4873.06689453125 -9675.0048828125 -4873.06689453125 C -9677.75390625 -4873.06689453125 -9680.8095703125 -4871.03515625 -9681.05859375 -4867.26953125 L -9681.08984375 -4866.8056640625 L -9681.5546875 -4866.802734375 C -9682.0634765625 -4866.79931640625 -9682.587890625 -4866.79541015625 -9683.146484375 -4866.7900390625 Z M -9664.474609375 -4874.7333984375 L -9664.4755859375 -4874.7333984375 L -9664.4765625 -4874.7333984375 L -9664.48828125 -4874.7333984375 C -9666.1337890625 -4874.7333984375 -9667.337890625 -4875.93505859375 -9667.3505859375 -4877.59033203125 C -9667.3583984375 -4878.4228515625 -9667.08984375 -4879.138671875 -9666.5751953125 -4879.6591796875 C -9666.0615234375 -4880.1787109375 -9665.3505859375 -4880.4541015625 -9664.51953125 -4880.4560546875 C -9662.84765625 -4880.4560546875 -9661.6337890625 -4879.26416015625 -9661.62890625 -4877.62255859375 C -9661.6240234375 -4875.982421875 -9662.84765625 -4874.740234375 -9664.474609375 -4874.7333984375 Z" stroke="none"/>
    <path d="M -9677.021484375 -4846.92138671875 C -9675.4443359375 -4846.92138671875 -9673.8671875 -4846.93212890625 -9672.291015625 -4846.95458984375 C -9670.51171875 -4846.98046875 -9668.720703125 -4847.0439453125 -9666.95703125 -4847.26904296875 C -9662.7890625 -4847.80029296875 -9659.7763671875 -4849.95556640625 -9658.248046875 -4853.97119140625 C -9657.7177734375 -4855.36865234375 -9657.3935546875 -4856.837890625 -9657.3896484375 -4858.34423828125 C -9657.384765625 -4861.36865234375 -9657.384765625 -4864.39208984375 -9657.38671875 -4867.41650390625 C -9656.697265625 -4867.42919921875 -9656.0087890625 -4867.443359375 -9655.3203125 -4867.4599609375 C -9655.3232421875 -4870.03466796875 -9655.326171875 -4872.60791015625 -9655.333984375 -4875.18310546875 C -9655.3369140625 -4876.6279296875 -9655.626953125 -4878.037109375 -9656.0703125 -4879.40087890625 C -9657.13671875 -4882.67919921875 -9659.30859375 -4884.89453125 -9662.5546875 -4886.046875 C -9663.7421875 -4886.4677734375 -9664.962890625 -4886.6572265625 -9666.212890625 -4886.767578125 C -9669.19921875 -4887.029296875 -9672.193359375 -4887.00830078125 -9675.1845703125 -4886.9873046875 C -9676.0546875 -4886.98095703125 -9676.92578125 -4886.97509765625 -9677.796875 -4886.97509765625 C -9677.8203125 -4886.97509765625 -9677.84375 -4886.97509765625 -9677.8671875 -4886.97509765625 C -9680.0390625 -4886.97509765625 -9682.2177734375 -4886.8857421875 -9684.3828125 -4886.716796875 C -9687.251953125 -4886.4931640625 -9689.810546875 -4885.51708984375 -9691.822265625 -4883.3193359375 C -9693.5927734375 -4881.384765625 -9694.470703125 -4879.06787109375 -9694.626953125 -4876.5087890625 C -9694.8173828125 -4873.35400390625 -9694.841796875 -4870.1875 -9694.9365234375 -4867.11328125 C -9694.9365234375 -4867.1083984375 -9694.9365234375 -4867.10400390625 -9694.9365234375 -4867.099609375 C -9695.6240234375 -4867.07666015625 -9696.3125 -4867.05078125 -9697 -4867.0234375 C -9696.89453125 -4863.7431640625 -9696.908203125 -4860.541015625 -9696.6572265625 -4857.361328125 C -9696.2099609375 -4851.7294921875 -9692.4921875 -4847.84228515625 -9686.8984375 -4847.23583984375 C -9685.306640625 -4847.064453125 -9683.69921875 -4846.97607421875 -9682.09765625 -4846.95556640625 C -9680.4052734375 -4846.93310546875 -9678.712890625 -4846.92138671875 -9677.021484375 -4846.92138671875 M -9673.736328125 -4883.1669921875 C -9671.462890625 -4883.1669921875 -9669.1884765625 -4883.16357421875 -9666.9150390625 -4883.154296875 C -9666.1533203125 -4883.15185546875 -9665.3837890625 -4882.9921875 -9664.6318359375 -4882.8330078125 C -9661.5361328125 -4882.18017578125 -9659.83203125 -4880.16357421875 -9659.2431640625 -4877.12646484375 C -9659.0849609375 -4876.31103515625 -9659.0009765625 -4875.4677734375 -9658.99609375 -4874.63818359375 C -9658.9814453125 -4872.23388671875 -9658.970703125 -4869.82958984375 -9658.96484375 -4867.42529296875 C -9659.65234375 -4867.41259765625 -9660.341796875 -4867.40087890625 -9661.0302734375 -4867.39111328125 C -9661.0234375 -4864.55908203125 -9661.0234375 -4861.7265625 -9661.0302734375 -4858.89453125 C -9661.0341796875 -4858.06689453125 -9661.1396484375 -4857.2216796875 -9661.326171875 -4856.41455078125 C -9662.0517578125 -4853.2861328125 -9664.185546875 -4851.32958984375 -9667.353515625 -4850.89794921875 C -9668.7041015625 -4850.71435546875 -9670.0712890625 -4850.5625 -9671.4326171875 -4850.5546875 C -9675.5888671875 -4850.5302734375 -9679.74609375 -4850.572265625 -9683.900390625 -4850.61865234375 C -9684.787109375 -4850.62841796875 -9685.677734375 -4850.7373046875 -9686.560546875 -4850.85302734375 C -9690.4501953125 -4851.36474609375 -9692.79296875 -4853.79638671875 -9693.03515625 -4857.716796875 C -9693.228515625 -4860.79833984375 -9693.2802734375 -4863.8896484375 -9693.400390625 -4867.0810546875 C -9692.7109375 -4867.10498046875 -9692.0224609375 -4867.12744140625 -9691.3330078125 -4867.14697265625 C -9691.2294921875 -4870.0166015625 -9691.1123046875 -4872.98486328125 -9691.01953125 -4875.9541015625 C -9690.98828125 -4876.92431640625 -9690.7685546875 -4877.84619140625 -9690.41796875 -4878.73583984375 C -9689.7529296875 -4880.419921875 -9688.5947265625 -4881.65283203125 -9686.93359375 -4882.375 C -9685.833984375 -4882.8525390625 -9684.681640625 -4883.1474609375 -9683.4794921875 -4883.15087890625 C -9680.232421875 -4883.15966796875 -9676.984375 -4883.1669921875 -9673.736328125 -4883.1669921875 M -9677.046875 -4856.650390625 C -9677.044921875 -4856.650390625 -9677.04296875 -4856.650390625 -9677.041015625 -4856.650390625 C -9671.5361328125 -4856.65380859375 -9666.935546875 -4861.2138671875 -9666.89453125 -4866.755859375 C -9666.892578125 -4866.94873046875 -9666.896484375 -4867.13818359375 -9666.9052734375 -4867.3271484375 C -9666.216796875 -4867.3291015625 -9665.52734375 -4867.33154296875 -9664.8388671875 -4867.3349609375 C -9665.0927734375 -4872.80810546875 -9669.509765625 -4877.1728515625 -9675.0107421875 -4877.2158203125 C -9675.0390625 -4877.2158203125 -9675.0673828125 -4877.21630859375 -9675.0966796875 -4877.21630859375 C -9680.732421875 -4877.21630859375 -9685.0712890625 -4872.70166015625 -9685.21875 -4867.2900390625 C -9685.908203125 -4867.2841796875 -9686.59765625 -4867.27587890625 -9687.2841796875 -4867.267578125 C -9687.287109375 -4867.19140625 -9687.2919921875 -4867.11669921875 -9687.2919921875 -4867.0400390625 C -9687.384765625 -4861.29931640625 -9682.5849609375 -4856.650390625 -9677.046875 -4856.650390625 M -9675.0048828125 -4873.56689453125 C -9674.9677734375 -4873.56689453125 -9674.9296875 -4873.56640625 -9674.8916015625 -4873.56591796875 C -9671.48046875 -4873.50439453125 -9668.7373046875 -4870.76708984375 -9668.53125 -4867.32861328125 C -9669.2197265625 -4867.326171875 -9669.908203125 -4867.32470703125 -9670.59765625 -4867.32421875 C -9670.5859375 -4867.1513671875 -9670.576171875 -4866.9775390625 -9670.580078125 -4866.80126953125 C -9670.634765625 -4863.310546875 -9673.5517578125 -4860.29443359375 -9676.9560546875 -4860.294921875 C -9677.0537109375 -4860.294921875 -9677.15234375 -4860.29736328125 -9677.2509765625 -4860.30224609375 C -9681.630859375 -4860.52587890625 -9683.755859375 -4863.990234375 -9683.642578125 -4867.0751953125 C -9683.640625 -4867.14697265625 -9683.630859375 -4867.21435546875 -9683.6240234375 -4867.28564453125 C -9682.935546875 -4867.29248046875 -9682.24609375 -4867.29833984375 -9681.5576171875 -4867.302734375 C -9681.294921875 -4871.26513671875 -9678.1259765625 -4873.56689453125 -9675.0048828125 -4873.56689453125 M -9664.4765625 -4875.2333984375 C -9663.119140625 -4875.2392578125 -9662.125 -4876.25146484375 -9662.12890625 -4877.62109375 C -9662.1328125 -4878.98046875 -9663.130859375 -4879.9560546875 -9664.515625 -4879.9560546875 C -9664.5166015625 -4879.9560546875 -9664.517578125 -4879.9560546875 -9664.5185546875 -4879.9560546875 C -9665.935546875 -4879.953125 -9666.86328125 -4879.013671875 -9666.8505859375 -4877.59423828125 C -9666.83984375 -4876.22119140625 -9665.849609375 -4875.2333984375 -9664.48828125 -4875.2333984375 C -9664.484375 -4875.2333984375 -9664.4794921875 -4875.2333984375 -9664.4765625 -4875.2333984375 M -9677.021484375 -4845.92138671875 C -9678.685546875 -4845.92138671875 -9680.3974609375 -4845.93310546875 -9682.111328125 -4845.95556640625 C -9683.796875 -4845.97705078125 -9685.443359375 -4846.0732421875 -9687.005859375 -4846.24169921875 C -9689.9833984375 -4846.564453125 -9692.5498046875 -4847.767578125 -9694.4287109375 -4849.720703125 C -9696.30078125 -4851.66748046875 -9697.416015625 -4854.28173828125 -9697.654296875 -4857.2822265625 C -9697.830078125 -4859.5146484375 -9697.87890625 -4861.79541015625 -9697.9248046875 -4864.0009765625 C -9697.9462890625 -4864.978515625 -9697.966796875 -4865.9892578125 -9697.9990234375 -4866.9912109375 L -9698.03125 -4867.9833984375 L -9697.0400390625 -4868.0224609375 C -9696.6396484375 -4868.03857421875 -9696.265625 -4868.052734375 -9695.9091796875 -4868.06591796875 C -9695.892578125 -4868.69921875 -9695.8779296875 -4869.33642578125 -9695.86328125 -4869.95947265625 C -9695.8115234375 -4872.1201171875 -9695.7587890625 -4874.35400390625 -9695.625 -4876.56884765625 C -9695.4482421875 -4879.46728515625 -9694.4169921875 -4881.96533203125 -9692.5595703125 -4883.99462890625 C -9691.5 -4885.15234375 -9690.2431640625 -4886.05419921875 -9688.8251953125 -4886.67431640625 C -9687.5341796875 -4887.23876953125 -9686.06640625 -4887.5888671875 -9684.4609375 -4887.7138671875 C -9682.240234375 -4887.88720703125 -9680.021484375 -4887.97509765625 -9677.8671875 -4887.97509765625 L -9677.7958984375 -4887.97509765625 C -9676.9326171875 -4887.97509765625 -9676.0712890625 -4887.98095703125 -9675.19140625 -4887.9873046875 C -9674.392578125 -4887.9931640625 -9673.5654296875 -4887.9990234375 -9672.7353515625 -4887.9990234375 C -9670.7939453125 -4887.9990234375 -9668.4912109375 -4887.97119140625 -9666.1259765625 -4887.763671875 C -9664.541015625 -4887.6240234375 -9663.3369140625 -4887.38525390625 -9662.220703125 -4886.9892578125 C -9658.669921875 -4885.72900390625 -9656.2802734375 -4883.27978515625 -9655.119140625 -4879.71044921875 C -9654.59375 -4878.09326171875 -9654.3369140625 -4876.61328125 -9654.333984375 -4875.18505859375 C -9654.326171875 -4872.6142578125 -9654.3232421875 -4870.00146484375 -9654.3203125 -4867.47412109375 L -9654.3193359375 -4866.48388671875 L -9655.2958984375 -4866.46044921875 C -9655.646484375 -4866.45166015625 -9656.0078125 -4866.44384765625 -9656.3857421875 -4866.43603515625 C -9656.384765625 -4863.3388671875 -9656.3857421875 -4860.74609375 -9656.3896484375 -4858.3427734375 C -9656.3935546875 -4856.810546875 -9656.7041015625 -4855.220703125 -9657.3134765625 -4853.6162109375 C -9658.130859375 -4851.466796875 -9659.375 -4849.7509765625 -9661.009765625 -4848.515625 C -9662.5908203125 -4847.32080078125 -9664.548828125 -4846.56787109375 -9666.8310546875 -4846.27685546875 C -9668.7255859375 -4846.03515625 -9670.646484375 -4845.978515625 -9672.2763671875 -4845.95458984375 C -9673.8271484375 -4845.9326171875 -9675.423828125 -4845.92138671875 -9677.021484375 -4845.92138671875 Z M -9692.365234375 -4866.115234375 C -9692.3427734375 -4865.44384765625 -9692.3212890625 -4864.7763671875 -9692.30078125 -4864.1240234375 C -9692.2333984375 -4861.93896484375 -9692.1689453125 -4859.875 -9692.037109375 -4857.779296875 C -9691.8251953125 -4854.35107421875 -9689.88671875 -4852.29931640625 -9686.4296875 -4851.8447265625 C -9685.5615234375 -4851.73046875 -9684.7138671875 -4851.62744140625 -9683.8896484375 -4851.61865234375 C -9680.5341796875 -4851.5810546875 -9677.25 -4851.54736328125 -9673.9638671875 -4851.54736328125 C -9673.0966796875 -4851.54736328125 -9672.2470703125 -4851.5498046875 -9671.4384765625 -4851.5546875 C -9670.0654296875 -4851.5625 -9668.6708984375 -4851.72802734375 -9667.48828125 -4851.888671875 C -9664.728515625 -4852.26513671875 -9662.93359375 -4853.908203125 -9662.30078125 -4856.640625 C -9662.125 -4857.400390625 -9662.0341796875 -4858.16064453125 -9662.0302734375 -4858.8994140625 C -9662.0234375 -4861.71435546875 -9662.0234375 -4864.5712890625 -9662.0302734375 -4867.388671875 L -9662.0322265625 -4868.376953125 L -9661.044921875 -4868.39111328125 C -9660.7041015625 -4868.39599609375 -9660.3466796875 -4868.4013671875 -9659.9677734375 -4868.40771484375 C -9659.9736328125 -4870.4140625 -9659.9833984375 -4872.5029296875 -9659.99609375 -4874.63232421875 C -9660.0009765625 -4875.40185546875 -9660.0771484375 -4876.1767578125 -9660.224609375 -4876.93603515625 C -9660.76171875 -4879.7041015625 -9662.2705078125 -4881.31298828125 -9664.837890625 -4881.8544921875 C -9665.498046875 -4881.994140625 -9666.244140625 -4882.15234375 -9666.91796875 -4882.154296875 C -9669.046875 -4882.1630859375 -9671.2763671875 -4882.1669921875 -9673.736328125 -4882.1669921875 C -9677.080078125 -4882.1669921875 -9680.39453125 -4882.1591796875 -9683.4765625 -4882.15087890625 C -9684.4677734375 -4882.14794921875 -9685.4677734375 -4881.92138671875 -9686.53515625 -4881.45751953125 C -9687.9423828125 -4880.845703125 -9688.908203125 -4879.83544921875 -9689.48828125 -4878.36865234375 C -9689.8203125 -4877.52587890625 -9689.994140625 -4876.72509765625 -9690.0205078125 -4875.921875 C -9690.0859375 -4873.81396484375 -9690.1650390625 -4871.68994140625 -9690.2412109375 -4869.6357421875 C -9690.2724609375 -4868.78759765625 -9690.3037109375 -4867.94482421875 -9690.333984375 -4867.11083984375 L -9690.3671875 -4866.173828125 L -9691.3046875 -4866.1474609375 C -9691.642578125 -4866.1376953125 -9691.9912109375 -4866.12744140625 -9692.365234375 -4866.115234375 Z M -9677.0400390625 -4855.650390625 L -9677.046875 -4855.650390625 C -9680.0087890625 -4855.650390625 -9682.927734375 -4856.890625 -9685.0556640625 -4859.05322265625 C -9687.189453125 -4861.2216796875 -9688.337890625 -4864.06103515625 -9688.2919921875 -4867.048828125 C -9688.2919921875 -4867.123046875 -9688.2890625 -4867.18896484375 -9688.2861328125 -4867.248046875 L -9688.283203125 -4867.30615234375 L -9688.2470703125 -4868.255859375 L -9687.2958984375 -4868.267578125 C -9686.9208984375 -4868.27197265625 -9686.5380859375 -4868.27685546875 -9686.1513671875 -4868.28076171875 C -9685.8671875 -4870.8203125 -9684.740234375 -4873.17431640625 -9682.921875 -4874.990234375 C -9680.8388671875 -4877.0703125 -9678.0595703125 -4878.21630859375 -9675.0966796875 -4878.21630859375 C -9675.064453125 -4878.21630859375 -9675.0341796875 -4878.2158203125 -9675.0029296875 -4878.2158203125 C -9672.091796875 -4878.19287109375 -9669.3408203125 -4877.060546875 -9667.2587890625 -4875.02734375 C -9665.189453125 -4873.00634765625 -9663.974609375 -4870.291015625 -9663.83984375 -4867.38134765625 L -9663.7919921875 -4866.34033203125 L -9664.833984375 -4866.3349609375 C -9665.1904296875 -4866.3330078125 -9665.5478515625 -4866.33154296875 -9665.9052734375 -4866.33056640625 C -9666.0302734375 -4863.5439453125 -9667.1953125 -4860.92431640625 -9669.2138671875 -4858.9169921875 C -9671.330078125 -4856.8125 -9674.109375 -4855.65234375 -9677.0400390625 -4855.650390625 Z M -9682.6220703125 -4866.294921875 C -9682.3916015625 -4863.83349609375 -9680.56640625 -4861.47265625 -9677.2001953125 -4861.30078125 C -9677.119140625 -4861.296875 -9677.037109375 -4861.294921875 -9676.9560546875 -4861.294921875 C -9674.138671875 -4861.29443359375 -9671.6259765625 -4863.875 -9671.580078125 -4866.81689453125 L -9671.580078125 -4866.8232421875 C -9671.5771484375 -4866.96533203125 -9671.5859375 -4867.12158203125 -9671.595703125 -4867.25634765625 L -9671.66796875 -4868.3232421875 L -9670.5986328125 -4868.32421875 C -9670.2958984375 -4868.32421875 -9669.994140625 -4868.32470703125 -9669.6923828125 -4868.3251953125 C -9670.298828125 -4870.73046875 -9672.4208984375 -4872.52099609375 -9674.9091796875 -4872.56591796875 C -9674.94140625 -4872.56640625 -9674.9736328125 -4872.56689453125 -9675.0048828125 -4872.56689453125 C -9677.5263671875 -4872.56689453125 -9680.330078125 -4870.69873046875 -9680.5595703125 -4867.23681640625 L -9680.62109375 -4866.30859375 L -9681.55078125 -4866.302734375 C -9681.8984375 -4866.30029296875 -9682.25390625 -4866.2978515625 -9682.6220703125 -4866.294921875 Z M -9664.474609375 -4874.2333984375 L -9664.48828125 -4874.2333984375 C -9665.4140625 -4874.2333984375 -9666.263671875 -4874.57373046875 -9666.8828125 -4875.19140625 C -9667.5 -4875.8076171875 -9667.84375 -4876.658203125 -9667.8505859375 -4877.58642578125 C -9667.859375 -4878.541015625 -9667.5322265625 -4879.40234375 -9666.9306640625 -4880.0107421875 C -9666.3291015625 -4880.6181640625 -9665.4736328125 -4880.9541015625 -9664.5205078125 -4880.9560546875 L -9664.515625 -4880.9560546875 C -9663.5830078125 -4880.9560546875 -9662.7265625 -4880.62109375 -9662.10546875 -4880.01318359375 C -9661.478515625 -4879.39990234375 -9661.1318359375 -4878.55126953125 -9661.12890625 -4877.6240234375 C -9661.123046875 -4875.69921875 -9662.560546875 -4874.24169921875 -9664.47265625 -4874.2333984375 L -9664.474609375 -4874.2333984375 Z" stroke="none" fill="#fff"/>
  </g>
</svg>
