<svg xmlns="http://www.w3.org/2000/svg" width="38.983" height="37.672" viewBox="0 0 38.983 37.672">
  <path id="Path_10499" data-name="Path 10499" d="M-4522.905-3612.329V-3625.5h7.742v13.171Zm-16.426,0V-3625.5h7.454v13.171Zm-12.814,0V-3625.5h7.156v13.171Zm31.24-13.171v-.011c0-3.615-1.369-5.635-4.229-5.635-3.116,0-4.743,2.1-4.743,5.635v.011h-7.454v-11.947h7.454v3.381a8.757,8.757,0,0,1,7.57-4.145c5.33,0,9.146,3.252,9.146,9.977v2.734Zm-29.239,0v-9.941h7.156v9.941Zm-.689-19.865a4.615,4.615,0,0,1,4.6-4.636,4.614,4.614,0,0,1,4.6,4.636,4.619,4.619,0,0,1-4.6,4.636A4.62,4.62,0,0,1-4550.834-3645.365Z" transform="translate(4552.146 3650)" fill="#16161e"/>
</svg>
