<svg xmlns="http://www.w3.org/2000/svg" width="44.48" height="42.076" viewBox="0 0 44.48 42.076">
  <g id="twit" transform="translate(9453.998 4899.15)" fill="#16161c">
    <path d="M -9426.5517578125 -4857.57421875 C -9427.62109375 -4857.57421875 -9428.6904296875 -4857.57470703125 -9429.7587890625 -4857.57470703125 C -9430.828125 -4857.5751953125 -9431.896484375 -4857.5751953125 -9432.96484375 -4857.5751953125 L -9433.46484375 -4857.5751953125 L -9433.46484375 -4857.6044921875 C -9434.396484375 -4857.6044921875 -9435.3271484375 -4857.603515625 -9436.2578125 -4857.60302734375 C -9437.3564453125 -4857.6025390625 -9438.4541015625 -4857.60205078125 -9439.5517578125 -4857.60205078125 C -9441.2509765625 -4857.60205078125 -9442.6474609375 -4857.603515625 -9443.947265625 -4857.60693359375 C -9446.2626953125 -4857.61328125 -9448.39453125 -4858.36962890625 -9450.1123046875 -4859.79345703125 C -9451.8310546875 -4861.2177734375 -9452.9677734375 -4863.169921875 -9453.3974609375 -4865.439453125 C -9453.494140625 -4865.955078125 -9453.5 -4866.47998046875 -9453.498046875 -4866.97314453125 C -9453.4970703125 -4868.95849609375 -9453.494140625 -4870.9453125 -9453.4921875 -4872.931640625 L -9453.4892578125 -4875.91064453125 L -9453.48828125 -4876.41015625 L -9452.9892578125 -4876.41015625 L -9451.1298828125 -4876.41015625 C -9451.125 -4880.02392578125 -9451.1181640625 -4884.64990234375 -9451.1025390625 -4889.24951171875 C -9451.083984375 -4894.2275390625 -9447.0771484375 -4898.42333984375 -9442.1708984375 -4898.60302734375 C -9441.0478515625 -4898.64453125 -9439.916015625 -4898.650390625 -9438.8603515625 -4898.650390625 C -9438.6103515625 -4898.650390625 -9438.359375 -4898.64990234375 -9438.1083984375 -4898.6494140625 L -9437.5693359375 -4898.64892578125 L -9436.896484375 -4898.64892578125 C -9431.4599609375 -4898.64697265625 -9425.837890625 -4898.64501953125 -9420.3095703125 -4898.62060546875 C -9419.4267578125 -4898.61669921875 -9418.484375 -4898.5859375 -9417.5693359375 -4898.38818359375 C -9413.8037109375 -4897.57373046875 -9411.3564453125 -4895.22509765625 -9410.294921875 -4891.408203125 C -9410.1005859375 -4890.71435546875 -9410.0126953125 -4889.95166015625 -9410.017578125 -4889.0078125 C -9410.0244140625 -4887.26416015625 -9410.0302734375 -4885.51953125 -9410.037109375 -4883.77490234375 C -9410.0458984375 -4881.1533203125 -9410.0556640625 -4878.53125 -9410.06640625 -4875.90966796875 L -9410.068359375 -4875.41162109375 L -9410.56640625 -4875.41162109375 L -9412.4248046875 -4875.41162109375 C -9412.427734375 -4874.62744140625 -9412.4306640625 -4873.84375 -9412.43359375 -4873.0595703125 C -9412.44140625 -4871.15087890625 -9412.44921875 -4869.24267578125 -9412.455078125 -4867.33349609375 C -9412.46484375 -4864.61572265625 -9413.3388671875 -4862.3212890625 -9415.0517578125 -4860.51318359375 C -9416.8955078125 -4858.5693359375 -9419.1455078125 -4857.5810546875 -9421.740234375 -4857.57666015625 C -9423.3447265625 -4857.57470703125 -9424.9482421875 -4857.57421875 -9426.5517578125 -4857.57421875 Z M -9444.0849609375 -4869.39892578125 L -9444.0791015625 -4869.396484375 C -9442.05859375 -4868.458984375 -9439.94140625 -4867.98388671875 -9437.7880859375 -4867.98388671875 C -9436.9013671875 -4867.98388671875 -9435.9912109375 -4868.06494140625 -9435.0830078125 -4868.22412109375 C -9431.091796875 -4868.92333984375 -9427.91015625 -4871.0107421875 -9425.62890625 -4874.42724609375 C -9425.2724609375 -4874.9599609375 -9424.9482421875 -4875.5185546875 -9424.63671875 -4876.1357421875 L -9424.498046875 -4876.41015625 L -9424.1904296875 -4876.41015625 L -9422.146484375 -4876.41015625 C -9421.2236328125 -4878.33984375 -9420.7421875 -4880.3955078125 -9420.71484375 -4882.52490234375 C -9420.7041015625 -4883.28173828125 -9420.4619140625 -4883.81396484375 -9419.9296875 -4884.25048828125 C -9419.611328125 -4884.51171875 -9419.3212890625 -4884.81005859375 -9419.0244140625 -4885.12744140625 C -9419.0693359375 -4885.11865234375 -9419.115234375 -4885.10986328125 -9419.16015625 -4885.1015625 C -9419.1767578125 -4885.0986328125 -9419.2041015625 -4885.091796875 -9419.23046875 -4885.0849609375 C -9419.3173828125 -4885.0625 -9419.435546875 -4885.03173828125 -9419.572265625 -4885.03173828125 C -9419.88671875 -4885.03173828125 -9420.1513671875 -4885.1953125 -9420.318359375 -4885.4931640625 L -9420.4892578125 -4885.79638671875 L -9420.263671875 -4886.0615234375 C -9420.1728515625 -4886.1689453125 -9420.080078125 -4886.27392578125 -9419.990234375 -4886.3759765625 C -9419.79296875 -4886.59912109375 -9419.6064453125 -4886.8095703125 -9419.4443359375 -4887.03271484375 C -9419.423828125 -4887.06005859375 -9419.40234375 -4887.0888671875 -9419.3818359375 -4887.11767578125 C -9419.359375 -4887.14794921875 -9419.337890625 -4887.17724609375 -9419.31640625 -4887.20654296875 C -9419.3173828125 -4887.2060546875 -9419.3173828125 -4887.2060546875 -9419.3173828125 -4887.2060546875 C -9419.603515625 -4887.08251953125 -9419.8994140625 -4886.95458984375 -9420.21484375 -4886.8603515625 C -9420.3173828125 -4886.82958984375 -9420.4111328125 -4886.80078125 -9420.49609375 -4886.7744140625 C -9420.8974609375 -4886.6513671875 -9421.138671875 -4886.57666015625 -9421.3935546875 -4886.57666015625 C -9421.833984375 -4886.57666015625 -9422.12109375 -4886.79833984375 -9422.642578125 -4887.20068359375 L -9422.73046875 -4887.2685546875 C -9423.5546875 -4887.90087890625 -9424.4716796875 -4888.2216796875 -9425.4560546875 -4888.2216796875 C -9425.7734375 -4888.2216796875 -9426.099609375 -4888.1875 -9426.4267578125 -4888.12109375 C -9428.8095703125 -4887.6337890625 -9430.4541015625 -4885.66259765625 -9430.42578125 -4883.32763671875 C -9430.4228515625 -4883.0751953125 -9430.4296875 -4882.83154296875 -9430.4365234375 -4882.5498046875 C -9430.439453125 -4882.4287109375 -9430.4423828125 -4882.30126953125 -9430.4453125 -4882.1650390625 L -9430.4560546875 -4881.63134765625 L -9430.9873046875 -4881.6767578125 C -9431.14453125 -4881.68994140625 -9431.29296875 -4881.7001953125 -9431.4365234375 -4881.70947265625 C -9431.734375 -4881.7294921875 -9432.015625 -4881.74853515625 -9432.2978515625 -4881.79345703125 C -9435.7734375 -4882.34326171875 -9438.7705078125 -4883.88427734375 -9441.2060546875 -4886.373046875 C -9441.3525390625 -4886.5224609375 -9441.5048828125 -4886.666015625 -9441.6767578125 -4886.82470703125 C -9441.681640625 -4886.8134765625 -9441.685546875 -4886.80322265625 -9441.6884765625 -4886.7939453125 L -9441.720703125 -4886.67529296875 C -9441.8466796875 -4886.22412109375 -9441.96484375 -4885.79833984375 -9441.982421875 -4885.38330078125 C -9442.005859375 -4884.89013671875 -9441.9638671875 -4884.34033203125 -9441.853515625 -4883.70068359375 C -9441.7119140625 -4882.87646484375 -9441.18359375 -4882.2080078125 -9440.6240234375 -4881.49951171875 C -9440.53125 -4881.3828125 -9440.439453125 -4881.265625 -9440.3486328125 -4881.1474609375 L -9439.9580078125 -4880.64111328125 L -9440.54296875 -4880.38427734375 C -9440.720703125 -4880.306640625 -9440.90625 -4880.267578125 -9441.095703125 -4880.267578125 C -9441.3857421875 -4880.267578125 -9441.634765625 -4880.35693359375 -9441.8349609375 -4880.4287109375 C -9441.9150390625 -4880.45751953125 -9441.9912109375 -4880.4853515625 -9442.060546875 -4880.5048828125 C -9442.05078125 -4880.41796875 -9442.01953125 -4880.30859375 -9441.9736328125 -4880.16064453125 L -9441.9580078125 -4880.111328125 C -9441.7529296875 -4879.462890625 -9441.552734375 -4878.9609375 -9441.3271484375 -4878.53369140625 C -9440.8056640625 -4877.54736328125 -9439.814453125 -4877.0009765625 -9438.85546875 -4876.47216796875 L -9438.3701171875 -4876.2041015625 L -9438.685546875 -4875.7490234375 C -9438.703125 -4875.7236328125 -9438.7177734375 -4875.70263671875 -9438.728515625 -4875.68505859375 C -9438.7490234375 -4875.6552734375 -9438.7646484375 -4875.63134765625 -9438.7783203125 -4875.61279296875 L -9438.9287109375 -4875.41162109375 L -9439.1796875 -4875.41162109375 L -9441.3857421875 -4875.41162109375 C -9441.412109375 -4875.4013671875 -9441.4404296875 -4875.392578125 -9441.4716796875 -4875.38671875 L -9441.484375 -4875.38427734375 L -9441.4970703125 -4875.38232421875 C -9441.7646484375 -4875.3427734375 -9442.0341796875 -4875.3056640625 -9442.3310546875 -4875.26611328125 C -9441.6806640625 -4874.0205078125 -9440.7109375 -4873.212890625 -9439.369140625 -4872.80078125 C -9439.326171875 -4872.7880859375 -9439.2734375 -4872.77587890625 -9439.2177734375 -4872.763671875 C -9439.1103515625 -4872.7392578125 -9438.98828125 -4872.7119140625 -9438.8623046875 -4872.66064453125 C -9438.8525390625 -4872.65771484375 -9438.8291015625 -4872.65234375 -9438.8115234375 -4872.6484375 C -9438.654296875 -4872.6123046875 -9438.1748046875 -4872.50341796875 -9438.115234375 -4871.9150390625 L -9438.0927734375 -4871.70361328125 L -9438.23046875 -4871.541015625 C -9438.5693359375 -4871.140625 -9439.017578125 -4870.91357421875 -9439.4130859375 -4870.712890625 C -9439.462890625 -4870.68798828125 -9439.51171875 -4870.6630859375 -9439.560546875 -4870.6376953125 C -9440.09375 -4870.3623046875 -9440.53515625 -4870.16845703125 -9440.9501953125 -4870.02734375 C -9441.4052734375 -4869.87158203125 -9441.9052734375 -4869.74072265625 -9442.5234375 -4869.615234375 C -9442.947265625 -4869.52978515625 -9443.4033203125 -4869.46533203125 -9444.0029296875 -4869.40673828125 C -9444.0302734375 -4869.40380859375 -9444.0576171875 -4869.4013671875 -9444.0849609375 -4869.39892578125 Z" stroke="none"/>
    <path d="M -9426.5517578125 -4858.07421875 C -9424.9482421875 -4858.07421875 -9423.3447265625 -4858.07470703125 -9421.7412109375 -4858.07666015625 C -9419.228515625 -4858.0810546875 -9417.126953125 -4859.0517578125 -9415.4150390625 -4860.857421875 C -9413.6982421875 -4862.66845703125 -9412.9638671875 -4864.86572265625 -9412.955078125 -4867.3349609375 C -9412.9462890625 -4870.19384765625 -9412.93359375 -4873.0517578125 -9412.9228515625 -4875.91015625 L -9424.1904296875 -4875.91015625 C -9424.4931640625 -4875.31103515625 -9424.830078125 -4874.72265625 -9425.212890625 -4874.1494140625 C -9427.5576171875 -4870.638671875 -9430.8203125 -4868.46337890625 -9434.9970703125 -4867.7314453125 C -9438.2138671875 -4867.166015625 -9441.3203125 -4867.5654296875 -9444.2900390625 -4868.94287109375 C -9444.7119140625 -4869.138671875 -9445.14453125 -4869.32666015625 -9445.5859375 -4869.8125 C -9444.97265625 -4869.84814453125 -9444.5107421875 -4869.85791015625 -9444.0517578125 -4869.904296875 C -9443.5732421875 -4869.951171875 -9443.09375 -4870.01025390625 -9442.623046875 -4870.10546875 C -9442.1142578125 -4870.20849609375 -9441.6025390625 -4870.33251953125 -9441.111328125 -4870.50048828125 C -9440.6572265625 -4870.6552734375 -9440.216796875 -4870.86181640625 -9439.7900390625 -4871.08203125 C -9439.3681640625 -4871.2998046875 -9438.9228515625 -4871.49755859375 -9438.6123046875 -4871.8642578125 C -9438.6435546875 -4872.16943359375 -9438.8896484375 -4872.13037109375 -9439.0498046875 -4872.197265625 C -9439.197265625 -4872.25732421875 -9439.3603515625 -4872.27587890625 -9439.515625 -4872.32275390625 C -9441.0166015625 -4872.78369140625 -9442.11328125 -4873.72314453125 -9442.8173828125 -4875.11962890625 C -9442.8857421875 -4875.25732421875 -9442.9072265625 -4875.4208984375 -9442.98046875 -4875.68310546875 C -9442.4267578125 -4875.7578125 -9441.998046875 -4875.81396484375 -9441.5693359375 -4875.876953125 C -9441.5595703125 -4875.87890625 -9441.548828125 -4875.89453125 -9441.5380859375 -4875.91015625 L -9452.9892578125 -4875.91015625 C -9452.9921875 -4872.9306640625 -9452.99609375 -4869.951171875 -9452.998046875 -4866.97119140625 C -9453 -4866.4912109375 -9452.994140625 -4866.00244140625 -9452.90625 -4865.53271484375 C -9452.07421875 -4861.142578125 -9448.423828125 -4858.11962890625 -9443.9462890625 -4858.10693359375 C -9440.287109375 -4858.09716796875 -9436.6259765625 -4858.1044921875 -9432.96484375 -4858.1044921875 L -9432.96484375 -4858.0751953125 C -9430.828125 -4858.0751953125 -9428.689453125 -4858.07421875 -9426.5517578125 -4858.07421875 M -9410.56640625 -4875.91162109375 C -9410.548828125 -4880.27734375 -9410.5341796875 -4884.64404296875 -9410.517578125 -4889.01025390625 C -9410.513671875 -4889.77490234375 -9410.5693359375 -4890.533203125 -9410.7763671875 -4891.2744140625 C -9411.767578125 -4894.83837890625 -9414.02734375 -4897.1103515625 -9417.6748046875 -4897.8994140625 C -9418.529296875 -4898.083984375 -9419.431640625 -4898.11669921875 -9420.3115234375 -4898.12060546875 C -9426.0634765625 -4898.14599609375 -9431.81640625 -4898.14697265625 -9437.5693359375 -4898.14892578125 C -9439.0966796875 -4898.150390625 -9440.625 -4898.15966796875 -9442.15234375 -4898.103515625 C -9446.701171875 -4897.93701171875 -9450.5849609375 -4894.0556640625 -9450.6025390625 -4889.248046875 C -9450.6171875 -4884.80322265625 -9450.625 -4880.357421875 -9450.630859375 -4875.91162109375 L -9439.1796875 -4875.91162109375 C -9439.1611328125 -4875.9365234375 -9439.1376953125 -4875.97509765625 -9439.0966796875 -4876.0341796875 C -9440.140625 -4876.60986328125 -9441.189453125 -4877.2041015625 -9441.76953125 -4878.30029296875 C -9442.046875 -4878.826171875 -9442.255859375 -4879.39404296875 -9442.435546875 -4879.96337890625 C -9442.5361328125 -4880.28857421875 -9442.6689453125 -4880.65673828125 -9442.4296875 -4881 C -9442.1640625 -4881.07958984375 -9441.9169921875 -4880.990234375 -9441.666015625 -4880.8994140625 C -9441.3779296875 -4880.79638671875 -9441.0869140625 -4880.69287109375 -9440.744140625 -4880.84228515625 C -9441.4111328125 -4881.70751953125 -9442.1572265625 -4882.5185546875 -9442.3466796875 -4883.6162109375 C -9442.447265625 -4884.20361328125 -9442.509765625 -4884.81201171875 -9442.482421875 -4885.4052734375 C -9442.4599609375 -4885.91748046875 -9442.3076171875 -4886.4287109375 -9442.169921875 -4886.92724609375 C -9442.1123046875 -4887.1357421875 -9441.9443359375 -4887.31396484375 -9441.771484375 -4887.595703125 C -9441.4169921875 -4887.26123046875 -9441.123046875 -4887.00244140625 -9440.8486328125 -4886.72265625 C -9438.4658203125 -4884.28759765625 -9435.5830078125 -4882.8193359375 -9432.2197265625 -4882.287109375 C -9431.830078125 -4882.2255859375 -9431.4326171875 -4882.21630859375 -9430.9453125 -4882.1748046875 C -9430.9365234375 -4882.6201171875 -9430.921875 -4882.970703125 -9430.92578125 -4883.3212890625 C -9430.95703125 -4885.876953125 -9429.1484375 -4888.07470703125 -9426.5263671875 -4888.61083984375 C -9425.0341796875 -4888.91650390625 -9423.6279296875 -4888.5869140625 -9422.4248046875 -4887.66455078125 C -9421.453125 -4886.91552734375 -9421.583984375 -4886.9716796875 -9420.3583984375 -4887.33935546875 C -9419.8994140625 -4887.4765625 -9419.4658203125 -4887.7001953125 -9419.017578125 -4887.8720703125 C -9418.8798828125 -4887.923828125 -9418.728515625 -4887.93359375 -9418.51171875 -4887.978515625 C -9418.5048828125 -4887.419921875 -9418.79296875 -4887.07861328125 -9419.0400390625 -4886.73779296875 C -9419.2958984375 -4886.38720703125 -9419.599609375 -4886.07080078125 -9419.8828125 -4885.73779296875 C -9419.701171875 -4885.41552734375 -9419.4482421875 -4885.55859375 -9419.2490234375 -4885.59375 C -9418.8251953125 -4885.67041015625 -9418.408203125 -4885.7900390625 -9417.802734375 -4885.93603515625 C -9417.9892578125 -4885.6162109375 -9418.052734375 -4885.43798828125 -9418.171875 -4885.31103515625 C -9418.6376953125 -4884.81591796875 -9419.0888671875 -4884.29345703125 -9419.6123046875 -4883.86376953125 C -9420.064453125 -4883.4931640625 -9420.20703125 -4883.07958984375 -9420.21484375 -4882.5185546875 C -9420.2451171875 -4880.16064453125 -9420.8046875 -4877.9580078125 -9421.833984375 -4875.91162109375 L -9410.56640625 -4875.91162109375 M -9426.5517578125 -4857.07421875 C -9428.69140625 -4857.07421875 -9430.8291015625 -4857.0751953125 -9432.96484375 -4857.0751953125 L -9433.96484375 -4857.0751953125 L -9433.96484375 -4857.1044921875 C -9435.826171875 -4857.10302734375 -9437.6875 -4857.10205078125 -9439.5517578125 -4857.10205078125 C -9441.251953125 -4857.10205078125 -9442.6494140625 -4857.103515625 -9443.94921875 -4857.10693359375 C -9446.380859375 -4857.11376953125 -9448.623046875 -4857.90966796875 -9450.431640625 -4859.408203125 C -9452.2412109375 -4860.90771484375 -9453.4365234375 -4862.96142578125 -9453.888671875 -4865.3466796875 C -9453.9931640625 -4865.90625 -9454 -4866.4580078125 -9453.998046875 -4866.97509765625 C -9453.9970703125 -4868.958984375 -9453.994140625 -4870.94580078125 -9453.9921875 -4872.93212890625 L -9453.98828125 -4876.91015625 L -9451.6298828125 -4876.91015625 C -9451.625 -4880.44580078125 -9451.6171875 -4884.8603515625 -9451.6025390625 -4889.25146484375 C -9451.5927734375 -4891.8154296875 -9450.595703125 -4894.251953125 -9448.794921875 -4896.11181640625 C -9447.015625 -4897.94970703125 -9444.6689453125 -4899.01220703125 -9442.1884765625 -4899.10302734375 C -9441.05859375 -4899.14453125 -9439.9208984375 -4899.150390625 -9438.8603515625 -4899.150390625 C -9438.6103515625 -4899.150390625 -9438.359375 -4899.14990234375 -9438.109375 -4899.1494140625 L -9436.896484375 -4899.14892578125 C -9431.458984375 -4899.14697265625 -9425.8369140625 -4899.14501953125 -9420.306640625 -4899.12060546875 C -9419.3974609375 -4899.11669921875 -9418.423828125 -4899.08447265625 -9417.4638671875 -4898.876953125 C -9415.4794921875 -4898.44775390625 -9413.8203125 -4897.595703125 -9412.5322265625 -4896.3447265625 C -9411.2744140625 -4895.1220703125 -9410.359375 -4893.50634765625 -9409.8125 -4891.54248046875 C -9409.6064453125 -4890.80322265625 -9409.5126953125 -4889.99658203125 -9409.517578125 -4889.00537109375 C -9409.5244140625 -4887.26220703125 -9409.5302734375 -4885.517578125 -9409.537109375 -4883.7734375 C -9409.5458984375 -4881.1513671875 -9409.5556640625 -4878.529296875 -9409.56640625 -4875.90771484375 L -9409.5703125 -4874.91162109375 L -9411.9267578125 -4874.91162109375 C -9411.9287109375 -4874.29345703125 -9411.931640625 -4873.67578125 -9411.93359375 -4873.0576171875 C -9411.94140625 -4871.1494140625 -9411.94921875 -4869.24072265625 -9411.955078125 -4867.33203125 C -9411.96484375 -4864.482421875 -9412.884765625 -4862.07275390625 -9414.689453125 -4860.16943359375 C -9416.630859375 -4858.1220703125 -9419.0029296875 -4857.08154296875 -9421.7392578125 -4857.07666015625 C -9423.34375 -4857.07470703125 -9424.9482421875 -4857.07421875 -9426.5517578125 -4857.07421875 Z M -9442.1640625 -4869.18017578125 C -9440.736328125 -4868.7177734375 -9439.271484375 -4868.48388671875 -9437.7880859375 -4868.48388671875 C -9436.9306640625 -4868.48388671875 -9436.048828125 -4868.56201171875 -9435.169921875 -4868.71630859375 C -9431.3173828125 -4869.3916015625 -9428.2470703125 -4871.40625 -9426.044921875 -4874.70458984375 C -9425.7001953125 -4875.220703125 -9425.3857421875 -4875.76220703125 -9425.0830078125 -4876.361328125 L -9424.8056640625 -4876.91015625 L -9422.46484375 -4876.91015625 C -9421.66015625 -4878.69140625 -9421.240234375 -4880.57958984375 -9421.21484375 -4882.53125 C -9421.20703125 -4883.1015625 -9421.09765625 -4883.93896484375 -9420.24609375 -4884.63720703125 C -9420.2275390625 -4884.65234375 -9420.208984375 -4884.66796875 -9420.1904296875 -4884.68359375 C -9420.419921875 -4884.80517578125 -9420.6142578125 -4884.9970703125 -9420.7548828125 -4885.248046875 L -9421.095703125 -4885.85546875 L -9420.841796875 -4886.15380859375 C -9421.033203125 -4886.10546875 -9421.208984375 -4886.07666015625 -9421.3935546875 -4886.07666015625 C -9422.0048828125 -4886.07666015625 -9422.3798828125 -4886.3662109375 -9422.9482421875 -4886.80517578125 L -9423.03515625 -4886.87255859375 C -9423.76953125 -4887.435546875 -9424.583984375 -4887.7216796875 -9425.4560546875 -4887.7216796875 C -9425.7392578125 -4887.7216796875 -9426.0322265625 -4887.69091796875 -9426.326171875 -4887.630859375 C -9428.470703125 -4887.1923828125 -9429.951171875 -4885.42529296875 -9429.92578125 -4883.33349609375 C -9429.9228515625 -4883.07177734375 -9429.9296875 -4882.81201171875 -9429.9365234375 -4882.537109375 C -9429.939453125 -4882.41650390625 -9429.9423828125 -4882.29052734375 -9429.9453125 -4882.1552734375 L -9429.966796875 -4881.087890625 L -9431.0302734375 -4881.17822265625 C -9431.1826171875 -4881.19140625 -9431.3291015625 -4881.201171875 -9431.470703125 -4881.2109375 C -9431.779296875 -4881.2314453125 -9432.0712890625 -4881.25146484375 -9432.3759765625 -4881.29931640625 C -9435.888671875 -4881.85498046875 -9438.9267578125 -4883.392578125 -9441.412109375 -4885.87060546875 C -9441.4501953125 -4885.693359375 -9441.4765625 -4885.52294921875 -9441.4833984375 -4885.361328125 C -9441.5048828125 -4884.90380859375 -9441.46484375 -4884.388671875 -9441.361328125 -4883.78515625 C -9441.240234375 -4883.0869140625 -9440.7734375 -4882.4951171875 -9440.2314453125 -4881.8095703125 C -9440.1376953125 -4881.69091796875 -9440.0439453125 -4881.572265625 -9439.9521484375 -4881.45263671875 L -9439.1708984375 -4880.43994140625 L -9440.3427734375 -4879.92626953125 C -9440.5830078125 -4879.82080078125 -9440.8369140625 -4879.767578125 -9441.095703125 -4879.767578125 C -9441.173828125 -4879.767578125 -9441.248046875 -4879.77197265625 -9441.3203125 -4879.7802734375 C -9441.1787109375 -4879.38525390625 -9441.0380859375 -4879.05615234375 -9440.884765625 -4878.7666015625 C -9440.43359375 -4877.9130859375 -9439.5087890625 -4877.4033203125 -9438.6142578125 -4876.90966796875 L -9437.642578125 -4876.37451171875 L -9438.275390625 -4875.4638671875 C -9438.2900390625 -4875.4423828125 -9438.3017578125 -4875.42431640625 -9438.3115234375 -4875.40966796875 C -9438.337890625 -4875.36962890625 -9438.359375 -4875.3388671875 -9438.3779296875 -4875.314453125 L -9438.677734375 -4874.91162109375 L -9441.30859375 -4874.91162109375 C -9441.3310546875 -4874.9052734375 -9441.3525390625 -4874.900390625 -9441.3740234375 -4874.896484375 L -9441.423828125 -4874.8876953125 C -9441.4501953125 -4874.8837890625 -9441.4775390625 -4874.8798828125 -9441.50390625 -4874.8759765625 C -9440.94140625 -4874.10107421875 -9440.1884765625 -4873.57568359375 -9439.2216796875 -4873.27880859375 C -9439.19921875 -4873.27197265625 -9439.1552734375 -4873.26171875 -9439.107421875 -4873.25146484375 C -9438.9970703125 -4873.2265625 -9438.8603515625 -4873.19580078125 -9438.708984375 -4873.13818359375 C -9438.7060546875 -4873.13720703125 -9438.703125 -4873.13671875 -9438.7001953125 -4873.1357421875 C -9437.8427734375 -4872.9404296875 -9437.6533203125 -4872.31884765625 -9437.6171875 -4871.96630859375 L -9437.57421875 -4871.54296875 L -9437.849609375 -4871.2177734375 C -9438.25390625 -4870.74072265625 -9438.771484375 -4870.47802734375 -9439.1865234375 -4870.26708984375 C -9439.2353515625 -4870.24267578125 -9439.283203125 -4870.21826171875 -9439.3310546875 -4870.193359375 C -9439.8876953125 -4869.90673828125 -9440.3505859375 -4869.70361328125 -9440.7890625 -4869.55419921875 C -9441.1982421875 -4869.4140625 -9441.640625 -4869.29345703125 -9442.1640625 -4869.18017578125 Z" stroke="none" fill="#fff"/>
  </g>
</svg>
