<svg xmlns="http://www.w3.org/2000/svg" width="59.482" height="36.954" viewBox="0 0 59.482 36.954">
  <path id="Path_9025" data-name="Path 9025" d="M-9439.138-4505.936c-4.6-.6-7.866-3.565-8.271-8.271a71.987,71.987,0,0,1-.592-9.056h1.829v-.179a75.883,75.883,0,0,1,.592-8.25c.406-4.622,3.667-7.562,8.271-8.27,4.819-.744,8.393-1.039,19.49-1.039,11.069,0,14.613.412,19.434,1.039,4.706.61,7.894,3.476,8.271,8.27a69.241,69.241,0,0,1,.592,8.428h-1.83c0,.089,0,.176,0,.266a63.812,63.812,0,0,1-.593,8.79,9.113,9.113,0,0,1-8.271,8.271c-4.819.649-8.96.89-19.435.89C-9430.474-4505.046-9434.3-4505.306-9439.138-4505.936Zm15.6-10.137,12.454-7.19h1.83l-12.454-7.191v7.191h-1.83Z" transform="translate(9448.502 4541.5)" fill="#16161e" stroke="#fff" stroke-width="1"/>
</svg>
